<svg width="146" height="60" viewBox="0 0 146 60" fill="none" xmlns="http://www.w3.org/2000/svg">
<path d="M59.0752 31.456C60.529 31.456 60.8109 32.2245 60.8109 34.0188C60.8109 36.5525 59.6862 36.5525 58.9834 36.5525H57.9532V31.456H59.0752ZM59.192 23.4829C60.2172 23.4829 60.6274 24.4345 60.6274 25.7475C60.6274 27.419 60.1073 28.0114 59.3757 28.0114H57.9532V23.4829H59.192ZM53.3048 20.0367V39.9999H59.7245C64.1877 39.9999 65.1251 37.0669 65.1251 34.6125C65.1251 32.5176 64.7681 30.3429 62.4507 29.6231C63.9839 28.9933 65.1848 27.4634 65.1848 25.3154C65.1848 20.5855 61.9381 20.0369 59.7465 20.0369H53.3047V20.0367H53.3048Z" fill="#A4A4A4"/>
<path d="M72.2018 31.456C73.6523 31.456 73.938 32.2245 73.938 34.0188C73.938 36.5521 72.8131 36.5521 72.1102 36.5521H71.0802V31.456H72.2018ZM72.3185 23.4829C73.3441 23.4829 73.7539 24.4345 73.7539 25.7475C73.7539 27.419 73.2336 28.0109 72.5025 28.0109H71.0801V23.4828L72.3185 23.4829ZM66.4285 20.0367V39.9999H72.8514C77.3173 39.9999 78.2541 37.0669 78.2541 34.6125C78.2541 32.5169 77.8944 30.3421 75.5808 29.6229C77.1106 28.9929 78.3118 27.4634 78.3118 25.315C78.3118 20.585 75.0606 20.0369 72.8727 20.0369H66.4285V20.0367Z" fill="#A4A4A4"/>
<path d="M86.6531 20.0367C86.6531 20.0367 84.9098 26.8093 84.5155 28.0378C84.1451 26.8037 82.5306 20.0367 82.5306 20.0367H78.1943C78.1943 20.0367 82.1197 32.9892 82.1443 33.0536V39.9999H86.7926V33.0558C86.8208 32.987 90.7321 20.037 90.7321 20.037H86.6531V20.0367Z" fill="#A4A4A4"/>
<path d="M99.6859 20.0367C99.6859 20.0367 97.9452 26.8093 97.548 28.0378C97.1772 26.8037 95.5631 20.0367 95.5631 20.0367H91.2336C91.2336 20.0367 95.1526 32.9892 95.1774 33.0536V39.9999H99.8249V33.0558C99.8535 32.987 103.765 20.037 103.765 20.037H99.6857L99.6859 20.0367Z" fill="#A4A4A4"/>
<path d="M44.5269 32.2964L45.7297 26.3358L46.932 32.2964H44.5269ZM48.4877 39.9999H52.4598L48.4307 20.0361H43.0293L39 39.9996H42.9718L43.8316 35.7469H47.6281L48.4877 39.9999Z" fill="#A4A4A4"/>
<path d="M106.067 20C106.9 20 107.548 20.6682 107.548 21.4829C107.548 22.3018 106.9 22.9667 106.067 22.9667C105.237 22.9667 104.582 22.3019 104.582 21.4829C104.582 20.668 105.237 20 106.067 20ZM106.067 22.7435C106.739 22.7435 107.268 22.1784 107.268 21.4828C107.268 20.784 106.735 20.2258 106.067 20.2258C105.396 20.2258 104.864 20.784 104.864 21.4828C104.864 22.1783 105.393 22.7435 106.067 22.7435ZM105.525 20.7307H106.178C106.337 20.7307 106.667 20.7717 106.667 21.1583C106.667 21.2593 106.642 21.4066 106.419 21.4973V21.5061C106.608 21.5412 106.621 21.711 106.633 21.8614C106.645 22.0894 106.633 22.1326 106.692 22.2108H106.404C106.357 22.1523 106.36 22.1181 106.352 21.8745C106.348 21.7399 106.337 21.5989 106.027 21.5989H105.799V22.2107H105.525L105.525 20.7307ZM105.799 21.3956H106.114C106.348 21.3956 106.387 21.264 106.387 21.1581C106.387 20.9786 106.265 20.9339 106.091 20.9339H105.799L105.799 21.3956Z" fill="#A4A4A4"/>
</svg>
