<svg width="146" height="60" viewBox="0 0 146 60" fill="none" xmlns="http://www.w3.org/2000/svg">
<path d="M115.919 36.3473C115.919 34.9184 117.083 33.807 118.459 33.807C119.888 33.807 121 34.9713 121 36.3473C121 37.7232 119.835 38.8875 118.459 38.8875C117.083 38.8875 115.919 37.7761 115.919 36.3473Z" fill="#A4A4A4"/>
<path d="M39.6064 29.5205C39.6064 32.4841 38.8655 34.7068 37.2779 36.2945C35.6902 37.8821 33.4675 38.6759 30.6097 38.6759H25V21.053H30.9272C33.7321 21.053 35.849 21.741 37.3308 23.2228C38.8655 24.6517 39.6064 26.7685 39.6064 29.5205ZM34.7376 29.6792C34.7376 28.0387 34.4201 26.8744 33.785 26.0805C33.2029 25.3396 32.1974 24.9163 30.9272 24.9163H29.6571V34.7597H30.7156C32.1444 34.7597 33.15 34.3363 33.8379 33.4896C34.4201 32.6428 34.7376 31.3727 34.7376 29.6792Z" fill="#A4A4A4"/>
<path d="M59.3991 21H55.0066V38.6759H59.3991V21Z" fill="#A4A4A4"/>
<path d="M73.8995 32.0607C73.8995 34.1776 73.3703 35.8711 72.206 37.0883C71.0418 38.3055 69.4541 38.8876 67.4431 38.8876C65.485 38.8876 63.9503 38.3055 62.786 37.0354C61.6217 35.7653 61.0396 34.1247 61.0396 32.0607C61.0396 29.9439 61.5688 28.2504 62.7331 27.0861C63.8973 25.8689 65.485 25.2867 67.496 25.2867C68.7661 25.2867 69.8775 25.5514 70.8301 26.0806C71.8356 26.6098 72.5236 27.4036 73.0528 28.4091C73.6879 29.5205 73.8995 30.6848 73.8995 32.0607ZM65.5908 32.0607C65.5908 33.225 65.7496 34.0188 66.0142 34.601C66.2788 35.1831 66.7551 35.4477 67.496 35.4477C68.2369 35.4477 68.6603 35.1831 68.9778 34.601C69.2424 34.0188 69.4012 33.1192 69.4012 32.0607C69.4012 30.8965 69.2424 30.1026 68.9778 29.5205C68.7132 28.9913 68.2369 28.6737 67.496 28.6737C66.8609 28.6737 66.3317 28.9383 66.0142 29.5205C65.7496 30.1026 65.5908 30.8965 65.5908 32.0607Z" fill="#A4A4A4"/>
<path d="M80.092 25.4984H75.6995V38.623H80.092V25.4984Z" fill="#A4A4A4"/>
<path d="M80.092 21H75.6995V23.9636H80.092V21Z" fill="#A4A4A4"/>
<path d="M89.0352 35.2888C89.6173 35.2888 90.3582 35.13 91.1521 34.8654V38.1995C90.5699 38.4641 89.9878 38.6229 89.4586 38.7287C88.9294 38.8345 88.2943 38.8875 87.5534 38.8875C86.0716 38.8875 85.0131 38.517 84.3252 37.7232C83.6901 36.9823 83.3196 35.818 83.3196 34.2833V28.8852H81.7849V25.4983H83.3196V22.2171L87.7651 21.4762V25.6041H90.6228V28.9382H87.7651V34.0187C87.8709 34.9183 88.2414 35.2888 89.0352 35.2888Z" fill="#A4A4A4"/>
<path d="M99.302 35.2888C99.8842 35.2888 100.625 35.13 101.419 34.8654V38.1995C100.837 38.4641 100.255 38.6229 99.7254 38.7287C99.1962 38.8345 98.5611 38.8875 97.8202 38.8875C96.3384 38.8875 95.28 38.517 94.592 37.7232C93.9569 36.9823 93.5865 35.818 93.5865 34.2833V28.8852H92.0518V25.4983H93.5865V22.1642L98.0319 21.4762V25.6041H100.89V28.9382H98.0319V34.0187C98.0848 34.9183 98.5082 35.2888 99.302 35.2888Z" fill="#A4A4A4"/>
<path d="M113.274 26.8215C112.215 25.763 110.734 25.2867 108.828 25.2867C106.817 25.2867 105.23 25.8689 104.118 27.0861C103.007 28.3033 102.478 29.9968 102.478 32.2195C102.478 34.3364 103.06 36.0299 104.224 37.1941C105.441 38.3584 107.082 38.9406 109.199 38.9406C110.257 38.9406 111.104 38.8876 111.845 38.7289C112.533 38.5701 113.327 38.3584 113.962 37.988L113.327 35.0244C112.85 35.236 112.321 35.3948 111.898 35.5006C111.263 35.6594 110.522 35.7123 109.781 35.7123C108.934 35.7123 108.246 35.5006 107.77 35.1302C107.294 34.7068 107.029 34.1247 107.029 33.3838H114.914V31.3198C114.861 29.3617 114.279 27.8799 113.274 26.8215ZM107.029 30.4731C107.082 29.7851 107.294 29.203 107.611 28.8854C107.929 28.5679 108.352 28.4091 108.934 28.4091C109.463 28.4091 109.993 28.5679 110.31 28.9383C110.628 29.3088 110.787 29.7851 110.839 30.4731H107.029Z" fill="#A4A4A4"/>
<path d="M51.7252 26.8215C50.6139 25.763 49.185 25.2867 47.2798 25.2867C45.2688 25.2867 43.6811 25.8689 42.5698 27.0861C41.4584 28.3033 40.9292 29.9968 40.9292 32.2195C40.9292 34.3364 41.5113 36.0299 42.6756 37.1941C43.8928 38.3584 45.5334 38.9406 47.6503 38.9406C48.7087 38.9406 49.5554 38.8876 50.2964 38.7289C50.9843 38.5701 51.7782 38.3584 52.4132 37.988L51.7782 34.9714C51.3019 35.1831 50.7727 35.3419 50.3493 35.4477C49.7142 35.6065 48.9733 35.6594 48.2324 35.6594C47.3857 35.6594 46.6977 35.4477 46.2214 35.0773C45.7451 34.6539 45.4805 34.0718 45.4805 33.3309H53.3658V31.3198C53.3129 29.3617 52.7308 27.8799 51.7252 26.8215ZM45.4275 30.4731C45.4805 29.7851 45.6922 29.203 46.0097 28.8854C46.3272 28.5679 46.7506 28.4091 47.3327 28.4091C47.9149 28.4091 48.3912 28.5679 48.7087 28.9383C49.0262 29.3088 49.185 29.7851 49.2379 30.4731H45.4275Z" fill="#A4A4A4"/>
</svg>
