<svg width="146" height="60" viewBox="0 0 146 60" fill="none" xmlns="http://www.w3.org/2000/svg">
<path fill-rule="evenodd" clip-rule="evenodd" d="M42.8404 15.1599H43.2757C42.1813 16.8395 41.0789 17.2165 39.9405 19.2199C38.8455 21.2338 37.3816 25.6565 37.3307 25.7452C34.3508 32.0225 34.0173 31.9357 33.8511 32.56C41.3976 25.0476 45.0825 16.0533 52.6278 15.0873C54.0731 14.8641 54.7601 15.0904 55.8904 15.522C55.8935 15.9213 55.8259 15.8537 55.8904 16.0298C54.4959 15.3924 53.7786 15.468 52.9179 15.667C49.8698 16.5339 47.3283 24.5832 46.6103 25.7446C45.1681 28.2086 45.2691 31.6157 38.6353 35.0241H38.055C38.2217 34.675 39.7154 31.8334 42.5502 25.8896C46.0671 18.6091 48.5324 18.1156 48.7854 17.0448C39.7737 22.4807 37.4827 33.3128 29.6447 35.8946C29.5796 35.7198 29.5065 35.5604 29.4996 35.3143C29.5065 35.096 29.8834 34.8207 30.6597 32.849C30.7106 32.7467 33.422 24.9019 33.4146 24.8746C35.3789 20.7979 38.2503 18.7102 38.4896 17.7696C29.6373 23.1044 27.6798 35.9231 19.6398 35.8946C16.8762 35.9231 15.0062 34.8064 15 32.5594C15.0062 31.1377 15.731 30.4122 17.03 30.3849C18.5733 30.4122 18.6316 31.4998 18.6254 32.1248C18.6316 33.7338 17.6166 33.0951 17.6104 34.1548C17.6166 34.9075 18.8926 35.633 19.9306 35.6044C23.5764 35.633 28.3036 28.89 30.9505 25.1648C35.9307 18.2756 37.3084 17.8403 42.8404 15.1599Z" fill="#A4A4A4"/>
<path fill-rule="evenodd" clip-rule="evenodd" d="M55.3105 25.1648C56.6671 25.1921 58.9439 25.8158 58.9359 27.3399C58.9439 29.8331 53.7963 31.0651 52.7007 30.6751C55.9138 28.7883 55.8561 27.4385 56.1085 26.9772C56.1203 26.9474 56.4185 26.6275 56.398 26.1073C56.3466 25.4748 55.4636 25.6273 55.4556 25.6001C52.8099 26.1494 50.8232 30.8475 50.8158 32.9953C50.8239 34.7345 51.8972 35.4885 53.136 35.4606C59.3941 35.4885 61.1339 25.7731 63.2861 25.7458H66.186V26.4706C65.455 27.9339 65.0054 28.0498 64.8808 28.9359C65.716 28.4708 68.7468 25.6137 69.0859 25.4556C69.3563 25.3818 71.1978 25.4544 72.1309 25.1654V26.0353C71.5605 27.1942 70.9801 27.9048 70.9708 29.0803C70.9795 30.2101 71.3714 30.4128 72.2754 30.3855C72.5023 30.4128 76.3453 25.4829 79.8157 25.4556H81.4105C82.3194 25.4829 84.0307 26.1066 84.0208 27.3405C84.0307 28.8472 82.4639 29.8337 81.4105 29.8058C79.7525 29.8331 81.6374 25.7731 79.9608 25.7458C79.448 25.7731 75.9095 29.2242 75.9002 32.7057C75.9095 34.1256 76.62 35.6342 77.9302 35.6057C83.5657 35.6342 85.7123 25.6286 87.9358 25.6007H89.9651C90.3521 25.628 90.4971 25.512 90.8351 26.181L86.0496 34.5906C86.3212 35.0104 86.625 35.4885 87.0652 35.4606C89.6998 35.4885 94.4263 25.9615 95.4748 25.8902C99.2552 25.729 98.2979 26.0794 98.5199 25.8902C98.9018 26.4191 98.6513 26.2722 98.5199 26.6151C98.1088 27.9296 93.89 32.994 93.8801 35.0247C93.8906 35.4878 94.1225 35.5753 94.3147 35.7501C101.112 31.7174 97.3994 33.5304 102.87 25.8902C104.012 25.9175 104.81 25.9615 106.35 25.8902V26.6151L105.045 28.6451L105.335 28.7902C106.492 27.6722 108.84 25.4829 109.975 25.455H112.15C112.19 25.6999 112.161 25.729 112.15 25.8902C112.161 26.9183 111.001 27.3969 110.99 28.9353C111.002 29.8907 111.219 30.1952 111.716 30.6757C115.99 28.1509 114.888 25.7731 117.37 25.7452H119.836V26.47C115.598 33.5887 115.062 33.6903 115.051 34.59C115.062 35.14 114.98 35.0104 115.051 35.2429C115.058 35.4246 115.177 35.6701 115.195 35.6776C118.251 36.0037 121.21 30.5579 123.895 26.0347C125.833 26.0626 124.864 26.0787 126.94 26.1073C126.96 26.0787 127.348 26.0601 127.52 26.1798C127.676 26.305 127.532 26.6424 127.52 26.6144L122.373 35.1698C125.305 34.9974 129.904 30.4587 130.638 29.6601C130.869 29.5429 130.763 29.7543 131 29.6601C126.807 34.4617 122.022 35.9231 122.01 35.8946C121.71 36.5766 122.036 36.0967 119.981 39.0853C116.657 44.0295 111.074 45.4934 108.09 45.4649C107.361 45.4934 107.361 45.4934 106.35 45.4649C103.968 45.4934 102.155 43.0722 102.145 41.4049C102.156 38.4175 104.447 38.2142 105.48 37.7795H107.075C106.694 38.722 105.49 39.693 105.48 42.1297C105.491 43.5217 106.81 45.2039 108.38 45.1747C113.075 45.2039 118.889 35.3719 118.821 34.2998C118.368 34.603 115.7 36.5035 113.891 36.4749C112.35 36.5035 112.017 35.3285 112.006 34.0097C112.017 31.7465 112.669 32.3697 112.44 30.8196C111.103 31.1085 111.175 31.4272 110.121 31.3999C108.246 31.4278 107.086 30.0644 107.076 28.2098C102.982 29.6006 101.678 36.0676 100.261 36.0397H97.361C96.9022 35.8965 97.3424 35.4147 97.9414 34.2992C97.4441 34.4722 94.3116 36.5028 93.0114 36.4743C90.8313 36.5028 90.9622 34.298 90.401 33.5744C90.0923 33.7908 87.1626 36.5028 85.6162 36.4743C83.6246 36.5028 83.0883 35.0668 83.0064 33.5744C81.7106 33.8633 79.3761 36.3571 76.7707 36.3292H75.61C73.792 36.3571 72.2847 34.675 72.2754 32.994C72.2847 33.0219 72.4583 32.8043 72.5656 30.964C71.6752 30.6149 72.2122 31.137 70.2454 31.1091C67.0788 31.137 67.2091 29.1355 67.2004 27.7739C63.5986 29.0047 61.5251 35.8785 60.0953 35.894C58.9724 35.9516 58.3344 35.8642 57.1954 35.894L56.9058 35.6763C56.8494 35.1654 57.1396 35.0272 57.4856 34.1541C57.4936 34.182 53.2309 36.3571 50.9609 36.3292C48.2426 36.3571 47.4738 34.7915 47.046 33.1385C46.2994 33.3555 43.5589 36.067 38.3462 36.0391C37.6282 36.067 38.1937 36.067 34.2862 36.0391C34.2638 35.8493 34.293 35.8202 34.2862 35.6038C34.293 35.1096 34.3079 35.197 35.011 35.1691L38.4913 35.7495C48.7498 35.778 47.4006 25.1921 55.3105 25.1648Z" fill="#A4A4A4"/>
</svg>
