<svg width="146" height="60" viewBox="0 0 146 60" fill="none" xmlns="http://www.w3.org/2000/svg">
<path d="M40.0636 34.5086H34.4038V26.5109H40.0636V27.9919H36.1018V29.6884H39.9828V31.1964H36.1018V33.0006H40.0636V34.5086Z" fill="#A4A4A4"/>
<path d="M45.8585 34.5086H44.1336V27.9919H41.7888V26.5109H48.1763V27.9919H45.8585V34.5086Z" fill="#A4A4A4"/>
<path d="M53.0005 34.6433C51.5721 34.6433 50.4671 34.2124 49.6316 33.3776L50.548 32.085C51.2217 32.8121 52.0842 33.1622 53.0814 33.1622C53.5126 33.1622 53.863 33.0814 54.1056 32.8929C54.3481 32.7313 54.4829 32.5159 54.4829 32.2736C54.4829 32.0582 54.375 31.8696 54.1325 31.735C53.9169 31.6003 53.6204 31.4926 53.2701 31.4119C52.9197 31.358 52.5693 31.2503 52.165 31.1425C51.7607 31.0348 51.3835 30.8733 51.06 30.7386C50.7096 30.5771 50.4402 30.3347 50.1976 30.0116C49.955 29.6884 49.8472 29.2845 49.8472 28.7998C49.8472 28.0996 50.1167 27.5341 50.6827 27.0763C51.2217 26.6186 51.9764 26.3762 52.8927 26.3762C54.1594 26.3762 55.2105 26.7532 56.0191 27.4803L55.0758 28.719C54.4559 28.1266 53.6743 27.8573 52.758 27.8573C52.4076 27.8573 52.1111 27.9381 51.9225 28.0727C51.7338 28.2073 51.626 28.4228 51.626 28.6651C51.626 28.8536 51.7338 29.0152 51.9764 29.1498C52.192 29.2845 52.4884 29.3922 52.8388 29.4461C53.1892 29.4999 53.5395 29.6076 53.9438 29.7153C54.3481 29.85 54.6985 29.9846 55.0489 30.1462C55.3992 30.3078 55.6688 30.5501 55.9113 30.8733C56.1269 31.1964 56.2617 31.6003 56.2617 32.0582C56.2617 32.8121 55.9922 33.4315 55.4531 33.9162C54.8333 34.4009 54.0247 34.6433 53.0005 34.6433Z" fill="#A4A4A4"/>
<path fill-rule="evenodd" clip-rule="evenodd" d="M9 32.7403V26.7083C9 25.0387 9.8894 23.4769 11.3448 22.6421L16.5464 19.6261C17.9749 18.7913 19.7537 18.7913 21.209 19.6261L26.4376 22.669C27.893 23.5038 28.7824 25.0387 28.7824 26.7083V32.7403C28.7824 34.4099 27.893 35.9448 26.4376 36.7796L21.209 39.7956C19.7806 40.6303 18.0018 40.6303 16.5464 39.7956L11.3448 36.7796C9.8894 35.9448 9 34.4099 9 32.7403ZM17.6244 37.1567C18.0287 37.3721 18.4599 37.4798 18.8912 37.4798C19.3493 37.4798 19.7806 37.3721 20.1848 37.1567L24.4971 34.8139C25.2248 34.4099 25.4673 33.5213 25.09 32.8211C24.6858 32.0941 23.7963 31.8517 23.0956 32.2287L18.9181 34.5176L15.118 32.4442C14.6867 32.2287 14.4172 31.7979 14.4172 31.367V28.0548C14.4172 27.6239 14.6867 27.22 15.118 26.9777L18.5408 25.1196C18.7564 24.9849 19.0259 24.9849 19.2415 25.0927L22.0445 26.8969L19.538 28.2164C18.8373 28.6203 18.5677 29.482 18.9451 30.2091C19.3224 30.9092 20.2118 31.1785 20.9125 30.8015L24.5779 28.8357C24.5914 28.8223 24.6049 28.8155 24.6184 28.8088C24.6319 28.8021 24.6453 28.7953 24.6588 28.7819C25.3326 28.378 25.7099 27.6778 25.7099 26.9238C25.7099 26.1698 25.3056 25.4966 24.6588 25.0927L20.7239 22.5883C20.7104 22.5748 20.6969 22.5681 20.6834 22.5614C20.67 22.5546 20.6565 22.5479 20.643 22.5344C19.565 21.942 18.1904 21.942 17.1124 22.5344L13.6895 24.3925C12.3419 25.1465 11.4795 26.5468 11.4795 28.0548V31.3401C11.4795 32.8481 12.315 34.2484 13.6895 35.0023L17.6244 37.1567Z" fill="#A4A4A4"/>
<path d="M60.5084 34.0253H59.3765V27.0778H60.5084V34.0253Z" fill="#A4A4A4"/>
<path d="M65.6291 34.0253H64.5784V30.6054C64.5784 30.0668 64.3358 29.7975 63.8506 29.7975C63.6348 29.7975 63.4463 29.8783 63.2577 30.0129C63.0687 30.1476 62.9343 30.3092 62.8266 30.4976V34.0253H61.8022V28.9897H62.8534V29.6629C62.9884 29.4474 63.2037 29.2589 63.4463 29.1243C63.7156 28.9627 63.9855 28.882 64.2817 28.882C65.1712 28.882 65.6023 29.3397 65.6023 30.2553L65.6291 34.0253Z" fill="#A4A4A4"/>
<path d="M68.1898 34.1598C67.4085 34.1598 67.0309 33.7559 67.0309 32.9211V29.9051H66.3845V28.9896H67.0309V27.6162H68.0822V28.9896H68.9176V29.9051H68.0822V32.6787C68.0822 33.0558 68.2171 33.2173 68.4597 33.2173C68.6483 33.2173 68.7832 33.1635 68.8641 33.0558L69.1067 33.8367C68.8909 34.0521 68.5942 34.1598 68.1898 34.1598Z" fill="#A4A4A4"/>
<path d="M71.8013 34.1599C71.1276 34.1599 70.5616 33.9176 70.1572 33.4329C69.7529 32.9482 69.5376 32.3019 69.5376 31.5209C69.5376 30.767 69.7261 30.1476 70.1304 29.6359C70.5348 29.1243 71.0468 28.882 71.6937 28.882C72.3406 28.882 72.8526 29.1243 73.2296 29.6359C73.6072 30.1476 73.7689 30.767 73.7689 31.5748V31.871H70.5883C70.6156 32.3019 70.7233 32.652 70.9659 32.9212C71.1817 33.1905 71.5052 33.3251 71.909 33.3251C72.3674 33.3251 72.745 33.1367 73.0411 32.7866L73.5531 33.4059C73.0679 33.8907 72.5024 34.1599 71.8013 34.1599ZM72.7717 31.117C72.7717 30.74 72.6641 30.4169 72.5024 30.1476C72.3133 29.8783 72.0439 29.7167 71.6937 29.7167C71.3434 29.7167 71.0735 29.8514 70.885 30.1476C70.6965 30.4438 70.6156 30.767 70.5883 31.117H72.7717Z" fill="#A4A4A4"/>
<path d="M75.7634 34.0253H74.7122V28.9896H75.7634V29.7167C75.9252 29.4743 76.1137 29.2589 76.3563 29.0973C76.5989 28.9357 76.8682 28.855 77.1376 28.855V29.8782C77.0568 29.8514 76.9764 29.8514 76.8682 29.8514C76.653 29.8514 76.4371 29.9321 76.2213 30.0668C76.006 30.2014 75.8443 30.363 75.7366 30.5515V34.0253H75.7634Z" fill="#A4A4A4"/>
<path d="M81.7195 34.0253H80.6683V30.6053C80.6683 30.0668 80.4257 29.7975 79.9405 29.7975C79.7252 29.7975 79.5367 29.8782 79.3476 30.0129C79.1591 30.1476 79.0241 30.3091 78.9165 30.4976V34.0253H77.8652V28.9896H78.9165V29.6628C79.0515 29.4474 79.2667 29.2589 79.5367 29.0973C79.806 28.9357 80.0754 28.855 80.3721 28.855C81.2611 28.855 81.6928 29.3128 81.6928 30.2283L81.7195 34.0253Z" fill="#A4A4A4"/>
<path d="M86.5978 34.0253H85.5733V33.5136C85.2771 33.9445 84.8187 34.1599 84.2532 34.1599C83.8215 34.1599 83.4713 33.9984 83.1478 33.7022C82.8517 33.4059 82.6899 33.002 82.6899 32.4904C82.6899 31.9787 82.8517 31.5748 83.1478 31.2786C83.4445 30.9824 83.8215 30.8477 84.2532 30.8477C84.846 30.8477 85.2771 31.0362 85.5733 31.4401V30.7131C85.5733 30.4169 85.493 30.1745 85.3312 30.0129C85.1695 29.8514 84.9269 29.7706 84.6034 29.7706C84.145 29.7706 83.7407 29.9591 83.3637 30.3361L82.9325 29.609C83.4172 29.1243 84.0374 28.882 84.7652 28.882C85.3312 28.882 85.7623 29.0166 86.0858 29.3128C86.4093 29.5821 86.571 30.0129 86.571 30.6054V34.0253H86.5978ZM84.6034 33.4329C85.0078 33.4329 85.3312 33.2444 85.5465 32.8943V32.1403C85.4389 31.9787 85.3039 31.8172 85.1422 31.7363C84.9805 31.6286 84.7919 31.5748 84.6034 31.5748C84.3335 31.5748 84.1182 31.6556 83.9565 31.8441C83.7948 32.0057 83.7139 32.248 83.7139 32.5173C83.7139 32.7866 83.7948 33.0289 83.9565 33.1905C84.145 33.3521 84.3608 33.4329 84.6034 33.4329Z" fill="#A4A4A4"/>
<path d="M89.1581 34.1598C88.3768 34.1598 87.9992 33.7559 87.9992 32.9211V29.9051H87.3523V28.9896H87.9992V27.6162H89.0505V28.9896H89.8859V29.9051H89.0505V32.6787C89.0505 33.0558 89.1849 33.2173 89.4275 33.2173C89.6166 33.2173 89.751 33.1635 89.8319 33.0558L90.0745 33.8367C89.8586 34.0521 89.5625 34.1598 89.1581 34.1598Z" fill="#A4A4A4"/>
<path d="M91.2878 28.3703C91.0988 28.3703 90.9643 28.3165 90.8294 28.1818C90.6944 28.0472 90.6409 27.9126 90.6409 27.7241C90.6409 27.5355 90.6944 27.4009 90.8294 27.2663C90.9643 27.1316 91.0988 27.0778 91.2878 27.0778C91.4763 27.0778 91.6113 27.1316 91.7457 27.2663C91.8806 27.4009 91.9342 27.5625 91.9342 27.7241C91.9342 27.8856 91.8806 28.0472 91.7457 28.1818C91.6113 28.3165 91.4495 28.3703 91.2878 28.3703ZM91.7998 34.0253H90.7485V28.9897H91.7998V34.0253Z" fill="#A4A4A4"/>
<path d="M96.5428 33.4059C96.1652 33.9176 95.6264 34.1599 94.9527 34.1599C94.279 34.1599 93.7397 33.9176 93.3627 33.4059C92.9851 32.8943 92.7966 32.2749 92.7966 31.5209C92.7966 30.767 92.9851 30.1476 93.3627 29.6359C93.7397 29.1243 94.279 28.882 94.9527 28.882C95.6264 28.882 96.1652 29.1243 96.5428 29.6359C96.9203 30.1476 97.1088 30.767 97.1088 31.5209C97.1088 32.2749 96.9203 32.8943 96.5428 33.4059ZM94.1173 32.7327C94.3058 33.0559 94.5752 33.2444 94.9254 33.2444C95.2762 33.2444 95.5723 33.0828 95.7341 32.7327C95.9226 32.4096 96.0035 31.9787 96.0035 31.494C96.0035 31.0093 95.9226 30.6054 95.7341 30.2822C95.5456 29.9591 95.2762 29.7975 94.9254 29.7975C94.5752 29.7975 94.279 29.9591 94.1173 30.2822C93.9282 30.6054 93.8474 31.0093 93.8474 31.494C93.8474 32.0057 93.9282 32.4096 94.1173 32.7327Z" fill="#A4A4A4"/>
<path d="M101.907 34.0253H100.855V30.6053C100.855 30.0668 100.613 29.7975 100.127 29.7975C99.9122 29.7975 99.7231 29.8782 99.5346 30.0129C99.3461 30.1476 99.2112 30.3091 99.1035 30.4976V34.0253H98.0522V28.9896H99.1035V29.6628C99.2385 29.4474 99.4538 29.2589 99.7231 29.0973C99.9931 28.9357 100.262 28.855 100.559 28.855C101.448 28.855 101.879 29.3128 101.879 30.2283L101.907 34.0253Z" fill="#A4A4A4"/>
<path d="M106.757 34.0253H105.733V33.5136C105.437 33.9445 104.979 34.1599 104.413 34.1599C103.982 34.1599 103.632 33.9984 103.308 33.7022C103.011 33.4059 102.85 33.002 102.85 32.4904C102.85 31.9787 103.011 31.5748 103.308 31.2786C103.604 30.9824 103.982 30.8477 104.413 30.8477C105.006 30.8477 105.437 31.0362 105.733 31.4401V30.7131C105.733 30.4169 105.653 30.1745 105.491 30.0129C105.329 29.8514 105.087 29.7706 104.763 29.7706C104.305 29.7706 103.901 29.9591 103.523 30.3361L103.119 29.609C103.604 29.1243 104.224 28.882 104.952 28.882C105.518 28.882 105.949 29.0166 106.273 29.3128C106.596 29.5821 106.757 30.0129 106.757 30.6054V34.0253ZM104.79 33.4329C105.195 33.4329 105.518 33.2444 105.733 32.8943V32.1403C105.626 31.9787 105.491 31.8172 105.329 31.7363C105.167 31.6286 104.979 31.5748 104.79 31.5748C104.52 31.5748 104.305 31.6556 104.143 31.8441C103.982 32.0057 103.901 32.248 103.901 32.5173C103.901 32.7866 103.982 33.0289 104.143 33.1905C104.305 33.3521 104.52 33.4329 104.79 33.4329Z" fill="#A4A4A4"/>
<path d="M109.048 34.0253H107.997V27.0778H109.048V34.0253Z" fill="#A4A4A4"/>
<path d="M115.085 34.1598C114.223 34.1598 113.549 33.8367 113.037 33.1635C112.525 32.4903 112.256 31.6286 112.256 30.5514C112.256 29.4743 112.525 28.6125 113.037 27.9394C113.549 27.2931 114.25 26.943 115.085 26.943C116.083 26.943 116.81 27.4277 117.296 28.424L116.352 28.8819C116.056 28.2894 115.625 27.9932 115.085 27.9932C114.573 27.9932 114.196 28.2356 113.872 28.6934C113.576 29.1511 113.415 29.7705 113.415 30.5784C113.415 31.3593 113.576 31.9786 113.872 32.4634C114.169 32.9211 114.573 33.1635 115.085 33.1635C115.571 33.1635 115.948 33.0019 116.244 32.6519V31.3593H114.789V30.336H117.349V33.0827C116.73 33.8098 115.975 34.1598 115.085 34.1598Z" fill="#A4A4A4"/>
<path d="M124.734 34.0253H123.683V30.5246C123.683 30.0399 123.467 29.7975 123.063 29.7975C122.874 29.7975 122.686 29.8783 122.497 30.0129C122.308 30.1476 122.174 30.3092 122.093 30.4976V34.0253H121.042V30.5246C121.042 30.0399 120.826 29.7975 120.422 29.7975C120.233 29.7975 120.045 29.8783 119.883 30.0129C119.721 30.1476 119.587 30.3092 119.478 30.4976V34.0253H118.428V28.9897H119.478V29.6629C119.587 29.4744 119.775 29.2859 120.045 29.1243C120.314 28.9627 120.584 28.882 120.88 28.882C121.203 28.882 121.473 28.9627 121.662 29.1243C121.877 29.2859 121.985 29.5013 122.039 29.7706C122.174 29.5282 122.362 29.3397 122.632 29.1512C122.902 28.9627 123.198 28.882 123.495 28.882C124.303 28.882 124.734 29.3128 124.734 30.2014V34.0253Z" fill="#A4A4A4"/>
<path d="M126.998 34.0253H125.947V27.0778H126.998V29.6629C127.295 29.1243 127.726 28.8551 128.292 28.8551C128.857 28.8551 129.289 29.0974 129.639 29.5821C129.963 30.0668 130.125 30.7131 130.125 31.4941C130.125 32.3019 129.963 32.9482 129.639 33.406C129.316 33.8907 128.857 34.1061 128.292 34.1061C127.753 34.1061 127.322 33.8368 126.998 33.3252V34.0253ZM126.998 32.5442C127.079 32.7328 127.214 32.8943 127.402 33.029C127.591 33.1636 127.779 33.2175 127.968 33.2175C128.319 33.2175 128.588 33.0559 128.777 32.7328C128.966 32.4096 129.046 32.0057 129.046 31.4941C129.046 30.9824 128.966 30.5516 128.777 30.2553C128.588 29.9322 128.319 29.7706 127.968 29.7706C127.779 29.7706 127.591 29.8514 127.402 29.986C127.214 30.1207 127.079 30.2823 126.998 30.4707V32.5442Z" fill="#A4A4A4"/>
<path d="M136 34.0253H134.841V30.9824H132.307V34.0253H131.148V27.0778H132.307V29.9591H134.841V27.0778H136V34.0253Z" fill="#A4A4A4"/>
</svg>
