<svg width="146" height="60" viewBox="0 0 146 60" fill="none" xmlns="http://www.w3.org/2000/svg">
<path fill-rule="evenodd" clip-rule="evenodd" d="M70.4766 14.2701C70.4766 20.4882 75.6411 21.72 77.974 26.3526C79.3087 29.0024 79.2472 31.9955 78.8937 34.9372C78.8431 35.3587 78.7553 35.8282 78.6682 36.3181C78.5825 36.8001 78.4189 37.2171 78.4089 37.6656C78.7778 37.3953 79.8111 35.1151 79.9793 34.6169C81.1814 31.0546 80.9443 27.1136 79.3814 23.7404C78.1896 21.1689 75.1583 18.1225 73.7208 15.5446C73.2797 14.7539 72.9564 14.1468 72.6462 13.205C72.411 12.4904 72.1276 11.3805 72.0879 10.4641C72.0828 10.3463 72.1058 10.0036 71.9436 10C71.7467 10.4728 71.5092 10.9758 71.2918 11.4406C70.9151 12.2472 70.4745 13.2416 70.4766 14.2701Z" fill="#A4A4A4"/>
<path fill-rule="evenodd" clip-rule="evenodd" d="M75.8986 38.4691C76.1339 38.2966 76.2885 37.7383 76.5166 37.1793C77.1951 35.5177 77.1719 33.7656 76.8452 31.9999C75.8067 26.3872 70.4241 23.6503 68.9349 18.1216C68.7905 17.5856 68.7677 16.8944 68.5686 16.4795C67.1986 17.4832 67.6115 21.1797 68.2379 22.6339C68.6495 23.5889 69.8856 25.339 70.6522 26.1438C72.2756 27.8483 73.8255 29.7179 74.7368 31.8993C75.4335 33.5672 75.8085 34.8195 75.9004 36.6599C75.9232 37.1145 76.0138 37.0953 76.0028 37.5625C75.9918 38.016 75.8986 37.9605 75.8986 38.4691Z" fill="#A4A4A4"/>
<path fill-rule="evenodd" clip-rule="evenodd" d="M64.752 24.9137C64.752 27.0185 66.3761 29.1024 67.689 30.4112C68.1554 30.876 68.6689 31.3347 69.094 31.8175C70.4919 33.4051 71.6146 34.7574 72.6513 36.6946C72.9037 37.1658 73.4937 38.1644 73.5881 38.5693H73.7888C73.7888 31.0445 66.3728 28.1049 65.8565 21.9014C65.386 22.2462 64.752 24.0213 64.752 24.9137Z" fill="#A4A4A4"/>
<path fill-rule="evenodd" clip-rule="evenodd" d="M62.7441 31.0383C62.7441 32.396 63.1396 33.3894 63.9244 34.2761C65.2765 35.8037 67.408 36.4636 68.9651 37.3685L70.8355 38.5104C71.1623 38.7594 71.0976 38.7684 71.4797 38.9706C70.9616 36.7472 67.9133 34.7601 66.585 33.5233C65.8586 32.847 65.5793 32.7745 64.8088 31.7849C63.9897 30.7329 63.8087 30.3858 63.3621 29.2155C63.2638 28.958 63.2991 29.0056 63.1458 28.8292C62.9717 29.5764 62.7441 30.0643 62.7441 31.0383Z" fill="#A4A4A4"/>
<path d="M59.7981 42.374V41.5431H61.8618V40.8482H59V44.7579H61.9596V44.0576H59.7981V43.0529H61.6933V42.374H59.7981ZM65.1633 40.9513C65.0166 40.8917 64.805 40.8536 64.5334 40.8482H62.6166V44.7579H63.4148V43.2267H64.2564C64.4955 43.2267 64.6637 43.2699 64.7507 43.3516C64.8375 43.433 64.881 43.6014 64.8864 43.851L64.8917 44.2096C64.8917 44.3235 64.9027 44.4374 64.9245 44.5462C64.9352 44.6005 64.9516 44.6711 64.9788 44.7579H65.8747V44.6601C65.7986 44.6112 65.7498 44.5352 65.728 44.4374C65.7119 44.3724 65.7062 44.2529 65.7062 44.0737V43.8131C65.7062 43.5362 65.6684 43.3352 65.5923 43.1995C65.5163 43.0636 65.3914 42.9605 65.2122 42.8898C65.4239 42.8194 65.5813 42.6891 65.6737 42.51C65.7661 42.3305 65.815 42.1513 65.815 41.9614C65.815 41.8094 65.7933 41.6737 65.739 41.5542C65.6901 41.4346 65.6248 41.3207 65.5381 41.2229C65.4349 41.1034 65.31 41.011 65.1633 40.9513ZM64.3378 42.5803H63.4148V41.527H64.3596C64.5387 41.527 64.6693 41.5542 64.7614 41.5977C64.9135 41.6791 64.9949 41.8365 64.9949 42.0753C64.9949 42.2926 64.9135 42.4393 64.7507 42.5153C64.6583 42.5586 64.5226 42.5803 64.3378 42.5803ZM66.4504 40.8482V44.7579H67.2649V40.8482H66.4504ZM68.4052 41.2554C68.0412 41.6248 67.8567 42.157 67.8567 42.8356C67.8567 43.4655 68.0197 43.9652 68.3399 44.3235C68.6604 44.6873 69.1002 44.8664 69.6651 44.8664C70.1156 44.8664 70.4904 44.7362 70.7837 44.4648C71.0714 44.1986 71.2506 43.851 71.3266 43.4276H70.5175C70.4579 43.6286 70.3926 43.7806 70.3112 43.8781C70.1591 44.0683 69.9418 44.1607 69.6541 44.1607C69.3771 44.1607 69.1437 44.0519 68.9645 43.8349C68.78 43.6175 68.6929 43.2863 68.6929 42.8466C68.6929 42.4122 68.7743 42.0699 68.9481 41.8311C69.1219 41.592 69.3554 41.4728 69.6487 41.4728C69.9418 41.4728 70.1645 41.5595 70.3112 41.728C70.3926 41.8201 70.4632 41.9614 70.5175 42.1513H71.332C71.3213 41.9071 71.2289 41.6627 71.0607 41.4239C70.7566 40.9895 70.2787 40.7775 69.6216 40.7775C69.1273 40.7775 68.7254 40.935 68.4052 41.2554ZM72.7657 42.4611V40.8482H71.962V44.7579H72.7657V43.4494L73.1512 43.0529L74.3622 44.7579H75.4102L73.7269 42.4611L75.3288 40.8482H74.2698L72.7657 42.4611ZM76.4581 43.5525H75.6818C75.6818 43.9598 75.8228 44.28 76.1162 44.5081C76.4092 44.7415 76.8111 44.8611 77.3162 44.8611C77.8158 44.8611 78.2013 44.7415 78.4783 44.5027C78.7499 44.2693 78.8855 43.9705 78.8855 43.6176C78.8855 43.2699 78.766 42.9986 78.5325 42.8194C78.3859 42.6999 78.1634 42.6075 77.8647 42.5315L77.1912 42.374C76.9307 42.309 76.7622 42.2545 76.6862 42.2112C76.5613 42.1406 76.4963 42.0374 76.4963 41.8961C76.4963 41.7441 76.5613 41.6248 76.6862 41.5431C76.8111 41.4564 76.9796 41.4129 77.1912 41.4129C77.3758 41.4129 77.5389 41.4456 77.6638 41.5106C77.8537 41.6084 77.9569 41.7768 77.9732 42.0157H78.7552C78.7442 41.5977 78.5922 41.2826 78.2991 41.0599C78.0114 40.8428 77.6584 40.7343 77.2455 40.7343C76.7515 40.7343 76.3767 40.8536 76.1269 41.0816C75.8717 41.3151 75.7414 41.603 75.7414 41.956C75.7414 42.3415 75.8771 42.6185 76.1379 42.803C76.2953 42.9116 76.5777 43.0094 76.9795 43.1018L77.3922 43.1939C77.6366 43.2484 77.8158 43.3081 77.9297 43.3787C78.0439 43.4494 78.0982 43.5469 78.0982 43.6774C78.0982 43.8945 77.984 44.0466 77.7559 44.128C77.6366 44.1715 77.4792 44.1932 77.2836 44.1932C76.9632 44.1932 76.7351 44.1118 76.6048 43.9542C76.5342 43.862 76.4799 43.7317 76.4581 43.5525ZM82.4965 44.4103C82.893 44.0358 83.0886 43.5036 83.0886 42.7977C83.0886 42.0809 82.893 41.5431 82.4965 41.1848C82.2035 40.8807 81.7798 40.7286 81.2205 40.7286C80.6612 40.7286 80.2322 40.8807 79.9391 41.1848C79.5426 41.5431 79.3417 42.0809 79.3417 42.7977C79.3417 43.5036 79.5426 44.0358 79.9391 44.4103C80.2322 44.7144 80.6612 44.8664 81.2205 44.8664C81.7798 44.8664 82.2035 44.7144 82.4965 44.4103ZM81.9915 43.8185C81.7962 44.0576 81.541 44.1769 81.2205 44.1769C80.8947 44.1769 80.6395 44.0576 80.4439 43.8185C80.2486 43.5797 80.1562 43.2374 80.1562 42.7977C80.1562 42.3579 80.2486 42.021 80.4439 41.7822C80.6395 41.5431 80.8947 41.4239 81.2205 41.4239C81.541 41.4239 81.7962 41.5431 81.9915 41.7822C82.1763 42.021 82.2741 42.3633 82.2741 42.7977C82.2741 43.2374 82.1763 43.5797 81.9915 43.8185ZM86.1132 43.5797L84.5548 40.8482H83.7022V44.7579H84.4624V41.9832L86.0589 44.7579H86.8734V40.8482H86.1132V43.5797Z" fill="#A4A4A4"/>
<path d="M59.5829 49.8967V46.0031H59.0508V49.8967H59.5829ZM60.7566 47.4585V47.0566H60.3004V49.8967H60.7783V48.4087C60.7783 48.2241 60.7945 48.0828 60.8162 47.9797C60.8434 47.8819 60.8923 47.7844 60.9683 47.692C61.0714 47.5724 61.1856 47.4964 61.3159 47.4585C61.3865 47.4314 61.4787 47.4204 61.5928 47.4204C61.8155 47.4204 61.973 47.5128 62.0544 47.6866C62.1033 47.7951 62.1304 47.9364 62.1304 48.1046V49.8967H62.619V48.0775C62.619 47.7897 62.5758 47.567 62.4998 47.415C62.3585 47.1327 62.0869 46.9914 61.685 46.9914C61.5004 46.9914 61.3323 47.0295 61.1856 47.1002C61.0335 47.1762 60.8923 47.2955 60.7566 47.4585ZM63.8252 47.0566V46.2639H63.3419V47.0566H62.9564V47.4475H63.3419V49.3263C63.3419 49.5112 63.3798 49.6576 63.4615 49.7717C63.5429 49.8857 63.6895 49.9402 63.912 49.9402C63.9826 49.9402 64.0479 49.9402 64.1075 49.9292C64.1672 49.9238 64.2217 49.913 64.276 49.8967V49.5219C64.2432 49.5219 64.2107 49.5273 64.1836 49.5273H64.1129C64.0261 49.5273 63.9609 49.5165 63.923 49.5002C63.8577 49.4623 63.8252 49.397 63.8252 49.2992V47.4475H64.276V47.0566H63.8252ZM66.4487 47.1327C66.2585 47.0403 66.0629 46.9914 65.862 46.9914C65.4601 46.9914 65.1399 47.138 64.8954 47.4204C64.6456 47.7027 64.5209 48.0775 64.5209 48.5336C64.5209 48.9951 64.6456 49.3537 64.89 49.6089C65.1345 49.8695 65.4386 49.9998 65.7916 49.9998C65.9326 49.9998 66.0629 49.9834 66.1771 49.9563C66.3941 49.902 66.5733 49.8096 66.7146 49.6686C66.807 49.5872 66.883 49.484 66.9534 49.3537C67.0241 49.2232 67.0622 49.1093 67.073 49.0061H66.6061C66.5733 49.131 66.5083 49.2396 66.4269 49.3374C66.2749 49.5002 66.0793 49.5816 65.8295 49.5816C65.5635 49.5816 65.3626 49.4948 65.2377 49.321C65.1127 49.1472 65.0421 48.9191 65.0313 48.6314H67.1165C67.1165 48.3437 67.1001 48.1317 67.073 48.0014C67.0405 47.8115 66.9752 47.6431 66.883 47.502C66.7853 47.35 66.6386 47.2304 66.4487 47.1327ZM66.6222 48.2513H65.0475C65.0528 48.0068 65.1345 47.8061 65.2809 47.6431C65.433 47.491 65.6121 47.4096 65.8348 47.4096C66.1389 47.4096 66.3616 47.5235 66.4865 47.7516C66.5626 47.8765 66.6061 48.0449 66.6222 48.2513ZM68.0889 47.5453V47.0566H67.6384V49.8967H68.1161V48.262C68.1161 48.0613 68.1813 47.8819 68.3063 47.7301C68.4365 47.5724 68.6211 47.4964 68.8602 47.4964C68.8927 47.4964 68.9198 47.4964 68.9416 47.502C68.9687 47.502 68.9905 47.5074 69.0176 47.5128V47.0077L68.9091 46.997C68.8873 46.9914 68.8709 46.9914 68.8656 46.9914C68.6754 46.9914 68.5126 47.062 68.3659 47.1979C68.2192 47.3336 68.1271 47.4531 68.0889 47.5453ZM69.8109 47.4585V47.0566H69.3547V49.8967H69.8326V48.4087C69.8326 48.2241 69.849 48.0828 69.8708 47.9797C69.8979 47.8819 69.9468 47.7844 70.0228 47.692C70.126 47.5724 70.2399 47.4964 70.3702 47.4585C70.4408 47.4314 70.5332 47.4204 70.6471 47.4204C70.8698 47.4204 71.0272 47.5128 71.1086 47.6866C71.1575 47.7951 71.1847 47.9364 71.1847 48.1046V49.8967H71.6736V48.0775C71.6736 47.7897 71.6301 47.567 71.554 47.415C71.4127 47.1327 71.1414 46.9914 70.7395 46.9914C70.555 46.9914 70.3865 47.0295 70.2399 47.1002C70.0878 47.1762 69.9468 47.2955 69.8109 47.4585ZM73.8245 48.1752L73.0643 48.273C72.7927 48.3055 72.581 48.3926 72.4126 48.539C72.2498 48.6856 72.1681 48.8866 72.1681 49.1528C72.1681 49.3916 72.2552 49.5926 72.418 49.75C72.5864 49.913 72.8034 49.9944 73.0643 49.9944C73.2867 49.9944 73.4823 49.9455 73.6668 49.8531C73.8517 49.761 73.9873 49.6468 74.0851 49.5219C74.1015 49.6361 74.1286 49.7229 74.1665 49.7825C74.2425 49.8967 74.3621 49.9563 74.5249 49.9563C74.5901 49.9563 74.6444 49.9563 74.6823 49.9509C74.7258 49.9455 74.7801 49.9292 74.8561 49.9074V49.5601C74.8236 49.5601 74.7965 49.5654 74.7693 49.5654C74.7422 49.5708 74.7204 49.5708 74.6987 49.5708C74.6337 49.5708 74.5901 49.5601 74.5684 49.5273C74.552 49.5002 74.5412 49.4569 74.5412 49.408V47.7734C74.5412 47.5074 74.4381 47.3065 74.2261 47.1816C74.0198 47.0513 73.7485 46.986 73.4173 46.986C73.1239 46.986 72.8741 47.0566 72.657 47.1923C72.4343 47.3282 72.3202 47.5724 72.3148 47.9254H72.7602C72.7763 47.7787 72.8145 47.6648 72.8741 47.5942C72.9773 47.4585 73.1564 47.3932 73.4063 47.3932C73.618 47.3932 73.7864 47.426 73.9005 47.502C74.0145 47.5724 74.0741 47.692 74.0741 47.8548C74.0741 47.9364 74.0633 47.9961 74.0416 48.0396C74.0037 48.1156 73.9331 48.1645 73.8245 48.1752ZM72.8198 49.4676C72.7167 49.3862 72.6678 49.2777 72.6678 49.1418C72.6678 48.9572 72.7438 48.8269 72.8851 48.7455C72.9719 48.691 73.1022 48.6585 73.276 48.6368L73.5637 48.5989C73.6507 48.5879 73.7429 48.5661 73.8353 48.5446C73.9277 48.5229 74.0037 48.4901 74.0633 48.4522V48.8377C74.0633 49.131 73.9277 49.3374 73.6615 49.4676C73.5094 49.549 73.3412 49.5872 73.1782 49.5872C73.0372 49.5872 72.9176 49.549 72.8198 49.4676ZM75.8234 47.0566V46.2639H75.3399V47.0566H74.9544V47.4475H75.3399V49.3263C75.3399 49.5112 75.378 49.6576 75.4594 49.7717C75.5408 49.8857 75.6875 49.9402 75.9102 49.9402C75.9808 49.9402 76.0459 49.9402 76.1058 49.9292C76.1654 49.9238 76.2197 49.913 76.2739 49.8967V49.5219C76.2414 49.5219 76.2089 49.5273 76.1818 49.5273H76.1111C76.0241 49.5273 75.9591 49.5165 75.9209 49.5002C75.8559 49.4623 75.8234 49.397 75.8234 49.2992V47.4475H76.2739V47.0566H75.8234ZM77.1652 46.5409V46.0031H76.6763V46.5409H77.1652ZM77.1652 49.8967V47.0674H76.6763V49.8967H77.1652ZM79.8808 47.339C79.631 47.0945 79.3215 46.9752 78.9522 46.9752C78.5449 46.9752 78.2191 47.1163 77.9802 47.3986C77.7358 47.6812 77.6163 48.0613 77.6163 48.539C77.6163 48.9844 77.7304 49.3374 77.9585 49.6033C78.1919 49.8695 78.5014 49.9998 78.8925 49.9998C79.3594 49.9998 79.707 49.8531 79.9297 49.5544C80.1522 49.2503 80.261 48.8758 80.261 48.4197C80.261 47.9418 80.1361 47.5834 79.8808 47.339ZM79.5875 49.2288C79.4682 49.4676 79.2509 49.5872 78.9361 49.5872C78.6481 49.5872 78.4364 49.4894 78.3061 49.2885C78.1702 49.0875 78.1052 48.8323 78.1052 48.5336C78.1052 48.2134 78.1702 47.9472 78.3061 47.7245C78.4364 47.502 78.6481 47.3932 78.9414 47.3932C79.2673 47.3932 79.5007 47.5235 79.6364 47.7844C79.7234 47.9525 79.7613 48.1645 79.7613 48.4304C79.7613 48.7238 79.707 48.9897 79.5875 49.2288ZM81.2063 47.4585V47.0566H80.7501V49.8967H81.228V48.4087C81.228 48.2241 81.2444 48.0828 81.2659 47.9797C81.2933 47.8819 81.3419 47.7844 81.418 47.692C81.5214 47.5724 81.6353 47.4964 81.7656 47.4585C81.8362 47.4314 81.9286 47.4204 82.0425 47.4204C82.2652 47.4204 82.4227 47.5128 82.5041 47.6866C82.5529 47.7951 82.5801 47.9364 82.5801 48.1046V49.8967H83.069V48.0775C83.069 47.7897 83.0255 47.567 82.9495 47.415C82.8082 47.1327 82.5368 46.9914 82.1349 46.9914C81.9501 46.9914 81.782 47.0295 81.6353 47.1002C81.4832 47.1762 81.3419 47.2955 81.2063 47.4585ZM85.2197 48.1752L84.4594 48.273C84.1881 48.3055 83.9762 48.3926 83.808 48.539C83.6449 48.6856 83.5635 48.8866 83.5635 49.1528C83.5635 49.3916 83.6506 49.5926 83.8134 49.75C83.9818 49.913 84.1989 49.9944 84.4594 49.9944C84.6821 49.9944 84.8777 49.9455 85.0623 49.8531C85.2471 49.761 85.3827 49.6468 85.4805 49.5219C85.4966 49.6361 85.5238 49.7229 85.5619 49.7825C85.6379 49.8967 85.7575 49.9563 85.9203 49.9563C85.9855 49.9563 86.0398 49.9563 86.0777 49.9509C86.1212 49.9455 86.1755 49.9292 86.2515 49.9074V49.5601C86.219 49.5601 86.1919 49.5654 86.1647 49.5654C86.1376 49.5708 86.1158 49.5708 86.0941 49.5708C86.0288 49.5708 85.9855 49.5601 85.9638 49.5273C85.9474 49.5002 85.9367 49.4569 85.9367 49.408V47.7734C85.9367 47.5074 85.8335 47.3065 85.6216 47.1816C85.4152 47.0513 85.1437 46.986 84.8124 46.986C84.5193 46.986 84.2695 47.0566 84.0522 47.1923C83.8297 47.3282 83.7156 47.5724 83.7102 47.9254H84.1556C84.1717 47.7787 84.2099 47.6648 84.2695 47.5942C84.3727 47.4585 84.5518 47.3932 84.8017 47.3932C85.0134 47.3932 85.1818 47.426 85.2957 47.502C85.4099 47.5724 85.4695 47.692 85.4695 47.8548C85.4695 47.9364 85.4588 47.9961 85.437 48.0396C85.3991 48.1156 85.3285 48.1645 85.2197 48.1752ZM84.2152 49.4676C84.1121 49.3862 84.0632 49.2777 84.0632 49.1418C84.0632 48.9572 84.1392 48.8269 84.2803 48.7455C84.3673 48.691 84.4976 48.6585 84.6714 48.6368L84.9591 48.5989C85.0461 48.5879 85.1383 48.5661 85.2307 48.5446C85.3231 48.5229 85.3991 48.4901 85.4588 48.4522V48.8377C85.4588 49.131 85.3231 49.3374 85.0569 49.4676C84.9048 49.549 84.7364 49.5872 84.5736 49.5872C84.4323 49.5872 84.313 49.549 84.2152 49.4676ZM87.1318 49.8967V46.0031H86.6539V49.8967H87.1318Z" fill="#A4A4A4"/>
</svg>
