<svg width="146" height="60" viewBox="0 0 146 60" fill="none" xmlns="http://www.w3.org/2000/svg">
<path fill-rule="evenodd" clip-rule="evenodd" d="M60.2218 20.0354C60.5431 19.2084 60.7193 18.309 60.7193 17.3684C60.7193 13.2989 57.4203 10 53.3509 10C49.2814 10 45.9825 13.2989 45.9825 17.3684C45.9825 18.309 46.1587 19.2084 46.4799 20.0354C48.4727 18.79 50.8277 18.0702 53.3509 18.0702C55.874 18.0702 58.229 18.79 60.2218 20.0354ZM58.9618 22.1448C57.3376 21.1196 55.4135 20.5263 53.3509 20.5263C51.2882 20.5263 49.3641 21.1196 47.74 22.1448C49.0915 23.7309 51.1037 24.7368 53.3509 24.7368C55.598 24.7368 57.6103 23.7309 58.9618 22.1448ZM44.7866 21.2955C43.5556 20.3718 42.0259 19.8246 40.3684 19.8246C36.299 19.8246 33 23.1235 33 27.193C33 31.2625 36.299 34.5614 40.3684 34.5614C40.5282 34.5614 40.6867 34.5563 40.8439 34.5463C40.5341 33.4348 40.3684 32.263 40.3684 31.0526C40.3684 27.1641 42.078 23.6749 44.7866 21.2955ZM43.2375 33.9819C42.9686 33.052 42.8246 32.0692 42.8246 31.0526C42.8246 27.8645 44.2419 25.0073 46.481 23.077C47.2739 24.2522 47.7368 25.6686 47.7368 27.193C47.7368 30.2447 45.8816 32.8631 43.2375 33.9819ZM41.4804 36.3175C39.3421 37.6073 37.9123 39.9524 37.9123 42.6316C37.9123 46.7011 41.2112 50 45.2807 50C48.8794 50 51.8756 47.4201 52.5206 44.009C47.5824 43.6973 43.3936 40.6248 41.4804 36.3175ZM52.5704 41.5505C48.6501 41.2631 45.3262 38.8287 43.7697 35.4182C44.2574 35.3166 44.7628 35.2632 45.2807 35.2632C48.9829 35.2632 52.0474 37.9935 52.5704 41.5505ZM54.1811 44.009C54.8262 47.4201 57.8223 50 61.4211 50C65.4905 50 68.7895 46.7011 68.7895 42.6316C68.7895 39.9524 67.3596 37.6073 65.2214 36.3175C63.3082 40.6248 59.1194 43.6973 54.1811 44.009ZM62.932 35.4182C61.3756 38.8287 58.0517 41.2631 54.1314 41.5505C54.6544 37.9935 57.7189 35.2632 61.4211 35.2632C61.9389 35.2632 62.4443 35.3166 62.932 35.4182ZM63.4642 33.9819C60.8201 32.8631 58.9649 30.2447 58.9649 27.193C58.9649 25.6686 59.4279 24.2522 60.2208 23.077C62.4598 25.0073 63.8772 27.8645 63.8772 31.0526C63.8772 32.0692 63.7331 33.052 63.4642 33.9819ZM65.8578 34.5463C66.1677 33.4348 66.3333 32.263 66.3333 31.0526C66.3333 27.1641 64.6237 23.6749 61.9152 21.2955C63.1462 20.3718 64.6759 19.8246 66.3333 19.8246C70.4028 19.8246 73.7018 23.1235 73.7018 27.193C73.7018 31.2625 70.4028 34.5614 66.3333 34.5614C66.1736 34.5614 66.0151 34.5563 65.8578 34.5463Z" fill="#A4A4A4"/>
<path d="M87.6976 29.5134H84.8006V24.2877H79.7564V29.5134H76.8594V17.1533H79.7564V22.3196H84.8006V17.1533H87.6976V29.5134Z" fill="#A4A4A4"/>
<path d="M101.004 23.3291C101.004 24.2227 100.848 25.0484 100.536 25.8062C100.229 26.5584 99.7944 27.2116 99.232 27.7659C98.6697 28.3145 97.9909 28.7443 97.1956 29.0553C96.406 29.3607 95.5284 29.5134 94.5628 29.5134H89.7401V17.1533H94.5628C95.5284 17.1533 96.406 17.3088 97.1956 17.6199C97.9909 17.9309 98.6697 18.3608 99.232 18.9093C99.7944 19.4579 100.229 20.1111 100.536 20.869C100.848 21.6212 101.004 22.4412 101.004 23.3291ZM98.0562 23.3291C98.0562 22.7183 97.9767 22.1669 97.8176 21.6749C97.6586 21.1829 97.4285 20.7672 97.1275 20.4278C96.8321 20.0829 96.4685 19.8199 96.0368 19.6389C95.6051 19.4523 95.1138 19.359 94.5628 19.359H92.6371V27.3078H94.5628C95.1138 27.3078 95.6051 27.2173 96.0368 27.0363C96.4685 26.8497 96.8321 26.5867 97.1275 26.2474C97.4285 25.9024 97.6586 25.4839 97.8176 24.9918C97.9767 24.4998 98.0562 23.9456 98.0562 23.3291Z" fill="#A4A4A4"/>
<path d="M109.307 19.6644C109.221 19.8001 109.13 19.9019 109.034 19.9698C108.943 20.0376 108.824 20.0716 108.676 20.0716C108.545 20.0716 108.403 20.032 108.25 19.9528C108.102 19.868 107.932 19.7746 107.739 19.6728C107.551 19.571 107.335 19.4806 107.091 19.4014C106.847 19.3165 106.569 19.2741 106.256 19.2741C105.717 19.2741 105.313 19.3901 105.046 19.6219C104.785 19.8482 104.654 20.1564 104.654 20.5466C104.654 20.7955 104.734 21.0019 104.893 21.1659C105.052 21.3299 105.259 21.4713 105.515 21.5901C105.776 21.7088 106.072 21.8191 106.401 21.9209C106.736 22.017 107.077 22.1273 107.424 22.2518C107.77 22.3705 108.108 22.5119 108.437 22.6759C108.773 22.8399 109.068 23.0492 109.324 23.3037C109.585 23.5582 109.795 23.8692 109.954 24.2368C110.113 24.5988 110.193 25.0371 110.193 25.5517C110.193 26.1229 110.093 26.6574 109.894 27.1551C109.696 27.6528 109.406 28.0882 109.025 28.4615C108.65 28.8291 108.185 29.1204 107.628 29.3353C107.077 29.5445 106.449 29.6492 105.745 29.6492C105.359 29.6492 104.964 29.6096 104.561 29.5304C104.163 29.4512 103.777 29.3409 103.402 29.1995C103.027 29.0525 102.675 28.88 102.345 28.6821C102.016 28.4841 101.729 28.2636 101.485 28.0204L102.337 26.68C102.399 26.5782 102.487 26.4962 102.601 26.434C102.714 26.3718 102.837 26.3407 102.967 26.3407C103.138 26.3407 103.308 26.3944 103.478 26.5019C103.655 26.6093 103.851 26.7281 104.066 26.8582C104.288 26.9882 104.541 27.107 104.825 27.2145C105.109 27.3219 105.444 27.3756 105.83 27.3756C106.353 27.3756 106.759 27.2625 107.049 27.0363C107.338 26.8044 107.483 26.4397 107.483 25.942C107.483 25.6535 107.404 25.4188 107.245 25.2379C107.086 25.0569 106.875 24.907 106.614 24.7882C106.358 24.6695 106.066 24.5649 105.736 24.4744C105.407 24.3839 105.069 24.2849 104.722 24.1775C104.376 24.0643 104.038 23.9286 103.709 23.7703C103.379 23.6062 103.084 23.3942 102.822 23.134C102.567 22.8682 102.359 22.5402 102.2 22.15C102.041 21.7541 101.962 21.2677 101.962 20.6908C101.962 20.2271 102.056 19.7746 102.243 19.3335C102.43 18.8924 102.706 18.4993 103.069 18.1543C103.433 17.8093 103.879 17.5351 104.407 17.3315C104.936 17.1222 105.54 17.0176 106.222 17.0176C106.603 17.0176 106.972 17.0487 107.33 17.1109C107.693 17.1674 108.037 17.2551 108.361 17.3739C108.685 17.487 108.986 17.6255 109.264 17.7896C109.548 17.9479 109.801 18.1289 110.022 18.3325L109.307 19.6644Z" fill="#A4A4A4"/>
<path d="M80.8952 36.3158H80.2794V34.2568H77.8415V36.3158H77.2257V31.7905H77.8415V33.8084H80.2794V31.7905H80.8952V36.3158Z" fill="#A4A4A4"/>
<path d="M82.3974 33.1168V35.1568C82.3974 35.3989 82.4532 35.5863 82.5648 35.7189C82.6764 35.8516 82.8448 35.9179 83.0701 35.9179C83.2343 35.9179 83.389 35.8789 83.5343 35.8011C83.6795 35.7232 83.8132 35.6147 83.9353 35.4758V33.1168H84.4974V36.3158H84.1627C84.0827 36.3158 84.0322 36.2768 84.0111 36.1989L83.9669 35.8547C83.828 36.0084 83.6722 36.1326 83.4995 36.2274C83.3269 36.32 83.129 36.3663 82.9059 36.3663C82.7311 36.3663 82.5764 36.3379 82.4416 36.2811C82.309 36.2221 82.1974 36.14 82.1069 36.0347C82.0164 35.9295 81.948 35.8021 81.9016 35.6526C81.8574 35.5032 81.8353 35.3379 81.8353 35.1568V33.1168H82.3974Z" fill="#A4A4A4"/>
<path d="M85.4206 36.3158V33.1168H85.7553C85.8353 33.1168 85.8858 33.1558 85.9069 33.2337L85.9479 33.5621C86.0658 33.4168 86.1974 33.2979 86.3427 33.2053C86.49 33.1126 86.6606 33.0663 86.8543 33.0663C87.0711 33.0663 87.2458 33.1263 87.3785 33.2463C87.5132 33.3663 87.61 33.5284 87.669 33.7326C87.7132 33.6168 87.7711 33.5168 87.8427 33.4326C87.9164 33.3484 87.9985 33.2789 88.089 33.2242C88.1795 33.1695 88.2753 33.1295 88.3764 33.1042C88.4795 33.0789 88.5837 33.0663 88.689 33.0663C88.8574 33.0663 89.0069 33.0937 89.1374 33.1484C89.2701 33.2011 89.3816 33.2789 89.4722 33.3821C89.5648 33.4853 89.6353 33.6126 89.6837 33.7642C89.7322 33.9137 89.7564 34.0853 89.7564 34.2789V36.3158H89.1943V34.2789C89.1943 34.0284 89.1395 33.8389 89.0301 33.7105C88.9206 33.58 88.7616 33.5147 88.5532 33.5147C88.4606 33.5147 88.3722 33.5316 88.2879 33.5653C88.2058 33.5968 88.1332 33.6442 88.0701 33.7074C88.0069 33.7705 87.9564 33.8505 87.9185 33.9474C87.8827 34.0421 87.8648 34.1526 87.8648 34.2789V36.3158H87.3027V34.2789C87.3027 34.0221 87.2511 33.8305 87.1479 33.7042C87.0448 33.5779 86.8943 33.5147 86.6964 33.5147C86.5574 33.5147 86.4279 33.5526 86.3079 33.6284C86.1901 33.7021 86.0816 33.8032 85.9827 33.9316V36.3158H85.4206Z" fill="#A4A4A4"/>
<path d="M92.9571 36.3158H92.7077C92.6529 36.3158 92.6087 36.3074 92.575 36.2905C92.5413 36.2737 92.5192 36.2379 92.5087 36.1832L92.4456 35.8863C92.3614 35.9621 92.2792 36.0305 92.1992 36.0916C92.1192 36.1505 92.035 36.2011 91.9466 36.2432C91.8582 36.2832 91.7635 36.3137 91.6624 36.3347C91.5635 36.3558 91.4529 36.3663 91.3308 36.3663C91.2066 36.3663 91.0898 36.3495 90.9803 36.3158C90.8729 36.28 90.7792 36.2274 90.6992 36.1579C90.6192 36.0884 90.555 36.0011 90.5066 35.8958C90.4603 35.7884 90.4371 35.6621 90.4371 35.5168C90.4371 35.3905 90.4719 35.2695 90.5413 35.1537C90.6108 35.0358 90.7224 34.9316 90.8761 34.8411C91.0319 34.7505 91.235 34.6768 91.4856 34.62C91.7361 34.5611 92.0424 34.5274 92.4045 34.5189V34.2695C92.4045 34.0211 92.3508 33.8337 92.2435 33.7074C92.1382 33.5789 91.9813 33.5147 91.7729 33.5147C91.6361 33.5147 91.5203 33.5326 91.4256 33.5684C91.3329 33.6021 91.2519 33.6411 91.1824 33.6853C91.115 33.7274 91.0561 33.7663 91.0056 33.8021C90.9571 33.8358 90.9087 33.8526 90.8603 33.8526C90.8224 33.8526 90.7887 33.8432 90.7592 33.8242C90.7319 33.8032 90.7098 33.7779 90.6929 33.7484L90.5919 33.5684C90.7687 33.3979 90.9592 33.2705 91.1635 33.1863C91.3677 33.1021 91.594 33.06 91.8424 33.06C92.0213 33.06 92.1803 33.0895 92.3192 33.1484C92.4582 33.2074 92.575 33.2895 92.6698 33.3947C92.7645 33.5 92.8361 33.6274 92.8845 33.7768C92.9329 33.9263 92.9571 34.0905 92.9571 34.2695V36.3158ZM91.4982 35.9716C91.5971 35.9716 91.6877 35.9621 91.7698 35.9432C91.8519 35.9221 91.9287 35.8937 92.0003 35.8579C92.074 35.82 92.1435 35.7747 92.2087 35.7221C92.2761 35.6695 92.3413 35.6095 92.4045 35.5421V34.8758C92.1456 34.8842 91.9256 34.9053 91.7445 34.9389C91.5635 34.9705 91.4161 35.0126 91.3024 35.0653C91.1887 35.1179 91.1056 35.18 91.0529 35.2516C91.0024 35.3232 90.9771 35.4032 90.9771 35.4916C90.9771 35.5758 90.9908 35.6484 91.0182 35.7095C91.0456 35.7705 91.0824 35.8211 91.1287 35.8611C91.175 35.8989 91.2298 35.9274 91.2929 35.9463C91.3561 35.9632 91.4245 35.9716 91.4982 35.9716Z" fill="#A4A4A4"/>
<path d="M93.8087 36.3158V33.1168H94.1435C94.2235 33.1168 94.274 33.1558 94.295 33.2337L94.3393 33.5811C94.4782 33.4274 94.6329 33.3032 94.8035 33.2084C94.9761 33.1137 95.175 33.0663 95.4003 33.0663C95.575 33.0663 95.7287 33.0958 95.8614 33.1547C95.9961 33.2116 96.1077 33.2937 96.1961 33.4011C96.2866 33.5063 96.355 33.6337 96.4014 33.7832C96.4477 33.9326 96.4708 34.0979 96.4708 34.2789V36.3158H95.9087V34.2789C95.9087 34.0368 95.8529 33.8495 95.7414 33.7168C95.6319 33.5821 95.4635 33.5147 95.2361 33.5147C95.0698 33.5147 94.914 33.5547 94.7687 33.6347C94.6256 33.7147 94.4929 33.8232 94.3708 33.96V36.3158H93.8087Z" fill="#A4A4A4"/>
<path d="M81.1478 40.7214C81.1478 41.0604 81.0941 41.3688 80.9867 41.6467C80.8794 41.9246 80.7278 42.1625 80.532 42.3604C80.3362 42.5582 80.1015 42.7119 79.8278 42.8214C79.5541 42.9288 79.251 42.9825 78.9183 42.9825H77.2257V38.4572H78.9183C79.251 38.4572 79.5541 38.5119 79.8278 38.6214C80.1015 38.7288 80.3362 38.8825 80.532 39.0825C80.7278 39.2804 80.8794 39.5182 80.9867 39.7961C81.0941 40.074 81.1478 40.3825 81.1478 40.7214ZM80.5194 40.7214C80.5194 40.4435 80.4815 40.1951 80.4057 39.9761C80.3299 39.7572 80.2225 39.5719 80.0836 39.4204C79.9446 39.2688 79.7762 39.153 79.5783 39.073C79.3804 38.993 79.1604 38.953 78.9183 38.953H77.8415V42.4867H78.9183C79.1604 42.4867 79.3804 42.4467 79.5783 42.3667C79.7762 42.2867 79.9446 42.1719 80.0836 42.0225C80.2225 41.8709 80.3299 41.6856 80.4057 41.4667C80.4815 41.2477 80.5194 40.9993 80.5194 40.7214Z" fill="#A4A4A4"/>
<path d="M83.1589 39.733C83.3505 39.733 83.5274 39.7656 83.6895 39.8309C83.8516 39.894 83.9916 39.9867 84.1095 40.1088C84.2274 40.2288 84.3189 40.3782 84.3842 40.5572C84.4516 40.734 84.4852 40.9361 84.4852 41.1635C84.4852 41.2519 84.4758 41.3109 84.4568 41.3404C84.4379 41.3698 84.4021 41.3846 84.3495 41.3846H82.221C82.2252 41.5867 82.2526 41.7625 82.3031 41.9119C82.3537 42.0614 82.4231 42.1867 82.5116 42.2877C82.6 42.3867 82.7052 42.4614 82.8274 42.5119C82.9495 42.5604 83.0863 42.5846 83.2379 42.5846C83.3789 42.5846 83.5 42.5688 83.601 42.5372C83.7042 42.5035 83.7926 42.4677 83.8663 42.4298C83.94 42.3919 84.001 42.3572 84.0495 42.3256C84.1 42.2919 84.1431 42.2751 84.1789 42.2751C84.2252 42.2751 84.261 42.293 84.2863 42.3288L84.4442 42.534C84.3747 42.6182 84.2916 42.6919 84.1947 42.7551C84.0979 42.8161 83.9937 42.8667 83.8821 42.9067C83.7726 42.9467 83.6589 42.9761 83.541 42.9951C83.4231 43.0161 83.3063 43.0267 83.1905 43.0267C82.9695 43.0267 82.7652 42.9898 82.5779 42.9161C82.3926 42.8404 82.2316 42.7309 82.0947 42.5877C81.96 42.4425 81.8547 42.2635 81.7789 42.0509C81.7031 41.8382 81.6652 41.594 81.6652 41.3182C81.6652 41.0951 81.6989 40.8867 81.7663 40.693C81.8358 40.4993 81.9347 40.3319 82.0631 40.1909C82.1916 40.0477 82.3484 39.9361 82.5337 39.8561C82.7189 39.774 82.9274 39.733 83.1589 39.733ZM83.1716 40.1467C82.9 40.1467 82.6863 40.2256 82.5305 40.3835C82.3747 40.5393 82.2779 40.7561 82.24 41.034H83.98C83.98 40.9035 83.9621 40.7846 83.9263 40.6772C83.8905 40.5677 83.8379 40.474 83.7684 40.3961C83.6989 40.3161 83.6137 40.2551 83.5126 40.213C83.4137 40.1688 83.3 40.1467 83.1716 40.1467Z" fill="#A4A4A4"/>
<path d="M84.7203 39.7835H85.1814C85.2256 39.7835 85.2624 39.7951 85.2919 39.8182C85.3214 39.8414 85.3424 39.8688 85.3551 39.9004L86.1666 41.9593C86.1961 42.0351 86.2193 42.1109 86.2361 42.1867C86.2529 42.2625 86.2687 42.3372 86.2835 42.4109C86.3003 42.3372 86.3182 42.2625 86.3372 42.1867C86.3561 42.1109 86.3803 42.0351 86.4098 41.9593L87.2308 39.9004C87.2435 39.8667 87.2635 39.8393 87.2908 39.8182C87.3203 39.7951 87.3561 39.7835 87.3982 39.7835H87.8372L86.5329 42.9825H86.0245L84.7203 39.7835Z" fill="#A4A4A4"/>
<path d="M89.5426 39.733C89.7341 39.733 89.911 39.7656 90.0731 39.8309C90.2352 39.894 90.3752 39.9867 90.4931 40.1088C90.611 40.2288 90.7026 40.3782 90.7678 40.5572C90.8352 40.734 90.8689 40.9361 90.8689 41.1635C90.8689 41.2519 90.8594 41.3109 90.8405 41.3404C90.8215 41.3698 90.7857 41.3846 90.7331 41.3846H88.6047C88.6089 41.5867 88.6363 41.7625 88.6868 41.9119C88.7373 42.0614 88.8068 42.1867 88.8952 42.2877C88.9836 42.3867 89.0889 42.4614 89.211 42.5119C89.3331 42.5604 89.4699 42.5846 89.6215 42.5846C89.7626 42.5846 89.8836 42.5688 89.9847 42.5372C90.0878 42.5035 90.1763 42.4677 90.2499 42.4298C90.3236 42.3919 90.3847 42.3572 90.4331 42.3256C90.4836 42.2919 90.5268 42.2751 90.5626 42.2751C90.6089 42.2751 90.6447 42.293 90.6699 42.3288L90.8278 42.534C90.7584 42.6182 90.6752 42.6919 90.5784 42.7551C90.4815 42.8161 90.3773 42.8667 90.2657 42.9067C90.1563 42.9467 90.0426 42.9761 89.9247 42.9951C89.8068 43.0161 89.6899 43.0267 89.5741 43.0267C89.3531 43.0267 89.1489 42.9898 88.9615 42.9161C88.7762 42.8404 88.6152 42.7309 88.4784 42.5877C88.3436 42.4425 88.2384 42.2635 88.1626 42.0509C88.0868 41.8382 88.0489 41.594 88.0489 41.3182C88.0489 41.0951 88.0826 40.8867 88.1499 40.693C88.2194 40.4993 88.3184 40.3319 88.4468 40.1909C88.5752 40.0477 88.732 39.9361 88.9173 39.8561C89.1026 39.774 89.311 39.733 89.5426 39.733ZM89.5552 40.1467C89.2836 40.1467 89.0699 40.2256 88.9141 40.3835C88.7584 40.5393 88.6615 40.7561 88.6236 41.034H90.3636C90.3636 40.9035 90.3457 40.7846 90.3099 40.6772C90.2741 40.5677 90.2215 40.474 90.152 40.3961C90.0826 40.3161 89.9973 40.2551 89.8962 40.213C89.7973 40.1688 89.6836 40.1467 89.5552 40.1467Z" fill="#A4A4A4"/>
<path d="M92.2136 38.3309V42.9825H91.6515V38.3309H92.2136Z" fill="#A4A4A4"/>
<path d="M94.499 39.733C94.7327 39.733 94.9432 39.7719 95.1306 39.8498C95.3201 39.9277 95.4801 40.0382 95.6106 40.1814C95.7432 40.3246 95.8443 40.4982 95.9138 40.7025C95.9853 40.9046 96.0211 41.1309 96.0211 41.3814C96.0211 41.634 95.9853 41.8614 95.9138 42.0635C95.8443 42.2656 95.7432 42.4382 95.6106 42.5814C95.4801 42.7246 95.3201 42.8351 95.1306 42.913C94.9432 42.9888 94.7327 43.0267 94.499 43.0267C94.2653 43.0267 94.0538 42.9888 93.8643 42.913C93.6769 42.8351 93.5169 42.7246 93.3843 42.5814C93.2517 42.4382 93.1496 42.2656 93.078 42.0635C93.0064 41.8614 92.9706 41.634 92.9706 41.3814C92.9706 41.1309 93.0064 40.9046 93.078 40.7025C93.1496 40.4982 93.2517 40.3246 93.3843 40.1814C93.5169 40.0382 93.6769 39.9277 93.8643 39.8498C94.0538 39.7719 94.2653 39.733 94.499 39.733ZM94.499 42.5877C94.8148 42.5877 95.0506 42.4825 95.2064 42.2719C95.3622 42.0593 95.4401 41.7635 95.4401 41.3846C95.4401 41.0035 95.3622 40.7067 95.2064 40.494C95.0506 40.2814 94.8148 40.1751 94.499 40.1751C94.339 40.1751 94.2001 40.2025 94.0822 40.2572C93.9643 40.3119 93.8653 40.3909 93.7853 40.494C93.7075 40.5972 93.6485 40.7246 93.6085 40.8761C93.5706 41.0256 93.5517 41.1951 93.5517 41.3846C93.5517 41.574 93.5706 41.7435 93.6085 41.893C93.6485 42.0425 93.7075 42.1688 93.7853 42.2719C93.8653 42.373 93.9643 42.4509 94.0822 42.5056C94.2001 42.5604 94.339 42.5877 94.499 42.5877Z" fill="#A4A4A4"/>
<path d="M96.7138 44.0656V39.7835H97.0485C97.1285 39.7835 97.179 39.8225 97.2001 39.9004L97.2474 40.2793C97.3843 40.113 97.5401 39.9793 97.7148 39.8782C97.8916 39.7772 98.0948 39.7267 98.3243 39.7267C98.5074 39.7267 98.6737 39.7625 98.8232 39.834C98.9727 39.9035 99.1001 40.0077 99.2053 40.1467C99.3106 40.2835 99.3916 40.454 99.4485 40.6582C99.5053 40.8625 99.5337 41.0972 99.5337 41.3625C99.5337 41.5982 99.5022 41.8182 99.439 42.0225C99.3759 42.2246 99.2853 42.4004 99.1674 42.5498C99.0495 42.6972 98.9043 42.814 98.7316 42.9004C98.5611 42.9846 98.3685 43.0267 98.1537 43.0267C97.9559 43.0267 97.7864 42.994 97.6453 42.9288C97.5064 42.8635 97.3832 42.7709 97.2759 42.6509V44.0656H96.7138ZM98.138 40.1814C97.9548 40.1814 97.7938 40.2235 97.6548 40.3077C97.518 40.3919 97.3916 40.5109 97.2759 40.6646V42.2119C97.379 42.3509 97.4916 42.4488 97.6138 42.5056C97.738 42.5625 97.8759 42.5909 98.0274 42.5909C98.3243 42.5909 98.5527 42.4846 98.7127 42.2719C98.8727 42.0593 98.9527 41.7561 98.9527 41.3625C98.9527 41.154 98.9338 40.9751 98.8959 40.8256C98.8601 40.6761 98.8074 40.554 98.738 40.4593C98.6685 40.3625 98.5832 40.2919 98.4822 40.2477C98.3811 40.2035 98.2664 40.1814 98.138 40.1814Z" fill="#A4A4A4"/>
<path d="M100.199 42.9825V39.7835H100.533C100.613 39.7835 100.664 39.8225 100.685 39.9004L100.726 40.2288C100.844 40.0835 100.975 39.9646 101.121 39.8719C101.268 39.7793 101.439 39.733 101.632 39.733C101.849 39.733 102.024 39.793 102.156 39.913C102.291 40.033 102.388 40.1951 102.447 40.3993C102.491 40.2835 102.549 40.1835 102.621 40.0993C102.694 40.0151 102.776 39.9456 102.867 39.8909C102.957 39.8361 103.053 39.7961 103.154 39.7709C103.257 39.7456 103.362 39.733 103.467 39.733C103.635 39.733 103.785 39.7604 103.915 39.8151C104.048 39.8677 104.16 39.9456 104.25 40.0488C104.343 40.1519 104.413 40.2793 104.462 40.4309C104.51 40.5804 104.534 40.7519 104.534 40.9456V42.9825H103.972V40.9456C103.972 40.6951 103.917 40.5056 103.808 40.3772C103.699 40.2467 103.54 40.1814 103.331 40.1814C103.239 40.1814 103.15 40.1982 103.066 40.2319C102.984 40.2635 102.911 40.3109 102.848 40.374C102.785 40.4372 102.734 40.5172 102.696 40.614C102.661 40.7088 102.643 40.8193 102.643 40.9456V42.9825H102.081V40.9456C102.081 40.6888 102.029 40.4972 101.926 40.3709C101.823 40.2446 101.672 40.1814 101.474 40.1814C101.335 40.1814 101.206 40.2193 101.086 40.2951C100.968 40.3688 100.86 40.4698 100.761 40.5982V42.9825H100.199Z" fill="#A4A4A4"/>
<path d="M106.652 39.733C106.844 39.733 107.02 39.7656 107.182 39.8309C107.345 39.894 107.485 39.9867 107.602 40.1088C107.72 40.2288 107.812 40.3782 107.877 40.5572C107.945 40.734 107.978 40.9361 107.978 41.1635C107.978 41.2519 107.969 41.3109 107.95 41.3404C107.931 41.3698 107.895 41.3846 107.842 41.3846H105.714C105.718 41.5867 105.746 41.7625 105.796 41.9119C105.847 42.0614 105.916 42.1867 106.005 42.2877C106.093 42.3867 106.198 42.4614 106.32 42.5119C106.442 42.5604 106.579 42.5846 106.731 42.5846C106.872 42.5846 106.993 42.5688 107.094 42.5372C107.197 42.5035 107.286 42.4677 107.359 42.4298C107.433 42.3919 107.494 42.3572 107.542 42.3256C107.593 42.2919 107.636 42.2751 107.672 42.2751C107.718 42.2751 107.754 42.293 107.779 42.3288L107.937 42.534C107.868 42.6182 107.785 42.6919 107.688 42.7551C107.591 42.8161 107.487 42.8667 107.375 42.9067C107.266 42.9467 107.152 42.9761 107.034 42.9951C106.916 43.0161 106.799 43.0267 106.684 43.0267C106.462 43.0267 106.258 42.9898 106.071 42.9161C105.886 42.8404 105.725 42.7309 105.588 42.5877C105.453 42.4425 105.348 42.2635 105.272 42.0509C105.196 41.8382 105.158 41.594 105.158 41.3182C105.158 41.0951 105.192 40.8867 105.259 40.693C105.329 40.4993 105.428 40.3319 105.556 40.1909C105.685 40.0477 105.841 39.9361 106.027 39.8561C106.212 39.774 106.42 39.733 106.652 39.733ZM106.665 40.1467C106.393 40.1467 106.179 40.2256 106.024 40.3835C105.868 40.5393 105.771 40.7561 105.733 41.034H107.473C107.473 40.9035 107.455 40.7846 107.419 40.6772C107.384 40.5677 107.331 40.474 107.261 40.3961C107.192 40.3161 107.107 40.2551 107.006 40.213C106.907 40.1688 106.793 40.1467 106.665 40.1467Z" fill="#A4A4A4"/>
<path d="M108.698 42.9825V39.7835H109.032C109.112 39.7835 109.163 39.8225 109.184 39.9004L109.228 40.2477C109.367 40.094 109.522 39.9698 109.692 39.8751C109.865 39.7804 110.064 39.733 110.289 39.733C110.464 39.733 110.618 39.7625 110.75 39.8214C110.885 39.8782 110.997 39.9604 111.085 40.0677C111.176 40.173 111.244 40.3004 111.29 40.4498C111.337 40.5993 111.36 40.7646 111.36 40.9456V42.9825H110.798V40.9456C110.798 40.7035 110.742 40.5161 110.63 40.3835C110.521 40.2488 110.352 40.1814 110.125 40.1814C109.959 40.1814 109.803 40.2214 109.658 40.3014C109.515 40.3814 109.382 40.4898 109.26 40.6267V42.9825H108.698Z" fill="#A4A4A4"/>
<path d="M113.177 43.033C112.924 43.033 112.729 42.9625 112.592 42.8214C112.458 42.6804 112.39 42.4772 112.39 42.2119V40.254H112.005C111.971 40.254 111.943 40.2446 111.92 40.2256C111.897 40.2046 111.885 40.173 111.885 40.1309V39.9067L112.409 39.8404L112.539 38.8519C112.543 38.8204 112.557 38.7951 112.58 38.7761C112.603 38.7551 112.632 38.7446 112.668 38.7446H112.952V39.8467H113.868V40.254H112.952V42.174C112.952 42.3088 112.985 42.4088 113.05 42.474C113.116 42.5393 113.2 42.5719 113.303 42.5719C113.362 42.5719 113.412 42.5646 113.455 42.5498C113.499 42.533 113.537 42.5151 113.568 42.4961C113.6 42.4772 113.626 42.4604 113.647 42.4456C113.67 42.4288 113.69 42.4204 113.707 42.4204C113.737 42.4204 113.763 42.4382 113.786 42.474L113.95 42.7425C113.853 42.833 113.737 42.9046 113.6 42.9572C113.463 43.0077 113.322 43.033 113.177 43.033Z" fill="#A4A4A4"/>
<path d="M79.5436 45.8312C79.5246 45.8628 79.5046 45.887 79.4836 45.9039C79.4625 45.9186 79.4352 45.926 79.4015 45.926C79.3657 45.926 79.3236 45.9081 79.2752 45.8723C79.2288 45.8365 79.1688 45.7975 79.0952 45.7554C79.0236 45.7112 78.9362 45.6712 78.8331 45.6354C78.732 45.5997 78.6088 45.5818 78.4636 45.5818C78.3267 45.5818 78.2057 45.6007 78.1004 45.6386C77.9952 45.6744 77.9067 45.7239 77.8352 45.787C77.7657 45.8502 77.7131 45.9249 77.6773 46.0112C77.6415 46.0954 77.6236 46.187 77.6236 46.286C77.6236 46.4123 77.6541 46.5175 77.7152 46.6018C77.7783 46.6839 77.8604 46.7544 77.9615 46.8133C78.0646 46.8723 78.1804 46.9239 78.3088 46.9681C78.4394 47.0102 78.572 47.0544 78.7067 47.1007C78.8436 47.147 78.9762 47.1996 79.1046 47.2586C79.2352 47.3154 79.351 47.3881 79.452 47.4765C79.5552 47.5649 79.6373 47.6733 79.6983 47.8018C79.7615 47.9302 79.7931 48.0881 79.7931 48.2754C79.7931 48.4733 79.7594 48.6597 79.692 48.8344C79.6246 49.007 79.5257 49.1575 79.3952 49.286C79.2667 49.4144 79.1078 49.5154 78.9183 49.5891C78.731 49.6628 78.5173 49.6996 78.2773 49.6996C77.9846 49.6996 77.7173 49.647 77.4752 49.5418C77.2352 49.4344 77.0299 49.2902 76.8594 49.1091L77.0362 48.8186C77.0531 48.7954 77.0731 48.7765 77.0962 48.7618C77.1215 48.7449 77.1488 48.7365 77.1783 48.7365C77.2225 48.7365 77.2731 48.7607 77.3299 48.8091C77.3867 48.8554 77.4573 48.907 77.5415 48.9639C77.6278 49.0207 77.731 49.0733 77.851 49.1218C77.9731 49.1681 78.1215 49.1912 78.2962 49.1912C78.4415 49.1912 78.571 49.1712 78.6846 49.1312C78.7983 49.0912 78.8941 49.0354 78.972 48.9639C79.052 48.8902 79.1131 48.8028 79.1552 48.7018C79.1973 48.6007 79.2183 48.4881 79.2183 48.3639C79.2183 48.227 79.1867 48.1154 79.1236 48.0291C79.0625 47.9407 78.9815 47.867 78.8804 47.8081C78.7794 47.7491 78.6636 47.6996 78.5331 47.6596C78.4046 47.6175 78.272 47.5754 78.1352 47.5333C78.0004 47.4891 77.8678 47.4386 77.7373 47.3818C77.6088 47.3249 77.4941 47.2512 77.3931 47.1607C77.292 47.0702 77.2099 46.9575 77.1467 46.8228C77.0857 46.686 77.0552 46.5175 77.0552 46.3175C77.0552 46.1575 77.0857 46.0028 77.1467 45.8533C77.2099 45.7039 77.3004 45.5712 77.4183 45.4554C77.5362 45.3397 77.6815 45.247 77.8541 45.1775C78.0288 45.1081 78.2288 45.0733 78.4541 45.0733C78.7067 45.0733 78.9373 45.1133 79.1457 45.1933C79.3541 45.2733 79.5362 45.3891 79.692 45.5407L79.5436 45.8312Z" fill="#A4A4A4"/>
<path d="M81.7811 46.3996C82.0148 46.3996 82.2253 46.4386 82.4127 46.5165C82.6022 46.5944 82.7622 46.7049 82.8927 46.8481C83.0253 46.9912 83.1264 47.1649 83.1958 47.3691C83.2674 47.5712 83.3032 47.7975 83.3032 48.0481C83.3032 48.3007 83.2674 48.5281 83.1958 48.7302C83.1264 48.9323 83.0253 49.1049 82.8927 49.2481C82.7622 49.3912 82.6022 49.5018 82.4127 49.5796C82.2253 49.6554 82.0148 49.6933 81.7811 49.6933C81.5474 49.6933 81.3358 49.6554 81.1464 49.5796C80.959 49.5018 80.799 49.3912 80.6664 49.2481C80.5337 49.1049 80.4316 48.9323 80.36 48.7302C80.2885 48.5281 80.2527 48.3007 80.2527 48.0481C80.2527 47.7975 80.2885 47.5712 80.36 47.3691C80.4316 47.1649 80.5337 46.9912 80.6664 46.8481C80.799 46.7049 80.959 46.5944 81.1464 46.5165C81.3358 46.4386 81.5474 46.3996 81.7811 46.3996ZM81.7811 49.2544C82.0969 49.2544 82.3327 49.1491 82.4885 48.9386C82.6443 48.726 82.7222 48.4302 82.7222 48.0512C82.7222 47.6702 82.6443 47.3733 82.4885 47.1607C82.3327 46.9481 82.0969 46.8418 81.7811 46.8418C81.6211 46.8418 81.4822 46.8691 81.3643 46.9239C81.2464 46.9786 81.1474 47.0575 81.0674 47.1607C80.9895 47.2639 80.9306 47.3912 80.8906 47.5428C80.8527 47.6923 80.8337 47.8618 80.8337 48.0512C80.8337 48.2407 80.8527 48.4102 80.8906 48.5597C80.9306 48.7091 80.9895 48.8354 81.0674 48.9386C81.1474 49.0396 81.2464 49.1175 81.3643 49.1723C81.4822 49.227 81.6211 49.2544 81.7811 49.2544Z" fill="#A4A4A4"/>
<path d="M84.6211 44.9975V49.6491H84.059V44.9975H84.6211Z" fill="#A4A4A4"/>
<path d="M86.0981 46.4502V48.4902C86.0981 48.7323 86.1539 48.9196 86.2655 49.0523C86.377 49.1849 86.5455 49.2512 86.7707 49.2512C86.9349 49.2512 87.0897 49.2123 87.2349 49.1344C87.3802 49.0565 87.5139 48.9481 87.636 48.8091V46.4502H88.1981V49.6491H87.8634C87.7834 49.6491 87.7328 49.6102 87.7118 49.5323L87.6676 49.1881C87.5286 49.3418 87.3728 49.466 87.2002 49.5607C87.0276 49.6533 86.8297 49.6996 86.6065 49.6996C86.4318 49.6996 86.277 49.6712 86.1423 49.6144C86.0097 49.5554 85.8981 49.4733 85.8076 49.3681C85.717 49.2628 85.6486 49.1354 85.6023 48.986C85.5581 48.8365 85.536 48.6712 85.536 48.4902V46.4502H86.0981Z" fill="#A4A4A4"/>
<path d="M90.0907 49.6996C89.8381 49.6996 89.6433 49.6291 89.5065 49.4881C89.3718 49.347 89.3044 49.1439 89.3044 48.8786V46.9207H88.9191C88.8854 46.9207 88.857 46.9112 88.8339 46.8923C88.8107 46.8712 88.7991 46.8397 88.7991 46.7975V46.5733L89.3233 46.507L89.4528 45.5186C89.457 45.487 89.4707 45.4618 89.4939 45.4428C89.517 45.4218 89.5465 45.4112 89.5823 45.4112H89.8665V46.5133H90.7823V46.9207H89.8665V48.8407C89.8665 48.9754 89.8991 49.0754 89.9644 49.1407C90.0297 49.206 90.1139 49.2386 90.217 49.2386C90.276 49.2386 90.3265 49.2312 90.3686 49.2165C90.4128 49.1996 90.4507 49.1818 90.4823 49.1628C90.5139 49.1439 90.5402 49.127 90.5612 49.1123C90.5844 49.0954 90.6044 49.087 90.6212 49.087C90.6507 49.087 90.677 49.1049 90.7002 49.1407L90.8644 49.4091C90.7676 49.4996 90.6507 49.5712 90.5139 49.6239C90.377 49.6744 90.236 49.6996 90.0907 49.6996Z" fill="#A4A4A4"/>
<path d="M92.1026 46.4502V49.6491H91.5405V46.4502H92.1026ZM92.2289 45.446C92.2289 45.5007 92.2173 45.5523 92.1942 45.6007C92.1731 45.647 92.1436 45.6891 92.1057 45.727C92.07 45.7628 92.0278 45.7912 91.9794 45.8123C91.931 45.8333 91.8794 45.8439 91.8247 45.8439C91.77 45.8439 91.7184 45.8333 91.67 45.8123C91.6236 45.7912 91.5815 45.7628 91.5436 45.727C91.5078 45.6891 91.4794 45.647 91.4584 45.6007C91.4373 45.5523 91.4268 45.5007 91.4268 45.446C91.4268 45.3912 91.4373 45.3396 91.4584 45.2912C91.4794 45.2407 91.5078 45.1975 91.5436 45.1618C91.5815 45.1239 91.6236 45.0944 91.67 45.0733C91.7184 45.0523 91.77 45.0418 91.8247 45.0418C91.8794 45.0418 91.931 45.0523 91.9794 45.0733C92.0278 45.0944 92.07 45.1239 92.1057 45.1618C92.1436 45.1975 92.1731 45.2407 92.1942 45.2912C92.2173 45.3396 92.2289 45.3912 92.2289 45.446Z" fill="#A4A4A4"/>
<path d="M94.388 46.3996C94.6217 46.3996 94.8322 46.4386 95.0196 46.5165C95.2091 46.5944 95.3691 46.7049 95.4996 46.8481C95.6322 46.9912 95.7333 47.1649 95.8027 47.3691C95.8743 47.5712 95.9101 47.7975 95.9101 48.0481C95.9101 48.3007 95.8743 48.5281 95.8027 48.7302C95.7333 48.9323 95.6322 49.1049 95.4996 49.2481C95.3691 49.3912 95.2091 49.5018 95.0196 49.5796C94.8322 49.6554 94.6217 49.6933 94.388 49.6933C94.1543 49.6933 93.9427 49.6554 93.7533 49.5796C93.5659 49.5018 93.4059 49.3912 93.2733 49.2481C93.1406 49.1049 93.0385 48.9323 92.967 48.7302C92.8954 48.5281 92.8596 48.3007 92.8596 48.0481C92.8596 47.7975 92.8954 47.5712 92.967 47.3691C93.0385 47.1649 93.1406 46.9912 93.2733 46.8481C93.4059 46.7049 93.5659 46.5944 93.7533 46.5165C93.9427 46.4386 94.1543 46.3996 94.388 46.3996ZM94.388 49.2544C94.7038 49.2544 94.9396 49.1491 95.0954 48.9386C95.2512 48.726 95.3291 48.4302 95.3291 48.0512C95.3291 47.6702 95.2512 47.3733 95.0954 47.1607C94.9396 46.9481 94.7038 46.8418 94.388 46.8418C94.228 46.8418 94.0891 46.8691 93.9712 46.9239C93.8533 46.9786 93.7543 47.0575 93.6743 47.1607C93.5964 47.2639 93.5375 47.3912 93.4975 47.5428C93.4596 47.6923 93.4406 47.8618 93.4406 48.0512C93.4406 48.2407 93.4596 48.4102 93.4975 48.5597C93.5375 48.7091 93.5964 48.8354 93.6743 48.9386C93.7543 49.0396 93.8533 49.1175 93.9712 49.1723C94.0891 49.227 94.228 49.2544 94.388 49.2544Z" fill="#A4A4A4"/>
<path d="M96.6027 49.6491V46.4502H96.9375C97.0175 46.4502 97.068 46.4891 97.089 46.567L97.1333 46.9144C97.2722 46.7607 97.4269 46.6365 97.5975 46.5418C97.7701 46.447 97.969 46.3996 98.1943 46.3996C98.369 46.3996 98.5227 46.4291 98.6554 46.4881C98.7901 46.5449 98.9017 46.627 98.9901 46.7344C99.0806 46.8397 99.149 46.967 99.1954 47.1165C99.2417 47.266 99.2648 47.4312 99.2648 47.6123V49.6491H98.7027V47.6123C98.7027 47.3702 98.6469 47.1828 98.5354 47.0502C98.4259 46.9154 98.2575 46.8481 98.0301 46.8481C97.8638 46.8481 97.708 46.8881 97.5627 46.9681C97.4196 47.0481 97.2869 47.1565 97.1648 47.2933V49.6491H96.6027Z" fill="#A4A4A4"/>
<path d="M101.944 46.9775C101.919 47.0239 101.88 47.047 101.827 47.047C101.795 47.047 101.76 47.0354 101.72 47.0123C101.68 46.9891 101.63 46.9639 101.571 46.9365C101.514 46.907 101.446 46.8807 101.366 46.8575C101.286 46.8323 101.191 46.8197 101.082 46.8197C100.987 46.8197 100.902 46.8323 100.826 46.8575C100.75 46.8807 100.685 46.9133 100.63 46.9554C100.577 46.9975 100.536 47.047 100.507 47.1039C100.48 47.1586 100.466 47.2186 100.466 47.2839C100.466 47.366 100.489 47.4344 100.535 47.4891C100.584 47.5439 100.647 47.5912 100.725 47.6312C100.803 47.6712 100.891 47.707 100.99 47.7386C101.089 47.7681 101.19 47.8007 101.293 47.8365C101.399 47.8702 101.501 47.9081 101.6 47.9502C101.699 47.9923 101.787 48.0449 101.865 48.1081C101.943 48.1712 102.005 48.2491 102.051 48.3418C102.1 48.4323 102.124 48.5418 102.124 48.6702C102.124 48.8175 102.097 48.9544 102.045 49.0807C101.992 49.2049 101.914 49.3133 101.811 49.406C101.708 49.4965 101.582 49.5681 101.432 49.6207C101.283 49.6733 101.11 49.6996 100.914 49.6996C100.691 49.6996 100.489 49.6639 100.308 49.5923C100.127 49.5186 99.9732 49.4249 99.8469 49.3112L99.9796 49.0965C99.9964 49.0691 100.016 49.0481 100.04 49.0333C100.063 49.0186 100.093 49.0112 100.131 49.0112C100.169 49.0112 100.209 49.026 100.251 49.0554C100.293 49.0849 100.344 49.1175 100.403 49.1533C100.464 49.1891 100.536 49.2218 100.621 49.2512C100.707 49.2807 100.814 49.2954 100.943 49.2954C101.052 49.2954 101.148 49.2818 101.23 49.2544C101.312 49.2249 101.381 49.186 101.435 49.1375C101.49 49.0891 101.53 49.0333 101.555 48.9702C101.583 48.907 101.596 48.8396 101.596 48.7681C101.596 48.6796 101.572 48.607 101.524 48.5502C101.477 48.4912 101.415 48.4418 101.337 48.4018C101.26 48.3596 101.17 48.3239 101.069 48.2944C100.97 48.2628 100.868 48.2302 100.763 48.1965C100.66 48.1628 100.557 48.1249 100.456 48.0828C100.357 48.0386 100.269 47.9839 100.191 47.9186C100.113 47.8533 100.05 47.7733 100.002 47.6786C99.9553 47.5818 99.9322 47.4649 99.9322 47.3281C99.9322 47.206 99.9574 47.0891 100.008 46.9775C100.059 46.8639 100.132 46.7649 100.229 46.6807C100.326 46.5944 100.445 46.526 100.586 46.4754C100.727 46.4249 100.888 46.3996 101.069 46.3996C101.28 46.3996 101.468 46.4333 101.634 46.5007C101.803 46.566 101.948 46.6565 102.07 46.7723L101.944 46.9775Z" fill="#A4A4A4"/>
</svg>
