<svg width="147" height="60" viewBox="0 0 147 60" fill="none" xmlns="http://www.w3.org/2000/svg">
<path fill-rule="evenodd" clip-rule="evenodd" d="M35 21.4003H40.1096L44.2306 33.7232L48.3169 21.4003H52.9308L46.6681 38.6324H41.2962L35 21.4003Z" fill="#A4A4A4"/>
<path fill-rule="evenodd" clip-rule="evenodd" d="M58.7254 38.6357L58.7254 21.3969L53.9805 21.3969L53.9805 38.6357L58.7254 38.6357Z" fill="#A4A4A4"/>
<mask id="mask0" mask-type="alpha" maskUnits="userSpaceOnUse" x="60" y="21" width="15" height="18">
<path d="M74.9673 38.9983L60.2068 38.9983L60.2068 21.0001L74.9673 21.0001L74.9673 38.9983V38.9983Z" fill="#A4A4A4"/>
</mask>
<g mask="url(#mask0)">
<path fill-rule="evenodd" clip-rule="evenodd" d="M60.207 33.2294L64.6564 33.2294C64.8536 34.7798 65.6107 35.668 67.6862 35.668C69.531 35.668 70.3885 34.9777 70.3885 33.7921C70.3885 32.6034 69.3683 32.1104 66.8951 31.7476C62.3161 31.0546 60.5361 29.7356 60.5361 26.3736C60.5361 22.7819 63.8318 21.0012 67.3571 21.0012C71.1785 21.0012 74.0446 22.3852 74.4742 26.3407L70.0919 26.3407C69.8287 24.9232 69.0382 24.2632 67.3895 24.2632C65.8419 24.2632 64.9514 24.9892 64.9514 26.0444C64.9514 27.1342 65.7765 27.5613 68.2795 27.9235C72.5954 28.549 74.9676 29.6388 74.9676 33.3283C74.9676 37.0546 72.2679 38.9996 67.7197 38.9996C63.0737 38.9996 60.3734 36.9557 60.207 33.2294Z" fill="#A4A4A4"/>
</g>
<mask id="mask1" mask-type="alpha" maskUnits="userSpaceOnUse" x="35" y="21" width="77" height="18">
<path d="M112 38.9984L112 21L35.3491 21L35.3491 38.9984L112 38.9984Z" fill="#A4A4A4"/>
</mask>
<g mask="url(#mask1)">
<path fill-rule="evenodd" clip-rule="evenodd" d="M81.2285 38.6356L81.2285 21.3967L76.4814 21.3967L76.4814 38.6356L81.2285 38.6356Z" fill="#A4A4A4"/>
<path fill-rule="evenodd" clip-rule="evenodd" d="M95.5261 28.1522C95.3613 25.5487 94.0439 24.2961 91.7695 24.2961C89.6281 24.2961 88.1793 25.7125 87.8173 28.1522L95.5261 28.1522ZM82.9065 30.2286L82.9065 29.9658C82.9065 24.527 86.7614 21.0001 91.7695 21.0001C96.2183 21.0001 100.172 23.602 100.172 29.7685L100.172 31.087L87.7503 31.087C87.8805 33.9527 89.4313 35.6026 92.0348 35.6026C94.2417 35.6026 95.3283 34.6457 95.6255 33.1953L100.139 33.1953C99.5799 36.9211 96.6138 38.9985 91.9024 38.9985C86.696 38.9985 82.9065 35.735 82.9065 30.2286Z" fill="#A4A4A4"/>
<path fill-rule="evenodd" clip-rule="evenodd" d="M101.653 21.3967L106.43 21.3967L106.43 24.6906C107.518 22.3839 109.198 21.1643 111.999 21.1313L111.999 25.582C108.475 25.549 106.43 26.7032 106.43 29.9992L106.43 38.6356L101.653 38.6356L101.653 21.3967Z" fill="#A4A4A4"/>
<path fill-rule="evenodd" clip-rule="evenodd" d="M110.133 36.6669C110.402 36.6669 110.538 36.5579 110.538 36.3463V36.3367C110.538 36.1017 110.395 36.0082 110.133 36.0082H109.82V36.6669H110.133ZM109.508 35.7631H110.141C110.563 35.7631 110.842 35.9486 110.842 36.3298V36.3367C110.842 36.6328 110.674 36.7939 110.41 36.8535L110.961 37.6892H110.614L110.1 36.904H109.82V37.6892H109.508V35.7631ZM111.746 36.7594C111.746 35.8136 111.062 35.1209 110.133 35.1209C109.212 35.1209 108.519 35.8226 108.519 36.7679C108.519 37.7238 109.228 38.391 110.133 38.391C111.045 38.391 111.746 37.7057 111.746 36.7594ZM108.256 36.7679C108.256 35.7291 109.085 34.8933 110.133 34.8933C111.197 34.8933 112.008 35.7205 112.008 36.7594C112.008 37.8163 111.181 38.626 110.133 38.626C109.092 38.626 108.256 37.8248 108.256 36.7679Z" fill="#A4A4A4"/>
</g>
</svg>
