<svg width="146" height="60" viewBox="0 0 146 60" fill="none" xmlns="http://www.w3.org/2000/svg">
<path d="M37.356 25.712C37.356 26.1165 37.0352 26.4373 36.6297 26.4373C36.2241 26.4373 35.9033 26.1165 35.9033 25.712C35.9033 25.3075 36.2241 24.9867 36.6297 24.9867C37.0201 24.9867 37.356 25.3216 37.356 25.712Z" fill="#A4A4A4"/>
<path d="M43.2078 25.712C43.2078 25.3075 42.887 24.9867 42.4815 24.9867C42.0759 24.9867 41.7551 25.3075 41.7551 25.712C41.7551 26.1165 42.0759 26.4373 42.4815 26.4373C42.887 26.4373 43.2078 26.1165 43.2078 25.712Z" fill="#A4A4A4"/>
<path d="M48.6554 41.4269C50.4147 41.4269 52.1882 40.7712 53.542 39.4457L53.5561 39.4316C53.5702 39.4175 53.5843 39.4033 53.5974 39.3902C55.2165 37.6884 55.6917 35.1907 54.812 33.0279C54.3369 31.8557 53.43 30.9205 52.2568 30.4323C51.0836 29.9299 49.7994 29.9299 48.6131 30.404C46.6591 31.1858 45.7088 33.4183 46.5047 35.3713C46.6722 35.7899 47.1473 35.9856 47.566 35.8181C47.9846 35.6507 48.1803 35.1766 48.0128 34.772C47.566 33.6563 48.1107 32.3722 49.2274 31.9112C50.8334 31.2696 52.6623 32.0373 53.318 33.6412C53.9465 35.2038 53.6116 37.0176 52.4384 38.2594L52.4101 38.2876C50.2876 40.3667 46.8669 40.3244 44.7868 38.2039C42.9437 36.3205 42.748 33.3063 44.3116 31.2131C44.354 31.1576 44.5487 30.9478 44.7172 30.7531C45.611 29.7483 46.5178 28.7164 46.8951 28.0596C47.802 26.5112 48.2913 24.7811 48.2913 23.1903C48.2913 22.1159 48.0814 21.0829 47.6487 20.1065C47.7879 19.5062 48.2207 17.8185 48.6262 16.2973C48.6958 16.0179 48.6262 15.7395 48.4305 15.5296C48.2348 15.3208 47.9422 15.2361 47.6769 15.2926C46.1688 15.6134 44.4801 15.9624 43.8799 16.0603C42.5816 15.3632 41.1017 15 39.5936 15C34.8049 15 30.9101 18.67 30.9101 23.1903C30.9101 24.7811 31.4124 26.5253 32.3062 28.0596C32.6835 28.7154 33.5773 29.7483 34.47 30.739C34.6375 30.9347 34.8332 31.1576 34.8756 31.199C36.4674 33.3335 36.2717 36.2781 34.4004 38.1898C33.3957 39.2228 32.0409 39.7947 30.6024 39.8089C29.178 39.823 27.8242 39.2924 26.7912 38.2876V38.2735L26.7771 38.2453C25.618 37.0035 25.2831 35.1897 25.9257 33.613C26.2334 32.8322 26.8336 32.2319 27.6154 31.897C28.3831 31.5762 29.2345 31.5621 30.0163 31.8688C31.133 32.3157 31.6777 33.5988 31.2308 34.7297C31.0634 35.1483 31.2591 35.6083 31.6777 35.7899C32.0964 35.9574 32.5715 35.7617 32.739 35.343C33.5208 33.39 32.5856 31.1707 30.6306 30.3758C29.4574 29.9017 28.1591 29.9158 26.9869 30.404C25.8137 30.9064 24.9068 31.8274 24.4317 32.9996C23.5661 35.1483 24.0272 37.6319 25.5908 39.3206L25.6049 39.3489C25.619 39.363 25.6331 39.3771 25.6463 39.4043C26.9869 40.7158 28.7593 41.428 30.6306 41.3997C32.5019 41.3856 34.2602 40.632 35.5726 39.2924C36.7458 38.0919 37.457 36.5021 37.5549 34.8275C37.6527 33.1671 37.1645 31.5208 36.187 30.1952C36.1174 30.0974 35.9913 29.9582 35.6987 29.6233C35.1257 28.9817 34.0514 27.7671 33.7296 27.1951C32.976 25.8978 32.5564 24.4462 32.5564 23.1348C32.5564 19.5072 35.726 16.5626 39.6208 16.5626C40.9333 16.5626 42.2174 16.8975 43.3341 17.5391C43.4602 17.6087 43.6136 17.6511 43.7669 17.6511C44.1159 17.637 45.5403 17.3575 46.7549 17.0932C46.4341 18.3209 46.0568 19.7584 46.0286 20.051C46.0145 20.2043 46.0427 20.3435 46.0982 20.4837C46.4886 21.321 46.6984 22.1997 46.6984 23.1207C46.6984 24.4321 46.2798 25.8837 45.5252 27.181C45.1903 27.753 44.1149 28.9675 43.543 29.6091C43.2494 29.9299 43.1243 30.0833 43.0547 30.167C42.0631 31.4925 41.5748 33.1388 41.6727 34.7993C41.7705 36.4739 42.4827 38.0647 43.6549 39.2641C45.0117 40.7158 46.8265 41.4269 48.6554 41.4269Z" fill="#A4A4A4"/>
<path d="M39.6772 29.48C40.7515 29.48 41.1994 29.0472 41.1994 28.8101C41.1994 28.5589 41.0037 28.5176 40.7666 28.5176H38.2679C38.0167 28.5176 37.821 28.5589 37.821 28.8101C37.821 29.0613 38.2961 29.48 39.3433 29.48H39.6772Z" fill="#A4A4A4"/>
<path d="M47.0011 44.9999C47.448 44.9999 47.8111 44.6367 47.8111 44.1908C47.8111 43.744 47.448 43.3818 47.0011 43.3818C45.6332 43.3818 43.9576 42.7402 42.6452 41.6931C41.8079 41.0374 40.4118 39.6554 40.4118 37.8002C40.4118 37.3534 40.0486 36.9912 39.6017 36.9912H39.5735C39.1266 36.9912 38.7634 37.3544 38.7634 37.8002C38.7634 39.6564 37.3673 41.0374 36.53 41.6931C35.2034 42.7261 33.542 43.3818 32.1741 43.3818C31.7272 43.3818 31.364 43.745 31.364 44.1908C31.364 44.6377 31.7272 44.9999 32.1741 44.9999C33.9193 44.9999 35.9156 44.2463 37.5357 42.9763C38.4154 42.2782 39.1135 41.4974 39.5876 40.6601C40.0627 41.4974 40.7608 42.2782 41.6394 42.9763C43.2454 44.2463 45.2559 44.9999 47.0011 44.9999Z" fill="#A4A4A4"/>
<path d="M69.6695 26.0435V34.3456H67.9825V28.5532L65.8255 34.3456H64.3555L62.1985 28.5771V34.3456H60.4995V26.0435H62.5597L65.1142 32.288L67.6202 26.0435H69.6695Z" fill="#A4A4A4"/>
<path d="M75.248 28.0662C75.65 28.3282 75.935 28.6804 76.1035 29.1249V27.7575H77.7905V34.3466H76.1035V32.9673C75.935 33.4119 75.65 33.7662 75.248 34.0314C74.846 34.2966 74.364 34.4303 73.8021 34.4303C73.2396 34.4303 72.7341 34.2956 72.2841 34.026C71.8336 33.7564 71.4821 33.3662 71.2301 32.8543C70.9771 32.3423 70.8501 31.7423 70.8501 31.0521C70.8501 30.3619 70.9771 29.7619 71.2301 29.2499C71.4836 28.738 71.8346 28.3477 72.2841 28.0782C72.7331 27.8086 73.2396 27.6738 73.8021 27.6738C74.364 27.6738 74.846 27.8043 75.248 28.0662ZM73.0546 29.6477C72.7331 29.989 72.5726 30.4564 72.5726 31.051C72.5726 31.6456 72.7331 32.1119 73.0546 32.4488C73.3761 32.7858 73.8011 32.9543 74.332 32.9543C74.846 32.9543 75.27 32.7814 75.6025 32.4369C75.936 32.0923 76.1025 31.6303 76.1025 31.051C76.1025 30.464 75.936 29.9988 75.6025 29.6532C75.269 29.3086 74.845 29.1358 74.332 29.1358C73.8021 29.1369 73.3761 29.3075 73.0546 29.6477Z" fill="#A4A4A4"/>
<path d="M84.9284 28.313C85.3864 28.813 85.6154 29.5141 85.6154 30.4184V34.2489H83.9289V30.6097C83.9289 30.0869 83.7924 29.6804 83.5189 29.3902C83.2459 29.1011 82.8729 28.9565 82.3984 28.9565C81.9159 28.9565 81.5304 29.1108 81.2419 29.4206C80.9534 29.7304 80.8084 30.1739 80.8084 30.7532V34.25H79.1094V27.6608H80.8084V28.9815C80.9844 28.538 81.2764 28.1902 81.6814 27.9402C82.0864 27.6902 82.5544 27.5652 83.0854 27.5652C83.8559 27.5641 84.4704 27.8141 84.9284 28.313Z" fill="#A4A4A4"/>
<path d="M87.7177 27.6738L89.5367 32.1456L91.2237 27.6738H93.0912L89.0062 37.4032H87.1267L88.6327 34.0727L85.8252 27.6738H87.7177Z" fill="#A4A4A4"/>
<path d="M100.17 26.6369C100.869 27.1761 101.33 27.9097 101.555 28.8369H99.7721C99.5871 28.3847 99.2996 28.0282 98.9106 27.7663C98.5211 27.5043 98.0531 27.3739 97.5071 27.3739C97.0566 27.3739 96.6516 27.4847 96.2901 27.7065C95.9291 27.9282 95.6471 28.2456 95.4466 28.6576C95.2466 29.0695 95.1451 29.5543 95.1451 30.1087C95.1451 30.6554 95.2451 31.1358 95.4466 31.5478C95.6471 31.9597 95.9291 32.2771 96.2901 32.4989C96.6516 32.7206 97.0576 32.8315 97.5071 32.8315C98.0531 32.8315 98.5211 32.701 98.9106 32.4391C99.3006 32.1771 99.5871 31.8206 99.7721 31.3684H101.555C101.33 32.2967 100.868 33.0293 100.17 33.5684C99.4701 34.1076 98.5916 34.3771 97.5311 34.3771C96.7196 34.3771 96.0031 34.1967 95.3806 33.8358C94.7586 33.475 94.2766 32.9695 93.9351 32.3195C93.5936 31.6695 93.4231 30.9326 93.4231 30.1076C93.4231 29.275 93.5936 28.5337 93.9351 27.8837C94.2766 27.2337 94.7566 26.7282 95.3751 26.3673C95.9941 26.0064 96.7131 25.826 97.5321 25.826C98.5916 25.8271 99.4711 26.0977 100.17 26.6369Z" fill="#A4A4A4"/>
<path d="M108.492 28.3652C108.95 28.8652 109.179 29.5663 109.179 30.4707V34.3011H107.492V30.662C107.492 30.1391 107.356 29.7326 107.083 29.4424C106.81 29.1533 106.436 29.0087 105.962 29.0087C105.479 29.0087 105.094 29.1631 104.806 29.4728C104.517 29.7826 104.372 30.2261 104.372 30.8054V34.3022H102.673V25.5H104.372V29.0326C104.548 28.5891 104.84 28.2413 105.245 27.9913C105.65 27.7413 106.118 27.6163 106.649 27.6163C107.42 27.6163 108.034 27.8663 108.492 28.3652Z" fill="#A4A4A4"/>
<path d="M114.557 28.0662C114.959 28.3282 115.244 28.6804 115.413 29.1249V27.7575H117.1V34.3466H115.413V32.9673C115.244 33.4119 114.959 33.7662 114.557 34.0314C114.156 34.2966 113.673 34.4303 113.112 34.4303C112.549 34.4303 112.044 34.2956 111.593 34.026C111.143 33.7564 110.792 33.3662 110.54 32.8543C110.286 32.3423 110.16 31.7423 110.16 31.0521C110.16 30.3619 110.286 29.7619 110.54 29.2499C110.793 28.738 111.144 28.3477 111.593 28.0782C112.043 27.8086 112.549 27.6738 113.112 27.6738C113.673 27.6738 114.156 27.8043 114.557 28.0662ZM112.364 29.6477C112.043 29.989 111.882 30.4564 111.882 31.051C111.882 31.6456 112.043 32.1119 112.364 32.4488C112.686 32.7858 113.111 32.9543 113.641 32.9543C114.156 32.9543 114.579 32.7814 114.912 32.4369C115.246 32.0923 115.412 31.6303 115.412 31.051C115.412 30.464 115.246 29.9988 114.912 29.6532C114.578 29.3086 114.154 29.1358 113.641 29.1358C113.112 29.1369 112.686 29.3075 112.364 29.6477Z" fill="#A4A4A4"/>
<path d="M121.999 34.263H121.107C120.361 34.263 119.788 34.0847 119.391 33.7282C118.993 33.3717 118.794 32.7771 118.794 31.9445V29.088H117.866V27.6728H118.794V26.0435H120.493V27.6728H121.987V29.088H120.493V31.9663C120.493 32.2837 120.557 32.5054 120.686 32.6326C120.814 32.7597 121.031 32.8228 121.336 32.8228H121.999V34.263Z" fill="#A4A4A4"/>
</svg>
