<svg width="146" height="60" viewBox="0 0 146 60" fill="none" xmlns="http://www.w3.org/2000/svg">
<path d="M32.527 30.2209C32.527 31.5641 32.6095 32.7658 32.9276 33.9558C33.1514 34.7923 33.4578 35.5817 33.9998 36.2769C34.7067 37.1723 35.6257 37.6789 36.7567 37.8085C37.7464 37.9264 38.6537 37.6672 39.5609 37.3137C39.9615 37.1605 40.15 37.2194 40.3267 37.6082C40.4681 37.9028 40.6095 38.1973 40.7509 38.5037C40.904 38.8571 40.8451 39.0928 40.5034 39.2577C39.7494 39.6112 38.9718 39.8822 38.1352 39.9529C37.5226 40.0118 36.9099 40.0118 36.2972 39.9647C34.3768 39.7879 32.8569 38.9396 31.7494 37.3608C30.9953 36.2887 30.5712 35.0987 30.312 33.8262C30.1235 32.9072 30.041 31.9882 30.0056 31.0457C29.9821 29.9381 30.0292 28.8424 30.2059 27.7703C30.4769 26.215 30.9953 24.7541 31.9497 23.4934C32.9512 22.162 34.2825 21.3608 35.9202 21.0545C37.0631 20.8424 38.1942 20.9013 39.3134 21.1605C39.714 21.2548 40.1028 21.4197 40.4563 21.6436C40.8098 21.8675 40.8805 22.1384 40.6802 22.5037C40.5388 22.7747 40.4092 23.0457 40.2678 23.3049C40.0793 23.6465 39.879 23.7172 39.5255 23.5641C39.0896 23.3756 38.6654 23.187 38.1942 23.1046C36.9099 22.8925 35.6964 23.0692 34.6242 23.8586C33.9291 24.377 33.4696 25.0839 33.1632 25.8969C32.8805 26.651 32.7273 27.4286 32.633 28.2298C32.5623 28.9367 32.5152 29.6318 32.527 30.2209Z" fill="#A4A4A4"/>
<path d="M56.9037 29.137C56.9037 26.4035 56.9037 23.6701 56.9037 20.9367C56.9037 20.8778 56.9037 20.8189 56.9037 20.7717C56.8684 20.2887 57.1158 19.9941 57.646 20.0177C57.9287 20.0295 58.2115 20.0177 58.4943 20.0177C58.8831 20.0295 59.0834 20.2415 59.0952 20.6186C59.0952 20.7246 59.0952 20.8306 59.0952 20.9249C59.0952 26.2386 59.0952 31.5641 59.0952 36.8778C59.0952 37.137 59.0952 37.408 59.1541 37.6672C59.2365 38.0324 59.3661 38.1384 59.7432 38.1384C59.9199 38.1384 60.0966 38.1031 60.2734 38.0677C60.6386 37.9971 60.8271 38.1149 60.9096 38.4801C60.9567 38.704 61.0039 38.9161 61.051 39.1399C61.1099 39.4462 61.0039 39.6583 60.7093 39.7526C60.509 39.8233 60.3087 39.8704 60.1084 39.9057C59.59 40 59.0834 40.0236 58.565 39.9293C57.6695 39.7526 57.0333 39.0457 56.9508 38.0913C56.9273 37.7614 56.9037 37.4315 56.9037 37.1016C56.9155 34.4507 56.9037 31.7879 56.9037 29.137Z" fill="#A4A4A4"/>
<path d="M54.194 28.9013C54.194 31.5523 54.194 34.2032 54.194 36.8424C54.194 37.0898 54.2058 37.3373 54.2411 37.5729C54.2529 37.6672 54.2765 37.7614 54.3118 37.8439C54.3825 38.0206 54.5121 38.1267 54.7242 38.1267C54.9481 38.1267 55.1719 38.1031 55.3958 38.056C55.7375 37.9853 55.9142 38.0913 55.9967 38.433C56.0556 38.6568 56.1027 38.8925 56.1498 39.1163C56.2205 39.4462 56.1145 39.6465 55.7846 39.7526C55.0777 39.9764 54.3472 40.0707 53.6167 39.9057C52.7095 39.7172 52.1086 38.975 52.0379 38.0088C52.0261 37.8085 52.0261 37.6082 52.0261 37.4197C52.0261 31.8822 52.0261 26.3328 52.0261 20.7953C52.0261 20.7128 52.0261 20.6303 52.0261 20.5361C52.0379 20.2533 52.2382 20.0295 52.521 20.0177C52.9216 19.9941 53.3104 19.9941 53.711 20.0177C53.9937 20.0295 54.1822 20.2533 54.194 20.5479C54.194 20.6421 54.194 20.7364 54.194 20.8306C54.194 23.5169 54.194 26.2032 54.194 28.9013Z" fill="#A4A4A4"/>
<path d="M96.7978 28.2299C97.0334 27.8528 97.2337 27.4994 97.5047 27.2048C98.0703 26.5922 98.73 26.1798 99.6019 26.2034C99.9318 26.2151 100.25 26.2858 100.533 26.4743C100.78 26.6511 100.886 26.8867 100.804 27.1813C100.721 27.5347 100.639 27.9 100.533 28.2534C100.38 28.7365 100.309 28.8307 99.7551 28.7011C99.5312 28.6422 99.3191 28.5951 99.0953 28.5598C98.4355 28.4419 97.9406 28.7011 97.5518 29.2078C97.163 29.7262 96.9745 30.3271 96.8803 30.9515C96.8213 31.3403 96.8213 31.7409 96.8213 32.1297C96.8213 34.4272 96.8213 36.7247 96.8213 39.034C96.8213 39.1165 96.8213 39.1989 96.8213 39.2932C96.7978 39.5995 96.5857 39.8352 96.2794 39.8352C95.8906 39.8469 95.5018 39.8469 95.1247 39.8352C94.8302 39.8234 94.6063 39.5877 94.5828 39.2814C94.5828 39.2107 94.5828 39.1518 94.5828 39.0811C94.5828 35.087 94.5828 31.0929 94.5828 27.087C94.5828 27.0281 94.5828 26.9692 94.5828 26.9221C94.6063 26.5804 94.8066 26.3565 95.1483 26.3447C95.3604 26.333 95.5842 26.333 95.7963 26.3447C96.1616 26.3565 96.3265 26.4861 96.4208 26.8278C96.5032 27.1459 96.5739 27.464 96.6682 27.7821C96.6917 27.9353 96.7035 28.0767 96.7978 28.2299Z" fill="#A4A4A4"/>
<path d="M82.0115 31.2458C81.929 30.4093 81.764 29.6081 81.4224 28.8423C80.9157 27.7466 80.1852 26.8629 78.9953 26.4506C77.9349 26.0853 76.8863 26.0853 75.8848 26.6508C75.3664 26.9454 74.9776 27.3813 74.6595 27.8762C74.6123 27.9469 74.5888 28.0411 74.4827 28.0765C74.4827 27.9587 74.4827 27.8644 74.4827 27.7701C74.4827 25.8261 74.4827 23.8821 74.4827 21.9498C74.4827 21.5021 74.4827 21.0662 74.4827 20.6184C74.471 20.2414 74.2589 20.0293 73.8819 20.0176C73.6227 20.0058 73.3517 20.0293 73.0925 20.0176C72.468 19.9822 72.2795 20.2885 72.2913 20.8187C72.3031 26.8747 72.3031 32.9425 72.3031 38.9984C72.3031 39.0809 72.3031 39.1634 72.3031 39.2576C72.3149 39.5993 72.5387 39.8232 72.8686 39.8349C73.0689 39.8467 73.2692 39.8467 73.4577 39.8349C73.9408 39.8232 74.1293 39.67 74.2235 39.1751C74.2942 38.8335 74.3531 38.4918 74.4356 38.0912C74.5652 38.2797 74.6477 38.3975 74.7302 38.5154C75.2604 39.2576 75.9555 39.7289 76.8509 39.8939C77.6168 40.0352 78.3708 39.9999 79.1131 39.7525C79.7257 39.5522 80.2442 39.1987 80.6683 38.7156C81.0453 38.2679 81.3163 37.7731 81.5166 37.2311C82.0232 35.8644 82.1057 34.4388 82.1057 33.0014C82.0822 32.424 82.0704 31.8349 82.0115 31.2458ZM79.4548 35.9233C79.3605 36.3592 79.2191 36.7834 78.9835 37.1604C78.5829 37.7731 78.0291 38.103 77.2986 38.1265C76.2265 38.1737 75.4724 37.6906 75.0129 36.748C74.7655 36.2296 74.6359 35.6877 74.5534 35.1221C74.4121 34.1913 74.4003 33.2488 74.4474 32.3062C74.4827 31.5286 74.5888 30.7628 74.8362 30.0323C75.0247 29.4903 75.2957 29.0073 75.7081 28.5949C76.5328 27.7819 78.2648 27.8408 78.9364 29.0073C79.2427 29.5257 79.3959 30.0912 79.5255 30.6803C79.6904 31.4815 79.714 32.3062 79.7022 33.1427C79.7022 34.0617 79.6551 35.0043 79.4548 35.9233Z" fill="#A4A4A4"/>
<path d="M70.9013 39.3166C70.8777 39.1988 70.8541 39.081 70.8306 38.9514C70.6538 38.1738 70.5596 37.3961 70.5714 36.595C70.5831 34.8277 70.5714 33.0486 70.5714 31.2813C70.5714 30.645 70.5242 30.0088 70.43 29.3726C70.1708 27.6524 68.9101 26.5685 67.3195 26.2975C66.6126 26.1796 65.8939 26.1561 65.187 26.2268C64.3269 26.3093 63.5021 26.5095 62.6656 26.7098C62.4182 26.7687 62.265 26.969 62.2886 27.2165C62.3239 27.6053 62.3946 27.9823 62.5007 28.3475C62.5831 28.6067 62.807 28.7363 63.078 28.701C63.184 28.6892 63.2783 28.6657 63.3843 28.6303C63.7142 28.5478 64.0441 28.4654 64.374 28.3829C65.1634 28.1826 65.9528 28.1708 66.754 28.2886C67.7201 28.4418 68.2267 28.9956 68.3328 29.9735C68.3799 30.3741 68.3799 30.7629 68.3799 31.1634C68.3799 31.5994 68.3799 31.5994 67.9322 31.6229C67.1192 31.6701 66.3181 31.7054 65.5051 31.7525C64.9278 31.7879 64.3622 31.8586 63.8085 32.0118C62.5596 32.3534 61.7113 33.1428 61.2989 34.3564C60.9219 35.4639 60.9219 36.6067 61.2871 37.7143C61.6759 38.8925 62.5007 39.6229 63.7142 39.8939C64.5743 40.0824 65.4108 40 66.2474 39.729C66.9661 39.5051 67.5787 39.1163 68.05 38.5272C68.1796 38.3623 68.2974 38.1973 68.427 38.0206C68.4977 38.0677 68.4859 38.1031 68.4977 38.1384C68.5684 38.5508 68.6273 38.9749 68.7098 39.3873C68.7687 39.6936 68.9219 39.8232 69.24 39.835C69.6524 39.8468 70.0647 39.8468 70.4889 39.835C70.807 39.8232 70.9484 39.6465 70.9013 39.3166ZM67.7437 36.9602C67.0485 37.7967 66.1649 38.2444 65.0574 38.1855C64.2209 38.1384 63.6082 37.6671 63.4315 36.8424C63.2901 36.1944 63.3019 35.5464 63.5021 34.9219C63.7378 34.1679 64.2562 33.7084 64.9985 33.4845C65.4108 33.3667 65.8232 33.3078 66.2474 33.2724C66.8836 33.2253 67.5198 33.2135 68.1678 33.19C68.3799 33.1782 68.3799 33.19 68.3917 33.4138C68.3917 33.7673 68.3917 34.109 68.3917 34.4624C68.3917 34.6981 68.3799 34.9337 68.3917 35.1693C68.4153 35.8527 68.1678 36.4418 67.7437 36.9602Z" fill="#A4A4A4"/>
<path d="M110.135 39.1282C109.923 38.2092 109.817 37.2784 109.829 36.3241C109.84 34.7453 109.829 33.1783 109.829 31.5995C109.829 30.9043 109.817 30.2092 109.711 29.514C109.499 27.9824 108.686 26.9573 107.225 26.4507C106.4 26.1679 105.54 26.1444 104.68 26.1915C103.784 26.2504 102.913 26.4507 102.041 26.6628C101.628 26.757 101.51 26.922 101.558 27.3461C101.593 27.6525 101.664 27.9588 101.734 28.2651C101.805 28.5715 102.029 28.7129 102.347 28.6775C102.5 28.654 102.665 28.6186 102.818 28.5715C103.678 28.3123 104.55 28.1473 105.457 28.2062C105.823 28.2298 106.188 28.2887 106.53 28.4301C107.036 28.6304 107.354 28.9956 107.496 29.5258C107.637 30.0678 107.625 30.6216 107.637 31.1871C107.649 31.5759 107.637 31.5759 107.237 31.5995C106.424 31.6466 105.599 31.6819 104.786 31.7291C104.209 31.7644 103.631 31.8351 103.066 31.9883C101.864 32.3182 101.027 33.0604 100.591 34.2269C100.191 35.3344 100.179 36.4654 100.509 37.5847C100.874 38.8218 101.723 39.5995 102.995 39.8704C103.655 40.0118 104.303 39.9883 104.951 39.8469C105.905 39.6466 106.742 39.2224 107.354 38.433C107.46 38.2917 107.566 38.1503 107.684 37.9853C107.743 38.1031 107.755 38.1856 107.767 38.2681C107.826 38.6216 107.873 38.975 107.932 39.3285C107.979 39.623 108.144 39.7998 108.403 39.8115C108.874 39.8233 109.346 39.8233 109.817 39.8115C110.017 39.8115 110.123 39.6819 110.135 39.4816C110.17 39.3756 110.158 39.2578 110.135 39.1282ZM107.649 35.3461C107.614 36.1709 107.225 36.8307 106.636 37.3609C105.999 37.9264 105.257 38.221 104.385 38.1974C103.454 38.1621 102.842 37.679 102.665 36.76C102.547 36.1827 102.571 35.5936 102.724 35.028C102.936 34.2504 103.443 33.7438 104.209 33.5082C104.621 33.3785 105.057 33.3196 105.481 33.2961C106.129 33.2489 106.777 33.2372 107.425 33.2136C107.625 33.2018 107.637 33.2136 107.637 33.4139C107.637 33.732 107.637 34.0501 107.637 34.38C107.649 34.6864 107.661 35.0163 107.649 35.3461Z" fill="#A4A4A4"/>
<path d="M85.5697 33.6612C85.6404 33.6612 85.7229 33.6612 85.7936 33.6612C86.9011 33.6612 87.9968 33.6612 89.1044 33.6612C90.2236 33.6612 91.3429 33.6494 92.474 33.673C92.8628 33.6848 93.1809 33.3667 93.1574 32.9897C93.1338 32.5419 93.1338 32.0824 93.0985 31.6347C93.016 30.7629 92.851 29.9263 92.5211 29.1134C92.1912 28.3004 91.7317 27.5581 90.9895 27.0515C89.6228 26.1089 88.1147 25.9793 86.5712 26.4978C85.4166 26.8866 84.6154 27.7113 84.0499 28.7717C83.449 29.9145 83.2016 31.1399 83.1426 32.4123C83.1191 32.9897 83.1309 33.5788 83.178 34.1679C83.2487 35.0044 83.4018 35.8056 83.6964 36.5832C84.3562 38.268 85.5462 39.3755 87.3253 39.7997C88.1854 40 89.0572 40.0235 89.9409 39.9646C90.7421 39.9175 91.4961 39.7172 92.2384 39.4226C92.3208 39.3873 92.3915 39.352 92.4622 39.3166C92.7097 39.1752 92.8039 38.9749 92.7214 38.6922C92.6507 38.4447 92.5565 38.1855 92.4622 37.9499C92.3208 37.6082 92.1088 37.4904 91.7435 37.5846C91.5432 37.6318 91.3429 37.6907 91.1426 37.7496C90.1765 38.0206 89.1986 38.1148 88.2089 37.9617C87.4784 37.8556 86.8304 37.5611 86.3827 36.9484C85.6993 36.0059 85.5462 34.9101 85.4637 33.7908C85.4519 33.6966 85.4873 33.6612 85.5697 33.6612ZM85.499 31.5051C85.558 30.9278 85.6758 30.374 85.9114 29.8439C86.1117 29.3961 86.3474 28.972 86.7126 28.6303C87.7023 27.6995 89.1868 27.8173 90.0116 28.9013C90.3886 29.3961 90.5889 29.9499 90.7067 30.5508C90.7774 30.9278 90.8127 31.3166 90.8481 31.6936C90.8599 31.8468 90.801 31.8704 90.6714 31.8704C90.1176 31.8704 89.5638 31.8704 89.0101 31.8704C88.7155 31.8704 88.421 31.8704 88.1382 31.8704C87.3606 31.8704 86.5948 31.8704 85.8172 31.8704C85.4519 31.8586 85.4637 31.8586 85.499 31.5051Z" fill="#A4A4A4"/>
<path d="M50.9067 32.2827C50.8361 31.3402 50.6711 30.4094 50.3176 29.5375C49.811 28.2651 48.9863 27.2636 47.7256 26.6745C46.8537 26.2503 45.9112 26.1325 44.9333 26.2385C43.8257 26.3564 42.8714 26.8041 42.0702 27.5817C41.2455 28.3711 40.7742 29.3608 40.4914 30.4447C40.1498 31.7643 40.1026 33.0957 40.2558 34.4506C40.35 35.3343 40.5503 36.1944 40.9391 37.0073C41.8699 38.9396 43.4016 39.9646 45.5695 40C45.6873 40 45.7933 40 45.9112 40C46.0172 39.9882 46.1115 39.9764 46.2175 39.9646C47.6785 39.7997 48.8213 39.0927 49.6696 37.9028C50.4708 36.7835 50.7889 35.4874 50.895 34.1325C50.9421 33.5081 50.9539 32.8954 50.9067 32.2827ZM48.5268 34.6274C48.4325 35.3814 48.2676 36.1119 47.9023 36.7835C46.9715 38.4447 44.9922 38.3976 44.0143 37.6789C43.4369 37.2547 43.0953 36.6656 42.8832 35.9941C42.6829 35.3814 42.5886 34.7452 42.5533 34.1089C42.5179 33.4374 42.5062 32.7658 42.5533 32.106C42.624 31.187 42.7654 30.2916 43.2249 29.4786C43.5312 28.9366 43.9553 28.4889 44.5562 28.2768C45.758 27.8291 47.1718 28.1472 47.9141 29.4668C48.1733 29.9381 48.3383 30.4565 48.4443 30.9749C48.5975 31.6936 48.5975 32.4123 48.621 33.0721C48.5857 33.6259 48.5975 34.1325 48.5268 34.6274Z" fill="#A4A4A4"/>
<path d="M113.469 20.3004C112.456 20.3122 111.667 21.0898 111.667 22.1149C111.643 23.081 112.433 23.9293 113.469 23.9293C114.483 23.9293 115.319 23.1163 115.296 22.1031C115.272 21.0074 114.424 20.2887 113.469 20.3004ZM113.481 23.623C112.48 23.6348 111.961 22.8218 111.961 22.1267C111.961 21.2666 112.633 20.595 113.481 20.595C114.318 20.595 114.978 21.2666 114.978 22.1149C115.001 22.81 114.494 23.623 113.481 23.623Z" fill="#A4A4A4"/>
<path d="M113.705 22.2563C113.776 22.2209 113.858 22.1856 113.929 22.1502C114.117 22.0206 114.212 21.8439 114.176 21.62C114.141 21.4079 114.011 21.2666 113.799 21.2077C113.74 21.1959 113.693 21.1723 113.634 21.1723C113.375 21.1605 113.104 21.1723 112.845 21.1605C112.739 21.1605 112.692 21.2077 112.692 21.3137C112.692 21.8674 112.692 22.4212 112.692 22.975C112.692 23.081 112.739 23.1281 112.845 23.1281C112.951 23.1281 112.998 23.081 112.998 22.975C112.998 22.8336 112.998 22.6922 112.998 22.5508C112.998 22.2916 113.128 22.2091 113.363 22.3152C113.457 22.3623 113.528 22.4448 113.587 22.5272C113.67 22.6568 113.74 22.7864 113.823 22.916C113.964 23.1517 113.964 23.1517 114.282 23.081C114.129 22.7864 113.952 22.5037 113.705 22.2563ZM113.575 21.997C113.493 22.0088 113.41 22.0088 113.375 22.0088C112.963 22.0088 112.998 22.0442 112.998 21.6671C112.998 21.4315 112.998 21.4315 113.222 21.4315C113.34 21.4315 113.446 21.4315 113.564 21.4433C113.752 21.4669 113.846 21.5611 113.846 21.7261C113.835 21.8792 113.752 21.9735 113.575 21.997Z" fill="#A4A4A4"/>
</svg>
