<svg width="146" height="60" viewBox="0 0 146 60" fill="none" xmlns="http://www.w3.org/2000/svg">
<path fill-rule="evenodd" clip-rule="evenodd" d="M67.2317 28.8496H71.7157V12.3493H67.2317V28.8496ZM64.782 31.2017H74.1639V10H64.782V31.2017Z" fill="#9D9D9D"/>
<path fill-rule="evenodd" clip-rule="evenodd" d="M53 35.853H92.8784V33.5105H53V35.853Z" fill="#9D9D9D"/>
<path fill-rule="evenodd" clip-rule="evenodd" d="M55.4408 45.0063H66.9676V40.5345H55.4408V45.0063ZM53 49.9999H55.4408V47.3459H69.409V38.1926H53V49.9999Z" fill="#9D9D9D"/>
<path fill-rule="evenodd" clip-rule="evenodd" d="M83.4965 12.3493V31.2014H85.9447V17.0522L90.4277 12.3512V31.2014H92.8784V10H89.4373L85.9447 13.6518V10H82.5051L76.5615 16.1626V31.2014H79.0128V17.0531L83.4965 12.3493Z" fill="#9D9D9D"/>
<path fill-rule="evenodd" clip-rule="evenodd" d="M74.2381 45.0063H81.0391V40.5345H74.2381V45.0063ZM83.5856 45.0063H90.4384V40.5345H83.5856V45.0063ZM71.7961 47.3459H81.0394V49.9999H83.5856V47.3459H92.8788V38.1926H71.7961V47.3459Z" fill="#9D9D9D"/>
<path fill-rule="evenodd" clip-rule="evenodd" d="M55.4512 17.0531L59.9333 12.3512V28.8499H55.4512V17.0531ZM59.9333 31.2014H62.3833V10H58.9434L53.0005 16.1626V31.2014H59.9333Z" fill="#9D9D9D"/>
</svg>
