<svg width="146" height="60" viewBox="0 0 146 60" fill="none" xmlns="http://www.w3.org/2000/svg">
<path d="M41.278 35.9832C42.37 35.9832 43.4557 35.9832 44.5477 35.9832C44.9223 35.9832 45.2207 35.8372 45.4112 35.4944C45.5826 35.1896 45.5699 34.8849 45.3858 34.5928C45.189 34.2817 44.8842 34.1611 44.5223 34.1611C42.4589 34.1611 40.3955 34.1611 38.3321 34.1611C35.8878 34.1611 33.945 32.1231 34.0212 29.6787C34.0593 28.5296 34.5354 27.5963 35.2592 26.7328C38.1162 23.3234 40.9606 19.895 43.8239 16.4856C44.5477 15.6221 45.5064 15.1459 46.6429 15.0253C49.1888 14.7587 51.0237 16.6443 51.3602 18.5236C51.8109 21.006 50.084 23.3869 47.627 23.6155C46.6302 23.7107 45.6207 23.6726 44.6176 23.6789C43.3922 23.6853 42.1605 23.698 40.9352 23.6726C40.4209 23.6599 39.9384 23.9773 39.9066 24.5678C39.8812 25.0757 40.3257 25.4821 40.9098 25.4884C42.0399 25.5011 43.1764 25.4884 44.3065 25.4948C45.335 25.4948 46.3572 25.4821 47.3857 25.5138C49.2587 25.5709 50.9538 27.0502 51.3221 28.8914C51.6522 30.5231 51.0935 31.8437 50.0523 33.0754C47.4111 36.1864 44.8144 39.3355 42.205 42.4782C41.5256 43.3036 40.8209 44.0782 39.767 44.4273C37.2718 45.2337 34.491 43.9004 34.0466 40.9418C33.691 38.4911 35.4116 36.2626 37.8559 36.0086C38.8845 35.9007 39.9257 35.9832 40.9669 35.9832C41.0685 35.9832 41.1764 35.9832 41.278 35.9832Z" fill="#9D9D9D"/>
<path d="M65.0926 38.9164C64.7053 39.5703 64.318 40.2179 63.9244 40.8719C63.7022 41.2464 63.4863 41.6147 63.2578 41.9893C63.0419 42.3512 62.4451 42.3575 62.2229 42.002C61.6451 41.056 61.0674 40.11 60.4896 39.1576C60.4579 39.1068 60.4198 39.0561 60.3309 38.9227C60.3309 40.3195 60.3309 41.621 60.3309 42.9543C59.8039 42.9543 59.315 42.9543 58.8008 42.9543C58.8008 40.6306 58.8008 38.3196 58.8008 35.9768C59.2198 35.9768 59.6325 35.9641 60.0388 35.9895C60.1277 35.9959 60.2293 36.1292 60.2928 36.2308C61.042 37.4688 61.7848 38.7069 62.534 39.9513C62.5975 40.0592 62.6673 40.1608 62.7625 40.3068C63.0165 39.8814 63.2514 39.4878 63.4863 39.0878C64.0577 38.1228 64.6291 37.1641 65.1942 36.199C65.2831 36.0466 65.372 35.9705 65.5624 35.9768C65.9116 35.9959 66.2608 35.9832 66.6481 35.9832C66.6481 38.3196 66.6481 40.6369 66.6481 42.967C66.1656 42.967 65.6894 42.967 65.1561 42.967C65.1561 41.6147 65.1561 40.2814 65.1561 38.9418C65.1434 38.9227 65.118 38.9227 65.0926 38.9164Z" fill="#9D9D9D"/>
<path d="M79.1746 28.663C79.1746 29.9582 79.1746 31.2534 79.1746 32.574C78.6604 32.574 78.1715 32.574 77.6572 32.574C77.6572 30.2693 77.6572 27.9583 77.6572 25.5965C78.0699 25.5965 78.4889 25.5838 78.908 25.6092C78.9905 25.6155 79.073 25.7489 79.1302 25.8441C79.8794 27.0821 80.6285 28.3202 81.3714 29.5646C81.4349 29.6725 81.5047 29.7805 81.5936 29.9265C81.8031 29.5836 81.9872 29.2725 82.1713 28.9614C82.7935 27.9139 83.4157 26.8726 84.0252 25.8251C84.1205 25.66 84.2284 25.5774 84.4252 25.5901C84.7681 25.6028 85.1173 25.5965 85.4982 25.5965C85.4982 27.9393 85.4982 30.2503 85.4982 32.5803C85.0093 32.5803 84.5205 32.5803 83.9935 32.5803C83.9935 31.2344 83.9935 29.8947 83.9935 28.5615C83.9744 28.5551 83.9554 28.5488 83.9363 28.5424C83.8792 28.6313 83.8157 28.7265 83.7586 28.8154C83.1935 29.7614 82.6348 30.7011 82.0698 31.647C81.8793 31.9708 81.2698 31.9708 81.073 31.647C80.5397 30.7709 80.0063 29.8947 79.473 29.0186C79.3968 28.8916 79.3143 28.771 79.2381 28.6503C79.2191 28.6503 79.1937 28.6567 79.1746 28.663Z" fill="#9D9D9D"/>
<path d="M110.469 38.1864C110.469 37.9705 110.469 37.8054 110.469 37.615C110.964 37.615 111.441 37.615 111.929 37.615C111.942 37.6467 111.967 37.6721 111.967 37.7038C111.961 39.2784 111.999 40.8593 111.936 42.4275C111.872 43.9385 111.123 44.7321 109.631 44.9417C108.641 45.0813 107.669 44.9798 106.755 44.5353C106.603 44.4655 106.463 44.3639 106.285 44.2623C106.495 43.875 106.698 43.5131 106.907 43.1322C107.536 43.5703 108.215 43.7481 108.952 43.729C109.942 43.6973 110.444 43.1576 110.368 42.0973C109.745 42.6878 109.003 42.783 108.234 42.6814C107.453 42.5798 106.818 42.1989 106.393 41.5196C105.733 40.4783 105.917 39.0308 106.806 38.2054C107.784 37.2975 109.237 37.2785 110.469 38.1864ZM107.593 40.1165C107.599 40.8974 108.196 41.437 109.034 41.4243C109.853 41.4116 110.425 40.8593 110.412 40.0847C110.399 39.3101 109.834 38.7959 108.99 38.8022C108.158 38.8086 107.587 39.3419 107.593 40.1165Z" fill="#9D9D9D"/>
<path d="M98.8377 32.5738C98.3615 32.5738 97.8917 32.5738 97.3901 32.5738C97.3838 32.4151 97.3711 32.25 97.3584 32.0278C96.6536 32.7071 95.841 32.7706 94.9775 32.5865C94.3743 32.4595 93.8855 32.1421 93.5236 31.6405C92.73 30.5548 92.8379 28.8215 93.7521 27.8819C94.5013 27.1073 96.1457 26.7518 97.2822 27.7041C97.2822 26.8407 97.2822 26.0217 97.2822 25.1836C97.8282 25.1836 98.317 25.1836 98.844 25.1836C98.8377 27.647 98.8377 30.104 98.8377 32.5738ZM97.3203 29.9009C97.3203 29.0184 96.7552 28.4089 95.9489 28.4152C95.1616 28.4216 94.5902 29.0374 94.5902 29.8945C94.5902 30.7707 95.1489 31.3929 95.9552 31.3929C96.7552 31.3992 97.3203 30.7834 97.3203 29.9009Z" fill="#9D9D9D"/>
<path d="M58.249 31.9261C58.4395 31.5007 58.6173 31.1071 58.7633 30.7769C59.3664 30.9801 59.9378 31.2277 60.541 31.3483C60.96 31.4309 61.4235 31.3737 61.8552 31.3166C62.2235 31.2658 62.4457 30.9928 62.4647 30.7134C62.4838 30.3515 62.2362 30.1611 61.9505 30.0722C61.3473 29.8754 60.7315 29.723 60.122 29.5516C59.9823 29.5135 59.8363 29.469 59.6966 29.4182C58.9855 29.1452 58.4712 28.6945 58.4014 27.8945C58.3252 27.0374 58.6554 26.3644 59.4045 25.9263C60.2236 25.4501 61.1188 25.4247 62.0203 25.52C62.6298 25.5835 63.2203 25.7485 63.7726 26.0977C63.6075 26.5041 63.4488 26.904 63.3091 27.2469C62.7187 27.0945 62.16 26.9104 61.5886 26.8152C61.2648 26.7644 60.9156 26.8215 60.5918 26.8977C60.2172 26.9802 60.0077 27.2596 60.0077 27.5643C60.0077 27.9262 60.2489 28.0913 60.5473 28.1802C61.1315 28.3516 61.7283 28.504 62.3124 28.6754C62.5282 28.7389 62.7377 28.8024 62.9409 28.8849C64.5091 29.5452 64.2488 31.3483 63.3917 32.0404C62.852 32.4784 62.2171 32.6626 61.5441 32.7133C60.6235 32.7895 59.7283 32.6499 58.8776 32.288C58.6808 32.18 58.4776 32.0467 58.249 31.9261Z" fill="#9D9D9D"/>
<path d="M85.3152 42.9671C84.6549 42.9671 84.0771 42.9734 83.5057 42.9607C83.4232 42.9607 83.3279 42.8592 83.2645 42.783C82.7565 42.1608 82.255 41.5322 81.7598 40.9227C80.8201 41.3291 80.9661 42.1481 80.9979 42.9417C80.4582 42.9417 79.9567 42.9417 79.4297 42.9417C79.4297 40.4973 79.4297 38.053 79.4297 35.5769C79.9313 35.5769 80.4328 35.5769 80.9725 35.5769C80.9725 36.9229 80.9725 38.2689 80.9725 39.6148C80.9979 39.6275 81.0233 39.6402 81.0487 39.6529C81.3915 39.3355 81.728 39.0117 82.0709 38.6942C82.3693 38.4085 82.6804 38.1419 82.9661 37.8371C83.1502 37.6403 83.3406 37.5641 83.6073 37.5768C84.0771 37.5959 84.5533 37.5832 85.1184 37.5832C84.3438 38.3768 83.6263 39.1133 82.8899 39.8688C83.6835 40.891 84.4708 41.8941 85.3152 42.9671Z" fill="#9D9D9D"/>
<path d="M72.1913 42.4338C71.0675 43.4433 69.3596 43.0877 68.5978 42.3004C67.6645 41.3354 67.5692 39.545 68.42 38.472C69.2707 37.3927 70.7374 37.2213 72.1087 38.053C72.1214 37.9133 72.1278 37.78 72.1405 37.6213C72.6484 37.6213 73.15 37.6213 73.6769 37.6213C73.6769 39.3799 73.6769 41.1513 73.6769 42.948C73.2071 42.948 72.7309 42.948 72.2357 42.948C72.223 42.783 72.2103 42.6306 72.1913 42.4338ZM69.4295 40.2942C69.4358 41.183 69.9945 41.7608 70.8262 41.7544C71.6262 41.7481 72.1659 41.1449 72.1659 40.2624C72.1595 39.3799 71.6008 38.7958 70.7628 38.8022C69.9628 38.8149 69.4231 39.4117 69.4295 40.2942Z" fill="#9D9D9D"/>
<path d="M107.205 27.704C107.212 27.539 107.224 27.3993 107.231 27.2406C107.732 27.2406 108.221 27.2406 108.742 27.2406C108.742 29.0119 108.742 30.7769 108.742 32.5737C108.272 32.5737 107.796 32.5737 107.294 32.5737C107.281 32.4086 107.275 32.2499 107.262 32.0785C105.859 32.9483 104.463 32.8467 103.555 31.8118C102.672 30.8087 102.672 29.05 103.561 28.0024C104.405 27.0057 105.834 26.8787 107.205 27.704ZM107.224 29.9071C107.224 29.0373 106.678 28.4278 105.885 28.4151C105.078 28.4024 104.494 29.0246 104.488 29.8944C104.482 30.7706 105.047 31.3928 105.853 31.3991C106.666 31.3991 107.224 30.7896 107.224 29.9071Z" fill="#9D9D9D"/>
<path d="M92.2721 30.3644C90.9515 30.3644 89.6245 30.3644 88.2976 30.3644C88.3611 31.3168 90.0182 31.8882 91.1483 30.9104C91.415 31.2025 91.688 31.5009 91.9673 31.7993C91.6372 32.2056 91.2181 32.4405 90.7356 32.5548C89.9293 32.7453 89.123 32.7326 88.3421 32.4151C87.2373 31.9644 86.5707 30.885 86.6723 29.7232C86.7866 28.428 87.6056 27.4629 88.8119 27.2026C90.2214 26.8979 91.5165 27.4566 92.0752 28.5994C92.3292 29.1518 92.4181 29.8311 92.2721 30.3644ZM88.2532 29.4121C89.123 29.4121 89.9737 29.4121 90.8245 29.4121C90.7737 28.8089 90.2785 28.3581 89.6563 28.3328C88.8944 28.2947 88.3738 28.6883 88.2532 29.4121Z" fill="#9D9D9D"/>
<path d="M67.6256 32.6627C66.159 32.6691 65.0416 31.8564 64.7496 30.5739C64.3496 28.828 65.5368 27.2471 67.3272 27.1455C68.2605 27.0883 69.124 27.2725 69.8033 27.9645C70.635 28.8089 70.8001 29.8374 70.4065 30.9231C70.0065 32.0151 69.1367 32.5358 68.0066 32.6627C67.8796 32.6754 67.7526 32.6627 67.6256 32.6627ZM69.0034 29.8882C68.997 29.0311 68.4256 28.4153 67.6383 28.4153C66.813 28.4153 66.267 29.0248 66.267 29.939C66.2733 30.7961 66.8384 31.3993 67.6383 31.3929C68.4447 31.3929 69.0097 30.7707 69.0034 29.8882Z" fill="#9D9D9D"/>
<path d="M90.9968 40.7259C89.6508 40.7259 88.3239 40.7259 86.9906 40.7259C87.162 41.837 88.5461 42.1163 89.8603 41.2973C90.1206 41.583 90.3873 41.8687 90.7047 42.2179C90.4063 42.4211 90.146 42.6623 89.8349 42.783C88.7556 43.2147 87.6763 43.1766 86.6604 42.5988C85.6636 42.0338 85.1811 40.8846 85.416 39.7418C85.6509 38.5736 86.5335 37.7228 87.6699 37.5451C88.1905 37.4625 88.7048 37.4816 89.2064 37.6403C90.5079 38.0657 91.2126 39.2656 90.9968 40.7259ZM89.5429 39.7862C89.4222 39.0498 88.8127 38.6117 88.0762 38.7006C87.4414 38.7831 86.9461 39.2783 86.9969 39.7862C87.8477 39.7862 88.6921 39.7862 89.5429 39.7862Z" fill="#9D9D9D"/>
<path d="M104.932 42.9545C104.399 42.9545 103.904 42.9545 103.364 42.9545C103.364 42.8275 103.364 42.7132 103.364 42.6053C103.364 41.7609 103.364 40.9165 103.364 40.0657C103.358 39.3419 103.04 38.9292 102.45 38.8721C101.707 38.8023 101.186 39.1642 101.059 39.8562C101.015 40.1038 101.009 40.3578 101.002 40.6117C100.996 41.3799 101.002 42.1482 101.002 42.9418C100.475 42.9418 99.9737 42.9418 99.4531 42.9418C99.4531 41.1577 99.4531 39.3864 99.4531 37.596C99.942 37.596 100.418 37.596 100.926 37.596C100.926 37.7674 100.926 37.9325 100.926 38.1737C101.39 37.7737 101.859 37.5769 102.399 37.5071C103.84 37.323 104.901 38.2055 104.932 39.653C104.951 40.7514 104.932 41.8371 104.932 42.9545Z" fill="#9D9D9D"/>
<path d="M75.4419 29.1582C74.788 28.3201 73.9182 28.1804 73.2579 28.7772C72.6738 29.3042 72.6484 30.428 73.2071 30.993C73.842 31.6279 74.7055 31.5073 75.4483 30.6692C75.8292 30.8787 76.2165 31.0883 76.6038 31.2978C76.3308 32.2311 75.1118 32.8088 73.7404 32.6564C72.3881 32.5104 71.3215 31.4692 71.2262 30.2057C71.1183 28.7264 71.9437 27.5773 73.3722 27.2281C74.788 26.8852 76.1276 27.3995 76.6292 28.5106C76.2356 28.7264 75.8419 28.936 75.4419 29.1582Z" fill="#9D9D9D"/>
<path d="M92.2795 38.9102C91.9811 38.9102 91.7271 38.9102 91.4541 38.9102C91.4541 38.5038 91.4541 38.1356 91.4541 37.7166C91.7208 37.7166 91.9811 37.7166 92.2668 37.7166C92.2668 37.2658 92.2668 36.8595 92.2668 36.4277C92.8001 36.4277 93.2953 36.4277 93.8223 36.4277C93.8223 36.8404 93.8223 37.2468 93.8223 37.7039C94.273 37.7039 94.6984 37.7039 95.1428 37.7039C95.1428 38.1229 95.1428 38.4975 95.1428 38.9102C94.7111 38.9102 94.2921 38.9102 93.8286 38.9102C93.8286 39.3737 93.8286 39.8054 93.8286 40.2308C93.8286 40.4847 93.8286 40.7387 93.8286 40.9926C93.835 41.691 94.273 41.9831 94.927 41.7228C94.9968 41.6974 95.0603 41.6593 95.1365 41.6212C95.1746 41.7228 95.2127 41.8053 95.2508 41.8942C95.3524 42.1608 95.4539 42.4212 95.5746 42.7449C95.3333 42.8338 95.1175 42.9735 94.8889 42.9862C94.4318 43.0116 93.9556 43.037 93.5112 42.9418C92.7048 42.764 92.2922 42.1354 92.2795 41.2148C92.2668 40.4593 92.2795 39.7101 92.2795 38.9102Z" fill="#9D9D9D"/>
<path d="M75.1562 37.6087C75.6515 37.6087 76.1213 37.6087 76.6229 37.6087C76.6229 37.8055 76.6229 37.9896 76.6229 38.269C77.1498 37.6975 77.7593 37.5198 78.4641 37.5134C78.4641 37.9833 78.4641 38.4404 78.4641 38.9483C78.318 38.9483 78.1657 38.9419 78.0133 38.9483C77.2895 38.9737 76.7943 39.3927 76.7498 40.1102C76.699 40.8974 76.7244 41.6974 76.7181 42.491C76.7181 42.637 76.7181 42.7831 76.7181 42.9545C76.1848 42.9545 75.6896 42.9545 75.1626 42.9545C75.1563 41.1704 75.1562 39.4118 75.1562 37.6087Z" fill="#9D9D9D"/>
<path d="M101.854 32.5865C101.327 32.5865 100.832 32.5865 100.317 32.5865C100.317 30.8025 100.317 29.0248 100.317 27.2344C100.838 27.2344 101.333 27.2344 101.854 27.2344C101.854 29.0184 101.854 30.7898 101.854 32.5865Z" fill="#9D9D9D"/>
<path d="M97.9808 42.9542C97.4665 42.9542 96.965 42.9542 96.4443 42.9542C96.4443 41.1702 96.4443 39.3988 96.4443 37.6147C96.9586 37.6147 97.4602 37.6147 97.9808 37.6147C97.9808 39.3925 97.9808 41.1638 97.9808 42.9542Z" fill="#9D9D9D"/>
<path d="M97.2063 36.8466C96.6476 36.8466 96.2413 36.4847 96.2413 35.9768C96.2349 35.4562 96.6476 35.0816 97.219 35.088C97.7777 35.088 98.1968 35.4626 98.1904 35.9514C98.1904 36.472 97.7714 36.853 97.2063 36.8466Z" fill="#9D9D9D"/>
<path d="M101.079 26.4663C100.501 26.4663 100.107 26.1171 100.107 25.6028C100.107 25.0885 100.495 24.733 101.066 24.7266C101.644 24.7203 102.057 25.0695 102.063 25.5647C102.063 26.0853 101.65 26.4663 101.079 26.4663Z" fill="#9D9D9D"/>
</svg>
