<svg width="146" height="60" viewBox="0 0 146 60" fill="none" xmlns="http://www.w3.org/2000/svg">
<path d="M73.3416 29.7596C74.5207 28.3205 75.6348 26.9742 76.7304 25.6001C77.0554 25.1916 77.4175 24.9781 77.9467 25.0059C78.513 25.0431 79.0887 25.0059 79.6643 25.0152C80.2585 25.0245 80.5835 25.3402 80.5835 25.9344C80.5927 28.8497 80.5927 31.7557 80.5835 34.671C80.5835 35.2745 80.2771 35.5902 79.6736 35.6088C79.0237 35.6273 78.3738 35.6273 77.7238 35.6088C77.0925 35.5995 76.7954 35.2931 76.7954 34.6618C76.7954 32.7213 76.7954 30.7809 76.7954 28.8404C76.7954 28.6826 76.7954 28.5247 76.7954 28.3669C76.7583 28.3576 76.7211 28.3483 76.684 28.339C76.0805 29.0725 75.5141 29.8338 74.8735 30.5209C74.3165 31.1151 74.1029 31.7557 74.1772 32.5635C74.2422 33.232 74.1958 33.919 74.1865 34.5968C74.1865 35.2653 73.8801 35.6273 73.323 35.6088C72.8309 35.5995 72.5338 35.2281 72.5338 34.6153C72.5338 33.659 72.5431 32.7027 72.5245 31.7464C72.5245 31.57 72.4967 31.3565 72.3946 31.2265C71.6797 30.3259 70.9369 29.4346 70.2034 28.5433C70.157 28.4876 70.092 28.4505 69.9713 28.3483C69.962 28.5712 69.9435 28.7383 69.9435 28.8961C69.9435 30.7623 69.9435 32.6192 69.9435 34.4854C69.9435 35.3117 69.6556 35.5995 68.8386 35.6088C68.2351 35.6088 67.6316 35.6181 67.0281 35.5995C66.4618 35.5809 66.1461 35.2653 66.1461 34.6896C66.1368 31.7743 66.1368 28.8683 66.1461 25.9529C66.1461 25.3123 66.4525 25.0245 67.0839 25.0152C67.7338 25.0059 68.3837 24.9781 69.0336 25.0338C69.3028 25.0616 69.6371 25.2195 69.8042 25.4237C70.9183 26.7421 71.9953 28.0791 73.0816 29.416C73.1466 29.5089 73.2209 29.611 73.3416 29.7596Z" fill="#9D9D9D"/>
<path d="M36.0365 32.4613C36.5936 33.1576 37.0671 33.7332 37.5313 34.3182C37.7634 34.6153 38.1626 34.8938 37.9677 35.3116C37.7727 35.748 37.2899 35.5901 36.9278 35.5994C36.0458 35.618 35.1638 35.5901 34.2817 35.6087C33.9754 35.618 33.7618 35.5251 33.5668 35.2838C32.9262 34.476 32.2484 33.6961 31.6357 32.8698C31.385 32.5356 31.1343 32.4241 30.7444 32.452C30.4565 32.4798 30.1594 32.4613 29.7881 32.4613C29.7881 33.1205 29.7881 33.7425 29.7881 34.3646C29.7881 35.3859 29.5652 35.5994 28.5347 35.5994C28.0054 35.5994 27.4855 35.6087 26.9563 35.5994C26.2971 35.5809 26 35.2745 26 34.6153C26 31.7371 26 28.8589 26 25.9714C26 25.3215 26.3064 25.0151 26.9656 25.0151C30.2894 25.0151 33.6133 25.0151 36.9371 25.0151C37.5777 25.0151 37.9027 25.3308 37.9027 25.99C37.912 27.8098 37.912 29.6202 37.9027 31.44C37.9027 32.1827 37.6056 32.4613 36.8535 32.4613C36.6214 32.4613 36.3986 32.4613 36.0365 32.4613ZM31.9142 30.8179C32.4991 30.8179 33.084 30.8086 33.6782 30.8179C33.9754 30.8272 34.096 30.7158 34.0868 30.4094C34.0775 29.3046 34.0775 28.1904 34.0868 27.0856C34.0868 26.7699 33.9568 26.6492 33.6411 26.6492C32.5177 26.6678 31.385 26.6678 30.2616 26.6585C29.9273 26.6585 29.7881 26.7978 29.7881 27.132C29.7973 28.2276 29.7973 29.3138 29.7881 30.4094C29.7881 30.7065 29.9088 30.8272 30.1966 30.8272C30.7722 30.8086 31.3386 30.8179 31.9142 30.8179Z" fill="#9D9D9D"/>
<path d="M45.4509 25.0151C47.0107 25.0151 48.5705 25.0151 50.1303 25.0151C50.8823 25.0151 51.1701 25.303 51.1701 26.0364C51.1701 27.8376 51.1701 29.6388 51.1701 31.44C51.1701 32.2106 50.9195 32.452 50.1396 32.4613C48.1341 32.4613 46.1194 32.4613 44.114 32.4613C43.529 32.4613 43.5197 32.4706 43.5197 33.0555C43.5197 34.0489 43.4176 33.9375 44.4203 33.9375C46.3701 33.9375 48.3105 33.9375 50.2603 33.9375C50.6316 33.9375 50.9845 34.0582 51.0866 34.411C51.1609 34.671 51.1423 35.0702 50.9845 35.2559C50.8081 35.4602 50.4274 35.5809 50.1396 35.5901C48.6448 35.618 47.1407 35.6087 45.6459 35.6087C44.0582 35.6087 42.4613 35.6087 40.8737 35.6087C39.9824 35.6087 39.7317 35.358 39.7317 34.4946C39.7317 31.7092 39.7317 28.9239 39.7317 26.1293C39.7317 25.2937 40.0102 25.0151 40.8365 25.0151C42.3592 25.0151 43.9097 25.0151 45.4509 25.0151ZM43.5197 28.7289C43.5197 29.286 43.529 29.8338 43.5197 30.3908C43.5105 30.6694 43.6033 30.8272 43.9097 30.8179C44.9403 30.8086 45.9801 30.8086 47.0107 30.8179C47.2892 30.8179 47.3914 30.6972 47.3914 30.428C47.3821 29.3231 47.3821 28.2183 47.3914 27.1041C47.3914 26.7978 47.2614 26.6585 46.9457 26.6585C45.943 26.6678 44.9403 26.6678 43.9376 26.6585C43.6219 26.6585 43.5105 26.7978 43.5197 27.1134C43.529 27.6519 43.5197 28.1904 43.5197 28.7289Z" fill="#9D9D9D"/>
<path d="M88.0388 25.0151C89.5336 25.0151 91.0377 25.0151 92.5325 25.0151C93.2752 25.0151 93.5631 25.3029 93.5631 26.055C93.5631 28.8867 93.5631 31.7185 93.5631 34.5503C93.5631 35.293 93.2752 35.5994 92.5418 35.5994C89.5243 35.6087 86.5161 35.6087 83.4987 35.5994C82.8209 35.5994 82.496 35.2744 82.496 34.5967C82.4867 31.7371 82.4867 28.8682 82.496 26.0085C82.496 25.3122 82.8209 25.0151 83.5358 25.0151C85.0399 25.0058 86.544 25.0151 88.0388 25.0151ZM86.3305 30.298C86.3305 31.3285 86.349 32.3591 86.3212 33.3897C86.3119 33.8261 86.4697 33.956 86.8875 33.9375C87.6767 33.9096 88.4659 33.9189 89.2551 33.9375C89.6079 33.9468 89.7471 33.8353 89.7471 33.464C89.7379 31.3564 89.7379 29.2488 89.7471 27.132C89.7471 26.7699 89.6079 26.6399 89.2551 26.6492C88.4473 26.6677 87.6489 26.6677 86.8411 26.6492C86.4233 26.6399 86.3119 26.8163 86.3212 27.197C86.3397 28.2368 86.3305 29.2674 86.3305 30.298Z" fill="#9D9D9D"/>
<path d="M103.154 30.0753C103.163 29.9175 103.182 29.7504 103.182 29.5926C103.182 28.4227 103.182 27.2529 103.182 26.083C103.182 25.3031 103.46 25.0153 104.231 25.0153C104.816 25.0153 105.401 25.006 105.995 25.0153C106.673 25.0246 106.97 25.3031 106.97 25.9623C106.979 28.8591 106.97 31.7465 106.97 34.6433C106.97 35.2746 106.663 35.5903 106.041 35.5996C105.41 35.6089 104.779 35.6089 104.138 35.5996C103.479 35.5903 103.126 35.2654 103.2 34.6247C103.34 33.4456 102.978 32.5172 102.161 31.6444C101.223 30.651 100.415 29.5368 99.5423 28.4784C99.5144 28.4413 99.468 28.432 99.3473 28.3577C99.338 28.562 99.3195 28.7105 99.3195 28.8684C99.3195 30.7345 99.3195 32.5914 99.3195 34.4576C99.3195 35.3118 99.0409 35.5996 98.1868 35.5996C97.6018 35.5996 97.0076 35.6089 96.4227 35.5996C95.8285 35.581 95.4943 35.2654 95.4943 34.6712C95.485 31.7651 95.485 28.8498 95.4943 25.9438C95.4943 25.331 95.8378 25.0153 96.4599 25.0153C97.0355 25.006 97.6018 25.0432 98.1775 25.006C98.6603 24.9782 99.0038 25.1546 99.2916 25.5167C100.137 26.5751 101 27.615 101.854 28.6641C102.253 29.1469 102.653 29.6297 103.052 30.1032C103.08 30.0939 103.117 30.0846 103.154 30.0753Z" fill="#9D9D9D"/>
<path d="M108.957 25.0337C109.059 25.0244 109.133 25.0151 109.207 25.0151C111.974 25.0151 114.741 25.0151 117.508 25.0151C117.6 25.0151 117.693 25.0244 117.786 25.043C118.798 25.2472 119.996 26.6956 119.996 27.7262C120.005 29.4531 119.996 31.1707 119.996 32.8976C119.996 33.4918 119.819 34.0118 119.355 34.4203C119.123 34.6246 118.947 34.9031 118.687 35.0609C118.315 35.2837 117.897 35.5809 117.498 35.5809C114.713 35.6273 111.937 35.6087 109.152 35.5994C109.096 35.5994 109.031 35.5809 108.957 35.5623C108.957 32.062 108.957 28.5711 108.957 25.0337ZM116.171 30.298C116.171 29.2489 116.161 28.209 116.18 27.1598C116.189 26.7978 116.05 26.6585 115.697 26.6585C114.861 26.6678 114.026 26.6678 113.19 26.6585C112.856 26.6585 112.717 26.7978 112.717 27.132C112.726 29.2396 112.726 31.3471 112.717 33.4547C112.717 33.8075 112.837 33.9468 113.209 33.9375C114.026 33.9189 114.843 33.9189 115.669 33.9375C116.05 33.9468 116.189 33.8168 116.18 33.4269C116.152 32.387 116.171 31.3471 116.171 30.298Z" fill="#9D9D9D"/>
<path d="M53.1663 25.0151C53.352 25.0151 53.5098 25.0151 53.6583 25.0151C56.2673 25.0151 58.8762 25.0244 61.4851 25.0151C62.1165 25.0151 62.6271 25.2287 63.0542 25.6743C63.2492 25.8693 63.4534 26.0643 63.6391 26.2593C63.9827 26.6213 64.1776 27.0391 64.1684 27.5405C64.1591 29.3881 64.1776 31.2357 64.1498 33.0833C64.1405 33.4176 64.0291 33.7982 63.8341 34.0675C63.4906 34.5131 63.0821 34.9217 62.6364 35.2652C62.3857 35.4602 62.0144 35.5809 61.6987 35.5809C58.9319 35.6087 56.1651 35.5994 53.4077 35.5994C53.3334 35.5994 53.2591 35.5809 53.157 35.5623C53.1663 32.062 53.1663 28.5711 53.1663 25.0151ZM56.945 30.298C56.945 31.3564 56.9543 32.4241 56.9358 33.4826C56.9358 33.8168 57.0565 33.9468 57.4 33.9375C58.2449 33.9189 59.099 33.9189 59.9439 33.9375C60.2967 33.9468 60.3989 33.7982 60.3989 33.4733C60.3896 31.3657 60.3896 29.2581 60.3989 27.1506C60.3989 26.7885 60.2596 26.6492 59.9068 26.6585C59.0898 26.6678 58.2727 26.6771 57.4557 26.6585C57.0472 26.6492 56.9265 26.8163 56.9265 27.2063C56.9543 28.2368 56.945 29.2674 56.945 30.298Z" fill="#9D9D9D"/>
</svg>
