<svg width="146" height="60" viewBox="0 0 146 60" fill="none" xmlns="http://www.w3.org/2000/svg">
<path d="M42.4441 37C46.3411 37 48.4964 35.0624 48.4964 32.1451C48.4964 26.746 40.2888 28.0958 40.2888 26.2453C40.2888 25.6357 40.7678 25.2003 41.8563 25.2003C43.2932 25.2003 44.8824 25.701 46.1016 26.7025L48.148 24.0247C46.6023 22.6967 44.5776 22 42.2482 22C38.5254 22 36.4572 24.1771 36.4572 26.6154C36.4572 32.2105 44.6865 30.6212 44.6865 32.6023C44.6865 33.299 43.9028 33.7997 42.6183 33.7997C40.6372 33.7997 39.0261 32.9289 37.9811 31.8839L36 34.6923C37.4586 36.0856 39.5051 37 42.4441 37Z" fill="#9D9D9D"/>
<path d="M59.8268 36.7388V33.4731H53.9923V22.2177H50.2477V36.7388H59.8268Z" fill="#9D9D9D"/>
<path d="M65.5154 36.7388V22.2177H61.7709V36.7388H65.5154Z" fill="#9D9D9D"/>
<path d="M74.2453 36.7388C78.7954 36.7388 82.0828 33.9739 82.0828 29.4673C82.0828 24.9608 78.7954 22.2177 74.2235 22.2177H68.1277V36.7388H74.2453ZM74.2235 33.4731H71.8723V25.4833H74.2453C76.9013 25.4833 78.2511 27.225 78.2511 29.4673C78.2511 31.6226 76.7707 33.4731 74.2235 33.4731Z" fill="#9D9D9D"/>
<path d="M97.3513 36.7388L91.8651 22.2177H87.1626L81.6982 36.7388H85.9435L86.6619 34.6488H92.3876L93.106 36.7388H97.3513ZM91.3644 31.3832H87.6634L89.5139 25.9187L91.3644 31.3832Z" fill="#9D9D9D"/>
<path d="M104.642 36.7388V30.8824L110.129 22.2177H105.883L102.77 27.5733L99.6134 22.2177H95.3899L100.898 30.8824V36.7388H104.642Z" fill="#9D9D9D"/>
</svg>
