<svg width="146" height="60" viewBox="0 0 146 60" fill="none" xmlns="http://www.w3.org/2000/svg">
<path d="M104.49 22.2401C100.196 22.0003 96.6646 24.8558 96.1851 28.9755C95.5311 28.9973 94.8772 29.0191 94.2451 29.0409C93.5911 29.0409 92.959 29.0409 92.3051 29.0409C90.5613 29.0191 88.8175 28.9973 87.0519 28.9755C86.8993 28.8665 86.7685 28.8665 86.6377 29.0191C86.4415 29.6512 86.3979 30.3052 86.6595 30.9373C88.5559 30.9591 90.4523 30.9591 92.3487 30.9809C91.7166 34.4903 88.2943 36.6265 84.9375 35.6238C82.627 34.948 80.9268 32.8991 80.7306 30.5885C80.5126 28.0164 81.8205 25.7059 84.0874 24.6378C86.3326 23.5915 88.9919 23.9839 90.6921 25.8367C91.5204 26.7304 91.9345 26.0546 92.4141 25.6623C93.177 25.0737 92.3269 24.7904 92.0653 24.5288C89.5586 21.9349 85.5478 21.4771 82.4744 23.3735C79.4227 25.2699 78.0713 29.0191 79.2047 32.4849C80.3382 35.9071 83.7386 38.0651 87.4442 37.7163C90.9318 37.3676 93.7873 34.5557 94.2451 30.9809C94.8772 30.9809 95.5311 30.9809 96.1633 30.9809C96.6428 35.0788 100.174 37.9561 104.468 37.7163C108.37 37.4984 111.574 34.0325 111.618 30.0436C111.661 25.9892 108.413 22.458 104.49 22.2401ZM104.425 35.493C101.809 35.7763 99.4329 34.2505 98.561 31.7656C98.4956 31.5476 98.452 31.3078 98.343 31.1117C98.7136 31.286 99.1277 31.286 99.5419 31.1771C100.414 30.5231 100.479 29.7384 99.7381 28.8011C99.2585 28.6267 98.8008 28.6049 98.343 28.8011C98.452 28.6049 98.4956 28.3434 98.561 28.1254C99.6073 25.2045 102.485 23.7441 105.602 24.6814C108.174 25.4443 109.7 27.951 109.394 30.6103C109.111 33.2042 107.04 35.2096 104.425 35.493Z" fill="#9D9D9D"/>
<path d="M47.2284 21.39C46.5091 21.935 45.7462 22.3927 45.0051 22.8941C44.7217 22.9377 44.5691 23.1774 44.373 23.33C44.0024 23.4172 43.719 23.6134 43.4793 23.9185C43.3703 24.0275 43.2613 24.1147 43.1305 24.2237C42.0406 24.6161 41.1905 25.4008 40.1878 25.9675C40.057 26.0329 39.948 26.1201 39.8173 26.1855C39.8173 25.2264 39.7737 24.2673 39.8391 23.3082C39.8827 22.5889 39.5121 22.5453 38.9672 22.5889C38.5094 22.6325 37.9209 22.3491 37.9645 23.2428C38.0299 24.6815 38.0081 26.0983 38.0299 27.5369C37.9645 27.5805 37.8991 27.6241 37.8337 27.6677C36.9182 28.4742 35.6757 28.823 35 29.9129C35.5449 30.4142 36.1117 30.9156 36.831 31.1553C37.8773 31.7439 38.1171 32.6376 37.9863 33.771C37.8991 34.7083 38.0299 35.6674 37.9427 36.5829C37.8773 37.3894 38.335 37.3458 38.88 37.3458C39.4031 37.3458 39.8827 37.433 39.8391 36.6047C39.7737 35.5802 39.8173 34.5558 39.8173 33.3787C40.3186 33.7057 40.6238 33.9018 40.9071 34.1198C42.9779 35.5802 45.0487 37.0189 47.1412 38.4575C47.3374 38.5883 47.49 38.9371 47.8824 38.6755C48.7107 38.087 48.7543 37.2805 47.926 36.7137C45.2231 34.7955 42.5202 32.8556 39.7955 30.9374C39.7955 30.2834 39.7955 29.6513 39.7955 28.9974C40.384 28.496 40.9943 28.0165 41.6701 27.6677C42.9125 27.2536 43.7844 26.3163 44.7653 25.5098C45.5282 25.2264 46.2258 24.834 46.7053 24.1583C47.2502 23.7442 47.7734 23.3082 48.3401 22.9377C49.1248 22.4145 48.3619 22.0875 48.1875 21.717C48.0132 21.281 47.7734 20.9759 47.2284 21.39Z" fill="#9D9D9D"/>
<path d="M60.9607 35.4713C58.5193 35.5149 56.0998 35.4713 53.6585 35.5149C52.9827 35.5367 52.7866 35.3405 52.8084 34.6648C52.852 33.4223 52.8302 32.2016 52.8302 30.9592C54.8573 30.9374 56.8845 30.8938 58.9117 30.9374C59.6746 30.9592 59.8926 30.7194 59.8926 29.9783C59.8926 29.2154 59.6746 28.9974 58.9117 28.9974C56.8845 29.041 54.8573 28.9756 52.8302 28.9756C52.8302 27.7331 52.8738 26.5125 52.8084 25.27C52.7866 24.5943 53.0045 24.4199 53.6585 24.4199C56.1434 24.4635 58.6065 24.4199 61.0696 24.4635C61.8326 24.4853 61.8979 24.1365 61.8544 23.5698C61.8108 23.0902 61.9851 22.5889 61.135 22.5889C57.9744 22.6107 54.8355 22.5453 51.6749 22.5017C51.0646 22.5017 50.8466 22.6761 50.8684 23.3082C50.912 25.1828 50.912 27.0792 50.912 28.9538C50.5196 28.9756 50.1273 29.0192 49.7131 28.9974C49.2336 28.9756 49.1246 29.1936 49.081 29.6295C49.0156 30.5014 49.1464 31.1335 50.258 30.9156C50.4542 30.872 50.694 30.9374 50.912 30.9374C50.8902 32.7466 50.9338 34.5776 50.8466 36.3868C50.8248 37.1933 51.021 37.4548 51.8493 37.433C54.9009 37.3459 57.9526 37.3241 60.9825 37.3459C61.8326 37.3459 61.789 36.9535 61.8108 36.365C61.8979 35.6892 61.68 35.4713 60.9607 35.4713Z" fill="#9D9D9D"/>
<path d="M76.3932 23.3082C76.3932 23.0466 76.524 22.7415 76.1099 22.6107C75.129 22.2837 74.5405 22.6761 74.5187 23.7006C74.4969 26.4471 74.4751 29.1935 74.4315 31.9618C74.584 32.4414 74.4969 32.9209 74.4315 33.3787C74.3443 33.5095 74.3225 33.6185 74.3225 33.7492C74.2353 33.6838 74.1263 33.6185 74.0173 33.5749C73.9519 33.5531 73.9301 33.5095 73.9519 33.4441C73.7775 33.1171 73.7339 32.6812 73.298 32.5068C73.0582 32.1798 72.6877 31.8964 72.6441 31.4387C72.4915 31.2207 72.4479 30.8938 72.1645 30.763C71.6632 29.9783 71.1618 29.1717 70.6823 28.387C70.4861 28.0819 70.4861 27.6459 70.0719 27.4715C70.0066 27.4497 69.9848 27.4061 70.0066 27.3625C69.9848 27.1228 69.8758 26.9266 69.6578 26.8176C69.5924 26.7958 69.5706 26.7522 69.5924 26.6868C69.4398 26.3381 69.2872 25.9893 68.9821 25.7277C68.0884 24.3981 67.2165 23.0466 66.301 21.7388C66.0612 21.39 66.0176 20.6489 65.2547 21.1938C64.6661 21.5862 64.0122 21.8914 64.6879 22.7197C64.6661 27.2754 64.6879 31.8528 64.6444 36.4085C64.6444 37.1497 64.8187 37.3894 65.5816 37.4112C66.4318 37.433 66.6061 37.1497 66.5843 36.3649C66.5625 32.8119 66.5843 29.2589 66.6061 25.7277C67.5434 26.7522 68.023 28.0819 68.7641 29.2153C68.9385 29.7385 69.2872 30.1526 69.6796 30.5014C69.7232 30.7848 69.8322 31.0245 70.0937 31.1553C70.1809 31.5259 70.2899 31.8746 70.6605 32.0708C70.9003 32.4414 71.1182 32.8119 71.358 33.1825C71.5542 33.5531 71.6632 33.989 72.0555 34.2288C72.0991 34.8173 72.5569 35.1443 72.9056 35.5584C73.08 35.9508 73.08 36.4521 73.6032 36.6265C74.0391 37.2804 74.4751 37.9344 74.9328 38.5883C75.0854 38.8063 75.1508 39.1114 75.5867 38.9589C76.5676 38.5883 76.8074 38.1306 76.3496 37.1715C76.3714 32.5068 76.3714 27.9075 76.3932 23.3082Z" fill="#9D9D9D"/>
</svg>
