<svg width="146" height="60" viewBox="0 0 146 60" fill="none" xmlns="http://www.w3.org/2000/svg">
<path d="M41.6 33.672V23H39.312V27.192H34.272V23H32V33.672H34.272V29.192H39.312V33.672H41.6Z" fill="#9D9D9D"/>
<path d="M43.3831 36.696C43.6391 36.76 44.1511 36.808 44.3911 36.808C45.7191 36.776 46.7431 36.392 47.3191 34.936L50.9511 25.944H48.7591L46.7431 31.32L44.7271 25.944H42.5511L45.6871 33.784L45.3991 34.44C45.2071 34.856 44.8551 35 44.3271 35C44.1351 35 43.8631 34.952 43.6871 34.872L43.3831 36.696Z" fill="#9D9D9D"/>
<path d="M59.2183 33.672V23H57.1702V26.936C56.5623 26.152 55.6983 25.752 54.7863 25.752C52.8183 25.752 51.3622 27.288 51.3622 29.816C51.3622 32.392 52.8343 33.864 54.7863 33.864C55.7143 33.864 56.5623 33.448 57.1702 32.68V33.672H59.2183ZM55.4103 32.056C54.2583 32.056 53.4583 31.144 53.4583 29.816C53.4583 28.472 54.2583 27.56 55.4103 27.56C56.0983 27.56 56.8342 27.928 57.1702 28.44V31.176C56.8342 31.688 56.0983 32.056 55.4103 32.056Z" fill="#9D9D9D"/>
<path d="M63.2653 33.672V28.568C63.6013 28.072 64.4972 27.688 65.1693 27.688C65.3932 27.688 65.5853 27.704 65.7293 27.736V25.752C64.7693 25.752 63.8093 26.312 63.2653 27V25.944H61.2332V33.672H63.2653Z" fill="#9D9D9D"/>
<path d="M70.5829 33.864C73.1429 33.864 74.6789 32.008 74.6789 29.8C74.6789 27.608 73.1429 25.752 70.5829 25.752C68.0389 25.752 66.5029 27.608 66.5029 29.8C66.5029 32.008 68.0389 33.864 70.5829 33.864ZM70.5829 32.056C69.3189 32.056 68.6149 31.016 68.6149 29.8C68.6149 28.6 69.3189 27.56 70.5829 27.56C71.8469 27.56 72.5669 28.6 72.5669 29.8C72.5669 31.016 71.8469 32.056 70.5829 32.056Z" fill="#9D9D9D"/>
<path d="M78.2184 31.192V28.456C78.5544 27.944 79.3064 27.56 79.9624 27.56C81.1464 27.56 81.9304 28.472 81.9304 29.816C81.9304 31.16 81.1464 32.056 79.9624 32.056C79.3064 32.056 78.5544 31.688 78.2184 31.192ZM78.2184 33.672V32.68C78.8264 33.448 79.6744 33.864 80.6024 33.864C82.5544 33.864 84.0264 32.392 84.0264 29.816C84.0264 27.288 82.5704 25.752 80.6024 25.752C79.6904 25.752 78.8264 26.152 78.2184 26.936V23H76.1864V33.672H78.2184Z" fill="#9D9D9D"/>
<path d="M89.1454 33.864C91.7054 33.864 93.2414 32.008 93.2414 29.8C93.2414 27.608 91.7054 25.752 89.1454 25.752C86.6014 25.752 85.0654 27.608 85.0654 29.8C85.0654 32.008 86.6014 33.864 89.1454 33.864ZM89.1454 32.056C87.8814 32.056 87.1774 31.016 87.1774 29.8C87.1774 28.6 87.8814 27.56 89.1454 27.56C90.4094 27.56 91.1294 28.6 91.1294 29.8C91.1294 31.016 90.4094 32.056 89.1454 32.056Z" fill="#9D9D9D"/>
<path d="M97.3409 33.864C98.1889 33.864 98.7329 33.64 99.0369 33.368L98.6049 31.832C98.4929 31.944 98.2049 32.056 97.9009 32.056C97.4529 32.056 97.1969 31.688 97.1969 31.208V27.72H98.7649V25.944H97.1969V23.832H95.1489V25.944H93.8689V27.72H95.1489V31.752C95.1489 33.128 95.9169 33.864 97.3409 33.864Z" fill="#9D9D9D"/>
<path d="M103.467 30.664V28.936H99.6271V30.664H103.467Z" fill="#9D9D9D"/>
<path d="M113.946 33.672L110.074 28.184L113.706 23H110.97L108.554 26.648L106.106 23H103.402L107.034 28.2L103.162 33.672H105.866L108.554 29.768L111.226 33.672H113.946Z" fill="#9D9D9D"/>
</svg>
