<svg width="146" height="60" viewBox="0 0 146 60" fill="none" xmlns="http://www.w3.org/2000/svg">
<path d="M52.0319 31.9148V37.3404H50.7553V31.9148H49V30.9042H53.7872V31.9148H52.0319Z" fill="#A4A4A4"/>
<path d="M54.7451 37.3404V30.9042H58.6281V31.9148H55.9685V33.5106H58.4685V34.5212H55.9685V36.2765H58.6281V37.3404H54.7451Z" fill="#A4A4A4"/>
<path d="M62.8824 37.3404L61.9781 35.2659C61.8717 35.0531 61.7654 34.9467 61.6058 34.8404C61.4462 34.734 61.2866 34.6808 61.0739 34.6808H60.8611V37.3404H59.6377V30.9042H61.4994C61.8717 30.9042 62.1909 30.9574 62.4568 31.0106C62.7228 31.0637 62.9888 31.1701 63.2015 31.3297C63.4143 31.4893 63.5739 31.6489 63.6803 31.8616C63.7866 32.0744 63.8398 32.3403 63.8398 32.7127C63.8398 32.9255 63.7866 33.1382 63.7334 33.351C63.6803 33.5106 63.5739 33.6701 63.4675 33.8297C63.3611 33.9361 63.2015 34.0957 63.042 34.1489C62.8824 34.2552 62.6696 34.3084 62.4568 34.3084C62.6164 34.3616 62.776 34.4148 62.8824 34.5744C62.9888 34.734 63.1483 34.9467 63.2547 35.2127L64.2654 37.3404H62.8824ZM62.5632 32.7659C62.5632 32.4467 62.4569 32.234 62.2441 32.0744C62.0313 31.9148 61.7654 31.8616 61.3398 31.8616H60.8079V33.6701H61.2866C61.4462 33.6701 61.659 33.6701 61.8186 33.6169C61.9781 33.5638 62.0845 33.5106 62.1909 33.4574C62.2973 33.4042 62.4037 33.2978 62.4568 33.1914C62.5632 33.085 62.5632 32.9255 62.5632 32.7659Z" fill="#A4A4A4"/>
<path d="M68.4151 37.3404L67.5108 35.2659C67.4045 35.0531 67.2981 34.9467 67.1385 34.8404C66.9789 34.734 66.8193 34.6808 66.6066 34.6808H66.3938V37.3404H65.1704V30.9042H67.0321C67.4045 30.9042 67.7236 30.9574 67.9896 31.0106C68.2555 31.0637 68.5215 31.1701 68.7342 31.3297C68.947 31.4893 69.1066 31.6489 69.213 31.8616C69.3194 32.0744 69.3725 32.3403 69.3725 32.7127C69.3725 32.9255 69.3194 33.1382 69.2662 33.351C69.213 33.5106 69.1066 33.6701 69.0002 33.8297C68.8938 33.9361 68.7342 34.0957 68.5747 34.1489C68.4151 34.2552 68.2023 34.3084 67.9896 34.3084C68.1491 34.3616 68.3087 34.4148 68.4151 34.5744C68.5215 34.734 68.6811 34.9467 68.7874 35.2127L69.7981 37.3404H68.4151ZM68.0959 32.7659C68.0959 32.4467 67.9896 32.234 67.7768 32.0744C67.564 31.9148 67.2981 31.8616 66.8725 31.8616H66.3406V33.6701H66.8193C67.0321 33.6701 67.1917 33.6701 67.3513 33.6169C67.5108 33.5638 67.6172 33.5106 67.7236 33.4574C67.83 33.4042 67.9364 33.2978 67.9896 33.1914C68.0959 33.085 68.0959 32.9255 68.0959 32.7659Z" fill="#A4A4A4"/>
<path d="M74.2661 37.3404L73.8938 36.0638H71.6597L71.2874 37.3404H70.1172L71.9789 30.9042H73.681L75.5959 37.3404H74.2661ZM72.7768 32.0744L71.9257 35.0531H73.6278L72.7768 32.0744Z" fill="#A4A4A4"/>
<path d="M76.3413 37.3404V30.9042H77.5647V36.2765H80.2775V37.3404H76.3413Z" fill="#A4A4A4"/>
<path d="M81.2866 31.8616V30.9042H85.3824V31.8616H83.9462V36.3297H85.3824V37.3404H81.2866V36.3297H82.7228V31.8616H81.2866Z" fill="#A4A4A4"/>
<path d="M89.3717 37.3404L87.6696 33.5106L87.2972 32.6595V35.3191V37.3404H86.2334V30.9042H87.7228L89.4249 34.734L89.744 35.5318V32.6595V30.9042H90.8611V37.3404H89.3717Z" fill="#A4A4A4"/>
<path d="M95.0099 37.3404L93.095 34.2021V37.3404H91.8716V30.9042H93.095V33.8297L95.0099 30.9042H96.4461L94.2652 33.9361L96.5524 37.3404H95.0099Z" fill="#A4A4A4"/>
<path d="M87.3517 39.6808V44.9999H57.458V41.6489L87.3517 39.6808Z" fill="#A4A4A4"/>
<path d="M87.3517 22.0213L68.5219 24.9468L86.9261 19.7872C85.9687 17.0213 83.3091 15 80.224 15H57.458V21.9681L65.4367 21.117L57.458 22.9787V29.0958L87.3517 25.6915V22.0745C87.3517 22.0213 87.3517 22.0213 87.3517 22.0213Z" fill="#A4A4A4"/>
</svg>
