<svg width="147" height="60" viewBox="0 0 147 60" fill="none" xmlns="http://www.w3.org/2000/svg">
<path d="M74.851 59.5257C74.4865 59.8061 74.122 60.0024 73.7014 59.9743C73.1406 59.9463 72.8042 59.6379 72.7761 59.0771C72.7481 58.3762 72.7761 57.6752 72.7761 56.9742C72.7761 56.778 72.8883 56.778 73.0285 56.778C73.1687 56.778 73.2808 56.778 73.2808 56.9742C73.2808 57.563 73.2808 58.1238 73.2808 58.7126C73.2808 59.2173 73.393 59.4136 73.7014 59.4977C74.0659 59.6098 74.6267 59.4136 74.8229 59.1332C74.879 59.0491 74.879 58.9369 74.879 58.8528C74.879 58.236 74.879 57.6471 74.879 57.0303C74.879 56.806 74.9631 56.778 75.1594 56.778C75.3557 56.778 75.4117 56.834 75.4117 57.0303C75.4117 57.8715 75.4117 58.7126 75.4117 59.5538C75.4117 59.694 75.5239 59.9183 75.2155 59.9463C74.9071 59.9463 74.8229 59.8061 74.851 59.5257Z" fill="#A4A4A4"/>
<path d="M66.804 57.4789C66.4675 57.1705 66.075 57.0303 65.6544 57.1144C65.4301 57.1705 65.2338 57.2826 65.2058 57.563C65.2058 57.8154 65.4301 57.8995 65.5983 57.9555C65.8787 58.0397 66.1591 58.0957 66.4395 58.1799C66.9161 58.3481 67.1404 58.6285 67.1124 59.049C67.0844 59.4696 66.804 59.7781 66.3554 59.9182C65.8787 60.0304 65.4301 60.0024 64.9815 59.7781C64.5609 59.5537 64.5609 59.5257 64.8693 59.1612C65.2338 59.4416 65.6264 59.6659 66.131 59.5537C66.4114 59.4977 66.6077 59.3575 66.6357 59.0771C66.6638 58.8247 66.4395 58.6845 66.2152 58.6285C65.9348 58.5444 65.6264 58.4883 65.346 58.3761C64.8974 58.2079 64.7011 57.9555 64.7291 57.563C64.7291 57.1705 64.9815 56.862 65.402 56.7499C65.8507 56.6097 66.2993 56.6658 66.6918 56.8901C67.0844 57.0864 67.0844 57.1144 66.804 57.4789Z" fill="#A4A4A4"/>
<path d="M89.4592 57.479C89.1227 57.1986 88.7302 57.0304 88.2536 57.1425C88.0573 57.1986 87.8891 57.3108 87.861 57.5351C87.833 57.7874 88.0573 57.8715 88.2255 57.9276C88.5059 58.0117 88.8143 58.0678 89.0947 58.1799C89.5714 58.3482 89.7676 58.6286 89.7396 59.0772C89.7116 59.4978 89.4592 59.8062 89.0106 59.9183C88.4498 60.0585 87.9171 59.9744 87.4124 59.6379C87.2442 59.5258 87.3003 59.4136 87.3844 59.3015C87.4965 59.1613 87.5526 59.1613 87.6928 59.2734C88.0293 59.5538 88.4498 59.666 88.8984 59.5258C89.1227 59.4697 89.2629 59.3295 89.2629 59.0772C89.2629 58.8529 89.0947 58.7407 88.9265 58.6846C88.6741 58.6005 88.3938 58.5444 88.1134 58.4603C87.5806 58.2921 87.3283 58.0117 87.3563 57.5911C87.3844 57.1425 87.7208 56.8341 88.2536 56.75C88.6461 56.6939 89.0106 56.75 89.3471 56.9462C89.7396 57.0864 89.7396 57.1145 89.4592 57.479Z" fill="#A4A4A4"/>
<path d="M80.9917 56.6938C81.4123 56.6938 81.7487 56.806 82.0291 57.1144C82.1413 57.2546 82.0852 57.3107 81.973 57.3668C81.8889 57.4228 81.8328 57.5911 81.7207 57.4509C81.3282 57.0583 80.8795 57.0303 80.4309 57.3107C79.9823 57.5911 79.8982 58.0677 79.9543 58.5444C80.0103 58.965 80.2066 59.3014 80.5991 59.4416C80.9917 59.5818 81.3562 59.5538 81.6366 59.2453C81.8048 59.0771 81.8609 59.2173 81.973 59.3014C82.1132 59.4136 82.0572 59.4977 81.945 59.6098C81.244 60.3388 79.8421 60.0024 79.4776 58.965C79.1411 57.7873 79.8421 56.6938 80.9917 56.6938Z" fill="#A4A4A4"/>
<path d="M58.5608 57.1424C58.7851 56.9742 58.9813 56.7779 59.2617 56.7499C59.3739 56.7218 59.5421 56.6097 59.5701 56.834C59.5701 56.9742 59.7103 57.2265 59.3739 57.1985C59.2617 57.1985 59.1215 57.2546 59.0094 57.2826C58.7009 57.4228 58.5047 57.6191 58.5327 58.0116C58.5608 58.5443 58.5327 59.0771 58.5327 59.6378C58.5327 59.8341 58.5047 59.9182 58.2804 59.9182C58.0561 59.9182 58.028 59.8621 58.028 59.6378C58.028 58.7686 58.028 57.8995 58.028 57.0583C58.028 56.8901 58 56.7499 58.2523 56.7499C58.4766 56.7499 58.5608 56.806 58.5327 57.0303C58.5047 57.0583 58.5327 57.0863 58.5608 57.1424Z" fill="#A4A4A4"/>
<path d="M77.4587 57.1425C77.711 56.9462 77.9634 56.778 78.2437 56.7219C78.3559 56.6939 78.4961 56.6939 78.4681 56.8621C78.44 56.9743 78.6082 57.1986 78.2998 57.1986C78.1316 57.1986 77.9914 57.2266 77.8512 57.3107C77.5708 57.4509 77.4026 57.6472 77.4306 57.9836C77.4587 58.4883 77.4306 59.0211 77.4306 59.5258C77.4306 59.722 77.4867 59.8903 77.1783 59.8903C76.8418 59.8903 76.954 59.666 76.9259 59.4977C76.9259 58.7126 76.9259 57.8995 76.9259 57.1144C76.9259 56.9743 76.7857 56.7499 77.1222 56.7219C77.4026 56.7499 77.5147 56.8621 77.4587 57.1425Z" fill="#A4A4A4"/>
<path d="M89.8796 48.7868C89.8796 47.3008 89.8796 45.8428 89.8796 44.3568C89.8796 44.1325 89.8235 44.0483 89.5712 44.0483C88.8983 44.0764 88.2534 44.0483 87.5804 44.0764C87.5244 44.0764 87.4403 44.0764 87.3842 44.0764C87.3281 44.0764 87.244 44.0764 87.1879 44.0764C87.1038 44.0764 87.0197 44.0764 86.9075 44.0764C86.8514 44.0764 86.7673 44.0764 86.7113 44.0764C86.5991 44.2166 86.543 44.3848 86.515 44.5811C86.4309 44.6932 86.4028 44.8054 86.3748 44.9175C86.2907 45.0577 86.2066 45.226 86.1785 45.3942C86.0664 45.6185 85.9823 45.8428 85.8981 46.0671C85.8421 46.1793 85.786 46.2914 85.7299 46.4036C85.2533 47.6092 84.7766 48.8149 84.2719 50.0205C84.2439 50.1047 84.2439 50.2448 84.1037 50.3009C84.0476 50.1607 83.9915 50.0486 83.9354 49.9364C83.1784 48.0859 82.4494 46.2353 81.6924 44.3568C81.6083 44.1605 81.4961 44.0764 81.2718 44.0764C80.4306 44.1044 79.5614 44.0764 78.7203 44.0764C78.496 44.0764 78.4119 44.1325 78.4119 44.3568C78.4119 47.6653 78.4119 50.9738 78.4119 54.3104C78.4119 54.5628 78.496 54.6188 78.7203 54.6188C79.253 54.6188 79.7857 54.5908 80.3185 54.6188C80.5989 54.6188 80.6549 54.5347 80.6549 54.2543C80.6549 52.1234 80.6549 49.9645 80.6549 47.8335C80.6549 47.7214 80.6269 47.6092 80.711 47.469C80.7671 47.6092 80.8232 47.7214 80.8793 47.8335C81.6924 49.8803 82.5335 51.9272 83.3466 53.974C83.627 54.6749 83.6831 54.703 84.4121 54.6188C84.5243 54.6188 84.6084 54.5628 84.6364 54.4506C85.1131 53.2169 85.6178 51.9832 86.0944 50.7495C86.1505 50.7215 86.1505 50.6654 86.1505 50.6093C86.2346 50.4692 86.2907 50.3009 86.3468 50.1327C86.4028 50.0205 86.4309 49.9084 86.4869 49.7962C86.543 49.628 86.6271 49.4878 86.6832 49.3196C86.7673 49.1513 86.8234 48.9551 86.9075 48.7868C86.9916 48.5625 87.0758 48.3382 87.1879 48.1139C87.244 47.9457 87.3281 47.8055 87.3842 47.6373C87.4122 47.5532 87.3842 47.469 87.4683 47.413C87.5804 47.5251 87.5244 47.6653 87.5244 47.8055C87.5244 49.9645 87.5244 52.0954 87.5244 54.2543C87.5244 54.5347 87.5804 54.6188 87.8608 54.6188C88.3655 54.5908 88.8983 54.5908 89.4029 54.6188C89.7114 54.6188 89.7955 54.5628 89.7955 54.2263C89.8796 52.4038 89.8796 50.5813 89.8796 48.7868Z" fill="#A4A4A4"/>
<path d="M75.496 44.0483C75.3558 44.0483 75.2717 44.1044 75.2156 44.2166C74.9352 44.6652 74.6548 45.1418 74.4025 45.5905C74.3464 45.6746 74.2903 45.7867 74.2343 45.8708C74.2062 45.9269 74.1502 46.011 74.1221 46.0671C74.038 46.2073 73.9539 46.3475 73.8698 46.4877C73.7857 46.6279 73.7015 46.7681 73.6174 46.9083C73.5613 46.9924 73.5053 47.0765 73.4492 47.1606C73.3931 47.2728 73.309 47.3849 73.2529 47.4971C73.1408 47.6092 73.0567 47.7494 73.0006 47.9177C72.9165 48.0298 72.8604 48.142 72.7763 48.2541C72.6641 48.198 72.6361 48.0859 72.58 48.0018C71.9351 46.9643 71.2622 45.955 70.6734 44.8895C70.3369 44.2726 69.9444 43.9923 69.2434 44.0764C68.7107 44.1325 68.178 44.0764 67.6172 44.0764C67.7013 44.2166 67.7574 44.3287 67.8135 44.4128C69.0472 46.2914 70.2528 48.17 71.4865 50.0486C71.6267 50.2448 71.6547 50.4411 71.6547 50.6654C71.6547 51.8711 71.6547 53.0767 71.6547 54.2543C71.6547 54.5067 71.7108 54.6188 71.9912 54.5908C72.5239 54.5628 73.0567 54.5628 73.5613 54.5908C73.8137 54.5908 73.8978 54.5347 73.8978 54.2543C73.8978 52.9085 73.8978 51.5907 73.8978 50.2448C74.066 50.0205 74.2343 49.7682 74.3745 49.5158C74.5147 49.3757 74.5988 49.2074 74.7109 49.0111C74.795 48.871 74.9072 48.7027 74.9913 48.5625C75.0754 48.4784 75.1315 48.3943 75.1595 48.2822C75.2437 48.17 75.2997 48.0578 75.3838 47.9457C75.468 47.8616 75.5521 47.7494 75.5801 47.6373C75.6923 47.5251 75.7764 47.3849 75.8325 47.2167C75.9166 47.1606 75.9446 47.1045 75.9727 47.0204C76.0568 46.9363 76.1128 46.8522 76.1689 46.74C76.7297 45.8708 77.3185 44.9736 77.9353 44.0483C77.0381 44.0483 76.253 44.0483 75.496 44.0483Z" fill="#A4A4A4"/>
<path d="M62.6544 44.0765C62.5983 44.0765 62.5142 44.0765 62.4581 44.0765C62.3179 44.0765 62.1777 44.0765 62.0656 44.0765C61.9534 44.0765 61.8413 44.0765 61.7291 44.0765C61.645 44.0765 61.5609 44.0765 61.4487 44.0765C61.3646 44.0765 61.2805 44.0765 61.1683 44.0765C61.1123 44.0765 61.0282 44.0765 60.9721 44.0765C60.8599 44.0765 60.7478 44.0765 60.6356 44.0765C60.5235 44.0765 60.4113 44.0765 60.2992 44.0765C59.6262 44.0765 58.9253 44.0765 58.2523 44.0485C58.0561 44.0485 58 44.1045 58 44.3008C58 47.6374 58 50.974 58 54.3105C58 54.5068 58.0561 54.5909 58.2523 54.5909C59.7384 54.5629 61.2244 54.647 62.7105 54.5629C65.29 54.3947 67.449 52.7684 67.7013 49.9085C68.0097 46.6 65.8788 44.2728 62.6544 44.0765ZM62.2338 52.5722C61.673 52.5722 61.0842 52.5722 60.5235 52.5722C60.3272 52.5722 60.2431 52.5161 60.2431 52.3198C60.2431 50.3291 60.2431 48.3103 60.2431 46.3196C60.2431 46.1233 60.2992 46.0392 60.5235 46.0392C61.2525 46.0392 61.9815 46.0392 62.7105 46.0392C62.7665 46.0953 62.7946 46.0953 62.8507 46.0392C62.9628 46.0672 63.075 46.0953 63.2152 46.1233C64.6451 46.5158 65.4863 47.7215 65.4582 49.3477C65.3741 51.2543 64.0843 52.5441 62.2338 52.5722Z" fill="#A4A4A4"/>
<path d="M85.1693 56.75C84.4403 56.5257 83.6833 56.8341 83.3468 57.507C82.9543 58.236 83.1505 59.1893 83.7674 59.666C84.3281 60.0866 85.3375 60.0866 85.8703 59.6099C85.9544 59.5258 86.0104 59.4978 85.9263 59.3576C85.8142 59.2174 85.7581 59.1613 85.5618 59.2734C84.8609 59.7781 83.9356 59.4977 83.7393 58.7407C83.6833 58.5444 83.7113 58.4603 83.9356 58.4603C84.2721 58.4884 84.6085 58.4603 84.945 58.4603C85.3095 58.4603 85.6459 58.4603 86.0104 58.4603C86.1226 58.4603 86.2067 58.4603 86.2067 58.3201C86.2067 57.6752 85.8703 56.9743 85.1693 56.75ZM85.4497 58.1239C85.1973 58.0958 84.9169 58.1239 84.6366 58.1239C84.3842 58.1239 84.1319 58.1239 83.8795 58.1239C83.6833 58.1239 83.6833 58.0397 83.7113 57.8996C83.7954 57.4509 84.216 57.1145 84.6646 57.1145C85.1413 57.1145 85.5618 57.4229 85.6459 57.8715C85.702 58.0397 85.674 58.1239 85.4497 58.1239Z" fill="#A4A4A4"/>
<path d="M62.5143 56.75C61.7853 56.5257 61.0283 56.8341 60.6918 57.507C60.3273 58.236 60.4955 59.1893 61.0843 59.6379C61.6731 60.0866 62.6825 60.0866 63.2153 59.6099C63.3274 59.5258 63.3274 59.4697 63.2433 59.3295C63.1311 59.1613 63.0751 59.1893 62.9068 59.3015C62.1778 59.8062 61.3086 59.5258 61.0843 58.7687C61.0283 58.5725 61.0002 58.4884 61.2526 58.4884C61.589 58.5164 61.9255 58.4884 62.262 58.4884C62.6265 58.4884 62.991 58.4884 63.3274 58.4884C63.4396 58.4884 63.5237 58.4884 63.5237 58.3482C63.6358 57.7313 63.1311 56.9462 62.5143 56.75ZM62.7947 58.1239C62.5423 58.0958 62.29 58.1239 62.0376 58.1239C61.7573 58.1239 61.4769 58.1239 61.1965 58.1239C61.0283 58.1239 61.0283 58.0678 61.0563 57.9276C61.1685 57.4509 61.533 57.1425 62.0096 57.1145C62.4863 57.0864 62.8788 57.3949 63.019 57.8435C63.0751 58.0397 63.047 58.1239 62.7947 58.1239Z" fill="#A4A4A4"/>
<path d="M69.8883 56.6938C68.963 56.6938 68.3181 57.3387 68.3181 58.3201C68.3181 59.2734 68.963 59.9743 69.8602 59.9743C70.7855 59.9743 71.4023 59.3014 71.4023 58.3201C71.4023 57.3668 70.7855 56.6938 69.8883 56.6938ZM69.8602 59.5257C69.2714 59.5257 68.8228 59.021 68.8228 58.3201C68.8228 57.6472 69.2434 57.1425 69.8322 57.1425C70.449 57.1425 70.8696 57.6472 70.8696 58.3201C70.8696 59.021 70.449 59.5257 69.8602 59.5257Z" fill="#A4A4A4"/>
<path d="M85.7864 26.6366C85.7864 26.188 85.7303 25.7393 85.6462 25.2907C85.5901 24.6739 85.478 24.057 85.3097 23.4682C85.1976 22.9355 85.0574 22.4308 84.8331 21.9261C84.6929 21.3934 84.4686 20.8606 84.1882 20.384C83.9359 19.8232 83.6555 19.2905 83.319 18.7578C83.1227 18.3933 82.8984 18.0007 82.618 17.6923C82.4779 17.4119 82.2816 17.1315 82.0573 16.9072C81.861 16.6549 81.7489 16.3745 81.5245 16.1502C81.3002 15.8137 81.0759 15.5053 80.7955 15.1969C80.6273 14.9726 80.4871 14.7202 80.2628 14.552C80.1226 14.2996 79.9544 14.0753 79.7581 13.851C79.5899 13.5987 79.3936 13.3463 79.2254 13.122C79.0011 12.7575 78.7487 12.4211 78.5244 12.0566C78.244 11.5238 77.9356 11.0191 77.6272 10.4584C77.4029 10.9911 77.1505 11.4397 77.0384 11.9164C76.8702 12.2528 76.758 12.6173 76.7019 12.9818C76.5898 13.2342 76.5337 13.4585 76.5057 13.7389C76.4215 13.9912 76.3374 14.2716 76.3094 14.552C76.2533 14.6922 76.2253 14.8324 76.2253 14.9726C75.8888 16.739 75.5243 18.5054 75.6925 20.3279C75.6925 20.4681 75.6645 20.6083 75.7486 20.7205C75.7486 20.8887 75.7486 21.085 75.8327 21.2532C75.8327 21.4495 75.8608 21.6457 75.9729 21.814C75.9729 21.8981 75.9729 21.9822 76.029 22.0663C76.057 22.2626 76.1131 22.4308 76.2253 22.599C76.2814 22.7953 76.3935 22.9916 76.5617 23.1598C76.5898 23.2439 76.6178 23.3 76.7019 23.3561C76.758 23.4682 76.8141 23.5523 76.8982 23.6365C76.9543 23.8327 77.1225 23.9729 77.2347 24.1131C77.3468 24.3094 77.459 24.5057 77.5992 24.7019C77.6272 24.73 77.6272 24.758 77.6552 24.786C77.6833 24.8982 77.7113 24.9823 77.7954 25.0384C77.8515 25.1786 77.8795 25.3188 77.9917 25.4309C77.9917 25.459 77.9917 25.515 78.0197 25.5431C78.3001 26.244 78.3842 27.0011 78.4964 27.7581C78.4964 28.2628 78.4403 28.7395 78.3562 29.2161C78.216 29.6367 78.0197 30.0573 77.8235 30.4778C77.5711 30.8423 77.2627 31.1788 76.9543 31.4872C76.6459 31.7115 76.3374 31.9078 76.029 32.1321C75.6925 32.2723 75.3561 32.3845 75.0196 32.5247C74.8794 32.5527 74.7392 32.5807 74.6271 32.6088C74.571 32.6088 74.543 32.6088 74.4869 32.6088C73.9822 32.6368 73.4495 32.6088 72.9448 32.5247C72.7765 32.4686 72.5803 32.4125 72.412 32.3564C72.1877 32.2443 71.9634 32.1602 71.7391 32.048C71.1223 31.6555 70.5895 31.1788 70.169 30.562C70.0568 30.3377 69.9166 30.1414 69.8045 29.9171C69.7203 29.6367 69.6362 29.3843 69.5521 29.104C69.44 28.7114 69.468 28.7114 69.1035 28.8797C69.0755 28.9077 69.0194 28.9357 68.9913 28.9638C68.7951 29.0198 68.5988 29.132 68.4586 29.2722C68.1222 29.4404 67.8698 29.7208 67.6455 30.0012C67.4212 30.2255 67.2249 30.4498 67.1128 30.7582C66.9726 30.9545 66.8604 31.1788 66.7763 31.4312C66.6922 31.5994 66.58 31.7676 66.58 31.9639C66.524 32.02 66.524 32.076 66.524 32.1602C66.3277 32.6088 66.2436 33.0854 66.2716 33.5901C66.2716 33.7023 66.2716 33.8425 66.2716 33.9546C66.552 36.0575 67.6455 37.6277 69.4119 38.7492C70.1409 39.2539 70.954 39.5623 71.8232 39.7586C72.1317 39.8427 72.4401 39.9268 72.7765 39.9268C73.141 40.0109 73.4775 40.0109 73.842 39.9829C74.7673 40.039 75.6645 39.9549 76.5617 39.7025C78.0478 39.4221 79.3936 38.8333 80.6273 37.9922C81.3844 37.5155 82.0573 36.9547 82.6461 36.2818C83.1508 35.8332 83.5433 35.3005 83.9078 34.7397C84.1602 34.4593 84.3004 34.1229 84.4686 33.8144C84.749 33.3658 84.9733 32.8892 85.1135 32.4125C85.4219 31.7115 85.6182 30.9545 85.7303 30.1975C85.8705 29.6647 85.9266 29.132 85.8986 28.5712C85.8705 27.9263 85.8986 27.2815 85.7864 26.6366Z" fill="#A4A4A4"/>
<path d="M67.3928 26.5805C68.1218 25.9917 68.8508 25.4029 69.5517 24.786C70.1966 24.2252 70.8695 23.6925 71.4303 23.0196C71.6546 22.8233 71.8228 22.599 71.963 22.3467C72.1313 22.1784 72.2434 22.0102 72.3556 21.7859C72.5518 21.5336 72.7201 21.2812 72.8603 21.0008C72.9724 20.8606 73.0565 20.6924 73.1126 20.5242C73.1967 20.3559 73.3089 20.1877 73.393 19.9914C74.5706 17.4399 75.1034 14.7482 75.1875 11.9444C75.2435 9.89758 75.0473 7.85077 74.823 5.80397C74.7669 5.2432 74.7669 4.68243 74.5987 4.1497C74.5987 4.09362 74.5706 4.06558 74.5706 4.0095C74.6267 3.72912 74.5706 3.47677 74.5145 3.19639C74.4585 2.83189 74.4304 2.46739 74.3744 2.13092C74.2902 1.42996 74.2061 0.700962 74.122 0C74.094 0 74.0659 0 74.0659 0C73.8697 0.700962 73.6734 1.37389 73.4491 2.07485C73.2808 2.43935 73.1687 2.83189 73.0565 3.22443C72.9444 3.42069 72.8883 3.61696 72.8603 3.84127C72.7201 4.09362 72.636 4.34596 72.5799 4.62635C72.3836 5.01889 72.2434 5.43947 72.1313 5.86004C71.907 6.36474 71.7107 6.86943 71.5144 7.40216C71.3462 7.71058 71.206 8.01901 71.1219 8.35547C71.0097 8.55174 70.9256 8.74801 70.8415 8.97231C70.6733 9.2527 70.5331 9.53308 70.4209 9.84151C70.2527 10.1499 70.0845 10.4584 69.9443 10.7948C69.8041 10.9911 69.6919 11.1874 69.6078 11.4117C69.4396 11.692 69.2994 11.9724 69.1312 12.2809C68.9629 12.4771 68.8227 12.7014 68.7106 12.9538C68.5704 13.1781 68.4022 13.4024 68.262 13.6547C68.0937 13.9071 67.8975 14.1594 67.7292 14.4118C67.4488 14.7202 67.1965 15.0006 67.0002 15.337C66.7759 15.5894 66.5516 15.8417 66.3834 16.1221C66.0189 16.5707 65.6544 17.0474 65.374 17.524C65.1777 17.7203 65.0375 17.9727 64.9254 18.197C64.7572 18.4493 64.5328 18.7017 64.4487 18.982C64.2244 19.3185 64.0282 19.683 63.8599 20.0756C63.6076 20.4961 63.4113 20.9447 63.2431 21.4214C63.1029 21.6457 63.0188 21.8981 62.9627 22.1504C62.8225 22.4308 62.7384 22.7112 62.6823 23.0196C62.458 23.6645 62.3458 24.3094 62.2617 24.9823C62.1776 25.487 62.0935 26.0197 62.0935 26.5244C61.9813 27.0852 62.0094 27.6459 62.0094 28.2067C61.9813 28.7394 62.0094 29.3002 62.1215 29.8329C62.1496 30.4218 62.3178 31.0106 62.486 31.5713C62.7384 32.4686 63.1029 33.3097 63.6356 34.0948C63.6637 33.2256 63.8599 32.4125 64.0562 31.5994C64.1683 31.2909 64.2805 30.9545 64.4207 30.6461C64.5048 30.4498 64.5889 30.2255 64.7011 30.0292C64.9815 29.4684 65.346 28.9638 65.6824 28.4591C65.9628 28.1506 66.2152 27.8142 66.4955 27.5057C66.7759 27.1693 67.0843 26.8609 67.3928 26.5805Z" fill="#A4A4A4"/>
</svg>
