<svg width="146" height="60" viewBox="0 0 146 60" fill="none" xmlns="http://www.w3.org/2000/svg">
<path d="M40.1354 20C38.6453 20 36.8825 21.4271 35.4134 23.8405C33.9024 26.3379 33 29.4229 33 32.1091C33 36.0336 35.2036 40 40.1354 40C45.0672 40 47.2707 36.0336 47.2707 32.1091C47.2707 29.4229 46.3683 26.3379 44.8573 23.8405C43.3882 21.4271 41.6254 20 40.1354 20Z" fill="#A4A4A4"/>
<path d="M78.6873 25.8972H83.682V38.9087H89.0335V25.8972H94.0283V21.0703H78.6873V25.8972Z" fill="#A4A4A4"/>
<path d="M105.466 25.8972H113.315V21.0703H105.466C98.2465 21.0703 94.406 24.659 94.406 29.9895C94.406 35.3201 98.2675 38.9087 105.466 38.9087H113.315V34.0819H105.466C102.129 34.0819 99.9254 32.8856 99.9254 29.9685C99.9254 27.0934 102.108 25.8972 105.466 25.8972Z" fill="#A4A4A4"/>
<path d="M67.7947 21.0703L64.9406 31.7314L62.0864 21.0703H52.6216V38.9087H57.9941V24.4071L61.8766 38.9087H68.0046L71.908 24.3862V38.9087H77.2596V21.0703H67.7947Z" fill="#A4A4A4"/>
</svg>
