<svg width="147" height="60" viewBox="0 0 147 60" fill="none" xmlns="http://www.w3.org/2000/svg">
<path d="M41.4376 29.7584C41.4376 30.6972 41.2641 31.3609 40.9172 31.745C40.5698 32.1319 40.0139 32.325 39.2482 32.325C38.7935 32.325 38.3478 32.2311 37.911 32.0454C37.4739 31.8576 37.1069 31.6617 36.8073 31.4576L36 33.2458C36.311 33.4993 36.7567 33.7364 37.3371 33.9597C37.9167 34.1817 38.602 34.294 39.3918 34.294C40.2416 34.294 40.9445 34.1784 41.5004 33.9499C42.0568 33.7213 42.4996 33.4078 42.8286 33.0103C43.158 32.6127 43.3878 32.1491 43.5196 31.6188C43.651 31.089 43.7168 30.5156 43.7168 29.9029V21.4996H41.4376V29.7584Z" fill="#A4A4A4"/>
<path d="M51.3083 32.2163C51.1642 32.251 50.9458 32.2816 50.6532 32.3065C50.3593 32.3302 50.0818 32.3424 49.8189 32.3424C49.0887 32.3424 48.5773 32.1257 48.2846 31.6918C47.9911 31.2579 47.845 30.5351 47.845 29.5236V24.5718H45.6736V29.8665C45.6736 30.5053 45.7393 31.0918 45.8711 31.6281C46.0026 32.164 46.2209 32.6249 46.5258 33.0106C46.8315 33.3971 47.2377 33.6967 47.7467 33.9143C48.2548 34.1318 48.8862 34.2392 49.6397 34.2392C50.4418 34.2392 51.1769 34.1816 51.8471 34.0673C52.5169 33.9534 53.0614 33.8424 53.4801 33.7338V24.5718H51.3087V32.2163H51.3083Z" fill="#A4A4A4"/>
<path d="M61.0251 29.6224C60.7925 29.3877 60.4965 29.1775 60.1369 28.9906C59.7778 28.8037 59.341 28.6143 58.8271 28.4208C58.5161 28.3126 58.2524 28.2069 58.0373 28.1045C57.8222 28.0024 57.6484 27.9 57.5169 27.7971C57.3851 27.6951 57.2924 27.5841 57.2386 27.4633C57.1847 27.3433 57.1573 27.2041 57.1573 27.0477C57.1573 26.7343 57.2957 26.502 57.5712 26.3514C57.8459 26.2008 58.2051 26.1253 58.648 26.1253C59.1382 26.1253 59.5688 26.1706 59.9402 26.2604C60.3112 26.351 60.6161 26.4506 60.8553 26.5588L61.25 24.7873C60.9994 24.6914 60.6227 24.5918 60.1194 24.4898C59.6178 24.3877 59.0904 24.3363 58.5402 24.3363C57.4516 24.3363 56.59 24.5869 55.9557 25.0861C55.3214 25.5861 55.0043 26.2694 55.0043 27.1371C55.0043 27.5828 55.0728 27.9588 55.2108 28.2669C55.3479 28.5743 55.5365 28.8359 55.7761 29.0526C56.0157 29.2698 56.299 29.4596 56.6288 29.6216C56.9577 29.7845 57.319 29.9388 57.7141 30.0829C58.3606 30.3241 58.8235 30.5469 59.1055 30.7522C59.3863 30.9559 59.5271 31.2155 59.5271 31.5282C59.5271 31.8657 59.3953 32.1037 59.132 32.242C58.8688 32.3808 58.4504 32.4494 57.8761 32.4494C57.3014 32.4494 56.7904 32.3898 56.3418 32.2694C55.8928 32.149 55.5067 32.0229 55.1843 31.8898L54.8071 33.7151C55.0104 33.7996 55.3635 33.9106 55.8663 34.0494C56.3688 34.1878 57.032 34.2571 57.8577 34.2571C59.0904 34.2571 60.0386 34.0253 60.7027 33.5608C61.3659 33.098 61.6986 32.4139 61.6986 31.5102C61.6986 31.089 61.6439 30.7269 61.5365 30.4265C61.4284 30.1257 61.259 29.8571 61.0251 29.6224Z" fill="#A4A4A4"/>
<path d="M68.0603 32.2335C67.755 32.3188 67.4057 32.3608 67.0101 32.3608C66.4359 32.3608 66.0293 32.1988 65.7901 31.8731C65.5505 31.5478 65.431 31.0053 65.431 30.2469V26.3971H68.7685V24.5722H65.431V21.7163L63.2595 22.0779V30.2641C63.2595 30.8906 63.313 31.4478 63.4207 31.9359C63.5285 32.4241 63.7138 32.84 63.9775 33.1833C64.2403 33.527 64.5971 33.7882 65.0448 33.9694C65.4934 34.1502 66.0526 34.2404 66.7232 34.2404C67.273 34.2404 67.7518 34.1829 68.1587 34.0686C68.5652 33.9547 68.8942 33.8429 69.1453 33.7351L68.7865 31.9996C68.6077 32.071 68.3657 32.1502 68.0603 32.2335Z" fill="#A4A4A4"/>
<path d="M72.7707 23.0988C72.8303 22.84 72.9319 22.62 73.0756 22.4392C73.2197 22.2588 73.4107 22.1171 73.6499 22.0147C73.8895 21.9127 74.1817 21.8612 74.529 21.8612C74.8401 21.8612 75.1307 21.8914 75.4001 21.9514C75.6682 22.0123 75.905 22.0906 76.1082 22.1865L76.5213 20.3788C76.3303 20.3069 76.0429 20.2257 75.6601 20.1351C75.2772 20.0449 74.8348 20 74.3319 20C73.0523 20 72.0948 20.3461 71.4605 21.0388C70.8262 21.7314 70.509 22.6861 70.509 23.9029V34.0221H72.6809V26.3968H76.0903V24.5718H72.6809V23.9392C72.6813 23.6376 72.7103 23.3584 72.7707 23.0988Z" fill="#A4A4A4"/>
<path d="M84.0221 25.6922C83.6278 25.2583 83.1527 24.924 82.596 24.6889C82.0393 24.4538 81.4323 24.3367 80.7739 24.3367C80.116 24.3367 79.5123 24.4542 78.9621 24.6889C78.4119 24.9236 77.936 25.2583 77.5356 25.6922C77.1343 26.1257 76.8237 26.6469 76.6017 27.2555C76.3809 27.864 76.2703 28.542 76.2703 29.2881C76.2703 30.0359 76.3809 30.7167 76.6017 31.3298C76.8233 31.9449 77.1315 32.4681 77.5266 32.9024C77.9213 33.3363 78.3931 33.6734 78.9437 33.9142C79.4944 34.1551 80.1046 34.2759 80.7739 34.2759C81.4442 34.2759 82.0572 34.1551 82.614 33.9142C83.1695 33.673 83.6454 33.3363 84.0405 32.9024C84.4352 32.4685 84.7397 31.9457 84.9552 31.3298C85.1707 30.7155 85.2789 30.0359 85.2789 29.2881C85.2789 28.542 85.1678 27.864 84.947 27.2555C84.7254 26.6469 84.4172 26.1252 84.0221 25.6922ZM82.4523 31.5473C82.0515 32.1008 81.4927 32.3787 80.7744 32.3787C80.0568 32.3787 79.4984 32.1008 79.0972 31.5473C78.6964 30.993 78.496 30.2408 78.496 29.2877C78.496 28.3485 78.6964 27.6044 79.0972 27.0563C79.498 26.5081 80.0572 26.2334 80.7744 26.2334C81.4931 26.2334 82.0515 26.5085 82.4523 27.0563C82.854 27.6044 83.0544 28.3485 83.0544 29.2877C83.054 30.2408 82.8535 30.993 82.4523 31.5473Z" fill="#A4A4A4"/>
<path d="M97.5263 24.3367C96.9757 24.3367 96.4369 24.442 95.9116 24.6526C95.3842 24.864 94.9181 25.1767 94.5116 25.5926C94.1042 26.0081 93.7781 26.5289 93.5336 27.1559C93.2871 27.782 93.165 28.5106 93.165 29.342C93.165 30.053 93.2606 30.7073 93.452 31.3036C93.6442 31.8991 93.9369 32.4179 94.332 32.8575C94.7271 33.2971 95.2283 33.6412 95.8389 33.8877C96.4491 34.1351 97.1667 34.2583 97.9924 34.2583C98.3153 34.2583 98.6328 34.2391 98.9438 34.2032C99.2544 34.1669 99.5451 34.1228 99.8136 34.0681C100.083 34.0147 100.322 33.9542 100.531 33.8877C100.741 33.822 100.905 33.7583 101.025 33.6975L100.739 31.9089C100.487 32.0167 100.143 32.1204 99.7067 32.2163C99.2695 32.3118 98.7875 32.3608 98.2614 32.3608C97.3646 32.3608 96.6797 32.1526 96.2071 31.7375C95.7348 31.322 95.4679 30.7346 95.4083 29.9751H101.6C101.612 29.8555 101.62 29.7195 101.627 29.5689C101.632 29.4183 101.635 29.2824 101.635 29.1624C101.635 27.5599 101.274 26.3555 100.55 25.5481C99.8263 24.7403 98.8185 24.3367 97.5263 24.3367ZM95.4267 28.3669C95.4626 28.0893 95.5279 27.8187 95.6238 27.5538C95.7193 27.2881 95.8536 27.0534 96.0283 26.8485C96.2014 26.644 96.4136 26.4779 96.665 26.3518C96.9165 26.2257 97.2095 26.162 97.5438 26.162C97.8675 26.162 98.1455 26.2195 98.3789 26.3334C98.6124 26.4477 98.81 26.6044 98.9708 26.8032C99.1328 27.0024 99.2549 27.2371 99.3398 27.5081C99.4226 27.7799 99.4647 28.0657 99.4647 28.3669H95.4267Z" fill="#A4A4A4"/>
<path d="M109.612 31.6241C109.008 30.7727 108.377 29.9319 107.717 29.0992L110.87 24.5723H108.59L106.596 27.4657L104.607 24.5723H102.219L105.405 29.1919C105.098 29.5702 104.788 29.9686 104.474 30.387C104.16 30.8074 103.855 31.2266 103.56 31.6453C103.264 32.0649 102.988 32.4747 102.729 32.8764C102.471 33.278 102.253 33.66 102.076 34.0233H104.29C104.554 33.5645 104.888 33.0388 105.289 32.4429C105.692 31.8486 106.103 31.3062 106.524 30.8139C106.726 31.0625 106.934 31.3294 107.148 31.6102C107.361 31.8919 107.566 32.1768 107.762 32.4645C107.959 32.7523 108.143 33.0278 108.315 33.2931C108.487 33.5584 108.628 33.8029 108.737 34.0233H111.103C110.713 33.2739 110.216 32.4743 109.612 31.6241Z" fill="#A4A4A4"/>
<path d="M90.461 24.2358C89.1802 24.2358 88.2234 24.5828 87.5895 25.2746C86.9548 25.9681 86.6377 26.9224 86.6377 28.1395V33.8718H88.8099V30.6338V28.8081V28.1754C88.8099 27.8738 88.8385 27.5942 88.8993 27.3354C88.9593 27.0763 89.061 26.8558 89.2042 26.675C89.3479 26.4946 89.5389 26.353 89.7785 26.2505C90.0173 26.1489 90.3108 26.0967 90.6577 26.0967C90.9683 26.0967 91.2585 26.1273 91.5279 26.1873C91.7973 26.2477 92.0332 26.3265 92.2369 26.4224L92.65 24.615C92.4589 24.5428 92.1708 24.4611 91.7891 24.3714C91.4059 24.2816 90.9638 24.2358 90.461 24.2358Z" fill="#A4A4A4"/>
<path d="M63.5564 37.4236H64.0156V39.0669C64.0156 39.766 63.6793 39.9995 63.1788 39.9995C63.0519 39.9995 62.8915 39.9771 62.7939 39.9399L62.8503 39.5669C62.925 39.5901 63.0258 39.6122 63.1339 39.6122C63.3956 39.6122 63.5564 39.4918 63.5564 39.0513V37.4236Z" fill="#A4A4A4"/>
<path d="M64.9578 37.4236V38.9011C64.9578 39.3979 65.1631 39.6273 65.4733 39.6273C65.8056 39.6273 66.0035 39.3975 66.0035 38.9011V37.4236H66.4627V38.8709C66.4627 39.653 66.0631 39.9991 65.4582 39.9991C64.8754 39.9991 64.4978 39.6722 64.4978 38.8754V37.4236H64.9578Z" fill="#A4A4A4"/>
<path d="M66.9612 39.4546C67.111 39.5415 67.335 39.6162 67.5701 39.6162C67.8653 39.6162 68.0293 39.477 68.0293 39.2705C68.0293 39.0787 67.9024 38.966 67.5812 38.8485C67.1665 38.6987 66.9016 38.4762 66.9016 38.1105C66.9016 37.6978 67.2453 37.3823 67.7902 37.3823C68.0632 37.3823 68.2648 37.4419 68.3955 37.5105L68.2836 37.8831C68.1938 37.8333 68.0183 37.7611 67.7828 37.7611C67.4914 37.7611 67.3644 37.9203 67.3644 38.0668C67.3644 38.2623 67.5101 38.3533 67.8465 38.4836C68.2836 38.6493 68.4963 38.8713 68.4963 39.2366C68.4963 39.6427 68.1902 39.9962 67.5399 39.9962C67.2746 39.9962 66.9983 39.9203 66.8604 39.8382L66.9612 39.4546Z" fill="#A4A4A4"/>
<path d="M69.3745 37.8113H68.6577V37.424H70.5585V37.8113H69.834V39.9587H69.3745V37.8113Z" fill="#A4A4A4"/>
<path d="M73.3956 39.8828C73.2875 39.9404 73.0483 39.9959 72.7462 39.9959C71.9471 39.9959 71.4609 39.4922 71.4609 38.72C71.4609 37.8857 72.036 37.3816 72.8058 37.3816C73.1083 37.3816 73.3246 37.4461 73.4181 37.4947L73.3173 37.864C73.1977 37.811 73.0332 37.7657 72.8242 37.7657C72.3124 37.7657 71.943 38.0893 71.943 38.6983C71.943 39.2547 72.2675 39.6122 72.8201 39.6122C73.0071 39.6122 73.2009 39.5747 73.3209 39.5179L73.3956 39.8828Z" fill="#A4A4A4"/>
<path d="M75.9066 38.6653C75.9066 39.5151 75.3947 40 74.7 40C73.9911 40 73.5425 39.4547 73.5425 38.7089C73.5425 37.931 74.0278 37.3816 74.7376 37.3816C75.4727 37.3816 75.9066 37.9432 75.9066 38.6653ZM74.0274 38.702C74.0274 39.2179 74.2853 39.6277 74.7258 39.6277C75.1702 39.6277 75.4209 39.2138 75.4209 38.6836C75.4209 38.2057 75.1858 37.7538 74.7258 37.7538C74.2706 37.7538 74.0274 38.1796 74.0274 38.702Z" fill="#A4A4A4"/>
<path d="M78.4102 38.924C78.3951 38.5962 78.3763 38.2015 78.3804 37.8587H78.3698C78.2869 38.1685 78.1832 38.5101 78.0706 38.8293L77.7049 39.9277H77.3506L77.0138 38.8452C76.9163 38.5207 76.8269 38.1758 76.7596 37.8587H76.7518C76.7408 38.1905 76.7261 38.5926 76.7073 38.9395L76.651 39.9583H76.2212L76.3889 37.4236H76.9938L77.3232 38.442C77.413 38.7399 77.491 39.0403 77.5547 39.3224H77.5661C77.6326 39.0473 77.7187 38.7354 77.8159 38.4391L78.1632 37.4236H78.7612L78.9065 39.9591H78.4583L78.4102 38.924Z" fill="#A4A4A4"/>
<path d="M79.3572 37.4236H80.8098V37.8032H79.816V38.5024H80.7421V38.8828H79.816V39.9587H79.3572V37.4236Z" fill="#A4A4A4"/>
<path d="M83.474 38.6653C83.474 39.5151 82.9617 40 82.2674 40C81.5576 40 81.1099 39.4547 81.1099 38.7089C81.1099 37.931 81.5952 37.3816 82.305 37.3816C83.0405 37.3816 83.474 37.9432 83.474 38.6653ZM81.5944 38.702C81.5944 39.2179 81.8523 39.6277 82.2927 39.6277C82.7376 39.6277 82.9874 39.2138 82.9874 38.6836C82.9874 38.2057 82.7527 37.7538 82.2927 37.7538C81.8376 37.7538 81.5944 38.1796 81.5944 38.702Z" fill="#A4A4A4"/>
<path d="M83.8521 37.4574C84.0239 37.4268 84.2818 37.4048 84.5467 37.4048C84.9088 37.4048 85.1553 37.4644 85.3235 37.6081C85.4619 37.7252 85.5402 37.9003 85.5402 38.1154C85.5402 38.4423 85.3198 38.6656 85.0847 38.7513V38.7636C85.2639 38.8305 85.3725 39.0076 85.4353 39.2513C85.5133 39.5676 85.581 39.8611 85.6333 39.9583H85.1594C85.1219 39.8823 85.0619 39.6758 84.9912 39.3599C84.9202 39.0289 84.8006 38.924 84.5394 38.9162H84.3076V39.9583H83.8521V37.4574ZM84.308 38.5791H84.5818C84.8912 38.5791 85.0851 38.413 85.0851 38.1615C85.0851 37.8836 84.8908 37.755 84.5921 37.755C84.4463 37.755 84.3529 37.766 84.308 37.7774V38.5791Z" fill="#A4A4A4"/>
<path d="M86.4601 37.8113H85.7429V37.424H87.6446V37.8113H86.9201V39.9587H86.4601V37.8113Z" fill="#A4A4A4"/>
<path d="M88.1529 39.2403L87.9358 39.9587H87.4619L88.2689 37.424H88.8554L89.6738 39.9587H89.1807L88.9525 39.2403H88.1529ZM88.8738 38.8909L88.6758 38.2656C88.6272 38.1105 88.5864 37.9382 88.5493 37.7921H88.5415C88.5044 37.9382 88.466 38.1154 88.4215 38.2656L88.2272 38.8909H88.8738Z" fill="#A4A4A4"/>
<path d="M90.0068 37.4574C90.1526 37.4268 90.4179 37.4048 90.6758 37.4048C91.015 37.4048 91.2248 37.4464 91.397 37.5656C91.5538 37.6607 91.6587 37.8272 91.6587 38.0415C91.6587 38.2742 91.5126 38.4889 91.2399 38.5897V38.597C91.5052 38.6652 91.7477 38.8762 91.7477 39.2252C91.7477 39.4513 91.6513 39.6281 91.5052 39.7485C91.3256 39.9072 91.0301 39.9852 90.5717 39.9852C90.3175 39.9852 90.1232 39.966 90.0072 39.9505V37.4574H90.0068ZM90.4624 38.4578H90.6975C91.0146 38.4578 91.1946 38.3068 91.1946 38.0921C91.1946 37.8558 91.015 37.7468 90.7244 37.7468C90.5893 37.7468 90.5109 37.7538 90.4624 37.7656V38.4578ZM90.4624 39.6244C90.5219 39.6317 90.6003 39.6342 90.7052 39.6342C91.0011 39.6342 91.2615 39.5223 91.2615 39.2097C91.2615 38.9162 91.0077 38.7954 90.6909 38.7954H90.4632V39.624H90.4624V39.6244Z" fill="#A4A4A4"/>
<path d="M92.1399 37.4236H92.5995V39.5709H93.635V39.9583H92.1399V37.4236Z" fill="#A4A4A4"/>
<path d="M95.3729 38.8333H94.4244V39.5786H95.4848V39.9587H93.9644V37.424H95.4288V37.8035H94.4244V38.4582H95.3729V38.8333Z" fill="#A4A4A4"/>
<path d="M96.9573 37.8113H96.241V37.424H98.1414V37.8113H97.4169V39.9587H96.9573V37.8113Z" fill="#A4A4A4"/>
<path d="M98.4192 37.4574C98.591 37.4268 98.8486 37.4048 99.1143 37.4048C99.4759 37.4048 99.7225 37.4644 99.8902 37.6081C100.028 37.7252 100.107 37.9003 100.107 38.1154C100.107 38.4423 99.887 38.6656 99.6518 38.7513V38.7636C99.8306 38.8305 99.9396 39.0076 100.002 39.2513C100.08 39.5676 100.148 39.8611 100.2 39.9583H99.7261C99.6886 39.8823 99.6286 39.6758 99.558 39.3599C99.487 39.0289 99.3674 38.924 99.1065 38.9162H98.8751V39.9583H98.4192V37.4574ZM98.8743 38.5791H99.1469C99.4572 38.5791 99.651 38.413 99.651 38.1615C99.651 37.8836 99.4567 37.755 99.1572 37.755C99.0127 37.755 98.9188 37.766 98.8743 37.7774V38.5791Z" fill="#A4A4A4"/>
<path d="M101.057 39.2403L100.841 39.9587H100.367L101.173 37.424H101.76L102.578 39.9587H102.085L101.857 39.2403H101.057ZM101.778 38.8909L101.58 38.2656C101.532 38.1105 101.49 37.9382 101.453 37.7921H101.445C101.408 37.9382 101.37 38.1154 101.325 38.2656L101.131 38.8909H101.778Z" fill="#A4A4A4"/>
<path d="M102.911 37.4574C103.113 37.424 103.37 37.4048 103.643 37.4048C104.114 37.4048 104.438 37.5027 104.67 37.6983C104.914 37.897 105.063 38.1991 105.063 38.6309C105.063 39.0823 104.91 39.4203 104.67 39.6391C104.42 39.8681 104.02 39.9852 103.531 39.9852C103.263 39.9852 103.061 39.9705 102.911 39.9505V37.4574ZM103.37 39.6052C103.434 39.6158 103.532 39.6158 103.624 39.6158C104.223 39.6203 104.577 39.2885 104.577 38.646C104.581 38.0852 104.259 37.7656 103.684 37.7656C103.538 37.7656 103.434 37.7766 103.37 37.7913V39.6052H103.37Z" fill="#A4A4A4"/>
<path d="M105.904 37.4236V39.9583H105.445V37.4236H105.904Z" fill="#A4A4A4"/>
<path d="M106.412 39.9583V37.4236H106.936L107.586 38.5097C107.754 38.7926 107.899 39.086 108.016 39.3599H108.023C107.993 39.022 107.982 38.6934 107.982 38.3064V37.4236H108.407V39.9583H107.933L107.276 38.8448C107.115 38.5669 106.947 38.2554 106.825 37.9689L106.814 37.973C106.832 38.2999 106.836 38.6338 106.836 39.0518V39.9591H106.413V39.9583H106.412Z" fill="#A4A4A4"/>
<path d="M110.938 39.8418C110.777 39.9022 110.463 39.9847 110.127 39.9847C109.701 39.9847 109.38 39.8757 109.141 39.6467C108.916 39.4324 108.786 39.0965 108.79 38.7141C108.79 37.9124 109.358 37.3973 110.191 37.3973C110.501 37.3973 110.744 37.461 110.859 37.5169L110.759 37.8892C110.62 37.83 110.452 37.7802 110.187 37.7802C109.65 37.7802 109.272 38.0998 109.272 38.6908C109.272 39.2655 109.624 39.6088 110.146 39.6088C110.311 39.6088 110.435 39.5863 110.494 39.5557V38.9243H110.05V38.559H110.939V39.8418H110.938Z" fill="#A4A4A4"/>
</svg>
