<svg width="146" height="60" viewBox="0 0 146 60" fill="none" xmlns="http://www.w3.org/2000/svg">
<path d="M58.2286 25.02V32.8154H62.0552L61.8143 34.6154H55.9043V25.02H58.2286Z" fill="#A4A4A4"/>
<path d="M69.131 34.6154L68.6209 32.5523H65.758L65.2619 34.6154H62.8525L65.8147 25.02H68.635L71.5971 34.6154H69.131ZM66.1548 30.9046H68.224L67.1894 26.6677L66.1548 30.9046Z" fill="#A4A4A4"/>
<path d="M79.1169 25.02L78.8902 26.7646H76.4667V34.6154H74.1423V26.7646H71.6055V25.02H79.1169Z" fill="#A4A4A4"/>
<path d="M84.3105 24.7845C85.7089 24.7845 86.7955 25.223 87.5702 26.0999C88.3545 26.9769 88.7465 28.2138 88.7465 29.8107C88.7465 30.8538 88.567 31.7538 88.208 32.5107C87.8584 33.2676 87.3482 33.8492 86.6774 34.2553C86.016 34.6522 85.227 34.8507 84.3105 34.8507C83.394 34.8507 82.6051 34.6522 81.9437 34.2553C81.2823 33.8584 80.7721 33.2861 80.413 32.5384C80.0635 31.7815 79.8887 30.8722 79.8887 29.8107C79.8887 28.7769 80.0635 27.8815 80.413 27.1246C80.7721 26.3676 81.2823 25.7907 81.9437 25.3938C82.6051 24.9876 83.394 24.7845 84.3105 24.7845ZM84.3105 26.4461C83.6397 26.4461 83.1389 26.7138 82.8082 27.2492C82.487 27.7753 82.3264 28.6292 82.3264 29.8107C82.3264 30.9922 82.4917 31.8507 82.8224 32.3861C83.1531 32.9215 83.6492 33.1892 84.3105 33.1892C84.9908 33.1892 85.4916 32.9261 85.8129 32.3999C86.1435 31.8646 86.3089 31.0015 86.3089 29.8107C86.3089 28.6199 86.1435 27.7615 85.8129 27.2353C85.4822 26.7092 84.9814 26.4461 84.3105 26.4461Z" fill="#A4A4A4"/>
<path d="M93.2528 25.02V34.6154H90.9287V25.02H93.2528ZM98.894 25.02L95.7615 29.3261L99.149 34.6154H96.4559L93.324 29.4923L96.4421 25.02H98.894Z" fill="#A4A4A4"/>
<path d="M106.708 25.02L106.467 26.64H103.009V28.9385H106.028V30.5308H103.009V32.9816H106.708V34.6154H100.685V25.02H106.708Z" fill="#A4A4A4"/>
<path d="M116.5 34.6154H113.538L110.703 27.18C110.798 27.9093 110.869 28.5554 110.916 29.1185C110.972 29.6723 111.001 30.3323 111.001 31.0985V34.6154H108.932V25.02H111.823L114.728 32.4693C114.52 31.2046 114.417 30.0139 114.417 28.897V25.02H116.5V34.6154Z" fill="#A4A4A4"/>
<path d="M42.4985 30.4518H40.7737L42.1861 26.554L42.4985 30.4518Z" fill="#A4A4A4"/>
<path fill-rule="evenodd" clip-rule="evenodd" d="M39.2358 40C44.8889 40 49.4716 35.5229 49.4716 30C49.4716 24.4771 44.8889 20 39.2358 20C33.5827 20 29 24.4771 29 30C29 35.5229 33.5827 40 39.2358 40ZM35.3849 32.1353L38.5764 25H36.1046L32.071 34H39.4967L40.1623 32.1611H42.6205L42.7699 34H45.3775L43.965 25H40.9771L37.7577 32.1353H35.3849Z" fill="#A4A4A4"/>
</svg>
