<svg width="146" height="60" viewBox="0 0 146 60" fill="none" xmlns="http://www.w3.org/2000/svg">
<path fill-rule="evenodd" clip-rule="evenodd" d="M87.05 4H59V51C59 53.2091 60.7909 55 63 55H83.05C85.2591 55 87.05 53.2091 87.05 51V4ZM76.2535 24.103C75.9891 24.3834 75.7328 24.6637 75.4204 25.0082C76.4538 25.0082 77.3991 25.0082 78.3284 25.0002C78.3466 25.0002 78.3649 25.0012 78.3829 25.0022C78.436 25.0052 78.4868 25.0081 78.5286 24.9842C78.7023 24.8913 78.879 24.8029 79.0557 24.7144L79.0559 24.7143C79.7021 24.3908 80.3486 24.0672 80.8518 23.5262C80.9399 23.43 81.0201 23.3339 81.0441 23.1897C81.1533 22.6436 81.1476 22.0928 81.1419 21.541V21.5409V21.5408V21.5407V21.5406V21.5405V21.5404V21.5403V21.5402V21.5401V21.54V21.5399V21.5398V21.5397V21.5396V21.5395V21.5394V21.5393V21.5392C81.1401 21.3631 81.1383 21.1869 81.1402 21.0107C81.1412 20.9273 81.1411 20.8439 81.1409 20.7609C81.1398 20.1982 81.1388 19.6478 81.5087 19.1522C81.6649 18.944 81.7918 18.7191 81.9197 18.4925L81.9197 18.4925C81.9689 18.4052 82.0183 18.3178 82.0695 18.2309C82.3499 17.7503 82.6303 17.2616 82.8386 16.7409C82.9347 16.4925 83.0148 16.2202 82.8386 15.9798C82.7861 15.9061 82.7338 15.8322 82.6816 15.7583L82.6813 15.7579L82.6811 15.7575L82.6808 15.7571L82.6808 15.7571C82.1829 15.0529 81.686 14.35 81.012 13.7848C80.6115 13.4483 80.3712 12.9837 80.3632 12.4229C80.3567 12.1182 80.3246 11.8173 80.2926 11.5167C80.2445 11.0665 80.1966 10.6169 80.235 10.1558C80.275 9.6271 80.1709 9.60307 79.6342 9.56301C78.7529 9.50694 77.8797 9.46688 76.9985 9.4829C76.8303 9.49092 76.6621 9.43484 76.5099 9.34672C75.5566 8.81799 74.6113 8.27324 73.7541 7.59231C73.4657 7.35999 73.1853 7.37601 72.8809 7.60032C72.5706 7.83306 72.2716 8.07716 71.9726 8.32126C71.5616 8.6569 71.1505 8.99255 70.7099 9.29865C70.4295 9.49091 70.1812 9.6271 69.8527 9.63511C69.4933 9.64203 69.1338 9.6728 68.7737 9.70362C68.2992 9.74425 67.8235 9.78496 67.3453 9.7713C66.5682 9.74727 66.4801 9.88345 66.4721 10.6605C66.4692 10.9576 66.4757 11.2546 66.4821 11.5517C66.4936 12.0797 66.5051 12.6078 66.4641 13.1359L66.4607 13.1695C66.4382 13.3979 66.4165 13.6179 66.2638 13.8088C66.0715 14.0465 65.8811 14.285 65.6906 14.5236C65.3096 15.0007 64.9286 15.4778 64.5334 15.9478C64.3572 16.1561 64.3492 16.2842 64.5334 16.4765C65.1583 17.1494 65.7591 17.8304 66.3039 18.5754C66.7044 19.1281 66.8726 19.6569 66.8646 20.2977C66.8646 20.8667 66.8724 21.4279 66.8803 21.9966L66.8806 22.0201L66.8805 22.0479C66.8796 22.1947 66.8786 22.3655 67.0969 22.3806C67.9061 22.4367 68.6991 22.5809 69.4922 22.7331C69.5885 22.7507 69.6854 22.7669 69.7823 22.7832C70.3474 22.8778 70.9144 22.9727 71.3588 23.3419C71.8073 23.7183 72.2798 24.0627 72.7523 24.4071L72.7523 24.4071L72.7524 24.4071L72.7524 24.4071L72.7524 24.4071L72.7524 24.4072L72.7524 24.4072L72.7525 24.4072L72.7525 24.4072L72.7525 24.4072L72.7525 24.4072L72.7525 24.4073L72.7526 24.4073L72.7526 24.4073L72.7526 24.4073L72.7526 24.4073L72.7526 24.4073L72.7527 24.4074L72.7527 24.4074L72.7527 24.4074C73.2975 24.8079 73.3936 24.8079 73.9143 24.3513C74.1991 24.1039 74.4757 23.8456 74.752 23.5875L74.752 23.5875L74.752 23.5875L74.7521 23.5875L74.7521 23.5875L74.7521 23.5875L74.7521 23.5875L74.7521 23.5875L74.7521 23.5874L74.7521 23.5874L74.7521 23.5874L74.7522 23.5874L74.7522 23.5874L74.7522 23.5874L74.7522 23.5874L74.7522 23.5874L74.7522 23.5874L74.7522 23.5873L74.7522 23.5873C74.9501 23.4026 75.1478 23.218 75.3483 23.0375C75.3895 22.9996 75.4314 22.9583 75.4741 22.9162L75.4741 22.9162C75.6386 22.7539 75.8143 22.5806 76.0052 22.5488C76.3212 22.4955 76.6099 22.3728 76.8971 22.2506C77.1705 22.1344 77.4425 22.0187 77.7355 21.964C78.2242 21.8759 78.3444 21.6997 78.3764 21.195C78.3796 21.1469 78.3777 21.0989 78.3758 21.0508C78.3729 20.9787 78.37 20.9066 78.3844 20.8345C78.414 20.6675 78.4341 20.5 78.4541 20.3328L78.4541 20.3327L78.4542 20.3327L78.4542 20.3326L78.4542 20.3325L78.4542 20.3324L78.4542 20.3324L78.4542 20.3323L78.4542 20.3322L78.4542 20.3321L78.4542 20.3321L78.4543 20.332L78.4543 20.3319L78.4543 20.3318L78.4543 20.3318L78.4543 20.3317L78.4543 20.3316L78.4543 20.3315L78.4543 20.3315C78.5102 19.8654 78.5658 19.4018 78.825 18.9599C79.1855 18.3511 79.4339 17.6621 79.6261 16.9652C79.7062 16.6848 79.6822 16.4445 79.498 16.2121C78.8331 15.379 78.2082 14.5298 77.8076 13.5285C77.727 13.3268 77.6622 13.1188 77.5973 12.9104C77.559 12.7877 77.5208 12.6648 77.4792 12.5431C77.367 12.2066 77.1427 12.0144 76.7662 12.0224C76.7079 12.0224 76.6485 12.0181 76.5891 12.0139L76.5891 12.0139C76.4856 12.0065 76.3823 11.9991 76.2856 12.0144C75.4043 12.1426 74.6032 11.9743 73.9063 11.3815C73.7671 11.2716 73.5876 11.2019 73.417 11.1356L73.3696 11.1171C73.1933 11.045 73.0171 11.037 72.8328 11.1332C72.6866 11.2137 72.5349 11.2865 72.383 11.3594C72.127 11.4821 71.8704 11.6052 71.6392 11.766C71.1745 12.0945 70.6859 12.2627 70.1331 12.3348C69.5039 12.4182 69.4988 12.4442 69.3847 13.0237L69.3641 13.1279C69.2199 13.8409 69.0196 14.5298 68.563 15.1387C67.7538 16.2121 67.7699 16.2442 68.4909 17.3737C68.563 17.5019 68.6351 17.6301 68.7312 17.7422C69.1478 18.2149 69.2679 18.7997 69.348 19.3925C69.4522 20.0975 69.4842 20.1295 70.1972 20.2257C70.3489 20.2457 70.5016 20.263 70.6545 20.2804C71.4782 20.3738 72.3063 20.4677 73.0091 20.9947C73.2013 21.1389 73.3535 21.0187 73.4977 20.8906L73.5418 20.8524C74.0631 20.4007 74.5751 19.9571 75.2842 19.8091C75.6206 19.745 75.7488 19.4886 75.7648 19.1602C75.7729 18.9118 75.7969 18.6555 75.8289 18.4072C75.8951 17.9071 76.1166 17.4745 76.3384 17.0413L76.3977 16.9251C76.5019 16.7088 76.5259 16.5085 76.3336 16.3403C75.861 15.9157 75.4444 15.4431 75.2201 14.8342C75.164 14.682 75.0759 14.5539 74.9077 14.5699C74.602 14.5943 74.3034 14.4929 74.0047 14.3914C73.5203 14.2268 73.0357 14.0621 72.5204 14.4337C72.4742 14.4667 72.4009 14.4725 72.3317 14.478C72.3169 14.4792 72.3022 14.4803 72.2881 14.4818C71.9596 14.5218 71.7513 14.6981 71.6792 15.0185C71.5911 15.4191 71.3748 15.7555 71.1505 16.084C70.9983 16.3083 71.0303 16.5005 71.1585 16.7088C71.1822 16.7494 71.2172 16.7857 71.2511 16.8207C71.2975 16.8686 71.3415 16.9142 71.3508 16.9652C71.4709 17.6381 71.8875 17.9025 72.5284 18.0066C72.9209 18.0707 73.2093 18.0306 73.3535 17.6701C73.4897 17.3337 73.3615 17.1094 72.953 16.9572C72.6966 16.861 72.3842 16.3724 72.4964 16.1721C72.5154 16.1379 72.5342 16.1031 72.5531 16.0682L72.5531 16.0682L72.5531 16.0681C72.724 15.7518 72.8998 15.4263 73.3615 15.4191C73.6179 15.4191 73.8342 15.5312 74.0265 15.6353C74.3229 15.7956 74.6513 16.0359 74.7234 16.3804C74.7575 16.5313 74.7738 16.6882 74.7904 16.8474L74.7904 16.8475L74.7904 16.8475L74.7904 16.8475L74.7904 16.8475L74.7904 16.8475L74.7904 16.8475L74.7904 16.8476L74.7904 16.8476L74.7904 16.8476L74.7904 16.8476L74.7904 16.8476V16.8476C74.8011 16.9503 74.8119 17.0539 74.8276 17.1574C74.8756 17.4619 74.8836 17.7743 74.6032 18.0066C74.4991 18.0867 74.459 18.2229 74.427 18.3591C74.3629 18.6235 73.3936 19.3525 73.1292 19.3364C73.1159 19.3338 73.1025 19.332 73.0892 19.3302C73.0625 19.3266 73.0358 19.3231 73.0091 19.3124C72.4236 19.0877 71.8149 18.9903 71.2028 18.8924C71.0946 18.8751 70.9864 18.8578 70.8781 18.8397C70.7339 18.8157 70.6298 18.7436 70.5897 18.5994C70.3815 17.8945 70.1171 17.2215 69.7165 16.6047C69.6204 16.4605 69.5563 16.2842 69.6845 16.116C70.1892 15.4591 70.5337 14.7141 70.6939 13.897C70.7259 13.7207 70.8381 13.6326 71.0303 13.6246C71.6472 13.6086 72.208 13.4163 72.7287 13.1039C73.2173 12.8075 73.666 12.7914 74.1306 13.1279C74.5712 13.4483 75.0679 13.5685 75.5966 13.5605C76.0933 13.5605 76.4057 13.7848 76.5099 14.2655C76.6403 14.8852 77.0418 15.3297 77.4373 15.7675L77.4373 15.7676L77.4373 15.7676L77.4373 15.7676L77.4373 15.7676L77.4373 15.7676L77.4373 15.7676L77.4373 15.7676L77.4374 15.7677L77.4374 15.7677L77.4374 15.7677L77.4374 15.7677L77.4374 15.7677C77.5275 15.8675 77.6173 15.9669 77.7035 16.0679C77.9599 16.3724 78.04 16.6047 77.8637 16.9492C77.8224 17.025 77.7914 17.1068 77.7606 17.1881C77.7198 17.2958 77.6793 17.4026 77.6154 17.4939C77.1908 18.1268 77.1347 18.8558 77.1267 19.5848L77.1254 19.6578C77.1113 20.4835 77.1108 20.5132 76.2775 20.7624C75.2601 21.0588 74.443 21.6837 73.682 22.3726C73.3936 22.629 73.1773 22.677 72.8568 22.4687C72.1038 21.9801 71.2947 21.6116 70.3815 21.5314C70.0956 21.5038 69.8097 21.4575 69.5224 21.4111L69.5223 21.411L69.5222 21.411C69.3103 21.3768 69.0976 21.3423 68.8834 21.3151C68.5149 21.2671 68.2986 21.1069 68.2986 20.7063C68.2986 20.5194 68.2844 20.3325 68.2701 20.1455L68.2701 20.1454C68.263 20.052 68.2559 19.9586 68.2505 19.8652C68.2185 19.3124 68.1063 18.8157 67.7378 18.3511C67.4163 17.9462 67.1479 17.5059 66.8799 17.0663C66.7874 16.9145 66.6949 16.7628 66.6003 16.6127C66.4961 16.4445 66.392 16.2602 66.5202 16.0519C66.6463 15.8526 66.7661 15.6485 66.8861 15.4441L66.8861 15.4441L66.8861 15.444L66.8861 15.444L66.8861 15.444L66.8861 15.444L66.8861 15.444L66.8861 15.444L66.8861 15.444L66.8862 15.444L66.8862 15.444L66.8862 15.4439L66.8862 15.4439L66.8862 15.4439L66.8862 15.4439L66.8862 15.4439L66.8862 15.4439L66.8862 15.4439L66.8862 15.4439C67.1471 14.9995 67.4086 14.5538 67.7378 14.1533C67.9061 13.945 67.9701 13.7127 68.0022 13.4564L68.1704 11.8702C68.2265 11.3334 68.3066 11.1973 68.8433 11.1652C70.061 11.0851 71.1585 10.6846 72.1278 9.96356C72.8729 9.41081 73.5298 9.41882 74.2347 10.0277C74.7474 10.4683 75.3643 10.6525 76.0532 10.6205C76.7902 10.5884 77.5192 10.6926 78.2322 10.8528C78.4165 10.8928 78.6168 10.9409 78.6328 11.1732C78.6488 11.4696 78.6889 11.75 78.761 12.0384C78.9372 12.7354 79.1134 13.4243 79.53 14.0171C80.0347 14.7381 80.5554 15.4591 81.0841 16.1721C81.2844 16.4364 81.3165 16.6768 81.1723 16.9812C81.0303 17.2777 80.8964 17.5774 80.7627 17.8768L80.7626 17.8769C80.4736 18.5238 80.1853 19.1692 79.8184 19.777L79.8054 19.7981C79.7451 19.8953 79.6838 19.9939 79.7062 20.1135C79.7794 20.5521 79.7498 20.9868 79.7202 21.4231C79.7076 21.6083 79.695 21.7938 79.6902 21.9801C79.6742 22.4767 79.4579 22.7892 79.0093 22.9494C78.8965 22.9907 78.7836 23.033 78.6706 23.0753L78.6706 23.0753C78.2139 23.2464 77.7541 23.4186 77.2789 23.5342C76.8704 23.6383 76.5339 23.8066 76.2535 24.103ZM71.0779 25.0082H64.7893C64.4515 25.0082 64.2812 25.0082 64.1955 24.9231C64.1084 24.8367 64.1084 24.6625 64.1084 24.3113V18.4392V18.0947C64.2358 18.2371 64.3707 18.3748 64.5054 18.5121L64.5054 18.5121L64.5054 18.5121L64.5054 18.5121L64.5054 18.5121L64.5054 18.5121L64.5054 18.5121L64.5055 18.5121L64.5055 18.5121L64.5055 18.5121L64.5055 18.5121L64.5055 18.5121L64.5055 18.5121L64.5055 18.5122L64.5055 18.5122L64.5055 18.5122L64.5055 18.5122L64.5055 18.5122C65.0906 19.1087 65.67 19.6995 65.5984 20.6503C65.5669 21.075 65.5857 21.4998 65.6044 21.9237C65.6238 22.3631 65.6431 22.8015 65.6064 23.2378C65.5824 23.5182 65.6945 23.6384 65.9829 23.6784C66.2393 23.715 66.4941 23.6981 66.7486 23.6811C67.0508 23.661 67.3529 23.6409 67.6572 23.7105C67.8401 23.7528 68.0217 23.7983 68.2033 23.8438L68.2035 23.8438C68.6742 23.9617 69.1446 24.0795 69.6359 24.143C70.1219 24.2029 70.5241 24.5418 70.9794 24.9253L70.9794 24.9254L71.0779 25.0082ZM69.099 41.8719L69.099 41.8712C69.0995 41.6386 69.1 41.4063 69.1 41.1744C69.0519 40.2291 69.0199 39.2838 69.108 38.3466C69.124 38.1383 69.084 38.0341 68.8597 38.0582C68.7395 38.0742 68.6193 38.0742 68.4992 38.0582C68.2028 38.0181 68.1387 38.1463 68.1547 38.4187C68.1725 38.7881 68.1779 39.1575 68.1834 39.5269C68.1877 39.8224 68.1921 40.1179 68.2028 40.4134C68.2108 40.6457 68.1307 40.7098 67.9064 40.7098C67.0812 40.6938 66.2561 40.6938 65.431 40.7098C65.1666 40.7178 65.1265 40.6057 65.1345 40.3813C65.1483 40.1203 65.1532 39.8578 65.1581 39.5951C65.1646 39.245 65.1712 38.8946 65.1986 38.5468C65.2227 38.1783 65.1666 37.978 64.75 38.0582C64.71 38.0662 64.6699 38.0662 64.6299 38.0582C64.3094 38.0021 64.2373 38.1383 64.2453 38.4507C64.2854 39.5562 64.3014 40.6617 64.3014 41.7672C64.3014 42.4722 64.2774 43.1772 64.2373 43.8821C64.2213 44.1705 64.2774 44.3228 64.5978 44.2667C64.6779 44.2507 64.758 44.2507 64.8381 44.2667C65.1426 44.3228 65.2147 44.1866 65.1986 43.8902C65.1736 43.4188 65.1642 42.9443 65.1548 42.4687C65.1492 42.1844 65.1435 41.8997 65.1345 41.615C65.1265 41.3987 65.1746 41.3106 65.4149 41.3106C66.2401 41.3266 67.0652 41.3266 67.8903 41.3106C68.1627 41.3026 68.1947 41.4148 68.1867 41.6391C68.1761 42.0823 68.1725 42.5256 68.1689 42.9689C68.1672 43.1905 68.1654 43.4122 68.1627 43.6338L68.1627 43.6341C68.1587 43.9584 68.1568 44.1206 68.2368 44.1997C68.3169 44.2789 68.4791 44.275 68.8036 44.2673L68.8276 44.2667C69.0519 44.2667 69.116 44.2026 69.108 43.9703C69.096 43.2731 69.0975 42.5714 69.099 41.8719ZM70.437 7.41606C69.9082 7.87269 69.3715 8.27324 68.6345 8.32131C68.3449 8.34061 68.0553 8.37155 67.7654 8.40252L67.7654 8.40252C67.0932 8.47434 66.4198 8.54628 65.7425 8.47351C65.4381 8.44147 65.2699 8.55363 65.2699 8.92213C65.2859 10.1078 65.2939 11.2854 65.2298 12.471C65.2138 12.8235 65.1577 13.1199 64.9094 13.3762C64.8 13.4923 64.7057 13.6234 64.6111 13.7548C64.4772 13.941 64.3428 14.1279 64.1644 14.2735C64.0889 14.2232 64.0973 14.163 64.1045 14.1123C64.1064 14.0984 64.1083 14.0853 64.1083 14.0732C64.1083 11.9663 64.1083 9.86743 64.1003 7.76054C64.1003 7.48816 64.1644 7.40004 64.4527 7.40004C66.4475 7.41606 68.4422 7.41606 70.4369 7.41606H70.437ZM74.8735 31.7915C74.6513 32.4089 74.4239 33.0409 74.2753 33.7484C74.115 33.0595 73.9148 32.4987 73.7065 31.9379C73.4822 31.3692 73.2579 30.8004 73.0416 30.2316C72.8812 29.8187 72.8011 29.6124 72.6506 29.5164C72.5004 29.4205 72.2801 29.4345 71.8399 29.4625H71.7999C71.6316 29.4545 71.5836 29.5106 71.6637 29.6708C71.7858 29.915 71.8964 30.1649 72.0052 30.4108L72.0642 30.544C72.2121 30.8729 72.3679 31.1993 72.5239 31.5262C72.934 32.3856 73.3456 33.248 73.6184 34.165C73.9308 35.2144 73.362 36.1117 72.2805 36.2639C71.9659 36.3039 71.9985 36.4583 72.0312 36.6133C72.0443 36.6754 72.0574 36.7376 72.0482 36.7926C72.0082 37.0409 72.1604 37.065 72.3686 37.057C73.2819 37.0169 73.9068 36.6003 74.1631 35.6951C74.5717 34.2611 75.1485 32.8912 75.7893 31.5454C75.9976 31.1048 76.2059 30.6562 76.3822 30.1996L76.415 30.1134C76.5577 29.7394 76.6189 29.579 76.5646 29.5114C76.5239 29.4607 76.418 29.4623 76.2326 29.465C76.1327 29.4665 76.0097 29.4684 75.8614 29.4625C75.6371 29.4465 75.541 29.5026 75.5009 29.7509C75.466 30.0013 75.3888 30.2432 75.3123 30.4827C75.2835 30.5728 75.2548 30.6626 75.2286 30.7523C75.1219 31.1013 74.9985 31.4441 74.8735 31.7915ZM79.5131 40.1972C80.178 39.7085 80.8589 39.4762 81.644 39.6124C82.4932 39.7646 82.8857 40.1251 82.9097 40.9903C82.9211 41.465 82.9182 41.9414 82.9153 42.418V42.4181V42.4181V42.4182V42.4183V42.4184V42.4184V42.4185V42.4186V42.4186V42.4187V42.4188V42.4188V42.4189V42.419V42.4191V42.4192V42.4193V42.4194V42.4194V42.4195V42.4196V42.4197V42.4198V42.4199V42.42V42.4201C82.912 42.9562 82.9088 43.4924 82.9258 44.0264C82.9338 44.2027 82.8617 44.2668 82.6934 44.2588L82.6857 44.2583H82.6856C82.5524 44.2505 82.4265 44.243 82.2929 44.2588C82.0285 44.2908 81.9805 44.1706 82.0125 43.9303C82.1086 43.1052 82.1086 42.28 82.0926 41.4549C82.0766 40.5417 81.7161 40.2132 80.7948 40.2613C80.6346 40.2693 80.4744 40.3013 80.3222 40.3414C79.5852 40.5497 79.5131 40.6458 79.5211 41.4068C79.5231 41.6198 79.5246 41.8333 79.5261 42.047V42.0472V42.0473V42.0474V42.0475V42.0475V42.0476V42.0477V42.0478V42.0479V42.0479V42.048V42.0481V42.0482V42.0483C79.5306 42.6863 79.5351 43.3266 79.5531 43.9623C79.5611 44.2027 79.481 44.3068 79.2728 44.2427C79.2089 44.2231 79.1271 44.2396 79.0444 44.2562C78.8574 44.2938 78.6664 44.3322 78.6719 43.9543C78.6799 43.3417 78.6859 42.7291 78.692 42.1165V42.1165V42.1164V42.1164V42.1163V42.1163V42.1163V42.1162V42.1162V42.1162V42.1161V42.1161V42.1161V42.116L78.692 42.1143C78.698 41.502 78.704 40.8896 78.712 40.2773C78.72 39.4522 78.6799 38.627 78.5918 37.8019C78.5678 37.6016 78.6078 37.5536 78.8081 37.5375L78.8337 37.5353C79.1816 37.5046 79.3555 37.4893 79.4414 37.5689C79.5272 37.6484 79.5252 37.8226 79.5214 38.1706L79.5211 38.1944C79.5131 38.8513 79.5131 39.5002 79.5131 40.1972ZM81.7092 10.8287C81.7733 11.774 82.0377 12.6953 82.9269 13.3041V13.3035C82.9269 11.4211 82.9269 9.55478 82.9429 7.71247C82.9429 7.41675 82.7936 7.41975 82.6176 7.42328C82.5981 7.42368 82.5783 7.42407 82.5584 7.42407H76.8145C76.7951 7.42407 76.772 7.41893 76.7488 7.41376C76.6954 7.40186 76.6414 7.38983 76.6303 7.4401C77.143 8.24119 77.912 8.40943 78.7612 8.37738C79.2338 8.36136 79.7145 8.34534 80.1951 8.34534C80.5476 8.33733 80.9081 8.35335 81.2686 8.36937L81.2686 8.36937C81.5971 8.38539 81.7493 8.50556 81.7493 8.89009C81.7493 9.14572 81.7356 9.40259 81.722 9.65875C81.701 10.0528 81.6801 10.4452 81.7092 10.8287ZM71.4544 49.2015C71.927 48.8571 72.3997 48.7369 72.9204 48.833C73.4171 48.9212 73.6734 49.1935 73.6895 49.6982C73.6975 50.0227 73.6955 50.3491 73.6935 50.6756V50.6756C73.6915 51.0021 73.6895 51.3285 73.6975 51.6529C73.7048 51.8888 73.5765 51.8873 73.4311 51.8855C73.4185 51.8854 73.4058 51.8852 73.393 51.8852C73.2168 51.8932 73.0966 51.8772 73.1046 51.6369C73.1365 51.1108 73.1446 50.5768 73.1526 50.0507V50.0506L73.1527 50.0427C73.1527 49.7062 73.0806 49.4018 72.7041 49.2817C72.3676 49.1775 71.6787 49.3217 71.5024 49.538C71.4402 49.6127 71.4457 49.6922 71.4512 49.7728C71.4528 49.796 71.4544 49.8192 71.4544 49.8424C71.4544 49.9594 71.4541 50.0763 71.4537 50.1933C71.4525 50.6611 71.4512 51.129 71.4704 51.5968C71.4784 51.8372 71.3903 51.8932 71.174 51.8852C70.9897 51.8772 70.8856 51.8612 70.8936 51.6289C70.8966 51.3826 70.9009 51.1364 70.9053 50.8901C70.9244 49.8065 70.9435 48.723 70.8455 47.6394C70.8235 47.4187 70.9458 47.4336 71.0686 47.4486C71.1241 47.4553 71.1797 47.4621 71.2221 47.4471C71.3743 47.3911 71.4624 47.4391 71.4624 47.6394C71.4505 48.0083 71.4518 48.3727 71.4533 48.7721C71.4539 48.9105 71.4544 49.0531 71.4544 49.2015ZM64.9169 51.9757C64.9998 51.9827 65.083 51.9896 65.1661 51.9974C65.2489 51.9921 65.3326 51.9885 65.4163 51.9849H65.4164C65.5837 51.9778 65.751 51.9707 65.9111 51.9493C66.52 51.8372 66.8725 51.5167 66.9526 51.0441C67.0327 50.5314 66.8084 50.1068 66.2636 49.8104C66.034 49.6823 65.7902 49.5755 65.5464 49.4687L65.5464 49.4687L65.5463 49.4687L65.5462 49.4686C65.4243 49.4152 65.3023 49.3618 65.1821 49.3057C64.8937 49.1695 64.6053 49.0093 64.6935 48.6248C64.7736 48.2483 65.102 48.2082 65.4145 48.1922C65.7509 48.1762 66.0794 48.2002 66.4078 48.2803C66.544 48.3123 66.6562 48.3204 66.6562 48.1361C66.6538 48.1038 66.6635 48.0661 66.6733 48.0281C66.6974 47.9343 66.722 47.8385 66.568 47.8157C65.9191 47.7195 65.2622 47.6234 64.6614 47.9759C64.0285 48.3444 63.9965 49.1775 64.5813 49.6181C64.7396 49.7321 64.9228 49.821 65.1034 49.9086L65.1035 49.9087C65.1514 49.9319 65.1992 49.9551 65.2462 49.9786C65.3594 50.0352 65.474 50.0891 65.5889 50.143L65.589 50.1431C65.7504 50.2189 65.9122 50.2949 66.0714 50.3792C66.3197 50.5154 66.4799 50.7237 66.4318 51.0281C66.3838 51.3245 66.1515 51.4206 65.8951 51.4847C65.4305 51.5969 64.9738 51.5568 64.5172 51.4366C64.3009 51.3806 64.2128 51.3966 64.1567 51.6369C64.0977 51.8806 64.2292 51.8997 64.3693 51.92L64.3696 51.92L64.3699 51.92L64.37 51.9201L64.38 51.9215L64.4051 51.9253C64.5729 51.947 64.7443 51.9613 64.9169 51.9757ZM71.6318 41.9996C71.6318 42.1847 71.6305 42.3705 71.6292 42.5565C71.6259 43.0226 71.6226 43.4905 71.6398 43.9543C71.6478 44.2026 71.5998 44.2987 71.3514 44.2667C71.2313 44.2507 71.1111 44.2507 70.9909 44.2667C70.7666 44.2907 70.7346 44.1786 70.7426 43.9783C70.8307 42.6485 70.8628 41.3186 70.6625 40.0048C70.6384 39.8366 70.6865 39.7485 70.8547 39.7405C70.8708 39.7405 70.8788 39.7405 70.8948 39.7325C71.2625 39.6685 71.4468 39.6365 71.5371 39.7139C71.6278 39.7917 71.6238 39.98 71.6158 40.3573C71.6078 40.5336 71.6078 40.7018 71.6078 40.878V41.9916C71.6078 41.9996 71.6238 41.9996 71.6318 41.9996ZM82.9351 24.7681V19.569C82.4384 20.0336 82.3183 20.5383 82.3583 21.1151C82.4384 22.0604 82.3904 22.9977 82.2462 23.935C82.2141 24.1593 82.118 24.3195 81.9257 24.4477C81.7654 24.5511 81.6118 24.6612 81.4368 24.7866L81.4367 24.7867L81.4366 24.7867L81.4366 24.7867L81.4366 24.7868C81.3406 24.8556 81.2381 24.929 81.1246 25.0084C81.3317 25.0084 81.5251 25.0075 81.7092 25.0065C82.0522 25.0048 82.3632 25.0032 82.6708 25.0084C82.855 25.0164 82.9351 24.9684 82.9351 24.7681ZM70.1655 51.4366C70.1655 51.4728 70.1672 51.5076 70.1688 51.5409C70.1765 51.6987 70.1825 51.8218 69.9973 51.9012C69.068 52.2937 67.8583 51.6849 67.6661 50.7156C67.4418 49.57 68.4431 48.6568 69.7489 48.825C69.9572 48.849 70.0694 48.8891 70.0213 49.1374C69.9893 49.3137 69.9172 49.3617 69.7569 49.3137L69.6368 49.2896C69.1641 49.2015 68.7235 49.2335 68.4191 49.6661C68.1467 50.0587 68.1307 50.4913 68.347 50.9159C68.5953 51.4045 69.044 51.5407 69.5567 51.5327C69.6652 51.5233 69.7792 51.5027 69.9005 51.4809C69.9851 51.4656 70.0733 51.4497 70.1655 51.4366ZM82.9006 50.1991L82.9006 50.1982C82.9019 50.0125 82.9032 49.827 82.9032 49.6422L82.9021 49.5605L82.8988 49.329C82.891 48.7983 82.8831 48.2629 82.9032 47.7275C82.9192 47.4471 82.8231 47.4471 82.5988 47.4471C82.3024 47.4471 82.1902 47.5272 82.2703 47.8397C82.3053 47.9563 82.3064 48.0813 82.3074 48.2087V48.2088C82.3078 48.2564 82.3082 48.3044 82.3104 48.3524C82.3424 49.4259 82.3424 50.5073 82.2864 51.5808C82.271 51.8806 82.4105 51.8854 82.6128 51.8923L82.6388 51.8932C82.8712 51.9013 82.9192 51.8292 82.9112 51.5968C82.894 51.1332 82.8973 50.6655 82.9006 50.1995V50.1994V50.1993V50.1993V50.1992V50.1991V50.1991ZM71.8634 38.3145C71.8634 38.651 71.6071 38.9073 71.2546 38.9154C70.9342 38.9234 70.6778 38.691 70.6698 38.3946C70.6618 38.0742 70.9342 37.8098 71.2866 37.8018C71.6311 37.7858 71.8554 37.9941 71.8634 38.3145ZM78.7049 29.887C79.1455 29.4464 79.6822 29.3183 80.243 29.2702C81.5968 29.142 82.7023 30.0232 82.8866 31.3691C83.1109 32.9713 82.2457 34.4293 80.8598 34.7177C80.1789 34.8539 79.4819 34.8699 78.841 34.5094L78.8279 34.502C78.762 34.4649 78.7084 34.4347 78.6408 34.5174C78.4672 34.7083 78.2603 34.682 78.053 34.6556C77.9733 34.6455 77.8935 34.6353 77.8156 34.6376C77.6622 34.6442 77.681 34.5176 77.6962 34.415C77.6992 34.3943 77.7021 34.3746 77.7035 34.3572C77.7099 34.0519 77.7189 33.7479 77.7279 33.4442V33.4441V33.4441V33.4441V33.4441L77.7279 33.4438C77.7413 32.9905 77.7548 32.5377 77.7596 32.0821C77.7836 30.4959 77.7996 28.9097 77.6073 27.3315C77.5753 27.0431 77.6314 26.939 77.9518 26.931L77.9991 26.9305C78.36 26.9266 78.5404 26.9247 78.6296 27.0139C78.7189 27.1032 78.717 27.2836 78.7131 27.6444L78.7129 27.668C78.7009 28.1996 78.7023 28.7357 78.7038 29.2995V29.2996V29.2997V29.2998V29.2999V29.3001L78.7038 29.3012C78.7043 29.493 78.7049 29.6879 78.7049 29.887ZM80.1152 30.0152C81.1326 30.0072 81.7655 30.648 81.8776 31.7856C82.0459 33.4599 80.6199 34.5894 79.1219 33.9806C78.8495 33.8685 78.7053 33.7243 78.7053 33.3958C78.7053 32.6107 78.6893 31.8257 78.6332 31.0406C78.5931 30.5599 78.8335 30.3356 79.218 30.1674C79.5064 30.0472 79.8108 30.0152 80.1152 30.0152ZM69.9886 34.1087C70.0928 34.5493 70.253 34.7736 70.6615 34.6534C70.6886 34.6534 70.7135 34.6532 70.7364 34.6529H70.7366H70.7368H70.737C70.8423 34.6518 70.9068 34.6512 70.966 34.6775C71.3104 34.7255 71.3905 34.5974 71.2463 34.2849C71.1921 34.1673 71.148 34.0472 71.1041 33.9273L71.104 33.9273C71.0702 33.8349 71.0364 33.7427 70.998 33.6521C70.6941 32.902 70.3654 32.1624 70.0367 31.4228L70.0367 31.4227L70.0367 31.4227L70.0367 31.4227L70.0366 31.4226C69.5508 30.3294 69.0649 29.236 68.6588 28.1084C68.4986 27.6678 68.3143 27.5156 67.8577 27.5477L67.7823 27.552C67.1684 27.5868 67.1593 27.5874 66.9204 28.1886C66.4768 29.2883 65.9825 30.3695 65.4884 31.4504L65.4883 31.4505C65.1258 32.2434 64.7634 33.0363 64.421 33.8363C64.2379 34.2661 64.1458 34.4823 64.2172 34.5873C64.2896 34.6936 64.53 34.6856 65.0138 34.6695C65.206 34.6614 65.2862 34.6134 65.3342 34.4131C65.445 33.9178 65.6194 33.4384 65.7928 32.9619L65.7928 32.9618L65.7928 32.9618L65.7929 32.9617L65.7929 32.9616C65.8326 32.8525 65.8722 32.7436 65.911 32.6347C65.9751 32.4424 66.0552 32.3543 66.2715 32.3543C67.2328 32.3623 68.1861 32.3623 69.1475 32.3543C69.3397 32.3463 69.4278 32.4264 69.4839 32.6026C69.5452 32.7957 69.6159 32.9864 69.6865 33.177C69.8005 33.4847 69.9144 33.7921 69.9886 34.1087ZM68.9958 31.3208C68.5632 30.3115 68.1466 29.2941 67.714 28.2366L67.4628 28.831C67.0682 29.764 66.6781 30.6865 66.2881 31.6253C66.513 31.6253 66.7333 31.6247 66.9502 31.6242L66.9524 31.6242C67.5925 31.6227 68.2038 31.6213 68.8195 31.6333C69.1264 31.6411 69.0855 31.5408 69.0004 31.3323L68.9958 31.3208ZM73.6665 42.4563C73.0337 43.0651 73.0016 43.5137 73.5544 44.0344C73.1218 44.1786 72.8494 44.435 72.7212 44.8435C72.4889 45.6366 72.8975 46.3576 73.7467 46.5819C74.5718 46.7982 75.4049 46.7982 76.222 46.5098C76.7027 46.3416 77.1033 46.0612 77.3756 45.6286C77.9524 44.7154 77.5999 43.8662 76.5585 43.6259C76.2871 43.561 76.0114 43.5569 75.7377 43.5529C75.6398 43.5514 75.5421 43.55 75.445 43.5458C75.3963 43.544 75.3475 43.5424 75.2988 43.5408L75.2987 43.5408C74.907 43.5282 74.5168 43.5155 74.1392 43.4016C73.8828 43.3214 73.7787 43.1292 73.8588 42.8728C73.9309 42.6485 74.0751 42.5844 74.3234 42.6325C74.8522 42.7286 75.3809 42.7046 75.8936 42.5203C76.8709 42.1759 77.2555 41.1505 76.7428 40.2532C76.6226 40.045 76.7107 39.9648 76.8709 39.9008C77.0712 39.8126 77.2795 39.7886 77.4958 39.7966C77.723 39.8039 77.7289 39.6503 77.7344 39.5076V39.5075V39.5075C77.7346 39.5021 77.7348 39.4967 77.7351 39.4914C77.7354 39.4836 77.7357 39.4758 77.7361 39.4682C77.7379 39.44 77.7439 39.4103 77.75 39.3801C77.7717 39.273 77.7945 39.1604 77.632 39.0916C77.1994 38.9154 76.6226 39.1157 76.4544 39.5563C76.3502 39.8126 76.2781 39.8527 76.0138 39.7485C75.437 39.5242 74.8201 39.5242 74.2113 39.6764C73.5864 39.8287 73.1458 40.1972 72.9696 40.838C72.7693 41.559 73.0417 42.0878 73.6665 42.4563ZM75.3571 44.258C75.2503 44.2567 75.1435 44.2553 75.0367 44.2508C74.9477 44.2456 74.8596 44.2421 74.7723 44.2386H74.7723C74.5924 44.2314 74.4162 44.2244 74.2436 44.2028C74.0193 44.1707 73.851 44.2589 73.6988 44.395C73.1861 44.8437 73.3543 45.7329 74.0433 45.9972C74.8043 46.2856 75.5814 46.2456 76.3264 45.8851C76.3985 45.853 76.4626 45.805 76.5267 45.7569C76.7991 45.5246 76.9353 45.2282 76.8552 44.8677C76.775 44.5232 76.5107 44.387 76.1902 44.3229C75.9125 44.2651 75.6348 44.2616 75.3571 44.258ZM74.9887 40.101C75.2211 40.093 75.5175 40.1571 75.7738 40.3414C76.3506 40.7579 76.3025 41.6792 75.6777 42.0157C75.157 42.288 74.6282 42.264 74.1316 41.9516C73.755 41.7112 73.6189 41.2386 73.7711 40.79C73.8992 40.3574 74.3238 40.101 74.9887 40.101ZM79.9789 48.7691C79.0176 48.7691 78.3206 49.4901 78.3206 50.4834C78.3206 51.3887 78.9455 52.0215 79.8507 52.0215C80.804 52.0215 81.509 51.2925 81.509 50.3072C81.501 49.4019 80.8761 48.7691 79.9789 48.7691ZM80.6923 51.2041C80.8526 50.9638 80.9166 50.6994 80.9086 50.3469C80.9006 50.2108 80.8846 50.0185 80.7965 49.8262C80.6042 49.3536 80.2838 49.1293 79.8272 49.1613C79.4106 49.1854 79.0982 49.4577 78.962 49.9144C78.8258 50.379 78.8819 50.8116 79.1462 51.2121C79.5147 51.7729 80.3318 51.7569 80.6923 51.2041ZM76.1411 48.7607C77.0303 48.7687 77.6632 49.4096 77.6551 50.3149C77.6471 51.3002 76.9261 52.0292 75.9809 52.0212C75.0836 52.0132 74.4668 51.3803 74.4748 50.4671C74.4828 49.4737 75.1798 48.7607 76.1411 48.7607ZM77.0619 50.4271C77.0699 50.6835 77.0058 50.9238 76.8777 51.1481C76.5092 51.7729 75.652 51.781 75.2755 51.1561C75.0351 50.7636 74.9871 50.331 75.1313 49.8904C75.2755 49.4257 75.5879 49.1694 76.0125 49.1534C76.4691 49.1373 76.7815 49.3616 76.9738 49.8343C77.0379 50.0346 77.0539 50.2348 77.0619 50.4271Z" fill="#A4A4A4"/>
</svg>
