<svg width="146" height="60" viewBox="0 0 146 60" fill="none" xmlns="http://www.w3.org/2000/svg">
<path d="M69.8079 31.9434V37.1181H67.3555V23.8746H71.3759C72.2754 23.8746 73.0443 23.9693 73.6825 24.1586C74.3267 24.3417 74.8524 24.6012 75.2596 24.9371C75.6729 25.2729 75.9738 25.6759 76.1622 26.146C76.3567 26.61 76.4539 27.1229 76.4539 27.6847C76.4539 28.1304 76.3871 28.5517 76.2534 28.9486C76.1257 29.3454 75.9373 29.7057 75.6881 30.0293C75.445 30.3529 75.1411 30.6368 74.7765 30.881C74.4179 31.1253 74.0076 31.3207 73.5457 31.4672C73.8557 31.6443 74.1231 31.8977 74.348 32.2274L77.6482 37.1181H75.442C75.2293 37.1181 75.0469 37.0754 74.895 36.9899C74.7491 36.9044 74.6245 36.7823 74.5212 36.6235L71.7497 32.3831C71.6464 32.2243 71.5309 32.1114 71.4033 32.0442C71.2817 31.977 71.0994 31.9434 70.8563 31.9434H69.8079ZM69.8079 30.1758H71.3395C71.8014 30.1758 72.2025 30.1178 72.5429 30.0018C72.8893 29.8858 73.1719 29.727 73.3907 29.5256C73.6156 29.318 73.7827 29.0737 73.8921 28.7929C74.0015 28.512 74.0562 28.2037 74.0562 27.8678C74.0562 27.1962 73.8344 26.6803 73.3907 26.32C72.9531 25.9598 72.2815 25.7797 71.3759 25.7797H69.8079V30.1758Z" fill="#A4A4A4"/>
<path d="M82.9591 27.5748C83.5487 27.5748 84.0896 27.6694 84.5819 27.8587C85.0803 28.048 85.5087 28.3258 85.8673 28.6921C86.2259 29.0524 86.5055 29.4981 86.7061 30.0293C86.9066 30.5544 87.0069 31.1558 87.0069 31.8335C87.0069 32.0045 86.9978 32.148 86.9796 32.264C86.9674 32.3739 86.9401 32.4624 86.8975 32.5296C86.8611 32.5907 86.8094 32.6365 86.7425 32.667C86.6757 32.6914 86.5906 32.7036 86.4873 32.7036H80.7073C80.7741 33.6683 81.0324 34.3766 81.4822 34.8284C81.932 35.2803 82.5276 35.5062 83.2691 35.5062C83.6337 35.5062 83.9468 35.4634 84.2081 35.378C84.4755 35.2925 84.7065 35.1978 84.901 35.094C85.1015 34.9902 85.2747 34.8956 85.4206 34.8101C85.5726 34.7246 85.7184 34.6819 85.8582 34.6819C85.9494 34.6819 86.0284 34.7002 86.0953 34.7368C86.1621 34.7735 86.2198 34.8254 86.2685 34.8925L86.9249 35.7168C86.6757 36.0099 86.3961 36.2572 86.0861 36.4587C85.7762 36.6541 85.451 36.8128 85.1106 36.9349C84.7764 37.0509 84.433 37.1334 84.0805 37.1822C83.734 37.2311 83.3967 37.2555 83.0685 37.2555C82.4182 37.2555 81.8134 37.1486 81.2543 36.9349C80.6951 36.7151 80.2089 36.3946 79.7956 35.9733C79.3823 35.5459 79.0572 35.0208 78.8201 34.398C78.5831 33.7691 78.4646 33.0425 78.4646 32.2182C78.4646 31.5771 78.5679 30.9757 78.7745 30.4139C78.9812 29.8461 79.276 29.3546 79.6589 28.9394C80.0478 28.5181 80.5189 28.1853 81.072 27.9411C81.6311 27.6969 82.2602 27.5748 82.9591 27.5748ZM83.0047 29.1958C82.3483 29.1958 81.8347 29.3821 81.464 29.7545C81.0932 30.127 80.8562 30.6551 80.7529 31.339H84.983C84.983 31.0459 84.9435 30.7711 84.8645 30.5147C84.7855 30.2521 84.6639 30.0232 84.4998 29.8278C84.3357 29.6324 84.1291 29.4798 83.8799 29.3699C83.6307 29.2538 83.339 29.1958 83.0047 29.1958Z" fill="#A4A4A4"/>
<path d="M88.8335 40.1863V27.7213H90.2102C90.356 27.7213 90.4806 27.7549 90.5839 27.822C90.6873 27.8892 90.7541 27.993 90.7845 28.1334L90.9668 29.0035C91.3437 28.57 91.7752 28.2189 92.2614 27.9503C92.7537 27.6816 93.3281 27.5473 93.9845 27.5473C94.495 27.5473 94.96 27.6541 95.3793 27.8678C95.8048 28.0815 96.1694 28.3929 96.4733 28.802C96.7833 29.205 97.0203 29.7057 97.1844 30.304C97.3546 30.8963 97.4397 31.5771 97.4397 32.3464C97.4397 33.0486 97.3455 33.6989 97.1571 34.2972C96.9687 34.8956 96.6982 35.4146 96.3457 35.8542C95.9993 36.2938 95.5768 36.6388 95.0785 36.8891C94.5862 37.1334 94.0331 37.2555 93.4192 37.2555C92.8905 37.2555 92.4407 37.1761 92.07 37.0174C91.7053 36.8525 91.3771 36.6266 91.0854 36.3396V40.1863H88.8335ZM93.2095 29.3332C92.7416 29.3332 92.3404 29.434 92.0061 29.6355C91.6779 29.8308 91.371 30.1087 91.0854 30.4689V34.6819C91.3406 34.9994 91.6172 35.2223 91.915 35.3505C92.2189 35.4726 92.544 35.5337 92.8905 35.5337C93.2308 35.5337 93.5377 35.4695 93.8112 35.3413C94.0908 35.2131 94.3248 35.0177 94.5132 34.7552C94.7077 34.4926 94.8566 34.1629 94.9599 33.766C95.0633 33.363 95.1149 32.8898 95.1149 32.3464C95.1149 31.7969 95.0694 31.3329 94.9782 30.9543C94.8931 30.5696 94.7685 30.2583 94.6044 30.0201C94.4403 29.782 94.2397 29.608 94.0027 29.4981C93.7717 29.3882 93.5074 29.3332 93.2095 29.3332Z" fill="#A4A4A4"/>
<path d="M101.541 23.5083V37.1181H99.2891V23.5083H101.541Z" fill="#A4A4A4"/>
<path d="M107.412 39.7009C107.345 39.8596 107.257 39.9787 107.147 40.058C107.044 40.1435 106.883 40.1863 106.664 40.1863H104.987L106.737 36.422L102.954 27.7213H104.923C105.105 27.7213 105.245 27.764 105.342 27.8495C105.44 27.935 105.512 28.0327 105.561 28.1426L107.558 33.015C107.625 33.1738 107.682 33.3386 107.731 33.5096C107.779 33.6805 107.822 33.8515 107.859 34.0225C107.907 33.8454 107.959 33.6744 108.013 33.5096C108.074 33.3447 108.138 33.1768 108.205 33.0059L110.083 28.1426C110.132 28.0205 110.211 27.9197 110.32 27.8404C110.435 27.761 110.563 27.7213 110.703 27.7213H112.508L107.412 39.7009Z" fill="#A4A4A4"/>
<path d="M59 22.5C59 25.5376 56.5376 28 53.5 28C50.4624 28 48 25.5376 48 22.5C48 19.4624 50.4624 17 53.5 17C56.5376 17 59 19.4624 59 22.5Z" fill="#A4A4A4"/>
<path fill-rule="evenodd" clip-rule="evenodd" d="M56.9975 27.9798C55.9877 28.6256 54.7876 29 53.5 29C49.9101 29 47 26.0899 47 22.5C47 21.2114 47.375 20.0104 48.0217 19.0002C48.0026 19.0001 47.9834 19 47.9643 19H43.0357C38.0454 19 34 23.119 34 28.2V32.8C34 37.881 38.0454 42 43.0357 42H47.9643C52.9546 42 57 37.881 57 32.8V28.2C57 28.1264 56.9991 28.053 56.9975 27.9798Z" fill="#A4A4A4"/>
</svg>
