<svg width="146" height="60" viewBox="0 0 146 60" fill="none" xmlns="http://www.w3.org/2000/svg">
<path d="M112.908 15.5432C112.278 15.8041 111.669 16.1519 111.06 16.4562C110.256 16.8475 109.473 17.2605 108.669 17.6735C106.865 18.5865 105.082 19.4995 103.278 20.4342C101.561 21.3037 99.8654 22.1732 98.1481 23.0427C96.7569 23.7601 95.3657 24.4557 93.9745 25.173C93.7788 25.26 93.7354 25.26 93.7136 25.0426C93.6267 24.5426 93.6049 24.0427 93.5832 23.5427C93.5615 23.3253 93.5615 23.1079 93.5832 22.8906C93.6049 22.0863 93.6919 21.282 93.8875 20.4994C94.1484 19.4343 94.5831 18.4126 95.1483 17.4779C95.7352 16.4997 96.4526 15.6084 97.3003 14.8476C99.0393 13.3043 101.083 12.3695 103.409 12.1087C103.583 12.087 103.756 12.0652 103.909 12.0435C103.996 12 104.104 12.0435 104.213 12C104.604 12 105.017 12 105.408 12C105.495 12.0435 105.604 12 105.713 12.0435C107.887 12.2391 109.843 12.9782 111.604 14.3042C112.082 14.652 112.495 15.0867 112.93 15.478C112.951 15.478 112.951 15.5215 112.908 15.5432Z" fill="#A4A4A4"/>
<path d="M104.168 34.3679C103.146 34.3245 102.146 34.1506 101.19 33.8028C100.038 33.4115 98.9508 32.8463 97.9944 32.1072C97.4292 31.6725 96.9075 31.216 96.4075 30.6725C96.4727 30.5856 96.5597 30.5856 96.6466 30.5856C97.1031 30.5856 97.5596 30.5638 97.9944 30.6073C98.3422 30.6508 98.69 30.6291 99.0595 30.6291C100.538 30.6073 101.994 30.6725 103.472 30.6943C104.429 30.716 105.363 30.6943 106.32 30.7378C107.168 30.7812 107.994 30.7812 108.841 30.8247C109.276 30.9334 109.711 30.8247 110.146 30.9117C109.972 30.8899 109.798 30.8899 109.624 30.8899C108.646 30.8247 107.668 30.803 106.668 30.716C105.776 30.6508 104.907 30.5856 104.016 30.5421C103.103 30.4769 102.168 30.4117 101.255 30.3465C100.364 30.2813 99.4943 30.216 98.603 30.1726C97.7335 30.1291 96.864 30.0421 96.0162 29.9987C95.9293 29.9769 95.8423 29.9117 95.7554 29.89C95.538 29.5857 95.3424 29.2596 95.125 28.9335C98.4726 28.3249 101.798 27.7162 105.103 27.1076C108.211 26.5424 111.32 25.9772 114.428 25.3903C114.819 25.3251 115.189 25.2816 115.58 25.1729C115.841 25.1077 115.841 25.1947 115.797 25.412C115.515 26.7163 115.037 27.9553 114.319 29.1074C113.102 31.0421 111.45 32.4768 109.385 33.4332C108.341 33.9114 107.255 34.2158 106.124 34.3462C105.885 34.3679 105.668 34.3897 105.429 34.4114C104.994 34.3897 104.581 34.3897 104.168 34.3679Z" fill="#A4A4A4"/>
<path d="M115.516 19.8907C115.842 21.0646 116.038 22.2819 115.994 23.4992C115.972 23.9339 115.929 24.3687 115.885 24.7817C115.864 24.9339 115.777 24.9556 115.646 24.9773C114.233 25.1947 112.842 25.3904 111.429 25.6077C109.669 25.8686 107.908 26.1294 106.147 26.3903C104.408 26.6511 102.691 26.912 100.952 27.1729C99.0823 27.4554 97.1911 27.738 95.3217 28.0206C95.2782 28.0206 95.213 28.0424 95.1695 28.0424C94.6261 28.1076 94.5174 28.0206 94.4304 27.4554C94.7782 27.2598 95.1695 27.1511 95.539 27.0207C97.9737 26.1294 100.408 25.2382 102.843 24.3687C105.669 23.347 108.495 22.3254 111.299 21.2819C112.538 20.8255 113.799 20.369 115.038 19.9342C115.212 19.9125 115.364 19.7821 115.516 19.8907Z" fill="#A4A4A4"/>
<path d="M94.1697 26.7164C94.0393 26.6077 94.0393 26.4338 93.9741 26.3034C93.9306 26.1947 94.0176 26.1295 94.1262 26.0643C95.1262 25.5208 96.1478 24.9774 97.1478 24.434C98.6912 23.5862 100.213 22.7602 101.756 21.9341C103.017 21.2603 104.278 20.5647 105.539 19.8908C107.017 19.0865 108.495 18.2822 109.973 17.4996C110.973 16.9562 111.995 16.4128 112.973 15.8476C113.125 15.7606 113.19 15.7824 113.299 15.9128C114.234 16.9997 114.929 18.217 115.407 19.5647C115.429 19.5865 115.407 19.6299 115.407 19.6734C115.342 19.7604 115.255 19.7604 115.168 19.8038C110.103 21.4994 105.017 23.1949 99.9519 24.8904C98.1477 25.4991 96.3652 26.086 94.5827 26.6947C94.4523 26.7164 94.3219 26.8034 94.1697 26.7164Z" fill="#A4A4A4"/>
<path d="M52.6293 38.694C52.2815 38.694 51.9337 38.694 51.6076 38.694C51.4119 38.694 51.3902 38.6287 51.3902 38.4548C51.3902 37.2158 51.3902 35.9767 51.3902 34.7377C51.3902 34.629 51.3902 34.5421 51.3685 34.4334C50.8033 34.3682 50.2599 34.4116 49.6947 34.4116C49.5425 34.4116 49.5642 34.5203 49.5642 34.629C49.5642 35.2377 49.5642 35.8463 49.5642 36.4332C49.5642 37.0854 49.5642 37.7592 49.5642 38.4114C49.5642 38.4983 49.586 38.5853 49.5425 38.6722C49.2164 38.6722 48.8686 38.6505 48.5426 38.6722C48.3252 38.694 48.3035 38.607 48.3035 38.4114C48.3035 35.2594 48.3035 32.1074 48.3035 28.9555C48.6947 28.8903 49.086 28.9338 49.4556 28.9338C49.586 28.9338 49.5642 29.0207 49.5642 29.1077C49.5642 29.3468 49.5642 29.5859 49.5642 29.8467C49.5642 30.8684 49.5642 31.8901 49.5642 32.9117C49.5642 32.9987 49.5425 33.1074 49.586 33.1943C50.1729 33.2378 50.7598 33.2378 51.3467 33.1943C51.3902 32.8465 51.3685 32.4987 51.3685 32.1509C51.3685 31.0858 51.3685 30.0424 51.3685 28.9772C51.738 28.912 52.1293 28.9772 52.4988 28.9555C52.6075 28.9555 52.651 28.999 52.651 29.1077C52.651 29.1511 52.651 29.2163 52.651 29.2598C52.651 32.3031 52.651 35.3681 52.651 38.4114C52.6727 38.5201 52.6945 38.607 52.6293 38.694Z" fill="#A4A4A4"/>
<path d="M41.5648 32.6724C41.5648 32.8028 41.5648 32.9333 41.543 33.042C41.4995 33.5637 41.4995 34.0636 41.543 34.5853C41.543 35.4331 41.6734 36.2374 42.1517 36.9547C42.4125 37.3243 42.7603 37.5851 43.2386 37.6069C43.4125 37.6503 43.5646 37.6503 43.7385 37.6069C43.782 37.6069 43.8472 37.5851 43.8907 37.5851C43.9559 37.4764 43.9124 37.3677 43.9124 37.2591C43.9124 36.4765 43.9124 35.7157 43.9124 34.9331C43.9124 34.8462 43.9342 34.7592 43.8907 34.6723C43.6733 34.6071 43.4342 34.6505 43.2168 34.6505C43.0864 34.6505 43.0429 34.6071 43.0429 34.4766C43.0429 34.194 43.0429 33.9115 43.0429 33.6071C43.0429 33.4984 43.0864 33.455 43.1951 33.455C43.8472 33.455 44.4993 33.455 45.1515 33.455C45.1732 33.455 45.1732 33.4767 45.1949 33.4767C45.1949 34.8897 45.1515 36.3026 45.1949 37.7155C45.2167 38.1938 44.9776 38.3677 44.6298 38.5198C44.3254 38.6503 44.0211 38.7372 43.7168 38.7807C43.5211 38.8024 43.3255 38.8024 43.1299 38.7807C42.0865 38.6937 41.4126 38.0851 40.9344 37.2156C40.63 36.6939 40.4996 36.107 40.3692 35.52C40.3257 35.3244 40.3257 35.107 40.304 34.9114C40.2605 34.8027 40.3257 34.6723 40.2605 34.5853C40.2605 34.0854 40.2605 33.5854 40.2605 33.0854C40.3257 32.9767 40.2605 32.868 40.304 32.7594C40.3692 31.9116 40.5648 31.0856 40.9778 30.3247C41.4126 29.5422 41.9995 28.977 42.9342 28.8248C43.0212 28.7814 43.1299 28.8466 43.2168 28.7814C43.3038 28.7814 43.3907 28.7814 43.4777 28.7814C43.5646 28.8248 43.6733 28.7814 43.7603 28.8248C44.2168 28.9553 44.6515 29.1292 45.0645 29.39C45.1949 29.4552 45.2384 29.5422 45.2384 29.6944C45.2167 30.0639 45.2384 30.4552 45.2384 30.8682C44.8906 30.6725 44.6298 30.4552 44.3254 30.2813C43.6733 29.8683 43.0647 29.8465 42.4777 30.2378C42.3038 30.3465 42.1951 30.5204 42.0865 30.6725C41.7821 31.216 41.6082 31.7812 41.5865 32.4116C41.543 32.4985 41.6082 32.5855 41.5648 32.6724Z" fill="#A4A4A4"/>
<path d="M77.7356 33.4333C77.7356 33.6942 77.7356 33.9333 77.7356 34.1941C77.7791 34.368 77.7138 34.5637 77.7791 34.7376C77.7791 35.4767 77.9095 36.194 78.3008 36.8461C78.5616 37.2809 78.9094 37.6069 79.4529 37.6069C79.605 37.6504 79.7572 37.6504 79.9093 37.6069C80.018 37.6069 80.1267 37.6287 80.1267 37.4548C80.1267 36.5201 80.105 35.6071 80.105 34.6724C79.8876 34.6071 79.6702 34.6506 79.4529 34.6506C79.3224 34.6506 79.2572 34.6071 79.2572 34.4767C79.2572 34.1941 79.2572 33.9115 79.2572 33.629C79.2572 33.4985 79.3007 33.4551 79.4311 33.4551C80.018 33.4551 80.6267 33.4551 81.2136 33.4551C81.3223 33.4551 81.3875 33.4768 81.3875 33.6072C81.3875 35.1506 81.4092 36.694 81.3658 38.2373C81.3658 38.2808 81.3658 38.2373 81.3658 38.2591C80.931 38.5199 80.4745 38.759 79.9528 38.8243C79.7572 38.846 79.5615 38.846 79.3659 38.8243C78.2573 38.7156 77.5399 38.0852 77.0835 37.107C76.7791 36.4548 76.6052 35.781 76.54 35.0854C76.4965 34.9984 76.5618 34.8897 76.4965 34.8028C76.4965 34.6506 76.4748 34.4767 76.4748 34.3246C76.4531 34.0202 76.4531 33.7159 76.4748 33.4116C76.4748 33.2594 76.4748 33.129 76.4965 32.9768C76.5618 32.8899 76.4965 32.8029 76.54 32.716C76.5835 31.9769 76.7574 31.2813 77.0617 30.6292C77.4747 29.7597 78.0834 29.0858 79.1051 28.9119C79.2137 28.8684 79.3224 28.9336 79.4311 28.8684C79.5181 28.8684 79.605 28.8684 79.692 28.8684C79.7789 28.9119 79.8876 28.8684 79.9746 28.9119C80.4963 29.0423 80.9528 29.2814 81.3875 29.564C81.431 29.977 81.3875 30.39 81.4092 30.7813C81.4092 30.8248 81.3875 30.8683 81.344 30.8683C80.9093 30.5422 80.518 30.1727 79.9528 30.0205C79.0616 29.8031 78.4964 30.2814 78.2138 30.9117C77.9312 31.5421 77.8008 32.1943 77.8008 32.8899C77.7138 33.0638 77.7791 33.2594 77.7356 33.4333Z" fill="#A4A4A4"/>
<path d="M63.389 37.4983C64.1498 37.5635 64.9106 37.52 65.6714 37.52C65.7366 37.9113 65.7149 38.3243 65.6932 38.7156C64.5845 38.7156 63.4977 38.7156 62.389 38.7156C62.1717 38.7156 62.1064 38.6504 62.1064 38.433C62.1064 35.4115 62.1064 32.3682 62.1064 29.3467C62.1064 29.238 62.1064 29.1293 62.1064 29.0206C62.1717 28.9554 62.2369 28.9771 62.3021 28.9771C63.3238 28.9771 64.3454 28.9771 65.3671 28.9771C65.5627 28.9771 65.6279 29.0206 65.6062 29.2162C65.5845 29.4553 65.5845 29.6945 65.6062 29.9553C65.6062 30.1292 65.5627 30.1944 65.3888 30.1944C64.8019 30.1944 64.1933 30.1944 63.6063 30.1944C63.5411 30.1944 63.4759 30.1727 63.4324 30.2162C63.389 30.2596 63.4107 30.3248 63.4107 30.3901C63.4107 31.2161 63.4107 32.0204 63.4107 32.8464C63.4107 32.9116 63.389 32.9768 63.4324 33.0203C63.9976 33.0855 64.5845 33.0203 65.1497 33.0421C65.2367 33.0421 65.3454 32.9986 65.4323 33.0855C65.4323 33.4551 65.4323 33.8246 65.4323 34.1941C65.2584 34.2811 65.0845 34.2159 64.9106 34.2376C64.4106 34.2594 63.9324 34.1941 63.4324 34.2811C63.389 34.3246 63.4107 34.3898 63.4107 34.4333C63.4107 35.4115 63.4107 36.3896 63.4107 37.3678C63.3672 37.4113 63.3672 37.4548 63.389 37.4983Z" fill="#A4A4A4"/>
<path d="M88.0392 38.6939C86.8653 38.6939 85.6698 38.6939 84.4959 38.6939C84.4524 38.607 84.4742 38.52 84.4742 38.4331C84.4742 35.3898 84.4742 32.3248 84.4742 29.2815C84.4742 28.9772 84.4742 28.9772 84.7785 28.9772C85.7567 28.9772 86.7132 28.9772 87.6914 28.9772C87.9087 28.9772 87.9739 29.0424 87.9522 29.2598C87.9305 29.4771 87.9305 29.6945 87.9522 29.9119C87.9739 30.151 87.887 30.1945 87.6696 30.1945C87.1262 30.1727 86.5827 30.1945 86.0393 30.1945C85.9523 30.1945 85.8654 30.1727 85.7784 30.2162C85.7132 30.651 85.7567 31.064 85.7567 31.4987C85.7567 31.9987 85.7567 32.5204 85.7784 33.0204C86.3219 33.0856 86.8871 33.0204 87.4305 33.0421C87.5392 33.0421 87.6696 33.0204 87.7783 33.0639C87.7783 33.4551 87.7783 33.8247 87.7783 34.2159C87.2131 34.2594 86.648 34.2159 86.0828 34.2377C85.9958 34.2377 85.8871 34.2159 85.8002 34.2594C85.735 34.5203 85.7784 34.8029 85.7784 35.0637C85.7784 35.8028 85.7784 36.5419 85.7784 37.281C85.7784 37.4549 85.8002 37.5201 85.9958 37.5201C86.6914 37.4983 87.3653 37.5201 88.0609 37.4983C88.1044 37.9113 88.0609 38.3026 88.0392 38.6939Z" fill="#A4A4A4"/>
<path d="M58.0412 30.1944C58.0412 30.3031 58.0195 30.4118 58.0195 30.5205C58.0195 33.1507 58.0195 35.781 58.0195 38.4112C58.0195 38.6721 57.9325 38.7373 57.7151 38.7156C57.4108 38.6938 57.0848 38.7156 56.7587 38.7156C56.7152 38.6286 56.7369 38.5199 56.7369 38.4112C56.7369 35.781 56.7369 33.129 56.7369 30.4987C56.7369 30.4118 56.7587 30.3031 56.7152 30.2162C56.3891 30.1509 56.0413 30.1944 55.7153 30.1944C55.5631 30.1944 55.411 30.2161 55.2588 30.1727C55.2588 29.7814 55.2588 29.4119 55.2588 29.0206C55.3457 28.9771 55.4327 28.9988 55.5196 28.9988C56.7587 28.9988 57.9977 28.9988 59.2368 28.9988C59.5194 28.9988 59.5194 28.9988 59.5194 29.3032C59.5194 29.4988 59.5194 29.6944 59.5194 29.8901C59.5194 30.1944 59.5194 30.1944 59.2368 30.1944C58.9107 30.1944 58.6064 30.1944 58.2803 30.1944C58.1934 30.1727 58.1064 30.1292 58.0412 30.1944Z" fill="#A4A4A4"/>
<path d="M30 38.6938C30 38.1721 30 37.6504 30 37.1287C30 34.5202 30 31.8899 30 29.2814C30 29.0423 30.0435 28.9554 30.3043 28.9771C30.5652 28.9988 30.8043 28.9988 31.0651 28.9771C31.239 28.9771 31.2825 29.0206 31.2825 29.1945C31.2825 29.8466 31.2825 30.4987 31.2825 31.1509C31.2825 32.4551 31.2825 33.7594 31.2825 35.0854C31.2825 35.8462 31.2825 36.607 31.2608 37.3461C31.2608 37.4983 31.3043 37.52 31.4564 37.52C32.1955 37.52 32.9128 37.52 33.6519 37.52C33.7171 37.9113 33.6954 38.3025 33.6519 38.7156C32.4129 38.6938 31.1956 38.6938 30 38.6938Z" fill="#A4A4A4"/>
<path d="M37.6522 28.9987C37.6522 32.1289 37.6522 35.2809 37.6522 38.4111C37.6522 38.6285 37.6087 38.7154 37.3696 38.6937C37.0436 38.672 36.7175 38.6937 36.3914 38.6937C36.348 38.6067 36.3697 38.5198 36.3697 38.4328C36.3697 35.3896 36.3697 32.3246 36.3697 29.2813C36.3697 28.977 36.3697 28.977 36.674 28.977C37.0001 28.977 37.3261 28.9335 37.6522 28.9987Z" fill="#A4A4A4"/>
<path d="M73.9757 34.368C73.9757 33.9985 73.9757 33.6289 73.9757 33.2377C73.9105 33.0855 73.9757 32.9333 73.9322 32.8029C73.867 32.2812 73.8018 31.7812 73.6496 31.2813C73.454 30.6509 73.1497 30.0857 72.628 29.6509C72.128 29.2379 71.5411 29.0858 70.9324 28.9988C70.4759 28.9553 70.0194 28.9988 69.5412 28.9771C69.1934 28.9771 69.2152 28.9336 69.2152 29.2814C69.2152 32.3247 69.2152 35.3679 69.2152 38.4112C69.2152 38.4982 69.1934 38.6069 69.2369 38.6938C69.7803 38.6938 70.302 38.6938 70.8455 38.6938C71.9106 38.6721 72.7149 38.1938 73.2366 37.2809C73.6714 36.52 73.8235 35.6505 73.9322 34.8028C73.9757 34.6506 73.9105 34.4984 73.9757 34.368ZM72.5193 35.9331C72.4541 36.2375 72.3454 36.5418 72.1715 36.8026C71.8019 37.3461 71.2802 37.52 70.6498 37.52C70.4542 37.52 70.5194 37.3896 70.5194 37.2809C70.5194 36.3461 70.5194 35.4114 70.5194 34.4984C70.5194 34.2811 70.5194 34.0637 70.5194 33.8463C70.5194 32.6942 70.5194 31.5421 70.5194 30.4118C70.5194 30.2161 70.5629 30.1727 70.7585 30.1727C71.6063 30.1727 72.1497 30.5205 72.4323 31.3247C72.6497 31.9551 72.7149 32.6073 72.7149 33.2811C72.7149 34.1724 72.7149 35.0636 72.5193 35.9331Z" fill="#A4A4A4"/>
</svg>
