<svg width="146" height="60" viewBox="0 0 146 60" fill="none" xmlns="http://www.w3.org/2000/svg">
<path d="M70.2364 11.2051C71.8477 10.9461 73.4995 10.9271 75.1132 11.1783C75.9638 11.3164 76.8174 11.5075 77.6013 11.8753C77.9555 12.0497 78.3156 12.2616 78.537 12.5991C78.812 13.0628 78.7239 13.686 78.3691 14.0836C77.8775 14.6527 77.187 14.9866 76.5685 15.3938C76.2394 18.0801 75.8156 20.7569 75.6114 23.4575C75.5805 23.9735 75.5459 24.4932 75.5971 25.0092C75.6156 25.2676 75.8031 25.4664 75.9566 25.6592C76.4471 26.2194 77.0054 26.7152 77.5566 27.2146C80.8257 30.1098 84.2709 32.8265 87.2495 36.0331C87.8775 36.7206 88.4816 37.4336 89.0025 38.2063C89.4096 38.814 89.7709 39.4676 89.9316 40.1878C89.6293 39.783 88.99 39.7069 88.609 40.0402C88.2251 40.3491 88.2025 40.9944 88.5662 41.3277C88.8912 41.6378 89.4293 41.6283 89.7757 41.3569C89.1858 42.5592 88.3715 43.6438 87.4096 44.5741C87.6751 43.808 87.7549 42.9092 87.3608 42.1723C87.1543 41.7807 86.7799 41.4217 86.3132 41.4146C85.8138 41.389 85.3959 41.7015 84.9709 41.9152C84.9668 40.8592 84.9918 39.8033 84.9888 38.7473C84.5697 38.8235 84.1572 38.9307 83.737 38.9985C83.7322 39.1348 83.7293 39.2717 83.7287 39.4092C83.9316 39.4194 84.1346 39.4295 84.3382 39.439C84.34 41.036 84.3382 42.6331 84.3388 44.2301C84.3424 44.7158 84.3174 45.2015 84.2775 45.6848C84.4043 45.7206 84.5334 45.7485 84.6638 45.77C84.7263 45.661 84.7876 45.5515 84.8459 45.4408C85.1929 45.6563 85.6001 45.7753 86.0108 45.7319C84.409 46.8682 82.5882 47.6682 80.7055 48.2092C78.1763 48.9354 75.5424 49.2319 72.9179 49.2985C70.2358 49.3598 67.5275 49.1682 64.9281 48.4747C62.8614 47.9194 60.8549 47.0211 59.2049 45.639C60.0257 45.6408 60.8465 45.636 61.6674 45.642C61.7947 45.1134 61.9037 44.5807 62.0066 44.0473C61.7638 43.9741 61.5203 43.9021 61.2715 43.8509C61.1763 44.1098 61.0894 44.3717 60.9906 44.6289C60.9578 44.7455 60.831 44.7973 60.7197 44.8009C60.4072 44.8134 60.0935 44.8158 59.7805 44.8205C60.4775 43.9967 61.2477 43.2336 61.9072 42.3765C61.8507 42.0223 61.7745 41.6717 61.681 41.3259C60.6483 41.3271 59.6156 41.3188 58.5834 41.3045C58.4906 41.8348 58.4001 42.3658 58.3066 42.8961C58.5578 42.9604 58.8126 43.0092 59.0668 43.0586C59.1882 42.7729 59.237 42.458 59.3787 42.1819C59.4007 42.1711 59.4453 42.1503 59.4674 42.1396C59.7858 42.1217 60.1066 42.1289 60.4257 42.139C59.7215 43.0241 58.9781 43.8783 58.2793 44.7688C57.2638 43.6967 56.4691 42.4027 56.04 40.9854C55.8781 40.2164 56.237 39.4628 56.5959 38.8033C57.4596 37.3206 58.634 36.0521 59.8138 34.8188C61.4025 33.189 63.0864 31.6563 64.7846 30.142C66.0382 29.0164 67.3144 27.9152 68.543 26.7616C68.9864 26.3307 69.4489 25.911 69.815 25.4098C69.9971 25.1759 69.9941 24.867 70.0185 24.586C70.062 23.714 69.9882 22.842 69.9144 21.9735C69.7037 19.789 69.384 17.6164 69.0287 15.4515C68.4108 15.1176 67.781 14.7765 67.2769 14.2807C66.9537 13.964 66.7072 13.5075 66.8138 13.0432C66.9162 12.5366 67.3483 12.1872 67.7793 11.9521C68.54 11.5455 69.3918 11.3479 70.2364 11.2051ZM67.4739 12.5402C67.3334 12.67 67.19 12.8414 67.2102 13.0455C67.2435 13.2842 67.4668 13.4301 67.665 13.5313C68.1882 13.7771 68.7656 13.8783 69.3358 13.9473C69.4418 13.7896 69.5513 13.6342 69.6596 13.4777C69.2465 13.4086 68.8221 13.3205 68.4644 13.0908C68.284 12.9753 68.1197 12.7914 68.1239 12.5646C68.1245 12.336 68.2763 12.1515 68.4185 11.9884C68.0852 12.136 67.7489 12.2955 67.4739 12.5402ZM73.5715 14.9438C74.3269 15.3551 74.8138 16.1759 74.8644 17.0283C74.8775 17.4039 74.706 17.761 74.4644 18.0402C74.1209 18.4372 73.6799 18.7313 73.2531 19.0301C72.6031 19.4795 71.9263 19.9194 71.4221 20.5384C71.1084 20.9152 70.9013 21.3694 70.7596 21.836C70.6316 22.2711 70.5918 22.7503 70.7525 23.183C70.9049 23.6039 71.2275 23.936 71.5769 24.2027C72.2465 24.7057 73.0191 25.0497 73.6894 25.5515C74.0906 25.8521 74.2971 26.3598 74.2947 26.8527C74.2977 27.5545 73.9555 28.22 73.4697 28.711C72.8316 29.3569 71.9614 29.7336 71.0757 29.8866C70.5989 29.9485 70.1174 29.9604 69.6412 30.0241C68.1078 30.2134 66.5697 30.4979 65.137 31.0926C64.5424 31.3491 63.9495 31.6581 63.5019 32.136C63.2138 32.442 63.0203 32.8783 63.1316 33.3015C63.2608 33.7997 63.6691 34.1592 64.0781 34.439C64.8602 34.9545 65.7566 35.2622 66.6537 35.511C68.2882 35.9467 69.9775 36.1473 71.665 36.22C73.9775 36.3051 76.312 36.1694 78.5727 35.6533C79.634 35.3985 80.7001 35.0753 81.6322 34.492C82.0775 34.1991 82.534 33.8194 82.6632 33.2777C82.7763 32.7973 82.509 32.3265 82.165 32.0104C81.5549 31.4473 80.7745 31.1164 80.0013 30.8426C78.487 30.3283 76.8965 30.0825 75.3084 29.9396C75.7632 29.3592 75.9632 28.5944 75.8745 27.8646C75.8102 27.3414 75.5531 26.861 75.2203 26.4598C74.6358 25.7521 73.8721 25.2235 73.2578 24.5444C72.8596 24.1081 72.5287 23.5884 72.4156 23.0015C72.2691 22.2586 72.4174 21.4551 72.8626 20.8366C73.4537 19.9729 74.3691 19.3878 74.9287 18.4997C75.2513 18.0009 75.3685 17.3783 75.2477 16.7961C75.1435 16.1955 74.7751 15.6616 74.2828 15.3104C74.0626 15.1598 73.837 14.9997 73.5715 14.9438ZM78.2965 38.9747C78.2888 39.1164 78.2858 39.2575 78.284 39.3997C78.506 39.4063 78.7287 39.4128 78.9513 39.4194C78.959 41.3384 78.9543 43.2575 78.9406 45.1759C78.7465 45.1866 78.5525 45.1967 78.3584 45.2075C78.3537 45.3515 78.3513 45.4956 78.3507 45.6396C78.9721 45.6336 79.5941 45.6217 80.2156 45.6336C80.2269 45.4914 80.231 45.3491 80.2304 45.2075C80.0132 45.1973 79.7959 45.1872 79.5793 45.1777C79.5876 43.0342 79.6043 40.8914 79.6096 38.7485C79.1709 38.817 78.7382 38.9217 78.2965 38.9747ZM71.3156 40.4658C71.2947 40.761 71.2882 41.0586 71.2418 41.3515C71.0489 41.3682 70.8555 41.3872 70.662 41.4021C70.6418 41.6813 70.6358 41.9604 70.6346 42.2402C70.8293 42.2396 71.0239 42.2402 71.2191 42.242C71.215 43.0658 71.2043 43.8902 71.2025 44.7146C71.1751 45.2491 71.6572 45.7813 72.2055 45.7378C72.8025 45.7319 73.4037 45.6307 73.9501 45.3836C73.9215 45.1081 73.8906 44.8336 73.8483 44.5598C73.5441 44.6438 73.2316 44.7146 72.9144 44.7027C72.687 44.6866 72.5364 44.4491 72.5549 44.2336C72.5531 43.5723 72.5679 42.911 72.5638 42.2497C72.981 42.2515 73.3989 42.2575 73.8162 42.2586C73.8412 41.9515 73.8465 41.6432 73.8489 41.3354C73.4203 41.339 72.9918 41.342 72.5638 41.3456C72.5691 40.8717 72.584 40.3979 72.5858 39.9235C72.1501 40.0723 71.7179 40.2402 71.3156 40.4658ZM63.2965 41.5098C62.6947 41.8938 62.3531 42.5872 62.268 43.2813C62.2037 43.8182 62.243 44.3932 62.5144 44.8723C62.7364 45.2705 63.1358 45.5533 63.5757 45.6604C64.337 45.8634 65.134 45.6128 65.8174 45.2735C65.7739 45.0015 65.7251 44.7307 65.6578 44.4634C65.2037 44.6295 64.7168 44.7866 64.2281 44.714C63.8358 44.6414 63.6435 44.2265 63.6316 43.8628C64.2453 43.8461 64.862 43.8842 65.4733 43.8241C65.6924 43.6253 65.9697 43.3729 65.9001 43.045C65.856 42.458 65.6894 41.7944 65.1739 41.445C64.612 41.0795 63.8459 41.1598 63.2965 41.5098ZM66.0668 41.5122C66.056 41.7807 66.0501 42.0497 66.0501 42.3188C66.2251 42.3211 66.4001 42.3241 66.5751 42.3289C66.5733 44.2461 66.568 46.1634 66.568 48.0807C66.9989 48.2188 67.4519 48.2723 67.9031 48.2914C67.9078 47.3914 67.8918 46.492 67.9013 45.592C68.4334 45.8081 69.0846 45.7979 69.5555 45.4432C70.0513 45.0211 70.2977 44.3836 70.4174 43.7592C70.5495 43.0717 70.4656 42.314 70.0572 41.7301C69.856 41.4426 69.5382 41.192 69.1703 41.208C68.6745 41.2075 68.3007 41.5819 67.8828 41.7938C67.8382 41.5961 67.806 41.3961 67.7745 41.1967C67.2043 41.2955 66.6382 41.4182 66.0668 41.5122ZM75.8709 41.2408C75.3721 41.3182 74.9037 41.5872 74.6049 41.9973C74.1382 42.6128 74.0132 43.4372 74.1543 44.1854C74.2513 44.6884 74.5257 45.1771 74.9626 45.4592C75.4305 45.7444 76.0138 45.7902 76.5429 45.6854C76.9971 45.5961 77.4013 45.3164 77.6685 44.9408C78.162 44.2652 78.2733 43.3581 78.0471 42.5628C77.9287 42.145 77.6858 41.7473 77.3132 41.5122C76.8935 41.2313 76.3626 41.1575 75.8709 41.2408ZM81.568 41.5063C81.1697 41.6527 80.8626 41.9592 80.59 42.2729C80.6727 42.4063 80.7703 42.5301 80.8727 42.6503C81.0888 42.3908 81.3394 42.1319 81.6697 42.0259C81.9275 41.9426 82.2537 42.0164 82.3912 42.267C82.5888 42.6289 82.5691 43.058 82.5691 43.458C82.1668 43.4682 81.7513 43.4176 81.3638 43.5515C80.8727 43.7027 80.4543 44.1265 80.3816 44.645C80.2882 45.2265 80.8477 45.7914 81.4263 45.7342C81.8447 45.7057 82.209 45.4795 82.5668 45.2819C82.6543 45.4384 82.7435 45.595 82.8495 45.7414C83.1733 45.7277 83.4971 45.689 83.8126 45.6116C83.8126 45.4729 83.8126 45.3348 83.8126 45.1973C83.6102 45.2051 83.4084 45.211 83.2066 45.2182C83.1876 45.1289 83.1739 45.0384 83.1781 44.9485C83.1888 44.2735 83.1953 43.5979 83.1929 42.9229C83.181 42.4628 83.0763 41.9545 82.712 41.6402C82.3995 41.3694 81.9388 41.3658 81.568 41.5063Z" fill="#A4A4A4"/>
<path d="M88.9499 40.0919C89.2969 39.9449 89.7422 40.1634 89.8023 40.5437C89.9011 40.914 89.6225 41.3419 89.2255 41.3414C88.8487 41.3854 88.5219 41.0306 88.557 40.6622C88.5618 40.4169 88.7172 40.1771 88.9499 40.0919ZM88.838 40.2634C88.8017 40.5443 88.8231 40.8318 88.8297 41.1152C88.9136 41.114 88.9981 41.1128 89.0832 41.111C89.0856 41.0033 89.0874 40.8943 89.091 40.7872C89.288 40.7794 89.2475 41.0027 89.3416 41.1122C89.4302 41.1175 89.5195 41.1169 89.6094 41.111C89.5808 40.964 89.5398 40.8104 89.4124 40.7181C89.6237 40.6384 89.635 40.3021 89.4029 40.2461C89.2225 40.2229 88.9969 40.1747 88.838 40.2634Z" fill="#A4A4A4"/>
<path d="M89.0924 40.6258C89.0912 40.552 89.0906 40.4782 89.0906 40.4044C89.14 40.4128 89.2376 40.4282 89.2864 40.4366C89.3251 40.5764 89.212 40.6235 89.0924 40.6258Z" fill="#A4A4A4"/>
<path d="M76.0386 42.0015C76.2678 41.9223 76.4999 42.0985 76.5642 42.3152C76.7285 42.7949 76.7071 43.3116 76.6999 43.8116C76.6833 44.1515 76.6714 44.5193 76.4672 44.8074C76.3333 45.0164 75.9916 45.0283 75.8428 44.83C75.6291 44.5574 75.594 44.1985 75.5725 43.8652C75.5553 43.3937 75.5392 42.908 75.6827 42.4527C75.7469 42.2717 75.8392 42.0628 76.0386 42.0015Z" fill="#A4A4A4"/>
<path d="M63.8821 42.1609C64.0339 41.9811 64.353 41.9913 64.4821 42.193C64.6387 42.4448 64.6667 42.7597 64.6387 43.049C64.3036 43.0686 63.9679 43.0716 63.6321 43.074C63.6304 42.7567 63.6667 42.4109 63.8821 42.1609Z" fill="#A4A4A4"/>
<path d="M84.9702 42.4627C85.2755 42.1991 85.6601 41.9955 86.072 41.9955C86.3577 42.0002 86.6 42.2062 86.7267 42.4508C86.95 42.8651 86.9583 43.3532 86.9345 43.8122C86.8988 44.2627 86.7726 44.7491 86.4178 45.0556C86.0517 45.3723 85.4642 45.3318 85.1077 45.0211C85.0184 44.9449 84.9529 44.8348 84.966 44.7145C84.9654 43.9639 84.9755 43.2127 84.9702 42.4627Z" fill="#A4A4A4"/>
<path d="M67.9322 42.6306C68.1423 42.4789 68.3953 42.3187 68.6649 42.3598C68.9251 42.4681 68.9965 42.7812 69.0233 43.0342C69.0614 43.5211 69.0751 44.0312 68.9036 44.4955C68.8227 44.7479 68.537 44.9247 68.278 44.8271C68.1191 44.7753 67.9108 44.6723 67.9209 44.4765C67.9173 43.861 67.9346 43.2455 67.9322 42.6306Z" fill="#A4A4A4"/>
<path d="M81.4126 44.0354C81.759 43.8348 82.1751 43.8812 82.5584 43.8955C82.5596 44.2015 82.5644 44.5074 82.5548 44.8134C82.2781 45.0182 81.9614 45.2027 81.609 45.2164C81.3882 45.2235 81.156 45.0979 81.081 44.8824C80.9792 44.5699 81.1221 44.1943 81.4126 44.0354Z" fill="#A4A4A4"/>
</svg>
