<svg width="147" height="60" viewBox="0 0 147 60" fill="none" xmlns="http://www.w3.org/2000/svg">
<path d="M59.3023 44.0836C59.4309 44.2122 59.6881 44.3408 59.8167 44.4695V44.3408C60.074 43.955 60.2026 43.6978 60.4598 43.3119C60.4598 43.3119 60.5884 43.1833 60.4598 43.1833C60.3312 43.1833 60.2026 43.3119 60.2026 43.4405C60.074 43.5691 59.9453 43.5691 59.9453 43.6978C59.8167 43.6978 59.6881 43.6978 59.5595 43.8264C59.4309 43.955 59.3023 43.955 59.3023 44.0836ZM65.09 31.865C65.09 31.865 65.09 31.9936 65.09 31.865C65.3473 32.2508 65.4759 32.508 65.7331 32.7653C65.8617 33.0225 65.9904 33.2797 66.119 33.537C66.119 33.537 66.119 33.6656 66.2476 33.6656C66.2476 33.6656 66.2476 33.6656 66.3762 33.6656C66.3762 33.6656 66.5048 33.537 66.3762 33.4084C66.3762 33.2797 66.3762 33.2797 66.2476 33.1511C66.2476 33.0225 66.119 32.8939 66.119 32.7653C65.8617 32.2508 65.7331 31.865 65.4759 31.4791C65.4759 31.4791 65.4759 31.4791 65.4759 31.3505C65.4759 31.2219 65.3473 31.2219 65.2186 31.3505C65.2186 31.3505 65.09 31.4791 65.09 31.6077C65.09 31.7363 65.09 31.865 65.09 31.865ZM74.7363 25.5627C74.6077 25.6913 74.6077 25.9486 74.7363 26.0772C74.7363 26.0772 74.7363 26.0772 74.7363 26.2058C74.865 26.3344 74.9936 26.463 75.1222 26.7203C75.2508 26.9775 75.3794 27.2347 75.508 27.492C75.508 27.6206 75.6367 27.7492 75.6367 27.8778V28.0064H75.7653V27.8778V27.6206C75.6367 27.2347 75.508 26.8489 75.3794 26.463C75.2508 26.3344 75.2508 26.0772 75.1222 25.9486C75.1222 25.9486 74.9936 25.8199 74.7363 25.5627C74.865 25.4341 74.7363 25.4341 74.7363 25.5627ZM60.3312 40.9968C60.2026 40.9968 60.2026 40.9968 60.3312 40.9968C60.074 41.1254 59.8167 41.254 59.6881 41.3826C59.1736 41.8971 58.5305 42.283 58.1447 42.6688C58.1447 42.6688 58.1447 42.6688 58.0161 42.6688V42.7974C58.1447 42.926 58.2733 43.0547 58.4019 43.3119C58.4019 43.3119 58.4019 43.3119 58.5305 43.1833C58.6592 42.926 58.7878 42.7974 58.9164 42.5402C59.4309 42.0257 59.8167 41.3826 60.3312 40.9968ZM68.8199 27.8778C68.6913 28.0064 68.5627 28.2637 68.8199 28.3923C68.8199 28.3923 68.9486 28.3923 68.9486 28.5209C69.2058 28.6495 69.3344 28.7781 69.5916 28.9068C69.8489 29.164 70.1061 29.4212 70.3633 29.6785C70.492 29.8071 70.6206 30.0643 70.8778 30.1929C70.8778 30.1929 71.0064 30.1929 71.135 30.1929L71.2637 30.0643C71.2637 30.0643 71.2637 29.9357 71.135 29.9357C70.8778 29.5498 70.6206 29.164 70.3633 28.9068C70.2347 28.6495 69.9775 28.5209 69.8489 28.2637C69.7203 28.135 69.5916 28.0064 69.463 27.8778C69.3344 27.8778 69.3344 27.7492 69.2058 27.7492C68.9486 27.7492 68.9486 27.7492 68.8199 27.8778ZM58.0161 38.4244C57.8875 38.4244 57.6302 38.5531 57.5016 38.5531C57.1158 38.6817 56.8585 38.8103 56.4727 38.9389C56.2154 38.9389 55.9582 39.0675 55.701 39.0675C55.8296 39.1961 55.9582 39.4534 56.0868 39.582C56.0868 39.582 56.0868 39.582 56.2154 39.582C56.3441 39.4534 56.4727 39.4534 56.6013 39.3248C56.9871 39.0675 57.5016 38.8103 57.8875 38.5531C57.7588 38.6817 57.8875 38.5531 58.0161 38.4244C58.0161 38.5531 58.0161 38.5531 58.0161 38.4244ZM87.7267 16.4309C86.4405 15.1447 85.1543 14.1158 83.7395 13.0868C81.2958 11.5434 78.5949 10.5145 75.7653 10.2572C75.6367 10.2572 75.3794 10.2572 75.2508 10.1286C74.865 10.1286 74.4791 10 74.0932 10C73.3215 10 72.6785 10 71.9068 10C71.5209 10 71.135 10.1286 70.7492 10.1286C70.2347 10.1286 69.8489 10.2572 69.463 10.3859C68.3055 10.6431 67.4051 10.9003 66.5048 11.2862C62.9035 12.5723 59.9453 14.6302 57.6302 17.717C55.701 20.1608 54.4148 22.8617 53.6431 25.8199C53.5145 26.463 53.3859 27.1061 53.2572 27.6206C53.2572 28.0064 53.1286 28.2637 53.1286 28.6495C53.1286 29.0354 53 29.4212 53 29.8071C53 30.836 53 31.7363 53.1286 32.8939C53.1286 33.537 53.2572 34.0514 53.3859 34.5659C53.5145 35.3376 53.7717 36.1093 54.0289 37.0096C54.1576 37.5241 54.4148 38.1672 54.672 38.5531C54.672 38.5531 54.672 38.6817 54.8006 38.6817C54.8006 38.6817 54.9293 38.6817 54.9293 38.5531C55.0579 38.4244 55.3151 38.2958 55.4437 38.1672C55.701 38.0386 55.8296 37.91 56.0868 37.7813C56.6013 37.5241 56.9871 37.3955 57.373 37.1383C58.7878 36.4952 60.4598 36.1093 62.0032 35.8521C62.2605 35.7235 62.5177 35.7235 62.9035 35.7235C62.9035 35.7235 63.0322 35.7235 63.0322 35.5949C63.0322 35.5949 63.0322 35.4662 62.9035 35.3376C62.7749 35.209 62.7749 34.9518 62.6463 34.8232C62.5177 34.4373 62.3891 34.0514 62.2605 33.537C62.2605 33.2797 62.2605 32.8939 62.2605 32.6367C62.3891 32.2508 62.5177 31.865 62.6463 31.4791C62.7749 31.2219 62.9035 30.9646 63.1608 30.7074C63.2894 30.5788 63.2894 30.5788 63.418 30.4502C63.6752 30.1929 63.9325 29.9357 64.1897 29.8071C64.5756 29.4212 65.09 29.0354 65.4759 28.6495C66.3762 27.8778 67.1479 27.3633 68.1768 26.7203C69.8489 25.4341 71.6495 24.4051 73.3215 23.2476C73.9646 22.8617 74.4791 22.4759 74.9936 22.2186C76.0225 21.7042 76.7942 21.1897 77.8231 20.8039H77.9518H78.0804C78.0804 20.8039 78.0804 20.8039 78.209 20.9325C78.7235 21.3183 79.1093 21.8328 79.4952 22.2186C79.6238 22.3473 79.7524 22.4759 79.7524 22.6045L79.881 22.7331C79.881 22.7331 80.0096 22.7331 80.0096 22.8617H80.1383C80.2669 22.8617 80.2669 22.7331 80.2669 22.6045C80.2669 22.6045 80.2669 22.4759 80.1383 22.4759C79.7524 21.9614 79.4952 21.3183 79.1093 20.9325C78.9807 20.8039 78.9807 20.6752 78.8521 20.6752C78.8521 20.6752 78.8521 20.5466 78.7235 20.5466C78.7235 20.5466 78.7235 20.5466 78.8521 20.418C78.8521 20.418 78.9807 20.418 78.9807 20.2894C80.7813 19.2604 82.7106 18.4887 84.5113 17.5884C84.5113 17.5884 84.6399 17.5884 84.6399 17.4598H84.7685C84.8971 17.5884 85.1543 17.717 85.283 17.9743C85.4116 18.1029 85.5402 18.2315 85.6688 18.2315C85.6688 18.2315 85.7974 18.2315 85.7974 18.3601C85.7974 18.3601 85.926 18.3601 86.0547 18.3601C86.0547 18.3601 86.1833 18.2315 86.0547 18.2315V18.3601C86.0547 18.3601 86.0547 18.2315 85.926 18.2315C85.7974 17.9743 85.6688 17.8457 85.5402 17.5884V17.4598L85.7974 17.3312C86.4405 17.074 86.955 16.8167 87.4695 16.5595C87.4695 16.5595 87.5981 16.5595 87.7267 16.4309ZM77.3087 32.6367C77.3087 32.508 77.3087 32.508 77.3087 32.6367C78.5949 31.4791 79.6238 30.5788 80.5241 29.5498C81.0386 29.0354 81.5531 28.3923 81.9389 28.0064L82.0675 27.8778V27.6206V27.492C81.9389 27.1061 81.8103 26.8489 81.5531 26.463C81.5531 26.463 81.5531 26.463 81.5531 26.3344L81.6817 26.2058H81.8103L81.9389 26.3344C82.0675 26.463 82.1961 26.5916 82.3248 26.7203L82.4534 26.8489C82.582 26.9775 82.582 26.9775 82.7106 26.8489L82.8392 26.7203C83.6109 25.8199 84.254 25.0482 85.0257 24.1479C85.283 23.8907 85.5402 23.5048 85.7974 23.2476C85.7974 23.2476 85.926 23.119 85.926 22.9904V22.8617C85.926 22.7331 85.7974 22.7331 85.7974 22.6045C85.5402 22.09 85.283 21.7042 85.0257 21.3183C84.8971 21.1897 84.7685 20.9325 84.6399 20.8039L84.5113 20.6752C84.5113 20.5466 84.5113 20.5466 84.5113 20.418C84.5113 20.418 84.6399 20.418 84.7685 20.418C84.7685 20.418 84.7685 20.418 84.8971 20.5466C85.4116 21.0611 85.926 21.4469 86.1833 21.8328C86.3119 21.9614 86.4405 22.09 86.4405 22.2186C86.4405 22.2186 86.4405 22.2186 86.5691 22.2186C86.5691 22.2186 86.6977 22.09 86.6977 21.9614C87.7267 20.6752 88.627 19.5177 89.6559 18.2315C89.6559 18.1029 89.7846 18.1029 89.7846 17.9743C89.7846 17.9743 89.7846 17.9743 89.9132 17.9743C89.9132 18.1029 90.0418 18.1029 90.0418 18.2315C91.4566 20.2894 92.4855 22.4759 93.1286 25.0482C93.2572 25.5627 93.3858 26.2058 93.5145 26.5916C93.6431 27.1061 93.6431 27.6206 93.6431 28.0064C93.6431 28.7781 93.7717 29.2926 93.6431 30.0643C93.6431 30.5788 93.6431 31.0932 93.5145 31.4791C93.5145 31.865 93.3858 32.2508 93.3858 32.6367C93.2572 33.4084 93.1286 34.0514 92.8714 34.8232C91.9711 38.0386 90.4277 40.8682 88.2412 43.3119C86.1833 45.627 83.7395 47.299 80.7813 48.4566C79.6238 48.9711 78.5949 49.2283 77.4373 49.4855C76.9228 49.6141 76.537 49.6141 76.1511 49.7428C75.7653 49.7428 75.3794 49.8714 74.865 49.8714C74.3505 49.8714 73.9646 49.8714 73.5788 50C73.3215 50 73.0643 50 72.6785 50C72.5498 50 72.4212 50 72.2926 50C71.7781 50 71.3923 50 71.0064 49.8714C70.492 49.8714 70.1061 49.7428 69.7203 49.6141C68.8199 49.4855 68.1768 49.2283 67.2765 48.9711C64.8328 48.1994 62.6463 47.0418 60.5884 45.3698L60.4598 45.2412C60.3312 45.1125 60.2026 45.1125 60.4598 44.9839C60.717 44.7267 60.8457 44.5981 61.1029 44.3408C61.3601 43.955 61.6174 43.6978 61.8746 43.3119C62.3891 42.5402 62.9035 41.8971 63.1608 40.9968C63.8039 39.8392 64.4469 38.6817 64.9614 37.5241C64.9614 37.3955 65.09 37.2669 65.09 37.2669C65.09 37.1383 65.2186 37.1383 65.2186 37.2669C65.3473 37.3955 65.3473 37.3955 65.4759 37.5241C65.7331 37.6527 65.9904 37.91 66.2476 38.0386C66.6334 38.2958 67.0193 38.4244 67.4051 38.4244C67.5338 38.4244 67.6624 38.4244 67.791 38.4244H67.9196C67.9196 38.4244 68.0482 38.4244 67.9196 38.2958V38.1672C67.6624 37.7814 67.4051 37.2669 67.1479 36.881C67.0193 36.7524 66.8907 36.4952 66.7621 36.3666L66.6334 36.2379C66.5048 36.1093 66.6334 35.9807 66.7621 35.8521H66.8907C66.8907 35.8521 67.0193 35.8521 67.0193 35.9807C67.2765 36.1093 67.4051 36.3666 67.5338 36.4952C67.791 36.7524 68.0482 37.1383 68.3055 37.5241C68.4341 37.6527 68.5627 37.91 68.6913 38.0386C68.6913 38.0386 68.6913 38.1672 68.8199 38.1672H68.9486C69.0772 38.1672 69.0772 38.1672 69.2058 38.0386C69.3344 37.91 69.5916 37.7813 69.7203 37.7813C70.3633 37.3955 71.0064 37.0096 71.5209 36.4952C71.5209 36.4952 71.6495 36.4952 71.6495 36.3666C71.6495 36.2379 71.6495 36.2379 71.5209 36.1093C71.3923 35.8521 71.2637 35.4662 71.0064 35.209V35.0804V34.9518C71.0064 34.8232 71.135 34.8232 71.135 34.8232H71.2637L71.3923 34.9518C71.6495 35.209 71.7781 35.4662 72.0354 35.7235L72.164 35.8521C72.2926 35.8521 72.2926 35.7235 72.4212 35.7235C72.8071 35.4662 73.1929 35.0804 73.5788 34.8232C74.6077 34.0514 75.508 33.2797 76.537 32.508L76.6656 32.3794V32.2508V32.1222C76.4084 31.6077 76.1511 31.2219 75.8939 30.836C75.8939 30.836 75.8939 30.7074 75.7653 30.7074C75.7653 30.5788 75.7653 30.5788 75.7653 30.4502H75.8939C76.0225 30.4502 76.0225 30.5788 76.1511 30.5788C76.4084 30.836 76.6656 31.0932 76.9228 31.3505C76.9228 32.2508 77.0514 32.3794 77.3087 32.6367C77.1801 32.508 77.1801 32.508 77.3087 32.6367Z" fill="#A4A4A4"/>
</svg>
