<svg width="146" height="60" viewBox="0 0 146 60" fill="none" xmlns="http://www.w3.org/2000/svg">
<path d="M137 34.5703C136.258 34.9588 135.623 34.8705 134.916 34.3584C133.098 33.0519 131.226 31.816 129.284 30.4918C129.284 31.6394 129.302 32.7164 129.284 33.7935C129.266 34.6409 128.684 35.047 127.889 34.7822C127.571 34.6763 127.324 34.4467 127.324 34.0406C127.342 31.3216 127.324 28.5849 127.342 25.8659C127.342 25.3362 127.713 25.0184 128.278 25.0007C128.86 24.9831 129.249 25.2832 129.266 25.8129C129.302 26.8017 129.266 27.7727 129.266 28.7438C129.496 28.8498 129.602 28.6732 129.743 28.6026C131.403 27.5609 133.027 26.5015 134.669 25.4598C134.916 25.3009 135.164 25.142 135.446 25.0714C135.887 24.9478 136.311 25.0714 136.523 25.4951C136.717 25.9189 136.435 26.1837 136.099 26.4132C134.563 27.3843 133.027 28.373 131.473 29.3265C131.05 29.5913 130.944 29.7149 131.438 30.0327C133.31 31.2686 135.146 32.5575 137 33.8111C137 34.0583 137 34.3055 137 34.5703Z" fill="#A4A4A4"/>
<path d="M51.3153 31.5512C52.0392 29.7856 52.7808 28.0024 53.5047 26.2367C53.8931 25.301 54.2109 24.8419 55.5881 25.1244C56.0824 25.2304 56.3826 25.5128 56.4885 25.9719C57.1241 28.5673 57.7598 31.1628 58.3777 33.7582C58.4837 34.2173 58.3954 34.6587 57.8304 34.7999C57.0182 34.9942 56.5591 34.7646 56.4179 34.0584C56.0471 32.3457 55.694 30.6331 55.3585 28.9205C55.2703 28.4084 55.0407 27.9317 55.076 27.402C55.0231 27.3844 54.9701 27.3844 54.9171 27.3667C54.5993 28.1083 54.2639 28.8675 53.9461 29.6091C53.3281 31.0745 52.7278 32.54 52.1275 34.0054C51.9156 34.4998 51.6684 34.8352 51.0151 34.8352C50.3795 34.8176 50.1147 34.4645 49.9205 33.9878C49.1789 32.2398 48.455 30.4742 47.7135 28.7263C47.5369 28.3202 47.325 27.9141 47.0072 27.508C46.76 28.7263 46.4952 29.9269 46.248 31.1451C46.0538 32.0809 45.8772 33.0343 45.683 33.9701C45.5241 34.7293 45.1004 34.9765 44.2529 34.7999C43.7585 34.694 43.5643 34.2526 43.7232 33.5817C44.1823 31.6748 44.659 29.768 45.118 27.8611C45.2769 27.2255 45.4005 26.6075 45.5947 25.9896C45.8243 25.2657 46.2127 25.0185 47.0249 25.0008C47.7488 24.9832 48.1372 25.248 48.4197 25.9366C49.2142 27.8434 50.0088 29.7503 50.8033 31.6572C51.0328 31.869 51.1741 31.7454 51.3153 31.5512Z" fill="#A4A4A4"/>
<path d="M123.97 34.8083C122.911 33.9961 122.081 32.9721 121.11 32.054C119.662 30.6944 118.197 29.3349 116.731 27.9754C116.749 27.9224 116.766 27.8695 116.802 27.8165C116.802 28.152 116.802 28.5051 116.802 28.8406C116.802 30.4473 116.802 32.0716 116.802 33.6783C116.802 34.5258 116.537 34.8083 115.813 34.8083C115.089 34.8083 114.824 34.5081 114.824 33.6783C114.824 31.1888 114.824 28.6817 114.824 26.1921C114.824 25.7684 114.807 25.327 115.283 25.1151C115.813 24.8856 116.29 25.0092 116.678 25.3976C118.073 26.7748 119.433 28.1696 120.827 29.5468C121.675 30.3766 122.575 31.1712 123.476 31.9833C123.511 31.948 123.44 31.7538 123.44 31.5772C123.44 29.7587 123.44 27.9224 123.44 26.1039C123.44 25.3976 123.811 25.0092 124.447 25.0092C125.1 25.0092 125.436 25.3623 125.436 26.1039C125.436 28.5404 125.436 30.9593 125.436 33.3958C125.418 34.7377 125.277 34.8789 123.97 34.8083Z" fill="#A4A4A4"/>
<path d="M59.8076 29.7573C59.8076 28.4861 59.8076 27.1972 59.8076 25.926C59.8076 25.2903 60.0901 25.0078 60.7257 25.0078C62.3501 24.9902 63.9744 25.0078 65.6165 25.0078C66.0932 25.0078 66.4816 25.1844 66.4993 25.6964C66.4993 26.2085 66.0755 26.3321 65.6518 26.3497C64.5394 26.3674 63.4095 26.385 62.2971 26.3674C61.9087 26.3674 61.7674 26.4733 61.8027 26.8617C61.8381 27.4444 61.8557 28.027 61.8027 28.6097C61.7674 29.0687 61.9263 29.1217 62.3324 29.1217C63.2859 29.1041 64.2393 29.1217 65.1927 29.1394C65.6694 29.1394 66.1461 29.21 66.1638 29.7926C66.1638 30.3929 65.6694 30.4989 65.1751 30.5165C64.2393 30.5342 63.3212 30.5342 62.3854 30.5342C61.9793 30.5342 61.7145 30.5342 61.8204 31.0815C61.9087 31.5406 61.891 32.0526 61.8204 32.5117C61.7321 33.1296 61.997 33.2356 62.5443 33.2179C63.4801 33.1826 64.3982 33.2179 65.334 33.2356C66.1815 33.2532 66.5522 33.5004 66.5346 33.9595C66.5169 34.4185 66.0932 34.6657 65.2987 34.6657C63.9038 34.6657 62.509 34.6834 61.1142 34.6834C60.1078 34.6834 59.8429 34.4185 59.8429 33.4121C59.8076 32.1939 59.8076 30.9756 59.8076 29.7573Z" fill="#A4A4A4"/>
<path d="M40.7921 33.8633C39.8386 31.9388 38.8676 30.032 37.8965 28.1075C37.7023 27.719 37.4904 27.3306 37.2432 26.8539C36.996 27.3483 36.7841 27.7543 36.5723 28.1604C35.5835 30.1026 34.5771 32.0624 33.5884 34.0222C33.3412 34.5166 33.0234 34.8344 32.4231 34.7815C31.6992 34.7285 31.4344 34.3401 31.7698 33.6868C32.3348 32.5921 32.9351 31.5151 33.5178 30.4204C34.2946 28.9373 35.0892 27.4718 35.8484 25.9887C36.1485 25.4061 36.5723 25 37.2609 25C37.9671 25 38.3908 25.4061 38.7086 26.0064C40.0152 28.4959 41.3571 30.9854 42.6813 33.4749C43.0344 34.1635 42.9461 34.6049 42.4164 34.7638C41.7985 34.9404 41.3571 34.7461 41.0039 34.1635C40.9157 34.0576 40.7744 34.0046 40.7921 33.8633Z" fill="#A4A4A4"/>
<path d="M108.133 26.8097C106.897 29.2639 105.679 31.6298 104.513 34.0311C104.231 34.6137 103.825 34.8962 103.171 34.8079C102.624 34.7197 102.342 34.3136 102.606 33.8369C104.019 31.1355 105.431 28.4341 106.897 25.768C107.462 24.744 108.857 24.744 109.422 25.768C110.869 28.4164 112.264 31.1178 113.677 33.7839C113.889 34.19 113.818 34.5078 113.412 34.7373C112.97 34.9845 112.264 34.8433 111.999 34.4195C111.717 33.9428 111.47 33.4308 111.223 32.9187C110.199 30.8883 109.174 28.8755 108.133 26.8097Z" fill="#A4A4A4"/>
<path d="M86.5743 26.7479C85.3736 29.1492 84.2437 31.4268 83.096 33.7044C82.8488 34.1988 82.6546 34.7638 81.9131 34.7638C81.0303 34.7461 80.7301 34.3401 81.1362 33.5808C81.9307 32.0801 82.7252 30.597 83.5198 29.0962C84.1024 28.0015 84.6851 26.9245 85.2501 25.8298C85.5502 25.2472 85.9916 25 86.6096 25C87.2452 25 87.6513 25.3178 87.9338 25.8828C89.258 28.4076 90.5822 30.9148 91.924 33.4219C92.2772 34.1105 92.2595 34.4283 91.8358 34.6579C91.3061 34.9404 90.6351 34.7461 90.335 34.1635C89.4169 32.3626 88.4988 30.544 87.5806 28.7431C87.2982 28.1251 86.9627 27.4895 86.5743 26.7479Z" fill="#A4A4A4"/>
<path d="M77.9587 29.9195C77.9587 28.56 77.9763 27.2005 77.9587 25.841C77.941 25.2583 78.2765 25.0641 78.7532 25.0111C79.2476 24.9582 79.689 25.0818 79.8302 25.6468C79.8655 25.8233 79.8655 26.0175 79.8655 26.2118C79.8655 28.7013 79.8655 31.1908 79.8655 33.6803C79.8655 34.5101 79.5654 34.8103 78.7709 34.7573C78.2588 34.722 77.9587 34.4924 77.9763 33.9275C77.9587 32.5856 77.9587 31.2614 77.9587 29.9195Z" fill="#A4A4A4"/>
<path d="M26.7026 25.0015C26.7026 24.3659 26.7026 23.7479 26.685 23.1123C26.6673 22.3002 26.3319 22 25.502 22C20.7349 22 15.9677 22 11.183 22C10.3002 22 10.0177 22.2825 10.0177 23.1653C10.0177 27.8618 10.0353 32.5407 10 37.2372C10 37.8022 10.1766 38.1906 10.6533 38.4731C12.8073 38.4731 14.9614 38.4731 17.133 38.4731C17.804 38.3672 18.4926 38.3672 19.1635 38.4731C21.4941 38.4731 23.8247 38.4731 26.1553 38.4731C26.685 38.0317 26.7909 37.449 26.7909 36.7958C26.7556 32.8585 26.7379 28.9212 26.7026 25.0015ZM23.5598 34.9419C23.0655 35.2067 22.5005 35.0655 22.2356 34.6064C21.9531 34.1121 21.706 33.6 21.4588 33.1057C20.5054 31.2165 19.5696 29.3449 18.6162 27.4734C18.5455 27.3498 18.4749 27.2262 18.3337 26.9967C17.4332 28.7446 16.5857 30.4043 15.7382 32.064C15.544 32.3464 15.4028 32.6643 15.2615 32.9821C14.9084 33.653 14.7495 34.4475 14.0962 34.9595C13.7961 35.1184 13.4959 35.1538 13.1957 34.9772C12.5954 34.7124 12.772 34.2886 12.9839 33.8825C14.0256 31.9227 15.0673 29.9629 16.0913 28.0031C16.3915 27.4381 16.6916 26.8554 17.0095 26.2904C17.4685 25.4429 17.9805 25.2311 18.934 25.5136C19.0929 25.6548 19.2518 25.7784 19.4283 25.902C20.5054 27.7206 21.4588 29.6098 22.4475 31.4813C22.8713 32.2758 23.295 33.0703 23.7188 33.8649C23.8953 34.2533 24.1072 34.6417 23.5598 34.9419Z" fill="#A4A4A4"/>
<path d="M100.876 29.9545C100.488 29.6896 100.064 29.5307 99.5872 29.3542C100.452 28.8774 100.982 28.1712 100.876 27.2178C100.735 26.1054 99.905 25.5758 98.9163 25.2579C98.7574 25.205 98.5985 25.1697 98.4396 25.1344C97.0977 24.8872 95.7382 25.0637 94.3964 25.0284C93.5489 24.9931 93.3193 25.2403 93.3193 26.1054C93.3193 28.5773 93.3193 31.0491 93.3193 33.521C93.3193 34.4038 93.5665 34.6686 94.4846 34.6686C95.5263 34.6863 96.5504 34.7039 97.5921 34.6686C98.9163 34.6157 100.205 34.4038 101.212 33.4327C102.271 32.3204 102.147 30.8373 100.876 29.9545ZM95.2262 27.6239C95.2262 26.282 95.2262 26.282 96.621 26.282C97.1507 26.282 97.6804 26.3173 98.1748 26.5115C98.5985 26.6704 98.881 26.9529 98.934 27.4296C98.9869 27.9064 98.8457 28.2948 98.4219 28.5596C97.4685 29.1423 96.4091 28.8951 95.4028 28.9304C95.2262 28.9304 95.2439 28.7715 95.2439 28.6479C95.2262 28.2948 95.2262 27.9593 95.2262 27.6239ZM98.7397 33.1149C97.6627 33.4327 96.5681 33.2915 95.4734 33.3091C95.2085 33.3091 95.2439 33.1325 95.2439 32.956C95.2439 32.5322 95.2439 32.1262 95.2439 31.7024C95.2439 30.1663 95.2438 30.1663 96.8152 30.1487C97.4685 30.1487 98.1218 30.1487 98.7574 30.3605C99.5343 30.6254 99.9933 31.1198 100.011 31.6847C100.011 32.2851 99.499 32.903 98.7397 33.1149Z" fill="#A4A4A4"/>
<path d="M76.0691 33.3629C74.8861 32.4448 73.7031 31.5266 72.3789 30.5026C73.0852 30.5026 73.6149 30.432 74.1445 30.3084C75.3981 30.0259 76.2633 29.1784 76.4045 28.0484C76.5458 26.8831 75.8748 26.1769 74.9391 25.6472C74.6742 25.4883 74.3741 25.3823 74.0739 25.2941C72.3789 24.7997 70.631 25.0822 68.9007 25.0645C68.371 25.0645 68.1591 25.4706 68.1768 25.9826C68.1768 28.5781 68.1768 31.1735 68.1945 33.7866C68.1945 34.4752 68.4769 34.7224 69.1655 34.7401C69.8365 34.7401 70.1013 34.4752 70.1013 33.769C70.1013 32.7979 70.1013 31.8091 70.1013 30.7145C71.0194 31.4207 71.7963 32.0563 72.6085 32.6743C73.456 33.3276 74.2858 33.9808 75.1686 34.5811C75.61 34.899 76.3515 34.793 76.5458 34.4399C76.8283 33.9102 76.4222 33.6454 76.0691 33.3629ZM71.5668 29.3196C71.09 29.302 70.4368 29.5668 70.1896 29.249C69.9424 28.9489 70.1013 28.3309 70.1013 27.8542C70.1013 26.3181 70.1013 26.3358 71.6197 26.3181C72.2377 26.3181 72.838 26.3358 73.4383 26.5476C74.1092 26.7948 74.5506 27.3598 74.4977 27.9778C74.4447 28.6487 74.0386 29.0725 73.2794 29.2314C73.1381 29.2667 72.9969 29.302 72.838 29.302C72.4142 29.3196 71.9905 29.3196 71.5668 29.3196Z" fill="#A4A4A4"/>
</svg>
