<svg width="146" height="60" viewBox="0 0 146 60" fill="none" xmlns="http://www.w3.org/2000/svg">
<path d="M21.4282 36.0653C20.2085 36.0653 19.1097 35.8125 18.1317 35.3071C17.1537 34.7906 16.3845 34.0764 15.8241 33.1643C15.2747 32.2413 15 31.1974 15 30.0326C15 28.8679 15.2747 27.8295 15.8241 26.9174C16.3845 25.9944 17.1537 25.2801 18.1317 24.7747C19.1097 24.2582 20.2085 24 21.4282 24C22.549 24 23.549 24.1978 24.428 24.5934C25.3071 24.989 26.0324 25.5604 26.6037 26.3076L24.1478 28.4997C23.4336 27.5987 22.593 27.1482 21.626 27.1482C20.8129 27.1482 20.1591 27.4119 19.6646 27.9393C19.1701 28.4558 18.9229 29.1536 18.9229 30.0326C18.9229 30.9117 19.1701 31.615 19.6646 32.1424C20.1591 32.6589 20.8129 32.9171 21.626 32.9171C22.593 32.9171 23.4336 32.4666 24.1478 31.5655L26.6037 33.7577C26.0324 34.5049 25.3071 35.0763 24.428 35.4719C23.549 35.8675 22.549 36.0653 21.4282 36.0653Z" fill="#A4A4A4"/>
<path d="M30.1993 24.2637H34.0892V35.8015H30.1993V24.2637Z" fill="#A4A4A4"/>
<path d="M49.8071 24.2637V35.8015H46.6095L42.2251 30.5601V35.8015H38.4341V24.2637H41.6318L46.0161 29.5052V24.2637H49.8071Z" fill="#A4A4A4"/>
<path d="M63.7466 32.8676V35.8015H54.1538V24.2637H63.5324V27.1976H57.9777V28.5492H62.8566V31.3512H57.9777V32.8676H63.7466Z" fill="#A4A4A4"/>
<path d="M78.0181 35.8015L77.9851 30.5436L75.4798 34.7631H73.7656L71.2603 30.7249V35.8015H67.7165V24.2637H70.9141L74.6721 30.4117L78.3313 24.2637H81.5289L81.5619 35.8015H78.0181Z" fill="#A4A4A4"/>
<path d="M118.803 24.2637H124.489C125.775 24.2637 126.907 24.5 127.885 24.9725C128.874 25.434 129.637 26.0988 130.176 26.9669C130.725 27.835 131 28.8569 131 30.0326C131 31.2084 130.725 32.2303 130.176 33.0984C129.637 33.9665 128.874 34.6368 127.885 35.1093C126.907 35.5708 125.775 35.8015 124.489 35.8015H118.803V24.2637ZM124.325 32.7687C125.16 32.7687 125.824 32.5325 126.319 32.06C126.824 31.5765 127.077 30.9007 127.077 30.0326C127.077 29.1645 126.824 28.4943 126.319 28.0218C125.824 27.5383 125.16 27.2965 124.325 27.2965H122.693V32.7687H124.325Z" fill="#A4A4A4"/>
<path d="M102.311 33.4073L102.312 33.4096C102.922 34.4019 103.765 35.1774 104.831 35.7338C105.899 36.2916 107.095 36.5653 108.408 36.5653C109.721 36.5653 110.917 36.2916 111.986 35.7338C113.051 35.1774 113.894 34.4019 114.504 33.4096L114.505 33.4073C115.117 32.4007 115.419 31.2714 115.419 30.0326C115.419 28.7944 115.117 27.6699 114.505 26.6732C113.895 25.6701 113.052 24.8885 111.986 24.3315C110.917 23.7737 109.721 23.5 108.408 23.5C107.095 23.5 105.899 23.7737 104.831 24.3315C103.764 24.8885 102.921 25.6702 102.311 26.6733C101.699 27.6699 101.397 28.7944 101.397 30.0326C101.397 31.2714 101.7 32.4007 102.311 33.4073L102.311 33.4073ZM110.207 28.7486L110.207 28.7487L110.209 28.7533C110.394 29.0959 110.496 29.5168 110.496 30.0326C110.496 30.5469 110.395 30.9748 110.208 31.3307C110.018 31.6836 109.766 31.9505 109.451 32.1432C109.151 32.3231 108.808 32.4171 108.408 32.4171C108.011 32.4171 107.662 32.3241 107.349 32.1432C107.046 31.9515 106.799 31.685 106.608 31.3308C106.422 30.9749 106.32 30.547 106.32 30.0326C106.32 29.5168 106.422 29.0959 106.607 28.7533L106.607 28.7533L106.609 28.7486C106.802 28.3814 107.049 28.1182 107.347 27.9395L107.347 27.9396L107.35 27.9374C107.664 27.7458 108.012 27.6482 108.408 27.6482C108.804 27.6482 109.144 27.7457 109.444 27.9341L109.451 27.9385L109.458 27.9427C109.766 28.1222 110.016 28.3849 110.207 28.7486Z" stroke="#A4A4A4"/>
<path d="M85.8661 33.4073L85.8675 33.4096C86.4772 34.4019 87.3206 35.1774 88.3861 35.7338C89.4543 36.2916 90.6505 36.5653 91.9635 36.5653C93.2766 36.5653 94.4728 36.2916 95.5409 35.7338C96.6064 35.1774 97.4498 34.4019 98.0595 33.4096L98.0609 33.4073C98.6721 32.4007 98.9741 31.2714 98.9741 30.0326C98.9741 28.7944 98.6723 27.6699 98.0602 26.6732C97.4509 25.6701 96.6075 24.8885 95.5409 24.3315C94.4728 23.7737 93.2766 23.5 91.9635 23.5C90.6505 23.5 89.4543 23.7737 88.3861 24.3315C87.3195 24.8885 86.4761 25.6702 85.8668 26.6733C85.2547 27.6699 84.9529 28.7944 84.9529 30.0326C84.9529 31.2714 85.2549 32.4007 85.8661 33.4073L85.8661 33.4073ZM93.7624 28.7486L93.7624 28.7487L93.7649 28.7533C93.9494 29.0959 94.0513 29.5168 94.0513 30.0326C94.0513 30.5469 93.95 30.9748 93.7637 31.3307C93.5732 31.6836 93.3213 31.9505 93.0067 32.1432C92.7062 32.3231 92.3629 32.4171 91.9635 32.4171C91.5664 32.4171 91.217 32.3241 90.904 32.1432C90.6016 31.9515 90.3545 31.685 90.1634 31.3308C89.977 30.9748 89.8757 30.5469 89.8757 30.0326C89.8757 29.5168 89.9776 29.0959 90.1621 28.7533L90.1621 28.7533L90.1646 28.7486C90.3574 28.3814 90.6044 28.1182 90.9021 27.9395L90.9022 27.9396L90.9056 27.9374C91.2192 27.7458 91.5679 27.6482 91.9635 27.6482C92.3592 27.6482 92.6999 27.7457 92.9995 27.9341L93.0065 27.9385L93.0137 27.9427C93.3214 28.1222 93.5715 28.3849 93.7624 28.7486Z" stroke="#A4A4A4"/>
</svg>
