<svg width="146" height="60" viewBox="0 0 146 60" fill="none" xmlns="http://www.w3.org/2000/svg">
<path d="M17.416 35.5357V24.1872H15V35.5357H17.416Z" fill="#A4A4A4"/>
<path d="M29.8265 35.5357V24.1872H27.4105V31.3162L22.1531 24.1872H19.669V35.5357H22.085V28.1345L27.4956 35.5357H29.8265Z" fill="#A4A4A4"/>
<path d="M37.5598 35.7569C39.6186 35.7569 41.2349 34.9062 42.3919 33.6131V29.2574H36.9813V31.3672H39.9759V32.7284C39.5165 33.1537 38.5637 33.5961 37.5598 33.5961C35.5011 33.5961 34.0038 32.0138 34.0038 29.87C34.0038 27.7261 35.5011 26.1438 37.5598 26.1438C38.7679 26.1438 39.7377 26.8244 40.2481 27.6241L42.2558 26.5351C41.4051 25.191 39.9248 24 37.5598 24C34.242 24 31.5197 26.2799 31.5197 29.87C31.5197 33.443 34.242 35.7569 37.5598 35.7569Z" fill="#A4A4A4"/>
<path d="M49.6864 35.7399C53.1233 35.7399 55.6244 33.2898 55.6244 29.87C55.6244 26.4501 53.1233 24 49.6864 24C46.2665 24 43.7654 26.4501 43.7654 29.87C43.7654 33.2898 46.2665 35.7399 49.6864 35.7399ZM49.6864 33.5961C47.5937 33.5961 46.2495 31.9797 46.2495 29.87C46.2495 27.7432 47.5937 26.1438 49.6864 26.1438C51.7792 26.1438 53.1403 27.7432 53.1403 29.87C53.1403 31.9797 51.7792 33.5961 49.6864 33.5961Z" fill="#A4A4A4"/>
<path d="M61.3523 35.7399C64.4149 35.7399 65.8951 34.1746 65.8951 32.0988C65.8951 27.8623 59.3786 29.0703 59.3786 27.2668C59.3786 26.5862 59.9571 26.1268 60.995 26.1268C62.152 26.1268 63.377 26.5181 64.2958 27.3688L65.6399 25.5993C64.517 24.5615 63.0197 24.017 61.2162 24.017C58.5449 24.017 56.9115 25.5823 56.9115 27.4709C56.9115 31.7415 63.445 30.3634 63.445 32.3711C63.445 33.0176 62.7985 33.6301 61.4714 33.6301C59.9061 33.6301 58.664 32.9325 57.8643 32.0988L56.5542 33.9364C57.6091 35.0083 59.1744 35.7399 61.3523 35.7399Z" fill="#A4A4A4"/>
<path d="M71.5542 35.7399C74.6168 35.7399 76.0971 34.1746 76.0971 32.0988C76.0971 27.8623 69.5806 29.0703 69.5806 27.2668C69.5806 26.5862 70.1591 26.1268 71.1969 26.1268C72.3539 26.1268 73.579 26.5181 74.4977 27.3688L75.8419 25.5993C74.7189 24.5615 73.2217 24.017 71.4181 24.017C68.7469 24.017 67.1135 25.5823 67.1135 27.4709C67.1135 31.7415 73.647 30.3634 73.647 32.3711C73.647 33.0176 73.0005 33.6301 71.6734 33.6301C70.108 33.6301 68.866 32.9325 68.0663 32.0988L66.7562 33.9364C67.8111 35.0083 69.3764 35.7399 71.5542 35.7399Z" fill="#A4A4A4"/>
<path d="M82.5611 35.5357V26.314H85.8619V24.1872H76.8102V26.314H80.128V35.5357H82.5611Z" fill="#A4A4A4"/>
<path d="M96.5984 35.5357L94.0463 31.2141C95.2713 30.9248 96.5304 29.8529 96.5304 27.8452C96.5304 25.7355 95.0842 24.1872 92.7192 24.1872H87.4107V35.5357H89.8267V31.5033H91.5962L93.8251 35.5357H96.5984ZM92.3619 29.3765H89.8267V26.314H92.3619C93.3317 26.314 94.0633 26.8924 94.0633 27.8452C94.0633 28.798 93.3317 29.3765 92.3619 29.3765Z" fill="#A4A4A4"/>
<path d="M108.927 35.5357L104.554 24.1872H101.525L97.1357 35.5357H99.8921L100.607 33.6131H105.473L106.17 35.5357H108.927ZM104.809 31.4863H101.27L103.04 26.6032L104.809 31.4863Z" fill="#A4A4A4"/>
<path d="M119.69 35.5357L114.875 29.5127L119.384 24.1872H116.406L112.391 29.2574V24.1872H109.975V35.5357H112.391V32.0478L113.275 30.9929L116.712 35.5357H119.69Z" fill="#A4A4A4"/>
<path d="M131 35.5357V24.1872H128.567V28.6449H123.207V24.1872H120.791V35.5357H123.207V30.7717H128.567V35.5357H131Z" fill="#A4A4A4"/>
</svg>
