<svg width="146" height="60" viewBox="0 0 146 60" fill="none" xmlns="http://www.w3.org/2000/svg">
<path fill-rule="evenodd" clip-rule="evenodd" d="M58.9924 31.1224C59.0381 30.7326 59.0616 30.336 59.0616 29.934C59.0616 26.5515 57.399 23.5586 54.8492 21.7335L58.9924 31.1224ZM47.4026 20C42.6369 20.7807 39 24.9307 39 29.934C39 31.9576 39.595 33.8416 40.6191 35.4195L47.4026 20ZM45.1322 39.2112L46.1195 36.7604H55.2719L55.5901 37.5498C53.8316 39.0764 51.5389 40 49.0313 40C47.6484 40 46.3309 39.7192 45.1322 39.2112ZM50.6957 25.28L47.9129 32.2304H53.4786L50.6957 25.28Z" fill="#A4A4A4"/>
<path fill-rule="evenodd" clip-rule="evenodd" d="M65.8867 31.0057L66.4956 29.1855H69.2703L69.8833 31.0057H71.3103L68.7081 23.624H67.0579L64.4597 31.006H65.8867V31.0057ZM66.8559 28.1113L67.8546 25.1376H67.9124L68.9101 28.1113H66.8559ZM73.0245 23.624H71.7203V31.006H73.0245V23.624ZM73.9166 31.006H75.1984V30.1337H75.2745C75.4795 30.5374 75.9088 31.1033 76.8598 31.1033C78.1649 31.1033 79.1413 30.0688 79.1413 28.245C79.1413 26.3995 78.1355 25.3975 76.8567 25.3975C75.8804 25.3975 75.4724 25.985 75.2745 26.3851H75.2207V23.624H73.9166V31.006ZM75.1953 28.2378C75.1953 27.1636 75.6561 26.468 76.4964 26.468C77.3642 26.468 77.8118 27.2069 77.8118 28.2378C77.8118 29.2759 77.3571 30.0328 76.4964 30.0328C75.6642 30.0325 75.1953 29.3116 75.1953 28.2375V28.2378ZM81.3416 31.1177C82.2103 31.1177 82.7289 30.7105 82.9664 30.2454H83.0101V31.006H84.2645V27.3006C84.2645 25.8372 83.071 25.3975 82.0155 25.3975C80.8514 25.3975 79.9583 25.9165 79.67 26.9257L80.8879 27.0987C81.0178 26.7203 81.3852 26.3959 82.0226 26.3959C82.6285 26.3959 82.9593 26.7059 82.9593 27.2502V27.2718C82.9593 27.6467 82.5666 27.6646 81.5902 27.7691C80.5165 27.8845 79.4894 28.2055 79.4894 29.4524C79.4894 30.5408 80.2861 31.1174 81.3416 31.1174V31.1177ZM81.6806 30.159C81.1366 30.159 80.7468 29.9102 80.7468 29.4309C80.7468 28.9298 81.1833 28.7205 81.7668 28.6378C82.1088 28.5911 82.7939 28.5045 82.9634 28.3676V29.0199C82.9634 29.636 82.4661 30.1587 81.6806 30.1587V30.159ZM87.838 25.4695H86.7459V24.143H85.4408V25.4695H84.6552V26.4788H85.4408V29.557C85.4337 30.5987 86.1908 31.1105 87.1712 31.0817C87.432 31.0767 87.6906 31.033 87.9384 30.9519L87.7182 29.9318C87.5935 29.9639 87.4654 29.981 87.3366 29.9826C87.0088 29.9826 86.7459 29.8672 86.7459 29.341V26.4789H87.838V25.4696V25.4695ZM88.4236 31.006H89.7277V27.7512C89.7277 27.0483 90.2575 26.5509 90.974 26.5509C91.1783 26.5512 91.3818 26.5767 91.5799 26.6266V25.426C91.4247 25.4023 91.268 25.3902 91.111 25.39C90.8045 25.3816 90.504 25.4756 90.2568 25.657C90.0096 25.8385 89.8299 26.0971 89.746 26.392H89.6881V25.4692H88.4236V31.0057V31.006ZM94.379 31.1141C96.0008 31.1141 97.0309 29.9715 97.0309 28.2594C97.0309 26.5442 96.0008 25.3974 94.379 25.3974C92.7572 25.3974 91.7271 26.5436 91.7271 28.2594C91.7271 29.9712 92.7572 31.114 94.379 31.114V31.1141ZM94.3861 30.0687C93.4889 30.0687 93.0495 29.2686 93.0495 28.2557C93.0495 27.2429 93.4889 26.4318 94.3861 26.4318C95.2691 26.4318 95.7085 27.2429 95.7085 28.2557C95.7085 29.2686 95.2691 30.0686 94.3861 30.0686V30.0687ZM102.003 26.9327C101.823 25.9955 101.073 25.3973 99.7762 25.3973C98.4427 25.3973 97.5343 26.0533 97.5384 27.0769C97.5343 27.8844 98.0316 28.4178 99.0952 28.6376L100.039 28.8359C100.548 28.9476 100.785 29.1531 100.785 29.4667C100.785 29.8452 100.374 30.1299 99.7549 30.1299C99.1561 30.1299 98.7674 29.8704 98.6558 29.3729L97.3831 29.4955C97.5455 30.512 98.4 31.1139 99.758 31.1139C101.141 31.1139 102.119 30.3967 102.122 29.348C102.119 28.5586 101.61 28.0756 100.565 27.8484L99.621 27.6467C99.0587 27.5205 98.8354 27.3259 98.8395 27.0051C98.8354 26.6302 99.2495 26.3707 99.7945 26.3707C100.396 26.3707 100.713 26.6987 100.813 27.0627L102.003 26.9327ZM107.068 26.9327C106.888 25.9955 106.139 25.3973 104.842 25.3973C103.508 25.3973 102.6 26.0533 102.604 27.0769C102.6 27.8844 103.097 28.4178 104.161 28.6376L105.104 28.8359C105.612 28.9476 105.85 29.1531 105.85 29.4667C105.85 29.8452 105.439 30.1299 104.819 30.1299C104.222 30.1299 103.833 29.8704 103.72 29.3729L102.448 29.4955C102.611 30.512 103.464 31.1139 104.823 31.1139C106.207 31.1139 107.184 30.3967 107.187 29.348C107.184 28.5586 106.676 28.0756 105.63 27.8484L104.686 27.6467C104.124 27.5205 103.901 27.3259 103.905 27.0051C103.901 26.6302 104.315 26.3707 104.859 26.3707C105.461 26.3707 105.778 26.6987 105.879 27.0627L107.068 26.9327ZM65.1742 32.9969H64.617V36.6918H65.1742V32.9968V32.9969ZM66.3545 35.0464C66.3545 34.6044 66.6245 34.3518 67 34.3518C67.3664 34.3518 67.5876 34.5919 67.5876 34.9942V36.6918H68.1276V34.9291C68.1276 34.2435 67.75 33.8845 67.1837 33.8845C66.7676 33.8845 66.4946 34.0773 66.3667 34.3716H66.3322V33.9206H65.8146V36.6913H66.3545V35.0463V35.0464ZM70.0122 33.9207H69.4449V33.2568H68.905V33.9207H68.499V34.3537H68.905V35.99C68.903 36.4934 69.2876 36.737 69.7128 36.7279C69.832 36.729 69.9504 36.7094 70.063 36.6702L69.9656 36.2245C69.9036 36.2392 69.8403 36.2471 69.7768 36.248C69.6012 36.248 69.4449 36.1902 69.4449 35.8781V34.3536H70.0122V33.9206V33.9207ZM71.6452 36.7477C72.2491 36.7477 72.6764 36.45 72.7992 35.999L72.2887 35.9071C72.1912 36.1686 71.9568 36.3022 71.6503 36.3022C71.1885 36.3022 70.8779 36.0027 70.8637 35.4686H72.8337V35.2774C72.8337 34.2761 72.2349 33.8846 71.6066 33.8846C70.8353 33.8846 70.3269 34.4732 70.3269 35.3243C70.3269 36.1847 70.8282 36.7476 71.6452 36.7476V36.7477ZM70.8658 35.0645C70.8683 34.8687 70.948 34.6818 71.0874 34.5444C71.2269 34.4068 71.4149 34.3299 71.6107 34.3302C72.0288 34.3302 72.3029 34.6406 72.3049 35.0645H70.8658ZM73.3046 36.6918H73.8445V34.9994C73.8445 34.6368 74.1236 34.3752 74.5062 34.3752C74.6008 34.3756 74.6951 34.3864 74.7873 34.4077V33.8917C74.7111 33.8835 74.6346 33.8793 74.558 33.8791C74.4048 33.8743 74.2541 33.9185 74.1277 34.005C74.0012 34.0917 73.9056 34.2162 73.8547 34.3608H73.8262V33.9206H73.3046V36.6913V36.6918ZM75.6673 35.0464C75.6673 34.6044 75.9382 34.3518 76.3127 34.3518C76.6791 34.3518 76.9014 34.5919 76.9014 34.9942V36.6918H77.4403V34.9291C77.4403 34.2435 77.0638 33.8845 76.4975 33.8845C76.0803 33.8845 75.8083 34.0773 75.6805 34.3716H75.646V33.9206H75.1284V36.6913H75.6673V35.0463V35.0464ZM79.2265 36.7477C79.8304 36.7477 80.2587 36.45 80.3805 35.999L79.871 35.9071C79.7736 36.1686 79.5391 36.3022 79.2316 36.3022C78.7708 36.3022 78.4603 36.0027 78.4461 35.4686H80.415V35.2774C80.415 34.2761 79.8162 33.8846 79.189 33.8846C78.4166 33.8846 77.9082 34.4732 77.9082 35.3243C77.9082 36.1847 78.4095 36.7476 79.2265 36.7476V36.7477ZM78.4471 35.0645C78.4499 34.8688 78.5297 34.6821 78.6691 34.5447C78.8085 34.4073 78.9963 34.3303 79.192 34.3302C79.6112 34.3302 79.8852 34.6406 79.8872 35.0645H78.4471ZM82.1799 33.9207H81.6115V33.2568H81.0726V33.9207H80.6667V34.3537H81.0726V35.99C81.0706 36.4934 81.4552 36.737 81.8805 36.7279C81.9996 36.729 82.1182 36.7094 82.2306 36.6702L82.1332 36.2245C82.071 36.2392 82.0074 36.2471 81.9434 36.248C81.7689 36.248 81.6115 36.1902 81.6115 35.8781V34.3536H82.1799V33.9206V33.9207ZM86.408 34.1643H86.9794C86.8545 33.4444 86.2395 32.9464 85.4428 32.9464C84.4868 32.9464 83.7885 33.6662 83.7885 34.8461C83.7885 36.0152 84.4665 36.7422 85.4682 36.7422C86.3643 36.7422 87.0047 36.1541 87.0047 35.2214V34.801H85.5524V35.2611H86.4658C86.4526 35.8564 86.0599 36.2335 85.4682 36.2335C84.8166 36.2335 84.3426 35.7409 84.3426 34.8424C84.3426 33.9476 84.8207 33.4551 85.4458 33.4551C85.663 33.4457 85.877 33.511 86.0519 33.64C86.2269 33.769 86.3526 33.9539 86.408 34.1642V34.1643ZM87.5386 36.6914H88.0785V34.9994C88.0785 34.6368 88.3576 34.3752 88.7402 34.3752C88.8348 34.3756 88.9291 34.3864 89.0213 34.4077V33.8917C88.9451 33.8835 88.8686 33.8793 88.792 33.8791C88.6387 33.8742 88.488 33.9183 88.3616 34.0048C88.2351 34.0915 88.1395 34.2161 88.0886 34.3608H88.0602V33.9206H87.5386V36.6913V36.6914ZM90.428 36.7473C91.2085 36.7473 91.7189 36.1754 91.7189 35.3184C91.7189 34.4558 91.2085 33.8842 90.428 33.8842C89.6475 33.8842 89.137 34.4561 89.137 35.3184C89.137 36.1757 89.6465 36.7476 90.428 36.7476V36.7473ZM90.43 36.2945C89.9195 36.2945 89.681 35.8489 89.681 35.3167C89.681 34.7862 89.9195 34.3352 90.43 34.3352C90.9365 34.3352 91.175 34.7862 91.175 35.3167C91.175 35.8492 90.9365 36.2948 90.43 36.2948V36.2945ZM93.9456 35.5422C93.9514 35.6312 93.9388 35.7204 93.9087 35.8044C93.8787 35.8883 93.8317 35.9652 93.7707 36.0303C93.7098 36.0954 93.6361 36.1473 93.5543 36.1828C93.4725 36.2183 93.3843 36.2367 93.2951 36.2368C92.9612 36.2368 92.7298 35.9951 92.7298 35.6177V33.9206H92.1909V35.6832C92.1909 36.3706 92.5674 36.7278 93.1002 36.7278C93.2742 36.7359 93.4465 36.691 93.5943 36.5988C93.7419 36.5066 93.8582 36.3717 93.9274 36.2118H93.9568V36.6917H94.4866V33.921H93.9456V35.5429V35.5422ZM95.0813 37.7311H95.6202V36.2606H95.6527C95.7235 36.4114 95.8372 36.5378 95.9797 36.6242C96.1222 36.7106 96.287 36.7528 96.4535 36.7458C97.1243 36.7458 97.6115 36.2079 97.6115 35.3115C97.6115 34.4131 97.1172 33.8845 96.4484 33.8845C96.2824 33.8767 96.1179 33.9187 95.9762 34.0051C95.8344 34.0917 95.7217 34.2187 95.6527 34.3698H95.608V33.9206H95.0813V37.7311ZM95.6091 35.3064C95.6091 34.7273 95.8618 34.343 96.3327 34.343C96.8219 34.343 97.0665 34.7562 97.0665 35.3064C97.0665 35.8621 96.8137 36.2861 96.3327 36.2861C95.8689 36.2858 95.6091 35.8889 95.6091 35.3061V35.3064Z" fill="#A4A4A4"/>
</svg>
