<svg width="147" height="60" viewBox="0 0 147 60" fill="none" xmlns="http://www.w3.org/2000/svg">
<path fill-rule="evenodd" clip-rule="evenodd" d="M40.8463 31.1041C41.2032 31.5936 41.5253 32.0831 41.8189 32.5694C41.5013 32.89 41.2059 33.2318 40.9347 33.5926L40.8084 33.7694L40.5716 34.1041C40.2747 33.5705 39.94 33.021 39.5642 32.4557C39.9545 31.9724 40.3833 31.5215 40.8463 31.1073V31.1041ZM42.6274 34.041C42.9432 34.6726 43.2053 35.2599 43.4295 35.8283L43.3411 35.9452L43.24 36.0936C42.8414 36.656 42.4887 37.2495 42.1853 37.8683C42.0289 37.3573 41.8466 36.8545 41.6389 36.362C41.5484 36.1368 41.4537 35.9115 41.3547 35.6862C41.5 35.4526 41.6705 35.2189 41.8347 34.9789C42.0739 34.6429 42.3389 34.3262 42.6274 34.0315V34.041ZM38.6011 37.821C38.3221 37.0473 37.981 36.2975 37.5811 35.5789C37.8876 34.9546 38.2314 34.3493 38.6105 33.7662C38.9875 34.3495 39.3291 34.9548 39.6337 35.5789C39.2304 36.2928 38.8861 37.0384 38.6042 37.8083L38.6011 37.821ZM36.6495 34.0978L36.3684 33.7062L36.2421 33.5326C35.9896 33.19 35.7154 32.8641 35.4211 32.5568C35.7179 32.0705 36.0442 31.5831 36.4 31.0947C36.8571 31.5113 37.2795 31.9643 37.6632 32.4494C37.2811 33.0147 36.9463 33.561 36.6463 34.0978H36.6495ZM35.5347 36.4283C35.3232 36.9336 35.1526 37.4105 35.0137 37.8557C34.7061 37.2184 34.3459 36.6079 33.9368 36.0305L33.8421 35.8947L33.7884 35.822C34.0158 35.2536 34.2842 34.6536 34.6 34.0315C34.8714 34.3114 35.1216 34.6112 35.3484 34.9283C35.5358 35.1852 35.7074 35.4378 35.8632 35.6862C35.7495 35.9389 35.6442 36.1905 35.5474 36.441L35.5347 36.4283ZM38.6232 28.5683C39.0443 28.9688 39.4448 29.3904 39.8232 29.8315C39.3897 30.2407 38.9866 30.6808 38.6168 31.1483C38.2503 30.68 37.8503 30.2389 37.42 29.8283C37.8116 29.3841 38.2126 28.9694 38.6232 28.5841V28.5683ZM52.1579 23.6262V22.1483C49.9189 22.1483 43.4958 22.5526 38.62 26.3926C33.7347 22.4831 27.2389 22.0947 25 22.082V23.5631C27.0242 23.5062 32.5568 23.7336 37.3758 27.4947C36.9604 27.9031 36.5692 28.3354 36.2042 28.7894C34.9615 27.873 33.5738 27.1717 32.0989 26.7147C29.8016 25.9926 27.4081 25.6231 25 25.6189L25 27.1631C25.2558 27.1631 25.5653 27.1631 25.9189 27.1883C27.7411 27.2831 31.6979 27.741 34.6221 29.7305C34.8147 29.8599 35.0105 29.9957 35.2063 30.1347C34.8695 30.6189 34.5589 31.0926 34.2747 31.5557C33.2307 30.7745 32.0411 30.2098 30.7758 29.8947C28.8918 29.3929 26.9496 29.1434 25 29.1526L25 30.7852L25.3695 30.8041C26.5853 30.8673 30.4947 31.142 32.6326 32.5315C32.8884 32.6957 33.1568 32.8473 33.4347 33.0431C33.1474 33.5831 32.8979 34.101 32.6737 34.5936C31.7666 33.8051 30.6617 33.2789 29.4779 33.0715C28.0019 32.7936 26.5018 32.6645 25 32.6862L25 34.4199C25.9758 34.4578 29.3832 34.5968 30.6211 35.3262C31.1241 35.5433 31.594 35.8304 32.0168 36.1789C31.7771 36.837 31.5726 37.5074 31.4042 38.1873C31.0539 37.6319 30.5772 37.1673 30.013 36.8314C29.4488 36.4955 28.8131 36.2979 28.1579 36.2547C27.3084 36.2105 25.8747 36.2105 25 36.2105V38.0041C26.1368 38.0041 28.2305 37.982 28.6221 38.1178C28.9189 38.2189 29.5095 38.0862 30.2895 39.3083C30.6331 39.8456 30.874 40.4421 31 41.0673C31.0284 41.1999 31.0411 42.0936 31.0474 43.0631V45.6652H32.6263C32.6263 45.2641 32.6895 41.5599 32.6263 40.9283C32.6263 40.8841 32.6042 40.8431 32.5916 40.802V40.0662C32.7195 39.2391 32.9105 38.4231 33.1632 37.6252C33.507 38.211 33.7885 38.8312 34.0032 39.4757C34.3189 40.2178 34.4295 41.4115 34.4516 42.261C34.4516 43.4736 34.4516 45.1978 34.4516 45.6683H36.0305C36.0305 45.3526 36.0305 43.4578 36.0305 42.6999C36.0305 42.3241 36.0305 41.8283 35.9895 41.301C35.9895 41.1115 35.9895 40.9852 35.9895 40.941C36.1033 39.7401 36.3784 38.56 36.8074 37.4326C36.8737 37.5841 36.94 37.7483 36.9968 37.8778C37.479 39.0097 37.7652 40.2153 37.8432 41.4431C37.8432 41.6357 37.8432 41.7905 37.8432 41.901C37.8432 42.3968 37.8432 45.0778 37.8432 45.6683H39.4221C39.4221 45.2452 39.4221 42.3526 39.4221 41.8378C39.4221 41.7431 39.4221 41.6136 39.4221 41.462C39.5046 40.2505 39.7896 39.0614 40.2653 37.9441C40.3316 37.7799 40.4042 37.6126 40.48 37.4389C40.8957 38.5438 41.1623 39.6993 41.2726 40.8747C41.2726 40.922 41.2726 41.102 41.2726 41.3578C41.2316 41.8883 41.2284 42.3873 41.2316 42.7631C41.2316 43.4862 41.2316 45.2199 41.2316 45.6683H42.8105C42.8105 45.3336 42.8105 43.5841 42.8105 42.3115C42.8358 41.4652 42.94 40.2778 43.2589 39.5389C43.4782 38.8774 43.7695 38.242 44.1274 37.6441C44.3469 38.4163 44.5084 39.2037 44.6105 39.9999V40.862L44.5758 40.9883C44.5158 41.6199 44.5758 45.0241 44.5758 45.662H46.1547L46.1389 43.0599C46.1389 42.1126 46.1579 41.2599 46.1863 41.1305C46.3102 40.5046 46.549 39.9072 46.8905 39.3683C47.6705 38.1494 48.2611 38.2789 48.5611 38.1778C48.9526 38.042 51.0274 38.0515 52.1674 38.0641V36.2831C51.2926 36.2831 49.8716 36.2641 49.0095 36.3178C48.3617 36.3595 47.7328 36.5526 47.1734 36.8817C46.6139 37.2108 46.1395 37.6667 45.7884 38.2126C45.6313 37.5355 45.4384 36.8671 45.2105 36.2105C45.6256 35.8765 46.0833 35.5993 46.5716 35.3862C47.8063 34.6599 51.1884 34.521 52.18 34.4799V32.7526C50.6866 32.7311 49.1949 32.8602 47.7274 33.1378C46.5601 33.3406 45.4692 33.8545 44.5695 34.6252C44.3516 34.1326 44.1021 33.6147 43.8179 33.0778C44.0768 32.9041 44.3295 32.762 44.5695 32.5978C46.6979 31.2083 50.6074 30.9305 51.8326 30.8705L52.1579 30.842V29.2189C50.2158 29.2109 48.2812 29.4594 46.4042 29.9578C45.1603 30.2704 43.9897 30.824 42.9589 31.5873C42.6779 31.1262 42.3716 30.6399 42.0368 30.1631C42.2105 30.0368 42.3874 29.9168 42.5611 29.7999C45.4821 27.8105 49.4421 27.3494 51.2642 27.2578C51.6116 27.2389 51.9147 27.2326 52.1705 27.2294V25.6852C49.7721 25.6908 47.3883 26.0592 45.1 26.7778C43.6448 27.2252 42.2737 27.9102 41.0421 28.8052C40.6806 28.3491 40.2925 27.9147 39.88 27.5041C44.6705 23.8031 50.14 23.5789 52.1579 23.6262Z" fill="#A4A4A4"/>
<path d="M59.1716 22H61.0916V35.2632H67.4422V36.8737H59.1716V22Z" fill="#A4A4A4"/>
<path d="M74.1936 32.1905L72.6494 36.8674H70.6631L75.7157 22H78.0304L83.1052 36.8674H81.0526L79.4736 32.1905H74.1936ZM79.0662 30.6905L77.6105 26.4211C77.2947 25.4516 77.061 24.5674 76.8399 23.7084H76.7894C76.5683 24.5926 76.3283 25.4958 76.041 26.3989L74.5789 30.6905H79.0662Z" fill="#A4A4A4"/>
<path d="M87.498 36.8674V22H89.5949L94.357 29.5221C95.3513 31.0725 96.2427 32.6865 97.0254 34.3537L97.0696 34.3316C96.8928 32.3484 96.8486 30.5421 96.8486 28.2211V22H98.658V36.8674H96.7159L91.998 29.3232C90.9729 27.7268 90.0449 26.0701 89.2191 24.3621L89.1528 24.3842C89.2633 26.26 89.3075 28.0442 89.3075 30.5168V36.8674H87.498Z" fill="#A4A4A4"/>
<path d="M106.139 22V36.8674H104.222V22H106.139Z" fill="#A4A4A4"/>
<path d="M114.523 23.6326H110.001V22H121V23.6326H116.465V36.8674H114.523V23.6326Z" fill="#A4A4A4"/>
</svg>
