<svg width="146" height="60" viewBox="0 0 146 60" fill="none" xmlns="http://www.w3.org/2000/svg">
<path d="M79.3804 38.2114V39.8075H68.3818V21.063H70.3431V38.2114H79.3804Z" fill="#A4A4A4"/>
<path d="M43.1993 31.6988C42.4677 30.8687 41.5026 30.2787 40.4303 30.006C41.2533 29.6319 41.9674 29.0543 42.5052 28.3276C43.0043 27.6214 43.2645 26.774 43.2476 25.9093C43.2562 25.2169 43.116 24.5308 42.8365 23.8972C42.5709 23.3019 42.177 22.7725 41.683 22.3471C41.1526 21.9011 40.5384 21.5656 39.8765 21.3604C39.12 21.1179 38.3299 20.9963 37.5355 21.0001H30V39.9647H37.8427C38.725 39.976 39.6034 39.8461 40.4448 39.5801C41.1755 39.3501 41.8547 38.9805 42.4447 38.4919C42.9951 38.0295 43.4369 37.4515 43.7386 36.7991C44.0516 36.1073 44.2093 35.3553 44.2005 34.596C44.2304 33.5406 43.8744 32.5105 43.1993 31.6988ZM40.3408 36.8378C39.6653 37.4182 38.764 37.7084 37.6371 37.7084H32.7424V31.353V29.0991V23.2564H36.8947C37.9539 23.2564 38.8084 23.5256 39.4581 24.0641C39.7714 24.3179 40.0218 24.6408 40.1896 25.0075C40.3574 25.3742 40.4381 25.7747 40.4254 26.1777C40.437 26.5806 40.3558 26.9808 40.1881 27.3473C40.0204 27.7138 39.7706 28.0368 39.4581 28.2914C38.8132 28.8298 37.9636 29.0991 36.9092 29.0991H36.1281V31.3554H37.6637C38.7745 31.3554 39.6669 31.6456 40.3408 32.226C40.6735 32.5107 40.9376 32.867 41.113 33.2682C41.2885 33.6694 41.3709 34.1052 41.3541 34.5428C41.3676 34.9767 41.2836 35.4082 41.1082 35.8054C40.9329 36.2026 40.6706 36.5554 40.3408 36.8378Z" fill="#A4A4A4"/>
<path d="M57.9605 32.0978C59.0689 31.7222 60.0381 31.021 60.7416 30.0858C61.4273 29.1313 61.7823 27.9789 61.7525 26.8041C61.7636 25.9907 61.6063 25.1838 61.2906 24.4341C60.9895 23.734 60.5388 23.1084 59.9702 22.601C59.3727 22.0746 58.6752 21.6741 57.9194 21.4233C57.0617 21.1392 56.1627 21.0003 55.2593 21.0122H47.8108V39.9647H50.5556V32.5839V30.3276V23.2564H54.9376C56.1339 23.2564 57.0948 23.5788 57.8203 24.2237C58.1817 24.5462 58.4669 24.945 58.6551 25.3913C58.8433 25.8376 58.9299 26.3202 58.9085 26.8041C58.9281 27.2907 58.8368 27.7754 58.6416 28.2216C58.4464 28.6678 58.1523 29.0638 57.7816 29.3796C57.0287 30.0245 56.0291 30.3469 54.7828 30.3469H53.9413V32.5839H55.2181L59.9339 39.9647H63.1309L57.9605 32.0978Z" fill="#A4A4A4"/>
<path d="M91.8104 21.063H89.9507L81.5857 39.8075H83.6776L85.7597 35.0555L85.8202 34.9176L86.5433 33.2973L90.906 23.3918L95.2444 33.2973L95.9409 34.9176L98.0836 39.8075H100.175L91.8104 21.063Z" fill="#A4A4A4"/>
<path d="M114.939 31.6408C114.165 30.7995 113.144 30.2268 112.022 30.006C112.921 29.6781 113.712 29.1082 114.308 28.3591C114.861 27.622 115.149 26.7195 115.125 25.7981C115.133 25.1305 114.991 24.4696 114.712 23.8634C114.439 23.2854 114.042 22.7749 113.548 22.3689C113.013 21.9343 112.4 21.6059 111.742 21.4016C110.98 21.1661 110.186 21.0518 109.389 21.063H102.289V39.8075H109.853C110.707 39.8195 111.558 39.6913 112.371 39.4278C113.076 39.1974 113.733 38.8365 114.305 38.3638C114.841 37.9165 115.269 37.3545 115.558 36.7193C115.857 36.0502 116.007 35.324 115.998 34.5912C116.028 33.5096 115.65 32.4564 114.939 31.6408ZM112.762 37.2247C111.969 37.8841 110.928 38.2138 109.638 38.2138H104.243V32.48V27.6433V22.6591H108.864C110.138 22.6591 111.157 22.967 111.923 23.5829C112.293 23.871 112.59 24.2423 112.79 24.6667C112.989 25.0911 113.086 25.5566 113.072 26.0254C113.088 26.4904 112.995 26.9528 112.8 27.3753C112.605 27.7979 112.314 28.1688 111.95 28.4583C111.2 29.0661 110.206 29.37 108.968 29.37H107.628V30.9903H109.638C110.928 30.9903 111.969 31.32 112.762 31.9794C113.148 32.2934 113.456 32.6923 113.662 33.1449C113.868 33.5976 113.966 34.0917 113.95 34.5887C113.969 35.0887 113.873 35.5865 113.669 36.0432C113.465 36.5 113.158 36.9035 112.772 37.2223L112.762 37.2247Z" fill="#A4A4A4"/>
</svg>
