<svg width="146" height="60" viewBox="0 0 146 60" fill="none" xmlns="http://www.w3.org/2000/svg">
<path d="M36.9933 35.7554L32.9164 25.1745H30.0928L26 35.7554H28.5699L29.2361 33.9628H33.7731L34.4235 35.7554H36.9933ZM33.1544 31.9799H29.8548L31.5046 27.4271L33.1544 31.9799Z" fill="#9D9D9D"/>
<path d="M41.6594 35.7554V27.1574H44.7369V25.1745H36.2976V27.1574H39.3909V35.7554H41.6594Z" fill="#9D9D9D"/>
<path d="M50.8065 35.9458C54.0109 35.9458 56.3429 33.6614 56.3429 30.4729C56.3429 27.2843 54.0109 25 50.8065 25C47.618 25 45.2861 27.2843 45.2861 30.4729C45.2861 33.6614 47.618 35.9458 50.8065 35.9458ZM50.8065 33.947C48.8553 33.947 47.6021 32.4399 47.6021 30.4729C47.6021 28.49 48.8553 26.9988 50.8065 26.9988C52.7577 26.9988 54.0268 28.49 54.0268 30.4729C54.0268 32.4399 52.7577 33.947 50.8065 33.947Z" fill="#9D9D9D"/>
<path d="M69.47 35.7554V33.7725H64.235V31.3771H69.3589V29.3942H64.235V27.1574H69.47V25.1745H61.9824V35.7554H69.47Z" fill="#9D9D9D"/>
<path d="M77.0211 35.7554L81.098 25.1745H78.5281L75.6092 33.3124L72.6745 25.1745H70.1046L74.1974 35.7554H77.0211Z" fill="#9D9D9D"/>
<path d="M89.5626 35.7554V33.7725H84.3276V31.3771H89.4515V29.3942H84.3276V27.1574H89.5626V25.1745H82.075V35.7554H89.5626Z" fill="#9D9D9D"/>
<path d="M100.794 35.7554V25.1745H98.5414V31.8213L93.6396 25.1745H91.3235V35.7554H93.5761V28.8548L98.6207 35.7554H100.794Z" fill="#9D9D9D"/>
<path d="M107.592 35.7554V27.1574H110.669V25.1745H102.23V27.1574H105.323V35.7554H107.592Z" fill="#9D9D9D"/>
<path d="M115.764 35.9458C118.62 35.9458 120 34.4863 120 32.551C120 28.601 113.924 29.7273 113.924 28.0458C113.924 27.4112 114.464 26.9829 115.431 26.9829C116.51 26.9829 117.652 27.3478 118.509 28.141L119.762 26.4912C118.715 25.5235 117.319 25.0159 115.638 25.0159C113.147 25.0159 111.624 26.4753 111.624 28.2361C111.624 32.2179 117.716 30.9329 117.716 32.8048C117.716 33.4076 117.113 33.9787 115.876 33.9787C114.416 33.9787 113.258 33.3283 112.512 32.551L111.291 34.2642C112.275 35.2636 113.734 35.9458 115.764 35.9458Z" fill="#9D9D9D"/>
</svg>
