<svg width="146" height="60" viewBox="0 0 146 60" fill="none" xmlns="http://www.w3.org/2000/svg">
<path d="M73.9187 41.0089C72.7299 40.9297 71.3591 40.7213 70.2779 40.4082C70.0754 40.3495 69.2369 40.0413 69.0236 39.9434C65.2595 38.1998 62.6373 34.3937 62.6373 29.978C62.6373 23.9214 67.5647 18.9881 73.6252 18.9881C79.6318 18.9881 84.526 23.8373 84.6102 29.8253H88.5797C88.4956 21.6495 81.8216 15.0235 73.6252 15.0235C65.3799 15.0235 58.6687 21.7307 58.6687 29.978C58.6687 35.6637 61.8663 40.6088 66.5481 43.1351C67.3935 43.5822 68.6068 44.0431 69.0187 44.1693C70.3533 44.5666 71.9912 44.8307 73.4491 44.9413C73.9442 44.9785 75.6731 44.998 76.177 45H103.513V41.0461H76.223C75.86 41.0461 74.2739 41.0324 73.9187 41.0089ZM76.223 34.8007C75.9343 34.8007 74.4246 34.7909 74.1457 34.7675C73.6731 34.7273 72.9882 34.6569 72.5479 34.5561C72.0509 34.423 71.5842 34.2469 71.3738 34.1315C69.8993 33.334 68.8944 31.7744 68.8944 29.978C68.8944 27.3646 71.0108 25.2453 73.6252 25.2453C76.1848 25.2453 78.2659 27.2814 78.3491 29.8253H82.1631C82.0828 25.1777 78.2943 21.4323 73.6252 21.4323C68.9042 21.4323 65.0775 25.258 65.0775 29.978C65.0775 33.3066 66.9855 36.1813 69.7643 37.5893C70.1918 37.8398 70.9961 38.102 71.2251 38.1617C72.0098 38.3681 73.0636 38.509 73.9187 38.5716C74.2348 38.5981 75.7827 38.6098 76.1095 38.6118V38.6176H103.512V34.8007H76.223ZM56.2226 44.9853H52.2267V18.9969H46.3873V15H56.2226V44.9853ZM42 20.9939V24.8373H46.3873V44.9853H50.2267V20.9939H42Z" fill="#A4A4A4"/>
<path d="M96.4518 15.279C95.0125 15.279 93.8188 16.4267 93.8188 17.867C93.8188 19.3073 95.0125 20.501 96.4518 20.501C97.9352 20.501 99.0829 19.3073 99.0829 17.867C99.0829 16.4267 97.9352 15.279 96.4518 15.279ZM96.4518 20.0763C95.263 20.0763 94.2386 19.1419 94.2386 17.867C94.2386 16.6567 95.263 15.6988 96.4518 15.6988C97.6397 15.6988 98.6592 16.6567 98.6592 17.867C98.6592 19.1419 97.6397 20.0763 96.4518 20.0763Z" fill="#A4A4A4"/>
<path d="M97.4544 18.5763C97.4544 18.2857 97.4113 18.0156 97.0787 17.909C97.4955 17.7642 97.5366 17.4912 97.5366 17.3258C97.5366 16.6575 96.9299 16.5724 96.6804 16.5724H95.5327V19.1604H96.0112V18.0988H96.3879C96.9299 18.0988 96.9749 18.3483 96.9749 18.5763C96.9749 19.0175 96.9749 19.1007 97.0787 19.1604H97.5581C97.4544 19.0557 97.4955 18.9745 97.4544 18.5763ZM96.5757 17.7211H96.0112V16.9061H96.4945C96.8291 16.9061 97.0561 17.0117 97.0561 17.3258C97.0561 17.4912 96.9749 17.7211 96.5757 17.7211Z" fill="#A4A4A4"/>
</svg>
