<svg width="147" height="60" viewBox="0 0 147 60" fill="none" xmlns="http://www.w3.org/2000/svg">
<path d="M76.7826 39.3179C77.2188 38.0093 77.655 36.6135 78.1784 35.305C78.2657 34.956 78.3529 34.3454 78.9636 34.5198C79.5742 34.6943 79.2253 35.2177 79.0508 35.5667C78.4401 37.3114 77.9167 38.9689 77.3061 40.7137C77.2188 41.0626 77.1316 41.4116 76.6954 41.4116C76.2592 41.4116 76.172 40.9754 76.0848 40.7137C75.6486 39.3179 75.2124 38.0093 74.5145 36.6135C74.0783 37.9221 73.6421 39.2306 73.2059 40.5392C73.1187 40.8881 73.1187 41.4988 72.508 41.4116C71.9846 41.4116 71.9846 40.8881 71.8974 40.5392C71.2867 38.7944 70.6761 37.1369 70.1527 35.3922C70.0654 35.0433 69.8037 34.6071 70.3271 34.4326C70.8505 34.2581 70.9378 34.7816 71.025 35.1305C71.5484 36.5263 71.9846 37.8348 72.5953 39.5796C73.1187 38.0966 73.4677 36.9625 73.9038 35.7412C74.0783 35.2177 73.9911 34.4326 74.689 34.4326C75.3869 34.4326 75.2996 35.2177 75.4741 35.7412C75.9103 36.8752 76.2592 38.0966 76.6954 39.3179C76.6082 39.3179 76.6954 39.3179 76.7826 39.3179Z" fill="#A4A4A4"/>
<path d="M94.8405 37.8349C95.8001 36.8753 96.6724 35.9157 97.632 34.8689C97.8937 34.6072 98.2427 34.171 98.5916 34.5199C99.0278 34.8689 98.5916 35.2178 98.3299 35.4795C97.8065 36.0902 96.7597 36.6136 96.6724 37.3988C96.5852 38.2711 97.5448 38.969 97.981 39.6669C98.1555 39.9286 98.3299 40.2776 98.5044 40.5393C98.6789 40.801 98.7661 41.0627 98.5044 41.2372C98.1555 41.4989 97.8937 41.3244 97.7193 40.9755C97.2831 40.2776 96.8469 39.6669 96.4107 38.969C96.149 38.6201 96.0618 38.0094 95.6256 38.1839C95.1022 38.3584 94.666 38.7945 94.4915 39.4924C94.4043 39.8414 94.4915 40.2776 94.4915 40.6265C94.4915 40.9755 94.4915 41.3244 94.0553 41.3244C93.6191 41.3244 93.6191 40.9755 93.6191 40.6265C93.6191 39.5797 93.6191 38.5328 93.6191 37.486C93.6191 35.9157 93.6191 34.2582 93.6191 32.688C93.6191 32.339 93.6191 31.9028 94.0553 31.9028C94.5787 31.9028 94.4915 32.339 94.4915 32.688C94.4915 34.2582 94.4915 35.8285 94.4915 37.3988C94.5787 37.7477 94.666 37.8349 94.8405 37.8349Z" fill="#A4A4A4"/>
<path d="M50 37.9221C50 37.0498 50 36.0902 50 35.2178C50 34.6944 50.1745 34.171 50.8724 34.6944C51.2213 34.9561 51.3958 34.6944 51.5703 34.6071C53.8384 33.5603 56.1066 34.8689 56.1938 37.3987C56.1938 38.4456 56.1938 39.5796 56.1938 40.6265C56.1938 40.9754 56.2811 41.4116 55.7576 41.4116C55.2342 41.4116 55.2342 40.9754 55.2342 40.6265C55.2342 39.5796 55.2342 38.4456 55.2342 37.3987C55.2342 36.0029 54.3618 35.0433 53.1405 35.1306C51.832 35.1306 51.0468 36.0029 51.0468 37.486C51.0468 38.5328 51.0468 39.6669 51.0468 40.7137C51.0468 41.0627 51.0468 41.4989 50.5234 41.4116C50.0872 41.4116 50.0872 40.9754 50.0872 40.7137C50 39.8414 50 38.8817 50 37.9221Z" fill="#A4A4A4"/>
<path d="M66.4001 38.0094C66.4001 37.486 66.4001 36.8753 66.4001 36.3519C66.4001 35.9157 66.4874 35.4795 65.7895 35.3923C65.2661 35.3051 65.1788 34.6944 65.7022 34.6072C66.5746 34.3455 66.3129 33.8221 66.4001 33.2114C66.4001 32.8624 66.2257 32.2518 66.8363 32.1646C67.447 32.1646 67.3597 32.688 67.2725 33.1242C67.2725 33.9093 67.1853 34.6072 68.3193 34.5199C68.5811 34.5199 68.7555 34.6944 68.7555 34.9561C68.7555 35.2178 68.4938 35.3923 68.2321 35.3923C67.1853 35.2178 67.2725 35.9157 67.2725 36.6136C67.2725 37.6605 67.2725 38.6201 67.2725 39.6669C67.2725 40.2776 67.3597 40.801 68.1449 40.7138C68.4938 40.7138 68.7555 40.801 68.7555 41.2372C68.6683 41.5861 68.4066 41.5861 68.1449 41.5861C67.098 41.6734 66.4874 41.1499 66.4001 40.1031C66.4001 40.0159 66.4001 39.9286 66.4001 39.9286C66.4001 39.2307 66.4001 38.6201 66.4001 38.0094Z" fill="#A4A4A4"/>
<path d="M88.6455 38.0094C88.6455 37.0498 88.6455 36.1774 88.6455 35.2178C88.6455 34.6072 88.9072 34.171 89.5179 34.6944C89.8668 34.9561 89.9541 34.8689 90.2158 34.6944C90.3902 34.6072 90.652 34.4327 90.9137 34.4327C91.3499 34.3454 91.8733 34.0837 92.135 34.6072C92.3967 35.3051 91.6988 35.2178 91.2626 35.3051C90.2158 35.654 89.6923 36.2647 89.6923 37.3115C89.6923 38.4456 89.6923 39.4924 89.6923 40.6265C89.6923 40.9754 89.6923 41.4116 89.2562 41.4116C88.82 41.4116 88.7327 40.9754 88.7327 40.6265C88.6455 39.8414 88.6455 38.969 88.6455 38.0094Z" fill="#A4A4A4"/>
<path d="M59.2477 38.4456C59.9456 38.4456 60.7307 38.4456 61.4286 38.4456C62.1265 38.4456 62.9116 38.4456 63.6095 38.4456C64.0457 38.4456 64.3074 38.2711 64.3074 37.7477C64.3947 36.3519 63.3478 34.6944 61.952 34.3454C60.0328 33.822 58.2881 34.7816 57.7647 36.7008C57.154 38.7945 58.1136 41.0627 59.9456 41.5861C61.0797 41.935 62.1265 41.7606 63.0861 40.9754C63.435 40.7137 63.9585 40.3648 63.5223 39.9286C63.0861 39.4924 62.9116 40.0158 62.5627 40.2775C61.1669 41.3244 59.2477 40.801 58.7243 39.2307C58.637 38.7073 58.7243 38.4456 59.2477 38.4456ZM58.8987 36.5264C59.3349 35.5667 60.1201 35.1306 61.1669 35.2178C62.2137 35.305 62.8244 35.8285 63.2606 36.7008C63.5223 37.2242 63.4351 37.5732 62.7372 37.486C62.2137 37.486 61.6031 37.486 61.0797 37.486C60.5562 37.486 60.1201 37.486 59.5966 37.486C58.637 37.5732 58.5498 37.2242 58.8987 36.5264Z" fill="#A4A4A4"/>
<path d="M83.5858 34.2583C81.5794 34.2583 80.2708 35.7413 80.1836 38.0095C80.1836 40.2776 81.4921 41.8479 83.4986 41.8479C85.4178 41.8479 86.9008 40.2776 86.9008 38.0967C86.9881 35.8286 85.5923 34.2583 83.5858 34.2583ZM83.5858 40.8011C82.1028 40.8011 81.056 39.5797 81.1432 37.9222C81.1432 36.2647 82.19 35.1307 83.6731 35.2179C85.1561 35.2179 86.0285 36.352 86.0285 38.0967C85.9412 39.7542 84.9816 40.8011 83.5858 40.8011Z" fill="#A4A4A4"/>
<path d="M90.2822 23.5731C90.2822 22.6135 90.2822 21.6539 90.2822 20.6943C90.2822 20.0837 90.4567 19.9092 91.0674 19.9092C92.9866 19.9092 94.9058 19.9092 96.825 19.9092C97.4356 19.9092 97.6974 20.0837 97.6974 20.7815C97.6974 21.4794 97.5229 21.7412 96.825 21.6539C95.7781 21.5667 94.6441 21.6539 93.5972 21.6539C93.161 21.6539 92.8993 21.7412 92.8993 22.2646C92.8993 22.788 93.161 22.9625 93.5972 22.8752C94.1206 22.8752 94.5568 22.8752 95.0803 22.8752C95.6909 22.8752 95.8654 23.0497 95.8654 23.6604C95.8654 24.271 95.6037 24.3583 95.0803 24.3583C94.6441 24.3583 94.2079 24.3583 93.6845 24.3583C93.2483 24.3583 92.8993 24.3583 92.8993 24.9689C92.8993 25.5796 93.161 25.754 93.6845 25.754C94.7313 25.754 95.8654 25.754 96.9122 25.754C97.5229 25.754 97.7846 25.9285 97.7846 26.6264C97.7846 27.1498 97.6974 27.4988 96.9995 27.4988C95.0803 27.4988 93.0738 27.4988 91.1546 27.4988C90.6312 27.4988 90.3695 27.3243 90.4567 26.8009C90.2822 25.6668 90.2822 24.62 90.2822 23.5731Z" fill="#A4A4A4"/>
<path d="M43.3484 23.5732C43.3484 22.5264 43.3484 21.5668 43.3484 20.52C43.3484 19.9093 43.5229 19.6476 44.1335 19.6476C45.0059 19.7348 45.9655 19.6476 46.8379 19.4731C48.9316 19.2114 50.0656 20.2582 50.1529 22.3519C50.1529 23.835 50.1529 25.2307 50.1529 26.7138C50.1529 27.5861 49.6295 27.4989 49.0188 27.4989C48.4081 27.4989 47.972 27.4989 47.972 26.6265C48.0592 25.318 48.0592 23.9222 47.972 22.6136C47.972 21.5668 47.4485 21.2179 46.4017 21.3051C45.7038 21.3923 45.4421 21.654 45.4421 22.3519C45.4421 23.835 45.4421 25.2307 45.4421 26.7138C45.4421 27.5861 44.9187 27.4989 44.3953 27.4989C43.7846 27.4989 43.2612 27.4989 43.3484 26.7138C43.3484 25.7542 43.3484 24.6201 43.3484 23.5732Z" fill="#A4A4A4"/>
<path d="M83.2165 21.8285C82.2569 23.6605 81.4718 25.1435 80.6866 26.7138C80.4249 27.3244 78.4185 27.7606 77.8951 27.4117C77.6333 27.2372 77.8078 27.0627 77.8951 26.8882C79.1164 24.7073 80.3377 22.5264 81.559 20.3455C81.7335 19.9965 81.9952 19.9965 82.3441 19.9965C84.0016 19.7348 85.2229 20.171 85.9208 21.9157C86.6187 23.5732 87.6656 25.1435 88.6252 26.7138C88.9741 27.2372 88.8869 27.4117 88.189 27.4989C86.706 27.6734 85.7464 27.2372 85.223 25.7542C84.6123 24.4456 83.9144 23.2243 83.2165 21.8285Z" fill="#A4A4A4"/>
<path d="M117.937 19.822C118.984 19.822 119.856 19.9965 120.728 20.171C121.252 20.2582 121.426 20.5199 121.426 21.0433C121.426 21.5668 121.426 21.9157 120.641 21.654C119.594 21.305 118.46 21.1306 117.326 21.305C116.89 21.3923 116.367 21.4795 116.367 22.0902C116.367 22.6136 116.89 22.7008 117.239 22.7881C118.286 22.9625 119.333 23.0498 120.292 23.3115C121.077 23.486 121.775 23.9222 121.863 24.8818C121.95 25.8414 121.514 26.5393 120.641 26.8882C118.46 27.935 116.279 27.5861 114.099 26.9754C113.401 26.801 113.662 26.1031 113.75 25.6669C113.924 25.0562 114.36 25.5797 114.535 25.6669C115.756 26.0158 116.89 26.2775 118.111 26.1031C118.548 26.0158 119.158 25.9286 119.158 25.3179C119.158 24.7073 118.548 24.7073 118.111 24.62C117.152 24.4456 116.192 24.3583 115.233 24.0966C114.36 23.9222 113.575 23.486 113.488 22.4391C113.401 21.305 114.099 20.6944 114.971 20.3454C116.192 19.9093 117.152 19.9093 117.937 19.822Z" fill="#A4A4A4"/>
<path d="M72.5737 23.6605C72.5737 24.7074 72.5737 25.7542 72.5737 26.801C72.5737 27.4117 72.3992 27.6734 71.7013 27.6734C70.7417 27.5862 69.8694 27.6734 68.9098 27.8479C67.0778 28.1096 65.8565 26.9755 65.7692 25.1435C65.682 23.6605 65.7692 22.0903 65.7692 20.6072C65.7692 19.6476 66.3799 19.9093 66.9033 19.9093C67.4267 19.9093 67.9502 19.8221 67.9502 20.6945C67.8629 22.003 67.9502 23.3988 67.9502 24.7074C67.9502 25.7542 68.5608 26.2776 69.5204 26.1032C70.1311 25.8414 70.48 25.5797 70.48 24.8818C70.48 23.5733 70.48 22.1775 70.48 20.8689C70.48 19.9966 70.6545 19.7349 71.6141 19.7349C72.5737 19.7349 72.7482 20.171 72.661 20.9562C72.5737 21.8285 72.5737 22.7009 72.5737 23.6605Z" fill="#A4A4A4"/>
<path d="M61.3198 19.5603C61.9305 19.5603 62.4539 19.6475 63.0646 19.822C64.0242 20.0837 64.3731 20.6944 64.1114 21.7412C64.0242 22.1774 63.7624 22.0902 63.5007 22.0029C62.8028 21.8285 62.0177 21.5667 61.2326 21.5667C60.8836 21.5667 60.3602 21.5667 60.273 22.0029C60.0985 22.3519 60.7092 22.3519 61.0581 22.5264C61.6688 22.7008 62.1922 22.7881 62.8028 22.9625C63.7624 23.2242 64.3731 23.8349 64.4603 24.8817C64.5476 26.0158 64.1114 26.8882 63.1518 27.4116C61.6688 28.1095 60.1857 28.0223 58.7027 27.4116C58.2665 27.2371 58.0048 25.7541 58.2665 25.4924C58.5282 25.2307 58.7027 25.4924 58.9644 25.4924C59.6623 25.6669 60.4474 25.9286 61.2326 25.9286C61.6688 25.9286 62.1922 26.0158 62.2794 25.4924C62.3667 24.969 61.756 24.969 61.4071 24.7945C60.9709 24.7073 60.4474 24.62 60.0113 24.4456C58.7027 24.0094 58.1793 23.3987 58.1793 22.3519C58.1793 21.2178 58.8772 20.2582 60.0113 19.822C60.273 19.5603 60.7964 19.4731 61.3198 19.5603Z" fill="#A4A4A4"/>
<path d="M107.119 21.7414C105.985 21.3924 104.764 21.1307 103.543 21.3924C102.06 21.6541 101.274 22.6137 101.362 23.9223C101.449 25.4053 103.892 26.6266 105.113 25.8415C105.549 25.5798 105.375 25.1436 105.375 24.7074C105.287 23.9223 105.549 23.6606 106.421 23.6606C107.207 23.6606 107.468 23.8351 107.468 24.7074C107.468 27.3245 107.468 27.3245 104.851 27.499C103.63 27.5862 102.409 27.5862 101.274 27.0628C99.8787 26.4522 99.0935 25.4053 99.0063 23.8351C98.9191 22.352 99.617 21.218 101.013 20.5201C102.845 19.6477 104.764 19.6477 106.683 20.0839C107.294 20.2583 107.381 20.5201 107.119 21.7414Z" fill="#A4A4A4"/>
<path d="M51.8991 22.1773C51.8991 20.7816 51.8991 19.7347 51.8991 18.6879C51.8991 17.99 52.3353 17.99 52.7715 18.0772C53.2076 18.1645 54.08 17.7283 53.9928 18.6879C53.9055 19.7347 54.5162 19.7347 55.3013 19.7347C55.8247 19.7347 56.4354 19.473 56.4354 20.4326C56.4354 21.305 56.3482 21.7412 55.3013 21.4795C54.3417 21.2177 53.8183 21.5667 53.9928 22.6135C54.08 23.2242 53.9928 23.7476 53.9928 24.3583C53.9928 25.6668 54.1672 25.8413 55.4758 25.6668C55.8247 25.6668 56.3482 25.1434 56.4354 25.9285C56.4354 26.5392 56.8716 27.4116 55.7375 27.4988C55.1268 27.586 54.6034 27.6733 53.9928 27.586C52.8587 27.4116 52.248 26.8881 52.0736 25.7541C51.7246 24.5327 51.8991 23.2242 51.8991 22.1773Z" fill="#A4A4A4"/>
<path d="M109.562 23.5733C109.562 22.7009 109.649 21.8286 109.562 20.9562C109.475 20.0838 109.824 19.7349 110.696 19.9093C110.958 19.9093 111.219 19.9093 111.394 19.9093C111.83 19.9093 112.004 20.0838 112.004 20.52C112.004 22.6137 112.004 24.7074 112.004 26.801C112.004 27.2372 111.83 27.4989 111.394 27.4117C111.045 27.4117 110.609 27.4117 110.26 27.4117C109.736 27.4117 109.475 27.2372 109.475 26.7138C109.562 25.667 109.562 24.6201 109.562 23.5733Z" fill="#A4A4A4"/>
<path d="M33.0548 22.8752C33.0548 21.4794 33.0548 20.0836 33.0548 18.6879C33.0548 18.1644 32.7931 17.99 32.3569 18.0772C31.8334 18.1644 30.9611 17.641 30.9611 18.5134C31.0483 19.8219 30.2632 19.7347 29.3908 19.7347C29.1291 19.7347 28.7802 19.8219 28.5184 19.9092C26.3375 20.5198 25.3779 23.2242 26.4248 25.6668C27.0354 27.0626 28.1695 27.8477 29.6525 27.6733C30.5249 27.586 31.3973 27.4988 32.2696 27.586C32.9675 27.6733 33.142 27.3243 33.142 26.6264C32.9675 25.4051 33.0548 24.0965 33.0548 22.8752ZM30.4377 25.754C29.827 25.9285 29.1291 26.0158 28.6057 25.4051C27.8206 24.5327 27.9078 23.5731 28.2567 22.5263C28.5184 21.6539 29.3036 21.3922 30.0887 21.305C30.7866 21.2177 30.9611 21.4794 30.8738 22.0901C30.8738 22.5263 30.8738 22.9625 30.8738 23.3986C30.8738 23.7476 30.8738 24.0093 30.8738 24.3583C30.8738 24.9689 31.1356 25.4923 30.4377 25.754Z" fill="#A4A4A4"/>
<path d="M37.4166 24.271C38.5507 24.271 39.6847 24.271 40.8188 24.271C41.1678 24.271 41.5167 24.3582 41.604 23.8348C41.9529 22.2645 41.0805 20.3453 39.5975 19.7346C37.5038 18.9495 35.2357 19.9091 34.5378 22.09C33.8399 24.5327 34.8867 26.9753 37.0676 27.586C37.94 27.8477 38.8996 27.7604 39.772 27.6732C41.5167 27.4115 41.6912 27.1498 41.4295 25.3178C40.5571 25.5795 39.772 25.9285 38.8124 25.9285C38.1145 25.9285 37.4166 25.8412 36.9804 25.2306C36.8059 24.9689 36.6315 24.7944 36.7187 24.4454C36.8932 24.1837 37.1549 24.271 37.4166 24.271ZM38.2017 21.3049C38.8124 21.3049 39.5103 21.5666 39.3358 22.1773C39.2486 22.7879 38.4634 22.3518 37.94 22.5262C37.5911 22.3518 36.8059 22.7879 36.8059 22.1773C36.8932 21.5666 37.5911 21.3049 38.2017 21.3049Z" fill="#A4A4A4"/>
</svg>
