<svg width="146" height="60" viewBox="0 0 146 60" fill="none" xmlns="http://www.w3.org/2000/svg">
<path d="M32.208 33.832C35.552 33.832 37.872 31.72 37.872 28.504C37.872 25.288 35.552 23.16 32.208 23.16H28V33.832H32.208ZM32.208 31.832H30.272V25.16H32.208C34.4 25.16 35.552 26.616 35.552 28.504C35.552 30.312 34.32 31.832 32.208 31.832Z" fill="#A4A4A4"/>
<path d="M43.0684 34.024C44.2684 34.024 45.4844 33.656 46.2524 32.952L45.3564 31.64C44.8604 32.12 43.9484 32.408 43.2924 32.408C41.9804 32.408 41.1964 31.592 41.0684 30.616H46.8124V30.168C46.8124 27.64 45.2444 25.912 42.9404 25.912C40.5884 25.912 38.9404 27.72 38.9404 29.96C38.9404 32.44 40.7164 34.024 43.0684 34.024ZM44.8444 29.24H41.0364C41.1324 28.472 41.6764 27.528 42.9404 27.528C44.2844 27.528 44.7964 28.504 44.8444 29.24Z" fill="#A4A4A4"/>
<path d="M50.3121 33.832V23.16H48.2801V33.832H50.3121Z" fill="#A4A4A4"/>
<path d="M55.959 34.024C57.159 34.024 58.375 33.656 59.143 32.952L58.247 31.64C57.751 32.12 56.839 32.408 56.183 32.408C54.871 32.408 54.087 31.592 53.959 30.616H59.703V30.168C59.703 27.64 58.135 25.912 55.831 25.912C53.479 25.912 51.831 27.72 51.831 29.96C51.831 32.44 53.607 34.024 55.959 34.024ZM57.735 29.24H53.927C54.023 28.472 54.567 27.528 55.831 27.528C57.175 27.528 57.687 28.504 57.735 29.24Z" fill="#A4A4A4"/>
<path d="M64.3387 36.968C66.2427 36.968 68.5148 36.248 68.5148 33.304V26.104H66.4668V27.096C65.8428 26.312 65.0107 25.912 64.0827 25.912C62.1307 25.912 60.6748 27.32 60.6748 29.848C60.6748 32.424 62.1467 33.784 64.0827 33.784C65.0267 33.784 65.8587 33.336 66.4668 32.568V33.352C66.4668 34.872 65.3148 35.304 64.3387 35.304C63.3627 35.304 62.5467 35.032 61.9227 34.344L61.0107 35.816C61.9868 36.664 63.0107 36.968 64.3387 36.968ZM64.7228 31.976C63.5708 31.976 62.7708 31.176 62.7708 29.848C62.7708 28.52 63.5708 27.72 64.7228 27.72C65.3948 27.72 66.1308 28.088 66.4668 28.6V31.096C66.1308 31.592 65.3948 31.976 64.7228 31.976Z" fill="#A4A4A4"/>
<path d="M77.2021 33.832V28.84C77.2021 26.616 75.5861 25.912 73.8261 25.912C72.6101 25.912 71.3941 26.296 70.4501 27.128L71.2181 28.488C71.8741 27.88 72.6421 27.576 73.4741 27.576C74.4981 27.576 75.1701 28.088 75.1701 28.872V29.912C74.6581 29.304 73.7461 28.968 72.7221 28.968C71.4901 28.968 70.0341 29.656 70.0341 31.464C70.0341 33.192 71.4901 34.024 72.7221 34.024C73.7301 34.024 74.6421 33.656 75.1701 33.032V33.832H77.2021ZM73.5381 32.648C72.7381 32.648 72.0821 32.232 72.0821 31.512C72.0821 30.76 72.7381 30.344 73.5381 30.344C74.1941 30.344 74.8341 30.568 75.1701 31.016V31.976C74.8341 32.424 74.1941 32.648 73.5381 32.648Z" fill="#A4A4A4"/>
<path d="M81.8096 34.024C82.6576 34.024 83.2016 33.8 83.5056 33.528L83.0736 31.992C82.9616 32.104 82.6736 32.216 82.3696 32.216C81.9216 32.216 81.6656 31.848 81.6656 31.368V27.88H83.2336V26.104H81.6656V23.992H79.6176V26.104H78.3376V27.88H79.6176V31.912C79.6176 33.288 80.3856 34.024 81.8096 34.024Z" fill="#A4A4A4"/>
<path d="M88.2079 34.024C90.7679 34.024 92.3039 32.168 92.3039 29.96C92.3039 27.768 90.7679 25.912 88.2079 25.912C85.6639 25.912 84.1279 27.768 84.1279 29.96C84.1279 32.168 85.6639 34.024 88.2079 34.024ZM88.2079 32.216C86.9439 32.216 86.2399 31.176 86.2399 29.96C86.2399 28.76 86.9439 27.72 88.2079 27.72C89.4719 27.72 90.1919 28.76 90.1919 29.96C90.1919 31.176 89.4719 32.216 88.2079 32.216Z" fill="#A4A4A4"/>
<path d="M95.8434 33.832V28.728C96.1794 28.232 97.0754 27.848 97.7474 27.848C97.9714 27.848 98.1634 27.864 98.3074 27.896V25.912C97.3474 25.912 96.3874 26.472 95.8434 27.16V26.104H93.8114V33.832H95.8434Z" fill="#A4A4A4"/>
<path d="M107.353 33.832V31.832H103.001C105.769 29.816 107.273 28.232 107.273 26.408C107.273 24.28 105.465 23 103.193 23C101.705 23 100.121 23.544 99.081 24.744L100.377 26.248C101.097 25.496 102.025 25.016 103.241 25.016C104.121 25.016 104.969 25.48 104.969 26.408C104.969 27.72 103.689 28.824 99.321 32.056V33.832H107.353Z" fill="#A4A4A4"/>
<path d="M115.939 33.832V31.624H117.315V29.624H115.939V23.16H112.803L108.563 29.832V31.624H113.667V33.832H115.939ZM113.667 29.624H110.787L113.667 25.176V29.624Z" fill="#A4A4A4"/>
</svg>
