<svg width="146" height="60" viewBox="0 0 146 60" fill="none" xmlns="http://www.w3.org/2000/svg">
<path d="M51.0124 10C65.9187 10 80.7878 10 95.6817 10C95.6817 16.5617 95.6817 23.1111 95.6817 29.6852C94.877 29.6852 94.0722 29.6852 93.2427 29.6852C93.2427 23.9901 93.2427 18.295 93.2427 12.5876C79.9707 12.5876 66.7358 12.5876 53.4637 12.5876C53.4637 18.2826 53.4637 23.9777 53.4637 29.6852C52.6219 29.6852 51.8171 29.6852 51 29.6852C51.0124 23.1235 51.0124 16.5741 51.0124 10Z" fill="#9D9D9D"/>
<path d="M53.4513 47.08C56.1131 47.08 58.7378 47.08 61.3872 47.08C61.3872 47.9467 61.3872 48.7886 61.3872 49.6552C57.9331 49.6552 54.4912 49.6552 51.0247 49.6552C51.0247 43.9477 51.0247 38.2526 51.0247 32.5452C51.8418 32.5452 52.6341 32.5452 53.4636 32.5452C53.4513 37.386 53.4513 42.2144 53.4513 47.08Z" fill="#9D9D9D"/>
<path d="M71.8861 45.681C69.5462 45.681 67.3177 45.681 65.0892 45.681C64.9406 46.4981 65.5101 47.4762 66.3396 47.7981C67.0577 48.0705 67.8005 48.1076 68.4814 47.699C68.7291 47.5505 68.9148 47.2781 69.1252 47.0552C69.1871 46.9933 69.2738 46.9067 69.3481 46.9067C70.1157 46.8943 70.8833 46.8943 71.7376 46.8943C71.6633 47.1419 71.6261 47.3771 71.5271 47.5752C71.0566 48.5533 70.3138 49.2714 69.2862 49.6304C67.7386 50.1752 66.2034 50.1133 64.7301 49.3209C63.653 48.739 62.9844 47.86 62.7245 46.6714C62.4768 45.4953 62.4768 44.3315 62.7987 43.1801C63.294 41.3849 64.8415 40.1592 66.7234 40.0602C67.5034 40.023 68.271 40.0602 69.0014 40.3326C70.5985 40.9021 71.4528 42.103 71.7376 43.7372C71.849 44.3563 71.8366 45.0001 71.8861 45.681ZM65.1263 44.0344C66.5005 44.0344 67.8872 44.0344 69.2614 44.0344C69.2862 42.9696 68.4691 42.1401 67.3548 42.0906C66.092 42.0287 65.2006 42.7963 65.1263 44.0344Z" fill="#9D9D9D"/>
<path d="M91.5342 45.6809C89.2314 45.6809 86.9781 45.6809 84.7248 45.6809C84.601 46.8076 85.4305 47.8228 86.5696 47.959C87.4857 48.0704 88.2905 47.897 88.7981 47.0304C88.8352 46.9685 88.9219 46.919 88.9838 46.919C89.7638 46.9066 90.5437 46.919 91.398 46.919C91.3237 47.1666 91.2866 47.3894 91.1875 47.5875C90.6056 48.7513 89.6895 49.5189 88.4267 49.816C86.9286 50.1751 85.4801 50.0265 84.143 49.2094C83.2392 48.6523 82.6573 47.8599 82.4097 46.8323C82.1125 45.5323 82.1001 44.2448 82.5335 42.9696C83.103 41.2858 84.5763 40.1839 86.3591 40.0849C87.2629 40.0353 88.1419 40.0973 88.9714 40.4687C90.5314 41.1744 91.2618 42.462 91.4475 44.1086C91.5094 44.6038 91.5094 45.1114 91.5342 45.6809ZM88.9343 44.0343C88.86 42.7715 88.0181 42.041 86.7057 42.0905C85.5791 42.1277 84.861 42.9943 84.7991 44.0343C86.161 44.0343 87.5352 44.0343 88.9343 44.0343Z" fill="#9D9D9D"/>
<path d="M95.6817 49.6675C94.8646 49.6675 94.0722 49.6675 93.2551 49.6675C93.2551 43.96 93.2551 38.2773 93.2551 32.5698C94.0599 32.5698 94.8646 32.5698 95.6817 32.5698C95.6817 38.2525 95.6817 43.9476 95.6817 49.6675Z" fill="#9D9D9D"/>
<path d="M72.3813 40.3078C73.2728 40.3078 74.127 40.2954 74.9689 40.3202C75.0432 40.3202 75.167 40.4564 75.1918 40.5554C75.5755 41.8677 75.9346 43.1801 76.306 44.4801C76.5536 45.3467 76.7889 46.2133 77.086 47.08C77.7422 44.8267 78.386 42.5734 79.0421 40.3202C79.9088 40.3202 80.7754 40.3202 81.6668 40.3202C81.6297 40.444 81.6049 40.5554 81.5554 40.6668C80.503 43.5763 79.4383 46.4981 78.3983 49.4199C78.324 49.6428 78.225 49.7047 78.0022 49.6923C77.3212 49.6799 76.6403 49.6799 75.9593 49.6923C75.786 49.6923 75.6994 49.6428 75.6375 49.4818C74.5727 46.4981 73.508 43.5144 72.4309 40.5306C72.4309 40.4564 72.4185 40.4068 72.3813 40.3078Z" fill="#9D9D9D"/>
</svg>
