<svg width="147" height="60" viewBox="0 0 147 60" fill="none" xmlns="http://www.w3.org/2000/svg">
<path fill-rule="evenodd" clip-rule="evenodd" d="M21.2084 22H16L21.9846 30.396L16 38.8207H21.2084L27.195 30.396L21.2084 22Z" fill="#A4A4A4"/>
<path d="M27.8265 25.7629H30.3269L32.2495 28.895L34.2389 25.7629H36.5989L33.4585 30.4424L36.8734 35.568H34.3062L32.1668 32.1753L29.9831 35.568H27.5654L30.987 30.4294L27.8265 25.7629Z" fill="#A4A4A4"/>
<path d="M39.6775 27.3825L39.2936 29.5683L39.3224 29.595C39.5902 29.3298 39.8734 29.1376 40.1746 29.0239C40.4758 28.9074 40.8193 28.8522 41.2028 28.8522C41.6803 28.8522 42.1014 28.9391 42.4674 29.1129C42.8329 29.2871 43.1433 29.519 43.3952 29.811C43.6472 30.1031 43.8393 30.4465 43.9726 30.8463C44.1067 31.2436 44.1735 31.6647 44.1735 32.113C44.1735 32.6105 44.0754 33.0676 43.8836 33.4895C43.6923 33.9156 43.4307 34.2854 43.1074 34.5958C42.7794 34.9078 42.4026 35.1443 41.9744 35.3135C41.542 35.4835 41.0866 35.5637 40.6003 35.5546C40.132 35.5546 39.6858 35.4923 39.2601 35.3678C38.8361 35.245 38.4593 35.0549 38.1292 34.8009C37.7988 34.5423 37.536 34.226 37.3396 33.8463C37.1433 33.4674 37.0405 33.0254 37.0317 32.5215H38.9815C39.0262 32.961 39.1908 33.3111 39.4765 33.5693C39.7577 33.8308 40.1191 33.9624 40.5586 33.9624C40.8151 33.9624 41.0469 33.9106 41.25 33.8062C41.4572 33.7009 41.6314 33.5651 41.7739 33.3955C41.9142 33.2263 42.0237 33.03 42.1018 32.8069C42.182 32.5817 42.22 32.3515 42.22 32.1155C42.22 31.8702 42.182 31.6363 42.1081 31.4178C42.0371 31.201 41.9255 31.0096 41.7805 30.8446C41.6331 30.6792 41.4614 30.5501 41.2562 30.4611C41.0557 30.3692 40.8239 30.327 40.5581 30.327C40.2101 30.327 39.9269 30.385 39.7084 30.51C39.4853 30.6349 39.2802 30.8271 39.0884 31.0944H37.333L38.2809 25.7766H43.6522V27.3829H39.6775" fill="#A4A4A4"/>
<path d="M50.4437 25.7629C50.8448 25.7629 51.2267 25.8101 51.5901 25.9129C51.949 26.0128 52.2657 26.1644 52.536 26.3741C52.8058 26.5797 53.0201 26.8446 53.1806 27.1683C53.3389 27.4938 53.4216 27.8777 53.4216 28.3193C53.4216 28.9413 53.2612 29.4836 52.9399 29.9381C52.6183 30.396 52.1453 30.6876 51.5124 30.8171V30.8464C51.8337 30.8928 52.099 30.9759 52.3108 31.0987C52.5205 31.2232 52.6943 31.3795 52.8284 31.5716C52.96 31.768 53.0557 31.9865 53.1158 32.2409C53.176 32.4907 53.214 32.7627 53.234 33.0547C53.2428 33.2197 53.252 33.4207 53.2608 33.6592C53.2696 33.8982 53.2871 34.1368 53.3163 34.3803C53.3406 34.623 53.3874 34.8528 53.4479 35.0646C53.506 35.2831 53.5862 35.4481 53.6865 35.5689H52.6513C52.5957 35.4753 52.5531 35.3637 52.5197 35.2321C52.4883 35.1006 52.4662 34.9619 52.4528 34.8198C52.4394 34.679 52.4261 34.5386 52.4173 34.4004C52.4081 34.2617 52.3993 34.1459 52.3881 34.0432C52.3701 33.6977 52.3434 33.3518 52.3012 33.0084C52.2586 32.667 52.1717 32.3616 52.038 32.0913C51.9064 31.8194 51.7146 31.6055 51.4627 31.44C51.2124 31.2725 50.867 31.2011 50.4279 31.219H46.8944V35.5685H45.9531V25.7634H50.4437V25.7629ZM50.3723 30.4161C50.6556 30.4161 50.9275 30.3735 51.182 30.2866C51.4385 30.1997 51.6636 30.0723 51.8554 29.9093C52.0472 29.7464 52.1992 29.5434 52.3149 29.3136C52.4265 29.0821 52.4825 28.8143 52.4825 28.511C52.4825 27.9069 52.3104 27.4315 51.9628 27.0835C51.6169 26.7355 51.0884 26.5634 50.3723 26.5634H46.8948V30.4157H50.3723V30.4161Z" fill="#A4A4A4"/>
<path d="M61.603 25.7629V26.5638H55.7705V30.0944H61.2329V30.8978H55.7705V34.7651H61.6719V35.568H54.833V25.7629H61.603Z" fill="#A4A4A4"/>
<path d="M69.9533 25.7629V26.5638H66.5342V35.568H65.5993V26.5638H62.1936V25.7629H69.9533Z" fill="#A4A4A4"/>
<path d="M73.4109 25.7629L77.2519 35.568H76.2526L75.0569 32.5166H70.5955L69.4158 35.568H68.4277L72.3669 25.7629H73.4109ZM74.7428 31.7145L72.8473 26.6891L70.8863 31.7145H74.7428Z" fill="#A4A4A4"/>
<path d="M79.1475 25.7588H78.2104V35.5681H79.1475V25.7588Z" fill="#A4A4A4"/>
<path d="M82.1274 25.7629V34.7651H87.6186V35.568H81.1899V25.7629H82.1274Z" fill="#A4A4A4"/>
<path d="M93.1544 35.9393C92.3865 35.9393 91.6997 35.8027 91.0977 35.5182C90.5045 35.2387 90.0023 34.8619 89.6033 34.3789C89.2056 33.9027 88.9065 33.3395 88.7051 32.702C88.5025 32.0649 88.4031 31.3839 88.4031 30.667C88.4031 29.9351 88.5125 29.2529 88.7273 28.6091C88.9466 27.9653 89.2599 27.4022 89.6664 26.9276C90.0746 26.4459 90.5751 26.067 91.1612 25.7933C91.7503 25.5188 92.4199 25.381 93.1632 25.381C93.7272 25.381 94.2502 25.462 94.7315 25.622C95.2111 25.7837 95.6351 26.016 96.0028 26.3139C96.3675 26.6159 96.6695 26.9756 96.901 27.393C97.1378 27.8128 97.2953 28.2866 97.3827 28.8013L97.414 28.9851H97.2272H96.8182L96.7948 28.8543C96.7176 28.4169 96.5751 28.0246 96.3708 27.6666C96.1636 27.3111 95.9088 27.0103 95.5971 26.7596C95.2867 26.5069 94.9283 26.313 94.5184 26.1756C94.1128 26.0386 93.6595 25.9717 93.1623 25.9717C92.4951 25.9717 91.9086 26.0945 91.3977 26.3393C90.8805 26.5867 90.4468 26.9213 90.0921 27.342C89.7349 27.7656 89.4617 28.2603 89.2754 28.8322C89.0886 29.4037 88.9959 30.0174 88.9959 30.6675C88.9959 31.3217 89.0866 31.9371 89.2658 32.5115C89.4408 33.0813 89.7048 33.5802 90.0574 34C90.405 34.4178 90.8449 34.752 91.3676 35.0014C91.8877 35.2442 92.4956 35.3703 93.1987 35.3703C93.7234 35.3703 94.2084 35.2801 94.6609 35.0996C95.12 34.9187 95.5202 34.6672 95.854 34.3493C96.1908 34.0322 96.4527 33.652 96.6478 33.2083C96.8391 32.7647 96.9352 32.2867 96.9352 31.7675V31.4165H93.1352V31.2594V30.9866V30.8291H97.5305V35.7212H97.373H96.9348L96.9394 33.8505C96.652 34.4028 96.2463 34.8581 95.7295 35.2116C95.0126 35.6987 94.1529 35.9393 93.1611 35.9393C93.1602 35.9393 93.1577 35.9393 93.1544 35.9393Z" fill="#A4A4A4"/>
<path d="M98.4857 35.7251H98.3286V25.6091H102.507C103.555 25.6104 104.345 25.8105 104.869 26.2579C105.39 26.7016 105.647 27.3876 105.669 28.2762C105.671 28.3075 105.671 28.3384 105.671 28.3698C105.671 29.0181 105.482 29.5746 105.105 30.0195C104.82 30.3579 104.444 30.6153 103.988 30.792C104.17 30.8451 104.334 30.9102 104.479 30.9888C104.756 31.1417 104.977 31.3464 105.127 31.6029C105.275 31.8511 105.375 32.1422 105.424 32.4731C105.467 32.7944 105.49 33.1487 105.49 33.5522C105.49 33.6792 105.499 33.853 105.506 34.0581C105.515 34.262 105.53 34.4634 105.546 34.661C105.567 34.8594 105.587 35.0374 105.613 35.2003C105.637 35.3545 105.675 35.4527 105.696 35.4765L105.878 35.7263H105.568H105.167L105.125 35.6377C105.065 35.5149 105.026 35.3687 104.994 35.1857C104.967 35.0144 104.945 34.8264 104.933 34.6301C104.921 34.4362 104.907 34.2424 104.904 34.0427C104.899 33.8426 104.896 33.6675 104.896 33.5079C104.896 33.1131 104.868 32.7622 104.809 32.4568C104.753 32.1648 104.644 31.9275 104.483 31.7345C104.321 31.5461 104.084 31.3932 103.771 31.2862C103.454 31.1805 103.017 31.1225 102.461 31.1225H98.9252V35.7259H98.7669H98.4857V35.7251ZM102.436 30.5388C102.79 30.5388 103.124 30.4937 103.448 30.4031C103.762 30.3195 104.04 30.1837 104.277 29.9941C104.517 29.8077 104.706 29.5767 104.854 29.2851C104.996 29.0056 105.069 28.6647 105.069 28.2536C105.059 27.5873 104.864 27.0993 104.488 26.7392C104.121 26.3925 103.489 26.2011 102.577 26.2019L98.9252 26.2011V30.5393H102.436V30.5388Z" fill="#A4A4A4"/>
<path d="M108.805 35.5178C108.223 35.237 107.731 34.8556 107.338 34.371C106.947 33.8864 106.648 33.3249 106.445 32.6832C106.245 32.0473 106.14 31.3722 106.14 30.6616C106.14 29.9497 106.245 29.2729 106.445 28.6379C106.648 27.9954 106.947 27.4347 107.338 26.9509C107.731 26.4651 108.223 26.0803 108.804 25.7995C109.392 25.5113 110.065 25.3684 110.815 25.3684C111.568 25.3684 112.24 25.5113 112.825 25.7995C113.407 26.0803 113.9 26.4655 114.294 26.9509C114.686 27.4347 114.985 27.9954 115.188 28.6366C115.389 29.2729 115.49 29.9497 115.49 30.6616C115.49 31.3714 115.389 32.0457 115.188 32.6832C114.985 33.3249 114.686 33.8864 114.294 34.371C113.901 34.8556 113.407 35.237 112.825 35.5178C112.239 35.8018 111.568 35.9401 110.815 35.9401C110.065 35.9401 109.394 35.8018 108.805 35.5178ZM107.845 34.0564C108.192 34.4687 108.615 34.7921 109.115 35.0269C109.612 35.2575 110.176 35.3736 110.814 35.3736C111.455 35.3736 112.02 35.2579 112.518 35.0281C113.018 34.7921 113.439 34.4687 113.787 34.0576C114.129 33.6453 114.401 33.1507 114.592 32.575C114.783 31.9918 114.884 31.3622 114.892 30.6737C114.884 29.9856 114.783 29.3531 114.592 28.7737C114.401 28.1976 114.13 27.7004 113.787 27.2868C113.439 26.877 113.018 26.5557 112.518 26.3197C112.02 26.087 111.455 25.9708 110.814 25.9708C110.176 25.9708 109.612 26.087 109.116 26.3197C108.613 26.5557 108.192 26.8749 107.845 27.2868C107.5 27.7004 107.23 28.1976 107.037 28.7737C106.849 29.3519 106.749 29.9856 106.74 30.6699C106.749 31.3618 106.849 31.9913 107.037 32.5741V32.5737C107.23 33.1507 107.5 33.6453 107.845 34.0564Z" fill="#A4A4A4"/>
<path d="M123.686 25.6045H123.844V31.9108C123.844 33.2501 123.531 34.2699 122.878 34.9413C122.23 35.6122 121.289 35.9402 120.093 35.9402C120.09 35.9402 120.088 35.9402 120.087 35.9402C118.886 35.9414 117.945 35.6135 117.296 34.9413C116.641 34.2699 116.33 33.2501 116.33 31.9108V25.6045H116.489H116.926V31.9108C116.927 33.0697 117.19 33.9219 117.694 34.4959C118.196 35.0628 118.979 35.3595 120.087 35.3611C121.194 35.3595 121.975 35.0628 122.477 34.4959C122.98 33.9211 123.248 33.0692 123.248 31.9108V25.6045H123.405H123.686Z" fill="#A4A4A4"/>
<path d="M124.884 35.7249H124.726V25.6132H128.86C129.826 25.6132 130.599 25.845 131.16 26.3263C131.72 26.8105 132.001 27.5299 132 28.4486C132 28.8985 131.916 29.3033 131.752 29.6609C131.586 30.0152 131.356 30.3148 131.061 30.5558C130.77 30.7931 130.422 30.9723 130.026 31.0906C129.629 31.2121 129.191 31.269 128.722 31.269H125.322V35.7253H125.164H124.884V35.7249ZM128.857 30.6724C129.226 30.6724 129.567 30.6239 129.879 30.5232C130.192 30.4242 130.457 30.2801 130.685 30.0875C130.908 29.8982 131.082 29.6651 131.212 29.3932C131.338 29.1233 131.403 28.8087 131.403 28.4436C131.401 27.6953 131.193 27.1501 130.785 26.7746C130.384 26.4019 129.749 26.2018 128.857 26.2018L125.322 26.201V30.6728H128.857V30.6724Z" fill="#A4A4A4"/>
</svg>
