<svg width="146" height="60" viewBox="0 0 146 60" fill="none" xmlns="http://www.w3.org/2000/svg">
<path d="M72.8989 22.3764V30.086L73.0417 30.324L74.2312 30.9891L74.7548 30.5612V21.9007L74.2312 21.4724L73.0417 22.1374L72.8989 22.3764Z" fill="#A4A4A4"/>
<path d="M65.8088 17.8559L72.4711 21.7104H72.7566L73.9462 20.9966L73.8034 20.3316L66.3311 16L65.666 16.2381V17.5704L65.8088 17.8559Z" fill="#A4A4A4"/>
<path d="M58.3371 21.7104L64.9994 17.8559L65.1422 17.5704V16.2381L64.4763 16L57.0048 20.3303L56.8621 20.9953L58.0516 21.7091L58.3371 21.7104Z" fill="#A4A4A4"/>
<path d="M57.9567 30.086V22.3764L57.814 22.1374L56.6244 21.4724L56.1008 21.9007V30.5612L56.6244 30.9895L57.814 30.3245L57.9567 30.086Z" fill="#A4A4A4"/>
<path d="M64.9994 34.6544L58.3371 30.7998H58.0516L56.8621 31.4648L57.0048 32.1299L64.4763 36.4601L65.1413 36.2699V34.8924L64.9994 34.6544Z" fill="#A4A4A4"/>
<path d="M72.4711 30.7998L65.8088 34.6544L65.666 34.8924V36.2726L66.3311 36.4628L73.8025 32.1325L73.9453 31.4675L72.7557 30.8025L72.4711 30.7998Z" fill="#A4A4A4"/>
<path opacity="0.2" d="M74.3743 21.8531V30.6095L74.517 30.4667V22.0429L74.3743 21.8531Z" fill="#A4A4A4"/>
<path opacity="0.3" d="M66.094 16.2856L73.6603 20.6637L73.6129 20.4735L66.3321 16.2382L66.094 16.2856Z" fill="#A4A4A4"/>
<path opacity="0.2" d="M57.1477 20.6637L64.714 16.2856L64.5238 16.2382L57.1951 20.4735L57.1477 20.6637Z" fill="#A4A4A4"/>
<path opacity="0.25" d="M56.4812 30.6095V21.8531L56.291 22.0433V30.4671L56.4812 30.6095Z" fill="#A4A4A4"/>
<path opacity="0.27" d="M64.714 36.1772L57.1477 31.7991L57.243 32.0372L64.5238 36.2247L64.714 36.1772Z" fill="#A4A4A4"/>
<path opacity="0.29" d="M73.6603 31.7991L66.094 36.1772L66.3321 36.2247L73.6129 32.0372L73.6603 31.7991Z" fill="#A4A4A4"/>
<path d="M16.889 20.2828C15.8851 20.2849 14.8984 20.543 14.0221 21.0328C13.1458 21.5225 12.409 22.2277 11.8812 23.0817C11.3535 23.9356 11.0523 24.9101 11.0062 25.9129C10.9601 26.9157 11.1706 27.9137 11.6178 28.8125C12.0649 29.7112 12.734 30.4811 13.5616 31.0492C14.3893 31.6173 15.3482 31.9648 16.3476 32.059C17.347 32.1531 18.354 31.9908 19.2731 31.5872C20.1923 31.1837 20.9934 30.5524 21.6005 29.7529V31.1806C21.5937 31.266 21.6046 31.3519 21.6325 31.4329C21.6605 31.5139 21.705 31.5883 21.7631 31.6512C21.8212 31.7142 21.8917 31.7645 21.9702 31.7989C22.0488 31.8332 22.1335 31.851 22.2192 31.851C22.3049 31.851 22.3897 31.8332 22.4682 31.7989C22.5467 31.7645 22.6173 31.7142 22.6754 31.6512C22.7335 31.5883 22.7779 31.5139 22.8059 31.4329C22.8339 31.3519 22.8448 31.266 22.8379 31.1806V26.2314V26.1839C22.8194 24.6163 22.1852 23.1189 21.0722 22.0148C19.9592 20.9107 18.4567 20.2887 16.889 20.2828ZM16.889 30.895C15.9572 30.8949 15.0465 30.6186 14.2718 30.1009C13.4971 29.5832 12.8933 28.8474 12.5368 27.9866C12.1803 27.1258 12.0871 26.1785 12.2688 25.2647C12.4506 24.3509 12.8993 23.5115 13.5582 22.8527C14.217 22.1938 15.0564 21.7451 15.9702 21.5634C16.884 21.3816 17.8312 21.4748 18.6921 21.8313C19.5529 22.1879 20.2887 22.7916 20.8064 23.5663C21.3241 24.341 21.6004 25.2517 21.6005 26.1835C21.6032 26.8029 21.4831 27.4168 21.2473 27.9896C21.0114 28.5625 20.6645 29.0829 20.2264 29.5209C19.7884 29.959 19.2679 30.3059 18.6951 30.5418C18.1223 30.7776 17.5084 30.8977 16.889 30.895Z" fill="#A4A4A4"/>
<path d="M38.4938 20.9966C38.3874 20.8786 38.2415 20.8037 38.0836 20.7862C37.9257 20.7686 37.7669 20.8096 37.6372 20.9013L32.1156 25.3748L26.5967 20.9013C26.5345 20.8489 26.4624 20.8095 26.3847 20.7854C26.307 20.7613 26.2253 20.753 26.1443 20.761C26.0634 20.769 25.9848 20.7931 25.9133 20.8319C25.8418 20.8707 25.7788 20.9234 25.728 20.9869C25.6772 21.0505 25.6396 21.1235 25.6175 21.2018C25.5953 21.2801 25.5891 21.362 25.5991 21.4427C25.6091 21.5235 25.6352 21.6014 25.6758 21.6719C25.7164 21.7424 25.7707 21.804 25.8355 21.8532L31.1651 26.1835L25.8355 30.5133C25.7174 30.6196 25.6425 30.7656 25.625 30.9235C25.6074 31.0814 25.6484 31.2402 25.7402 31.3699C25.795 31.4443 25.8667 31.5047 25.9494 31.546C26.0321 31.5874 26.1234 31.6086 26.2159 31.608C26.3566 31.6118 26.4932 31.5606 26.5967 31.4652L32.1156 26.9452L37.6372 31.4182C37.7407 31.5136 37.8773 31.5648 38.018 31.561C38.1095 31.5564 38.199 31.5329 38.2809 31.4919C38.3628 31.4509 38.4353 31.3934 38.4938 31.3229C38.5942 31.1964 38.6406 31.0354 38.6227 30.8749C38.6048 30.7145 38.5242 30.5676 38.3984 30.4663L33.0688 26.136L38.3984 21.8058C38.5158 21.7093 38.5912 21.5712 38.609 21.4204C38.6268 21.2696 38.5855 21.1177 38.4938 20.9966Z" fill="#A4A4A4"/>
<path d="M53.7696 20.9966C53.6633 20.8786 53.5174 20.8037 53.3595 20.7862C53.2016 20.7686 53.0428 20.8096 52.9131 20.9013L47.3915 25.3748L41.8726 20.9013C41.8104 20.8489 41.7383 20.8095 41.6606 20.7854C41.5829 20.7613 41.5011 20.753 41.4202 20.761C41.3392 20.769 41.2607 20.7931 41.1892 20.8319C41.1177 20.8707 41.0547 20.9234 41.0039 20.9869C40.9531 21.0505 40.9155 21.1235 40.8934 21.2018C40.8712 21.2801 40.865 21.362 40.875 21.4427C40.885 21.5235 40.9111 21.6014 40.9517 21.6719C40.9923 21.7424 41.0466 21.804 41.1114 21.8532L46.4409 26.1835L41.1114 30.5133C40.9933 30.6196 40.9184 30.7656 40.9009 30.9235C40.8833 31.0814 40.9243 31.2402 41.016 31.3699C41.0709 31.4443 41.1426 31.5047 41.2253 31.546C41.308 31.5874 41.3993 31.6086 41.4918 31.608C41.6324 31.6118 41.7691 31.5606 41.8726 31.4652L47.3915 26.9452L52.9131 31.4182C53.0166 31.5136 53.1532 31.5648 53.2939 31.561C53.3854 31.5564 53.4749 31.5329 53.5568 31.4919C53.6387 31.4509 53.7112 31.3934 53.7696 31.3229C53.8701 31.1964 53.9164 31.0354 53.8986 30.8749C53.8807 30.7145 53.8001 30.5676 53.6743 30.4663L48.3447 26.136L53.6743 21.8058C53.7916 21.7093 53.8671 21.5712 53.8849 21.4204C53.9026 21.2696 53.8613 21.1177 53.7696 20.9966Z" fill="#A4A4A4"/>
<path d="M83.2264 20.283C81.6489 20.2835 80.1362 20.9105 79.0208 22.0259C77.9054 23.1413 77.2785 24.654 77.2779 26.2315V30.9426C77.271 31.028 77.2819 31.1139 77.3099 31.1949C77.3379 31.276 77.3823 31.3503 77.4404 31.4133C77.4986 31.4763 77.5691 31.5265 77.6476 31.5609C77.7261 31.5953 77.8109 31.613 77.8966 31.613C77.9823 31.613 78.0671 31.5953 78.1456 31.5609C78.2241 31.5265 78.2946 31.4763 78.3527 31.4133C78.4108 31.3503 78.4553 31.276 78.4833 31.1949C78.5112 31.1139 78.5221 31.028 78.5153 30.9426V26.2315C78.5153 24.9694 79.0167 23.759 79.9091 22.8665C80.8015 21.9741 82.0119 21.4727 83.2741 21.4727C84.5362 21.4727 85.7466 21.9741 86.639 22.8665C87.5315 23.759 88.0328 24.9694 88.0328 26.2315V30.9426C88.026 31.028 88.0369 31.1139 88.0648 31.1949C88.0928 31.276 88.1373 31.3503 88.1954 31.4133C88.2535 31.4763 88.324 31.5265 88.4026 31.5609C88.4811 31.5953 88.5658 31.613 88.6515 31.613C88.7372 31.613 88.822 31.5953 88.9005 31.5609C88.979 31.5265 89.0496 31.4763 89.1077 31.4133C89.1658 31.3503 89.2102 31.276 89.2382 31.1949C89.2662 31.1139 89.2771 31.028 89.2702 30.9426V26.2315C89.2401 24.6468 88.5907 23.1368 87.4611 22.025C86.3314 20.9132 84.8114 20.2879 83.2264 20.283Z" fill="#A4A4A4"/>
<path d="M108.257 20.3303C107.1 20.3303 105.968 20.6736 105.006 21.3166C104.043 21.9597 103.293 22.8737 102.85 23.9431C102.407 25.0124 102.291 26.1891 102.517 27.3244C102.743 28.4596 103.3 29.5024 104.119 30.3208C104.937 31.1393 105.98 31.6967 107.115 31.9225C108.251 32.1483 109.427 32.0324 110.497 31.5895C111.566 31.1465 112.48 30.3964 113.123 29.434C113.766 28.4716 114.109 27.3401 114.109 26.1826C114.11 25.414 113.959 24.6528 113.665 23.9426C113.371 23.2324 112.94 22.587 112.396 22.0435C111.853 21.5 111.207 21.0689 110.497 20.775C109.787 20.481 109.026 20.3299 108.257 20.3303ZM108.257 30.9425C107.316 30.9423 106.396 30.663 105.614 30.14C104.832 29.617 104.222 28.8738 103.862 28.0044C103.502 27.1349 103.408 26.1782 103.591 25.2553C103.775 24.3323 104.228 23.4846 104.894 22.8192C105.559 22.1537 106.407 21.7006 107.33 21.5169C108.253 21.3333 109.209 21.4274 110.079 21.7874C110.948 22.1474 111.691 22.7571 112.214 23.5394C112.737 24.3218 113.017 25.2416 113.017 26.1826C113.014 27.444 112.511 28.6527 111.619 29.5446C110.727 30.4365 109.518 30.9391 108.257 30.9425Z" fill="#A4A4A4"/>
<path d="M96.5037 25.5651C94.3148 24.9941 93.2672 24.5658 93.4104 23.2335C93.4319 22.8574 93.5727 22.498 93.8122 22.2073C94.0517 21.9166 94.3776 21.7097 94.7426 21.6166C96.1702 21.1409 98.3591 21.7119 99.0729 22.4732C99.1739 22.5867 99.3158 22.6556 99.4675 22.6645C99.6192 22.6735 99.7682 22.6218 99.8818 22.5208C99.9954 22.4199 100.064 22.2779 100.073 22.1262C100.082 21.9745 100.03 21.8255 99.9295 21.7119C98.9288 20.6634 96.313 19.9496 94.4097 20.5681C93.843 20.7372 93.3403 21.0729 92.9669 21.5315C92.5935 21.9901 92.3666 22.5503 92.3157 23.1395C92.0302 25.5665 94.3618 26.1849 96.2656 26.6611C98.5498 27.2818 99.5965 27.7079 99.3589 29.1355C99.3012 29.549 99.1133 29.9334 98.8224 30.2329C98.5315 30.5324 98.1527 30.7315 97.7411 30.8012C95.9805 31.2769 93.5536 30.4682 92.7919 29.4689C92.7462 29.4062 92.6884 29.3533 92.6218 29.3135C92.5552 29.2736 92.4812 29.2476 92.4044 29.2371C92.3275 29.2265 92.2493 29.2316 92.1744 29.252C92.0996 29.2723 92.0296 29.3076 91.9687 29.3557C91.9078 29.4038 91.8572 29.4637 91.82 29.5318C91.7829 29.5999 91.7598 29.6748 91.7522 29.752C91.7447 29.8292 91.7528 29.9072 91.7761 29.9812C91.7994 30.0552 91.8374 30.1237 91.8879 30.1827C92.7919 31.3248 94.8384 32.0386 96.6464 32.0386C97.1103 32.0407 97.573 31.9928 98.0266 31.8958C98.6527 31.7658 99.2228 31.4441 99.6577 30.9754C100.093 30.5066 100.371 29.9141 100.454 29.28C100.835 26.7072 98.407 26.0409 96.5037 25.5651Z" fill="#A4A4A4"/>
<path d="M135.431 20.806H127.007C126.855 20.806 126.71 20.8662 126.603 20.9733C126.496 21.0804 126.436 21.2256 126.436 21.3771C126.436 21.5285 126.496 21.6738 126.603 21.7809C126.71 21.888 126.855 21.9481 127.007 21.9481H130.671V30.9421C130.671 31.0935 130.731 31.2388 130.838 31.3458C130.946 31.4529 131.091 31.5131 131.242 31.5131C131.394 31.5131 131.539 31.4529 131.646 31.3458C131.753 31.2388 131.813 31.0935 131.813 30.9421V21.9481H135.478C135.553 21.9511 135.629 21.9384 135.7 21.9108C135.77 21.8831 135.834 21.8412 135.888 21.7875C135.942 21.7339 135.984 21.6697 136.011 21.5991C136.039 21.5285 136.052 21.4529 136.049 21.3771C136.036 21.2217 135.966 21.0766 135.851 20.9708C135.737 20.865 135.587 20.8062 135.431 20.806Z" fill="#A4A4A4"/>
<path d="M123.724 20.8061H117.207C117.131 20.8028 117.055 20.8153 116.984 20.8428C116.913 20.8703 116.848 20.9122 116.795 20.9658C116.741 21.0195 116.699 21.0838 116.671 21.1546C116.643 21.2254 116.63 21.3011 116.633 21.3771V30.8947C116.633 31.0461 116.693 31.1914 116.8 31.2985C116.908 31.4056 117.053 31.4657 117.204 31.4657C117.356 31.4657 117.501 31.4056 117.608 31.2985C117.715 31.1914 117.775 31.0461 117.775 30.8947V26.7067H123.248C123.399 26.7067 123.544 26.6466 123.651 26.5395C123.759 26.4324 123.819 26.2871 123.819 26.1357C123.819 25.9842 123.759 25.839 123.651 25.7319C123.544 25.6248 123.399 25.5646 123.248 25.5646H117.775V21.9007H123.724C123.8 21.9037 123.875 21.891 123.946 21.8634C124.017 21.8357 124.081 21.7938 124.134 21.7401C124.188 21.6865 124.23 21.6223 124.258 21.5517C124.285 21.4811 124.298 21.4055 124.295 21.3297C124.293 21.2575 124.276 21.1864 124.246 21.1207C124.216 21.055 124.173 20.996 124.12 20.9472C124.067 20.8983 124.004 20.8607 123.936 20.8365C123.868 20.8122 123.796 20.8019 123.724 20.8061Z" fill="#A4A4A4"/>
<path d="M12.0828 43.2677V40.7455H13.5104V40.9836H12.3683V41.8876H13.3202V42.1257H12.3683V43.0775H13.6057V43.317H12.0828V43.2677Z" fill="#A4A4A4"/>
<path d="M18.4119 43.2677L19.221 41.9355L18.4593 40.7455H18.7448L19.1731 41.5067L19.3633 41.7922L19.5061 41.5067L19.9348 40.7455H20.2203L19.5553 41.9829L20.3626 43.317H20.0771L19.5535 42.413L19.4107 42.1274L19.268 42.413L18.7444 43.2695L18.4119 43.2677Z" fill="#A4A4A4"/>
<path d="M25.3596 43.2678V40.7455H26.2162C26.3193 40.7366 26.4232 40.7488 26.5214 40.7815C26.6196 40.8143 26.7101 40.8667 26.7872 40.9357C26.8626 41.0105 26.9225 41.0994 26.9633 41.1974C27.0041 41.2954 27.0252 41.4006 27.0252 41.5068C27.0252 41.6129 27.0041 41.7181 26.9633 41.8161C26.9225 41.9141 26.8626 42.003 26.7872 42.0778C26.7101 42.1468 26.6196 42.1992 26.5214 42.232C26.4232 42.2647 26.3193 42.2769 26.2162 42.268H25.5955V43.2673H25.3596V43.2678ZM25.6451 42.0782H26.2162C26.3712 42.082 26.5227 42.0315 26.6445 41.9355C26.7398 41.832 26.791 41.6953 26.7872 41.5546C26.7936 41.4845 26.7841 41.4138 26.7594 41.3479C26.7346 41.282 26.6954 41.2224 26.6445 41.1738C26.5862 41.1227 26.5183 41.0837 26.4447 41.0592C26.3712 41.0346 26.2935 41.0251 26.2162 41.031H25.5955V42.0778L25.6451 42.0782Z" fill="#A4A4A4"/>
<path d="M32.1174 43.2677V40.7455H33.545V40.9836H32.3555V41.8876H33.3074V42.1257H32.3555V43.0775H33.5929V43.317H32.1174V43.2677Z" fill="#A4A4A4"/>
<path d="M38.7319 43.2678V40.7455H39.4932C39.6566 40.7444 39.8185 40.7768 39.9689 40.8408C40.0843 40.8981 40.1812 40.9867 40.2485 41.0965C40.3159 41.2062 40.3509 41.3328 40.3497 41.4615C40.3557 41.5388 40.3461 41.6165 40.3216 41.6901C40.2971 41.7636 40.2581 41.8315 40.207 41.8898C40.1307 42.009 40.0115 42.0943 39.874 42.1279C39.8999 42.1536 39.9165 42.1871 39.9215 42.2232L40.4925 43.2225H40.207L39.6359 42.1731H39.0152V43.2199H38.7319V43.2678ZM38.97 41.982H39.5907C39.6607 41.9868 39.7309 41.9766 39.7966 41.9519C39.8623 41.9273 39.922 41.8889 39.9716 41.8393C40.0212 41.7897 40.0596 41.73 40.0842 41.6643C40.1088 41.5986 40.1191 41.5284 40.1143 41.4584C40.1219 41.3608 40.1056 41.2628 40.0669 41.1729C40.0295 41.088 39.9616 41.0201 39.8767 40.9827C39.8292 40.9353 39.6865 40.9353 39.5437 40.9353H39.0175V41.982H38.97Z" fill="#A4A4A4"/>
<path d="M45.5366 43.2677V40.7455H45.7747V43.2677H45.5366Z" fill="#A4A4A4"/>
<path d="M51.1042 43.2677V40.7455H52.5319V40.9836H51.3423V41.8876H52.2942V42.1257H51.3423V43.0775H52.5797V43.317H51.1042V43.2677Z" fill="#A4A4A4"/>
<path d="M57.719 43.2677V40.7455H57.9571L59.2428 42.5539L59.433 42.8869V40.7455H59.6711V43.2677H59.433L58.1473 41.4593L57.9571 41.1263V43.2677H57.719Z" fill="#A4A4A4"/>
<path d="M64.8576 41.9837C64.8612 41.6438 64.9979 41.319 65.2382 41.0786C65.4786 40.8383 65.8034 40.7017 66.1433 40.698C66.3093 40.6827 66.4765 40.7046 66.6329 40.7622C66.7893 40.8198 66.9309 40.9116 67.0473 41.0309L66.9045 41.2211C66.7935 41.1299 66.6633 41.0649 66.5237 41.0309C66.3869 40.9767 66.2423 40.9445 66.0954 40.9356C65.8142 40.9281 65.5411 41.0305 65.3342 41.2211C65.2362 41.3211 65.1601 41.4405 65.111 41.5716C65.0618 41.7027 65.0406 41.8426 65.0486 41.9824C65.0411 42.2636 65.1436 42.5367 65.3342 42.7436C65.436 42.849 65.558 42.9329 65.6929 42.9901C65.8278 43.0474 65.9728 43.0769 66.1194 43.0769C66.2659 43.0769 66.411 43.0474 66.5459 42.9901C66.6808 42.9329 66.8027 42.849 66.9045 42.7436L67.0473 42.9338C66.7888 43.1753 66.4492 43.3112 66.0954 43.3147C65.9194 43.3173 65.7447 43.285 65.5813 43.2196C65.4179 43.1543 65.2691 43.0571 65.1435 42.9338C64.9439 42.6584 64.8431 42.3236 64.8576 41.9837Z" fill="#A4A4A4"/>
<path d="M72.1858 43.2677V40.7455H73.6134V40.9836H72.4239V41.8876H73.3758V42.1257H72.4239V43.0775H73.6613V43.317H72.1858V43.2677Z" fill="#A4A4A4"/>
<path d="M84.7963 43.2677V40.9836H83.8923V40.7455H85.9863V40.9836H85.0823V43.2677H84.7963Z" fill="#A4A4A4"/>
<path d="M90.9351 43.2677V40.7455H91.1731V41.8876H92.6482V40.7455H92.8863V43.2677H92.6482V42.1257H91.1731V43.2677H90.9351Z" fill="#A4A4A4"/>
<path d="M98.2161 43.2677V40.7455H99.6437V40.9836H98.4541V41.8876H99.406V42.1257H98.4541V43.0775H99.6916V43.317H98.2161V43.2677Z" fill="#A4A4A4"/>
<path d="M110.351 43.2677V40.7455H110.589L111.875 42.5539L112.065 42.8869V40.7455H112.303V43.2677H112.065L110.779 41.4593L110.589 41.1263V43.2677H110.351Z" fill="#A4A4A4"/>
<path d="M117.632 43.2677V40.7455H119.06V40.9836H117.87V41.8876H118.822V42.1257H117.87V43.0775H119.108V43.317H117.632V43.2677Z" fill="#A4A4A4"/>
<path d="M123.961 43.2677L124.77 41.9355L124.008 40.7455H124.294L124.722 41.5067L124.865 41.7922L125.007 41.5067L125.436 40.7455H125.721L124.96 41.935L125.769 43.2673H125.484L124.96 42.4107L124.817 42.1252L124.674 42.4107L124.151 43.2673L123.961 43.2677Z" fill="#A4A4A4"/>
<path d="M131.527 43.2677V40.9836H130.623V40.7455H132.669V40.9836H131.765V43.2677H131.527Z" fill="#A4A4A4"/>
<path d="M135.763 40.792C135.758 40.7036 135.773 40.6154 135.805 40.5332C135.838 40.4511 135.889 40.3771 135.953 40.3163C136.007 40.2566 136.073 40.2088 136.147 40.1761C136.221 40.1433 136.3 40.1263 136.381 40.1261C136.463 40.1169 136.546 40.1297 136.621 40.1631C136.696 40.1965 136.761 40.2494 136.809 40.3163C136.932 40.4446 137 40.615 137 40.7922C137 40.9694 136.932 41.1399 136.809 41.2681C136.755 41.3278 136.689 41.3756 136.615 41.4083C136.541 41.4411 136.462 41.4581 136.381 41.4583C136.299 41.4675 136.216 41.4548 136.141 41.4213C136.066 41.3879 136.001 41.335 135.953 41.2681C135.888 41.2073 135.838 41.1332 135.805 41.051C135.772 40.9688 135.758 40.8804 135.763 40.792ZM135.858 40.792C135.866 40.9039 135.911 41.0099 135.988 41.0922C136.064 41.1746 136.166 41.2283 136.277 41.2446C136.388 41.2608 136.501 41.2386 136.598 41.1815C136.694 41.1244 136.769 41.036 136.808 40.9309C136.847 40.8259 136.85 40.7105 136.814 40.604C136.779 40.4975 136.708 40.4062 136.614 40.3455C136.52 40.2847 136.407 40.2581 136.296 40.2701C136.184 40.282 136.08 40.3318 136.001 40.4111C135.905 40.5147 135.854 40.6513 135.858 40.792ZM136.191 41.1249V40.4599H136.429C136.466 40.4621 136.503 40.4748 136.533 40.4964C136.564 40.518 136.588 40.5478 136.603 40.5823C136.618 40.6169 136.623 40.6549 136.617 40.6921C136.612 40.7292 136.596 40.7641 136.572 40.7929C136.524 40.8403 136.524 40.8403 136.476 40.8403V40.8877L136.619 41.1258H136.524L136.381 40.8403H136.238V41.1258H136.191V41.1249ZM136.286 40.792H136.429C136.476 40.792 136.476 40.792 136.524 40.7445C136.55 40.7188 136.567 40.6853 136.572 40.6492C136.572 40.6018 136.572 40.6018 136.524 40.5539C136.499 40.5281 136.465 40.5114 136.429 40.5065H136.286V40.792Z" fill="#A4A4A4"/>
</svg>
