<svg width="27" height="43" viewBox="0 0 27 43" fill="none" xmlns="http://www.w3.org/2000/svg">
<path d="M13.4783 42C20.3698 42 25.9565 36.4133 25.9565 29.5217C25.9565 22.6302 20.3698 17.0435 13.4783 17.0435C6.58671 17.0435 1 22.6302 1 29.5217C1 36.4133 6.58671 42 13.4783 42Z" stroke="#103EB4" stroke-width="1.3" stroke-miterlimit="10" stroke-linecap="round" stroke-linejoin="round"/>
<path d="M13.4783 36.6521C17.4164 36.6521 20.6088 33.4597 20.6088 29.5217C20.6088 25.5836 17.4164 22.3912 13.4783 22.3912C9.5403 22.3912 6.3479 25.5836 6.3479 29.5217C6.3479 33.4597 9.5403 36.6521 13.4783 36.6521Z" stroke="#103EB4" stroke-width="1.3" stroke-miterlimit="10" stroke-linecap="round" stroke-linejoin="round"/>
<path d="M24.174 11.6957L16.9901 17.0435H9.91315L2.78271 11.6957V1H24.174V11.6957Z" stroke="#103EB4" stroke-width="1.3" stroke-miterlimit="10" stroke-linecap="round" stroke-linejoin="round"/>
</svg>
