<svg width="37" height="37" viewBox="0 0 37 37" fill="none" xmlns="http://www.w3.org/2000/svg">
<path d="M6.73782 26.8667C5.54124 27.2386 4.37688 27.9339 3.37435 28.9203C2.37181 29.9228 1.69265 31.087 1.32074 32.2836C0.948829 33.4802 0.900374 34.709 1.17526 35.8247C2.29099 36.0996 3.52 36.0511 4.71658 35.6792C5.91315 35.3073 7.07731 34.612 8.07985 33.6256C9.08238 32.6231 9.76155 31.4589 10.1335 30.2623" stroke="#9D9D9D" stroke-width="1.2" stroke-miterlimit="10" stroke-linecap="round" stroke-linejoin="round"/>
<path d="M6.88339 16.3886L2.30737 20.9646H6.88339C10.9905 22.5008 14.1276 25.4276 16.0356 30.1169V34.6929L20.6116 30.1169L18.3316 23.2608C23.8617 22.8728 28.5995 20.8998 32.0599 16.4046C35.3262 11.877 36.3772 6.89679 35.4879 1.54455C29.8122 0.234787 24.8158 1.25348 20.6278 4.97257C16.5692 9.22525 14.2731 13.8013 13.7718 18.7008L6.88339 16.3886Z" stroke="#9D9D9D" stroke-width="1.2" stroke-miterlimit="10" stroke-linecap="round" stroke-linejoin="round"/>
<path d="M27.4676 12.7664C29.2537 12.7664 30.7016 11.3185 30.7016 9.53245C30.7016 7.74637 29.2537 6.29846 27.4676 6.29846C25.6815 6.29846 24.2336 7.74637 24.2336 9.53245C24.2336 11.3185 25.6815 12.7664 27.4676 12.7664Z" stroke="#9D9D9D" stroke-width="1.2" stroke-miterlimit="10" stroke-linecap="round" stroke-linejoin="round"/>
</svg>
