<svg width="37" height="37" viewBox="0 0 37 37" fill="none" xmlns="http://www.w3.org/2000/svg">
<path d="M13.1738 23.8261C14.8547 23.8261 16.2173 22.4635 16.2173 20.7826C16.2173 19.1017 14.8547 17.7391 13.1738 17.7391C11.493 17.7391 10.1304 19.1017 10.1304 20.7826C10.1304 22.4635 11.493 23.8261 13.1738 23.8261Z" stroke="#9D9D9D" stroke-width="1.2" stroke-miterlimit="10" stroke-linecap="round" stroke-linejoin="round"/>
<path d="M25.3479 29.913C27.0288 29.913 28.3914 28.5504 28.3914 26.8695C28.3914 25.1887 27.0288 23.826 25.3479 23.826C23.6671 23.826 22.3044 25.1887 22.3044 26.8695C22.3044 28.5504 23.6671 29.913 25.3479 29.913Z" stroke="#9D9D9D" stroke-width="1.2" stroke-miterlimit="10" stroke-linecap="round" stroke-linejoin="round"/>
<path d="M34.4781 13.174L26.8086 24.1913" stroke="#9D9D9D" stroke-width="1.2" stroke-miterlimit="10" stroke-linecap="round" stroke-linejoin="round"/>
<path d="M22.6241 25.5152L15.8979 22.137" stroke="#9D9D9D" stroke-width="1.2" stroke-miterlimit="10" stroke-linecap="round" stroke-linejoin="round"/>
<path d="M11.2717 23.1566L1 36.0001" stroke="#9D9D9D" stroke-width="1.2" stroke-miterlimit="10" stroke-linecap="round" stroke-linejoin="round"/>
<path d="M1 1V36" stroke="#9D9D9D" stroke-width="1.2" stroke-miterlimit="10" stroke-linecap="round" stroke-linejoin="round"/>
<path d="M36 36H1" stroke="#9D9D9D" stroke-width="1.2" stroke-miterlimit="10" stroke-linecap="round" stroke-linejoin="round"/>
<path d="M28.3914 14.6957L34.4783 13.174L36.0001 19.2609" stroke="#9D9D9D" stroke-width="1.2" stroke-miterlimit="10" stroke-linecap="round" stroke-linejoin="round"/>
</svg>
