<svg width="36" height="30" viewBox="0 0 36 30" fill="none" xmlns="http://www.w3.org/2000/svg">
<path d="M27.3907 8.20634C27.3907 10.7411 25.416 12.7895 22.9696 12.7895C20.5233 12.7895 18.5486 10.7411 18.5486 8.20634V5.58314C18.5486 3.0484 20.5233 1 22.9696 1C25.416 1 27.3907 3.0484 27.3907 5.58314V8.20634Z" stroke="white" stroke-miterlimit="10" stroke-linecap="round" stroke-linejoin="round"/>
<path d="M11.1801 9.10524C13.2148 9.10524 14.8643 7.45576 14.8643 5.42103C14.8643 3.38629 13.2148 1.73682 11.1801 1.73682C9.14533 1.73682 7.49585 3.38629 7.49585 5.42103C7.49585 7.45576 9.14533 9.10524 11.1801 9.10524Z" stroke="white" stroke-miterlimit="10" stroke-linecap="round" stroke-linejoin="round"/>
<path d="M14.8938 17.4168C13.4348 16.3558 11.6517 15.7368 9.70639 15.7368C5.40324 15.7368 1.82219 18.8168 1.0264 22.8841C0.849554 23.7684 1.58639 24.5789 2.48534 24.5789H9.70639" stroke="white" stroke-miterlimit="10" stroke-linecap="round" stroke-linejoin="round"/>
<path d="M22.9696 17.2106C17.0307 17.2106 12.1085 21.6021 11.298 27.32C11.1654 28.2042 11.8728 29 12.7717 29H33.1675C34.0664 29 34.7591 28.2042 34.6412 27.32C33.8307 21.6021 28.9085 17.2106 22.9696 17.2106Z" stroke="white" stroke-miterlimit="10" stroke-linecap="round" stroke-linejoin="round"/>
</svg>
