<svg width="48" height="36" viewBox="0 0 48 36" fill="none" xmlns="http://www.w3.org/2000/svg">
<path d="M31 17L19 9V27L31 17Z" stroke="#103EB4" stroke-width="1.3" stroke-miterlimit="10" stroke-linecap="round" stroke-linejoin="round"/>
<path d="M45 35H3C1.9 35 1 34.1 1 33V3C1 1.9 1.9 1 3 1H45C46.1 1 47 1.9 47 3V33C47 34.1 46.1 35 45 35Z" stroke="#103EB4" stroke-width="1.3" stroke-miterlimit="10" stroke-linecap="round" stroke-linejoin="round"/>
<path d="M9 7H7V9H9V7Z" stroke="#103EB4" stroke-width="1.3" stroke-miterlimit="10" stroke-linecap="round" stroke-linejoin="round"/>
<path d="M9 17H7V19H9V17Z" stroke="#103EB4" stroke-width="1.3" stroke-miterlimit="10" stroke-linecap="round" stroke-linejoin="round"/>
<path d="M9 27H7V29H9V27Z" stroke="#103EB4" stroke-width="1.3" stroke-miterlimit="10" stroke-linecap="round" stroke-linejoin="round"/>
<path d="M40.9998 7H38.9998V9H40.9998V7Z" stroke="#103EB4" stroke-width="1.3" stroke-miterlimit="10" stroke-linecap="round" stroke-linejoin="round"/>
<path d="M40.9998 17H38.9998V19H40.9998V17Z" stroke="#103EB4" stroke-width="1.3" stroke-miterlimit="10" stroke-linecap="round" stroke-linejoin="round"/>
<path d="M40.9998 27H38.9998V29H40.9998V27Z" stroke="#103EB4" stroke-width="1.3" stroke-miterlimit="10" stroke-linecap="round" stroke-linejoin="round"/>
</svg>
